#N canvas 279 78 1308 972 10;
#N canvas 1 82 844 677 monomode 0;
#N canvas 415 379 628 478 reaonbp 0;
#X obj 23 233 *;
#X obj -85 483 *~;
#X obj -142 87 log;
#X obj -147 142 *;
#X obj -150 116 t f f;
#X obj 85 157 pow -1;
#X obj 86 135 * -1;
#X obj 63 104 t f f;
#X obj 47 190 +;
#X obj 20 149 clip 0 16;
#X obj -211 198 *;
#X obj -165 257 *;
#X obj -139 229 float;
#X obj -214 173 t f f b;
#X obj -372 170 inlet~;
#X obj 92 54 inlet;
#X obj -67 518 outlet~;
#X obj -249 62 inlet;
#X text -246 45 level (0..1);
#X obj -107 37 inlet;
#X text 90 39 ratio;
#X text -121 19 res/decay (1..10000);
#X obj -320 98 inlet;
#X text -322 79 freq;
#X obj -63 433 vcf~ 1;
#X connect 0 0 24 1;
#X connect 1 0 16 0;
#X connect 2 0 4 0;
#X connect 3 0 12 0;
#X connect 4 0 3 0;
#X connect 4 1 3 1;
#X connect 5 0 8 1;
#X connect 6 0 5 0;
#X connect 7 0 9 0;
#X connect 7 1 6 0;
#X connect 8 0 0 1;
#X connect 9 0 8 0;
#X connect 10 0 11 0;
#X connect 11 0 1 1;
#X connect 12 0 11 1;
#X connect 13 0 10 0;
#X connect 13 1 10 1;
#X connect 13 2 12 0;
#X connect 14 0 24 0;
#X connect 15 0 7 0;
#X connect 17 0 13 0;
#X connect 19 0 2 0;
#X connect 19 0 24 2;
#X connect 22 0 0 0;
#X connect 24 0 1 0;
#X restore 151 393 pd reaonbp;
#X obj 204 589 outlet~;
#X obj 205 100 inlet;
#X obj 262 102 inlet;
#X text 204 81 pitch;
#X text 262 81 params;
#X obj 184 137 mtof;
#X obj 258 323 unpack f f f f f f f f f f f f f f f;
#N canvas 419 377 628 478 reaonbp 0;
#X obj 23 233 *;
#X obj -85 483 *~;
#X obj -142 87 log;
#X obj -147 142 *;
#X obj -150 116 t f f;
#X obj 85 157 pow -1;
#X obj 86 135 * -1;
#X obj 63 104 t f f;
#X obj 47 190 +;
#X obj 20 149 clip 0 16;
#X obj -211 198 *;
#X obj -165 257 *;
#X obj -139 229 float;
#X obj -214 173 t f f b;
#X obj -372 170 inlet~;
#X obj 92 54 inlet;
#X obj -67 518 outlet~;
#X obj -249 62 inlet;
#X text -246 45 level (0..1);
#X obj -107 37 inlet;
#X text 90 39 ratio;
#X text -121 19 res/decay (1..10000);
#X obj -320 98 inlet;
#X text -322 79 freq;
#X obj -63 433 vcf~ 1;
#X connect 0 0 24 1;
#X connect 1 0 16 0;
#X connect 2 0 4 0;
#X connect 3 0 12 0;
#X connect 4 0 3 0;
#X connect 4 1 3 1;
#X connect 5 0 8 1;
#X connect 6 0 5 0;
#X connect 7 0 9 0;
#X connect 7 1 6 0;
#X connect 8 0 0 1;
#X connect 9 0 8 0;
#X connect 10 0 11 0;
#X connect 11 0 1 1;
#X connect 12 0 11 1;
#X connect 13 0 10 0;
#X connect 13 1 10 1;
#X connect 13 2 12 0;
#X connect 14 0 24 0;
#X connect 15 0 7 0;
#X connect 17 0 13 0;
#X connect 19 0 2 0;
#X connect 19 0 24 2;
#X connect 22 0 0 0;
#X connect 24 0 1 0;
#X restore 184 428 pd reaonbp;
#N canvas 417 378 628 478 reaonbp 0;
#X obj 23 233 *;
#X obj -85 483 *~;
#X obj -142 87 log;
#X obj -147 142 *;
#X obj -150 116 t f f;
#X obj 85 157 pow -1;
#X obj 86 135 * -1;
#X obj 63 104 t f f;
#X obj 47 190 +;
#X obj 20 149 clip 0 16;
#X obj -211 198 *;
#X obj -165 257 *;
#X obj -139 229 float;
#X obj -214 173 t f f b;
#X obj -372 170 inlet~;
#X obj 92 54 inlet;
#X obj -67 518 outlet~;
#X obj -249 62 inlet;
#X text -246 45 level (0..1);
#X obj -107 37 inlet;
#X text 90 39 ratio;
#X text -121 19 res/decay (1..10000);
#X obj -320 98 inlet;
#X text -322 79 freq;
#X obj -63 433 vcf~ 1;
#X connect 0 0 24 1;
#X connect 1 0 16 0;
#X connect 2 0 4 0;
#X connect 3 0 12 0;
#X connect 4 0 3 0;
#X connect 4 1 3 1;
#X connect 5 0 8 1;
#X connect 6 0 5 0;
#X connect 7 0 9 0;
#X connect 7 1 6 0;
#X connect 8 0 0 1;
#X connect 9 0 8 0;
#X connect 10 0 11 0;
#X connect 11 0 1 1;
#X connect 12 0 11 1;
#X connect 13 0 10 0;
#X connect 13 1 10 1;
#X connect 13 2 12 0;
#X connect 14 0 24 0;
#X connect 15 0 7 0;
#X connect 17 0 13 0;
#X connect 19 0 2 0;
#X connect 19 0 24 2;
#X connect 22 0 0 0;
#X connect 24 0 1 0;
#X restore 218 464 pd reaonbp;
#N canvas 419 377 628 478 reaonbp 0;
#X obj 23 233 *;
#X obj -85 483 *~;
#X obj -142 87 log;
#X obj -147 142 *;
#X obj -150 116 t f f;
#X obj 85 157 pow -1;
#X obj 86 135 * -1;
#X obj 63 104 t f f;
#X obj 47 190 +;
#X obj 20 149 clip 0 16;
#X obj -211 198 *;
#X obj -165 257 *;
#X obj -139 229 float;
#X obj -214 173 t f f b;
#X obj -372 170 inlet~;
#X obj 92 54 inlet;
#X obj -67 518 outlet~;
#X obj -249 62 inlet;
#X text -246 45 level (0..1);
#X obj -107 37 inlet;
#X text 90 39 ratio;
#X text -121 19 res/decay (1..10000);
#X obj -320 98 inlet;
#X text -322 79 freq;
#X obj -63 433 vcf~ 1;
#X connect 0 0 24 1;
#X connect 1 0 16 0;
#X connect 2 0 4 0;
#X connect 3 0 12 0;
#X connect 4 0 3 0;
#X connect 4 1 3 1;
#X connect 5 0 8 1;
#X connect 6 0 5 0;
#X connect 7 0 9 0;
#X connect 7 1 6 0;
#X connect 8 0 0 1;
#X connect 9 0 8 0;
#X connect 10 0 11 0;
#X connect 11 0 1 1;
#X connect 12 0 11 1;
#X connect 13 0 10 0;
#X connect 13 1 10 1;
#X connect 13 2 12 0;
#X connect 14 0 24 0;
#X connect 15 0 7 0;
#X connect 17 0 13 0;
#X connect 19 0 2 0;
#X connect 19 0 24 2;
#X connect 22 0 0 0;
#X connect 24 0 1 0;
#X restore 251 499 pd reaonbp;
#N canvas 419 377 628 478 reaonbp 0;
#X obj 23 233 *;
#X obj -85 483 *~;
#X obj -142 87 log;
#X obj -147 142 *;
#X obj -150 116 t f f;
#X obj 85 157 pow -1;
#X obj 86 135 * -1;
#X obj 63 104 t f f;
#X obj 47 190 +;
#X obj 20 149 clip 0 16;
#X obj -211 198 *;
#X obj -165 257 *;
#X obj -139 229 float;
#X obj -214 173 t f f b;
#X obj -372 170 inlet~;
#X obj 92 54 inlet;
#X obj -67 518 outlet~;
#X obj -249 62 inlet;
#X text -246 45 level (0..1);
#X obj -107 37 inlet;
#X text 90 39 ratio;
#X text -121 19 res/decay (1..10000);
#X obj -320 98 inlet;
#X text -322 79 freq;
#X obj -63 433 vcf~ 1;
#X connect 0 0 24 1;
#X connect 1 0 16 0;
#X connect 2 0 4 0;
#X connect 3 0 12 0;
#X connect 4 0 3 0;
#X connect 4 1 3 1;
#X connect 5 0 8 1;
#X connect 6 0 5 0;
#X connect 7 0 9 0;
#X connect 7 1 6 0;
#X connect 8 0 0 1;
#X connect 9 0 8 0;
#X connect 10 0 11 0;
#X connect 11 0 1 1;
#X connect 12 0 11 1;
#X connect 13 0 10 0;
#X connect 13 1 10 1;
#X connect 13 2 12 0;
#X connect 14 0 24 0;
#X connect 15 0 7 0;
#X connect 17 0 13 0;
#X connect 19 0 2 0;
#X connect 19 0 24 2;
#X connect 22 0 0 0;
#X connect 24 0 1 0;
#X restore 280 531 pd reaonbp;
#X obj 13 54 noise~;
#X obj 112 90 line~;
#X msg 72 38 0 10;
#X obj 114 42 float;
#X obj 90 -5 t b b f;
#X obj 99 121 *~;
#X obj 77 -42 inlet;
#X text 72 -59 trig 0..1;
#X connect 0 0 1 0;
#X connect 2 0 6 0;
#X connect 3 0 7 0;
#X connect 6 0 0 1;
#X connect 6 0 8 1;
#X connect 6 0 9 1;
#X connect 6 0 10 1;
#X connect 6 0 11 1;
#X connect 7 0 0 2;
#X connect 7 1 0 3;
#X connect 7 2 0 4;
#X connect 7 3 8 2;
#X connect 7 4 8 3;
#X connect 7 5 8 4;
#X connect 7 6 9 2;
#X connect 7 7 9 3;
#X connect 7 8 9 4;
#X connect 7 9 10 2;
#X connect 7 10 10 3;
#X connect 7 11 10 4;
#X connect 7 12 11 2;
#X connect 7 13 11 3;
#X connect 7 14 11 4;
#X connect 8 0 1 0;
#X connect 9 0 1 0;
#X connect 10 0 1 0;
#X connect 11 0 1 0;
#X connect 12 0 17 0;
#X connect 13 0 17 1;
#X connect 14 0 13 0;
#X connect 15 0 13 0;
#X connect 16 0 14 0;
#X connect 16 1 15 0;
#X connect 16 2 15 1;
#X connect 17 0 0 0;
#X connect 17 0 8 0;
#X connect 17 0 9 0;
#X connect 17 0 10 0;
#X connect 17 0 11 0;
#X connect 18 0 16 0;
#X restore 795 1138 pd monomode;
#X obj 458 702 hsl 128 15 10 10000 1 0 \$0-dec1 \$0-dec1 empty -2 -8
0 10 -262144 -1 -1 0 1;
#X obj 459 685 nbx 5 14 -16 16 0 0 \$0-rat1 \$0-rat1 empty 0 -8 0 10
-262144 -1 -1 0 256;
#X obj 519 684 hsl 64 15 0 1 0 0 \$0-lev1 \$0-lev1 empty -2 -8 0 10
-262144 -1 -1 0 1;
#X obj 458 742 hsl 128 15 10 10000 1 0 \$0-dec2 \$0-dec2 empty -2 -8
0 10 -262144 -1 -1 0 1;
#X obj 459 725 nbx 5 14 -16 16 0 0 \$0-rat2 \$0-rat2 empty 0 -8 0 10
-262144 -1 -1 0 256;
#X obj 519 724 hsl 64 15 0 1 0 0 \$0-lev2 \$0-lev2 empty -2 -8 0 10
-262144 -1 -1 0 1;
#X obj 597 658 hsl 128 15 10 10000 1 0 \$0-dec3 \$0-dec3 empty -2 -8
0 10 -262144 -1 -1 0 1;
#X obj 598 641 nbx 5 14 -16 16 0 0 \$0-rat3 \$0-rat3 empty 0 -8 0 10
-262144 -1 -1 0 256;
#X obj 658 640 hsl 64 15 0 1 0 0 \$0-lev3 \$0-lev3 empty -2 -8 0 10
-262144 -1 -1 0 1;
#X obj 597 698 hsl 128 15 10 10000 1 0 \$0-dec4 \$0-dec4 empty -2 -8
0 10 -262144 -1 -1 0 1;
#X obj 598 681 nbx 5 14 -16 16 0 0 \$0-rat4 \$0-rat4 empty 0 -8 0 10
-262144 -1 -1 0 256;
#X obj 658 680 hsl 64 15 0 1 0 0 \$0-lev4 \$0-lev4 empty -2 -8 0 10
-262144 -1 -1 0 1;
#X obj 597 737 hsl 128 15 10 10000 1 0 \$0-dec5 \$0-dec5 empty -2 -8
0 10 -262144 -1 -1 0 1;
#X obj 598 720 nbx 5 14 -16 16 0 0 \$0-rat5 \$0-rat5 empty 0 -8 0 10
-262144 -1 -1 0 256;
#X obj 658 719 hsl 64 15 0 1 0 0 \$0-lev5 \$0-lev5 empty -2 -8 0 10
-262144 -1 -1 0 1;
#X obj 607 606 bng 10 250 50 0 empty empty rnd_r 14 7 0 10 -260097
-1 -1;
#X obj 55 945 pack f f f f f f f f f f f f f f f;
#X obj 684 606 bng 10 250 50 0 \$0-rnd_l \$0-rnd_l rnd_l 14 7 0 10
-260097 -1 -1;
#X obj 456 616 nbx 3 14 0 127 0 0 \$0-note1 \$0-note1 empty 0 -8 0
10 -262144 -1 -1 0 256;
#X obj 872 1184 *~ 0.5;
#N canvas 1 84 844 677 monomode 0;
#N canvas 415 379 628 478 reaonbp 0;
#X obj 23 233 *;
#X obj -85 483 *~;
#X obj -142 87 log;
#X obj -147 142 *;
#X obj -150 116 t f f;
#X obj 85 157 pow -1;
#X obj 86 135 * -1;
#X obj 63 104 t f f;
#X obj 47 190 +;
#X obj 20 149 clip 0 16;
#X obj -211 198 *;
#X obj -165 257 *;
#X obj -139 229 float;
#X obj -214 173 t f f b;
#X obj -372 170 inlet~;
#X obj 92 54 inlet;
#X obj -67 518 outlet~;
#X obj -249 62 inlet;
#X text -246 45 level (0..1);
#X obj -107 37 inlet;
#X text 90 39 ratio;
#X text -121 19 res/decay (1..10000);
#X obj -320 98 inlet;
#X text -322 79 freq;
#X obj -63 433 vcf~ 1;
#X connect 0 0 24 1;
#X connect 1 0 16 0;
#X connect 2 0 4 0;
#X connect 3 0 12 0;
#X connect 4 0 3 0;
#X connect 4 1 3 1;
#X connect 5 0 8 1;
#X connect 6 0 5 0;
#X connect 7 0 9 0;
#X connect 7 1 6 0;
#X connect 8 0 0 1;
#X connect 9 0 8 0;
#X connect 10 0 11 0;
#X connect 11 0 1 1;
#X connect 12 0 11 1;
#X connect 13 0 10 0;
#X connect 13 1 10 1;
#X connect 13 2 12 0;
#X connect 14 0 24 0;
#X connect 15 0 7 0;
#X connect 17 0 13 0;
#X connect 19 0 2 0;
#X connect 19 0 24 2;
#X connect 22 0 0 0;
#X connect 24 0 1 0;
#X restore 151 393 pd reaonbp;
#X obj 204 589 outlet~;
#X obj 205 100 inlet;
#X obj 262 102 inlet;
#X text 204 81 pitch;
#X text 262 81 params;
#X obj 184 137 mtof;
#X obj 258 323 unpack f f f f f f f f f f f f f f f;
#N canvas 419 377 628 478 reaonbp 0;
#X obj 23 233 *;
#X obj -85 483 *~;
#X obj -142 87 log;
#X obj -147 142 *;
#X obj -150 116 t f f;
#X obj 85 157 pow -1;
#X obj 86 135 * -1;
#X obj 63 104 t f f;
#X obj 47 190 +;
#X obj 20 149 clip 0 16;
#X obj -211 198 *;
#X obj -165 257 *;
#X obj -139 229 float;
#X obj -214 173 t f f b;
#X obj -372 170 inlet~;
#X obj 92 54 inlet;
#X obj -67 518 outlet~;
#X obj -249 62 inlet;
#X text -246 45 level (0..1);
#X obj -107 37 inlet;
#X text 90 39 ratio;
#X text -121 19 res/decay (1..10000);
#X obj -320 98 inlet;
#X text -322 79 freq;
#X obj -63 433 vcf~ 1;
#X connect 0 0 24 1;
#X connect 1 0 16 0;
#X connect 2 0 4 0;
#X connect 3 0 12 0;
#X connect 4 0 3 0;
#X connect 4 1 3 1;
#X connect 5 0 8 1;
#X connect 6 0 5 0;
#X connect 7 0 9 0;
#X connect 7 1 6 0;
#X connect 8 0 0 1;
#X connect 9 0 8 0;
#X connect 10 0 11 0;
#X connect 11 0 1 1;
#X connect 12 0 11 1;
#X connect 13 0 10 0;
#X connect 13 1 10 1;
#X connect 13 2 12 0;
#X connect 14 0 24 0;
#X connect 15 0 7 0;
#X connect 17 0 13 0;
#X connect 19 0 2 0;
#X connect 19 0 24 2;
#X connect 22 0 0 0;
#X connect 24 0 1 0;
#X restore 184 428 pd reaonbp;
#N canvas 417 378 628 478 reaonbp 0;
#X obj 23 233 *;
#X obj -85 483 *~;
#X obj -142 87 log;
#X obj -147 142 *;
#X obj -150 116 t f f;
#X obj 85 157 pow -1;
#X obj 86 135 * -1;
#X obj 63 104 t f f;
#X obj 47 190 +;
#X obj 20 149 clip 0 16;
#X obj -211 198 *;
#X obj -165 257 *;
#X obj -139 229 float;
#X obj -214 173 t f f b;
#X obj -372 170 inlet~;
#X obj 92 54 inlet;
#X obj -67 518 outlet~;
#X obj -249 62 inlet;
#X text -246 45 level (0..1);
#X obj -107 37 inlet;
#X text 90 39 ratio;
#X text -121 19 res/decay (1..10000);
#X obj -320 98 inlet;
#X text -322 79 freq;
#X obj -63 433 vcf~ 1;
#X connect 0 0 24 1;
#X connect 1 0 16 0;
#X connect 2 0 4 0;
#X connect 3 0 12 0;
#X connect 4 0 3 0;
#X connect 4 1 3 1;
#X connect 5 0 8 1;
#X connect 6 0 5 0;
#X connect 7 0 9 0;
#X connect 7 1 6 0;
#X connect 8 0 0 1;
#X connect 9 0 8 0;
#X connect 10 0 11 0;
#X connect 11 0 1 1;
#X connect 12 0 11 1;
#X connect 13 0 10 0;
#X connect 13 1 10 1;
#X connect 13 2 12 0;
#X connect 14 0 24 0;
#X connect 15 0 7 0;
#X connect 17 0 13 0;
#X connect 19 0 2 0;
#X connect 19 0 24 2;
#X connect 22 0 0 0;
#X connect 24 0 1 0;
#X restore 218 464 pd reaonbp;
#N canvas 419 377 628 478 reaonbp 0;
#X obj 23 233 *;
#X obj -85 483 *~;
#X obj -142 87 log;
#X obj -147 142 *;
#X obj -150 116 t f f;
#X obj 85 157 pow -1;
#X obj 86 135 * -1;
#X obj 63 104 t f f;
#X obj 47 190 +;
#X obj 20 149 clip 0 16;
#X obj -211 198 *;
#X obj -165 257 *;
#X obj -139 229 float;
#X obj -214 173 t f f b;
#X obj -372 170 inlet~;
#X obj 92 54 inlet;
#X obj -67 518 outlet~;
#X obj -249 62 inlet;
#X text -246 45 level (0..1);
#X obj -107 37 inlet;
#X text 90 39 ratio;
#X text -121 19 res/decay (1..10000);
#X obj -320 98 inlet;
#X text -322 79 freq;
#X obj -63 433 vcf~ 1;
#X connect 0 0 24 1;
#X connect 1 0 16 0;
#X connect 2 0 4 0;
#X connect 3 0 12 0;
#X connect 4 0 3 0;
#X connect 4 1 3 1;
#X connect 5 0 8 1;
#X connect 6 0 5 0;
#X connect 7 0 9 0;
#X connect 7 1 6 0;
#X connect 8 0 0 1;
#X connect 9 0 8 0;
#X connect 10 0 11 0;
#X connect 11 0 1 1;
#X connect 12 0 11 1;
#X connect 13 0 10 0;
#X connect 13 1 10 1;
#X connect 13 2 12 0;
#X connect 14 0 24 0;
#X connect 15 0 7 0;
#X connect 17 0 13 0;
#X connect 19 0 2 0;
#X connect 19 0 24 2;
#X connect 22 0 0 0;
#X connect 24 0 1 0;
#X restore 251 499 pd reaonbp;
#N canvas 419 377 628 478 reaonbp 0;
#X obj 23 233 *;
#X obj -85 483 *~;
#X obj -142 87 log;
#X obj -147 142 *;
#X obj -150 116 t f f;
#X obj 85 157 pow -1;
#X obj 86 135 * -1;
#X obj 63 104 t f f;
#X obj 47 190 +;
#X obj 20 149 clip 0 16;
#X obj -211 198 *;
#X obj -165 257 *;
#X obj -139 229 float;
#X obj -214 173 t f f b;
#X obj -372 170 inlet~;
#X obj 92 54 inlet;
#X obj -67 518 outlet~;
#X obj -249 62 inlet;
#X text -246 45 level (0..1);
#X obj -107 37 inlet;
#X text 90 39 ratio;
#X text -121 19 res/decay (1..10000);
#X obj -320 98 inlet;
#X text -322 79 freq;
#X obj -63 433 vcf~ 1;
#X connect 0 0 24 1;
#X connect 1 0 16 0;
#X connect 2 0 4 0;
#X connect 3 0 12 0;
#X connect 4 0 3 0;
#X connect 4 1 3 1;
#X connect 5 0 8 1;
#X connect 6 0 5 0;
#X connect 7 0 9 0;
#X connect 7 1 6 0;
#X connect 8 0 0 1;
#X connect 9 0 8 0;
#X connect 10 0 11 0;
#X connect 11 0 1 1;
#X connect 12 0 11 1;
#X connect 13 0 10 0;
#X connect 13 1 10 1;
#X connect 13 2 12 0;
#X connect 14 0 24 0;
#X connect 15 0 7 0;
#X connect 17 0 13 0;
#X connect 19 0 2 0;
#X connect 19 0 24 2;
#X connect 22 0 0 0;
#X connect 24 0 1 0;
#X restore 280 531 pd reaonbp;
#X obj 13 54 noise~;
#X obj 112 90 line~;
#X msg 72 38 0 10;
#X obj 114 42 float;
#X obj 90 -5 t b b f;
#X obj 99 121 *~;
#X obj 77 -42 inlet;
#X text 72 -59 trig 0..1;
#X connect 0 0 1 0;
#X connect 2 0 6 0;
#X connect 3 0 7 0;
#X connect 6 0 0 1;
#X connect 6 0 8 1;
#X connect 6 0 9 1;
#X connect 6 0 10 1;
#X connect 6 0 11 1;
#X connect 7 0 0 2;
#X connect 7 1 0 3;
#X connect 7 2 0 4;
#X connect 7 3 8 2;
#X connect 7 4 8 3;
#X connect 7 5 8 4;
#X connect 7 6 9 2;
#X connect 7 7 9 3;
#X connect 7 8 9 4;
#X connect 7 9 10 2;
#X connect 7 10 10 3;
#X connect 7 11 10 4;
#X connect 7 12 11 2;
#X connect 7 13 11 3;
#X connect 7 14 11 4;
#X connect 8 0 1 0;
#X connect 9 0 1 0;
#X connect 10 0 1 0;
#X connect 11 0 1 0;
#X connect 12 0 17 0;
#X connect 13 0 17 1;
#X connect 14 0 13 0;
#X connect 15 0 13 0;
#X connect 16 0 14 0;
#X connect 16 1 15 0;
#X connect 16 2 15 1;
#X connect 17 0 0 0;
#X connect 17 0 8 0;
#X connect 17 0 9 0;
#X connect 17 0 10 0;
#X connect 17 0 11 0;
#X connect 18 0 16 0;
#X restore 711 1134 pd monomode;
#X obj 456 636 nbx 3 14 0 127 0 0 \$0-note2 \$0-note2 empty 0 -8 0
10 -262144 -1 -1 0 256;
#N canvas 1 82 844 677 monomode 0;
#N canvas 415 379 628 478 reaonbp 0;
#X obj 23 233 *;
#X obj -85 483 *~;
#X obj -142 87 log;
#X obj -147 142 *;
#X obj -150 116 t f f;
#X obj 85 157 pow -1;
#X obj 86 135 * -1;
#X obj 63 104 t f f;
#X obj 47 190 +;
#X obj 20 149 clip 0 16;
#X obj -211 198 *;
#X obj -165 257 *;
#X obj -139 229 float;
#X obj -214 173 t f f b;
#X obj -372 170 inlet~;
#X obj 92 54 inlet;
#X obj -67 518 outlet~;
#X obj -249 62 inlet;
#X text -246 45 level (0..1);
#X obj -107 37 inlet;
#X text 90 39 ratio;
#X text -121 19 res/decay (1..10000);
#X obj -320 98 inlet;
#X text -322 79 freq;
#X obj -63 433 vcf~ 1;
#X connect 0 0 24 1;
#X connect 1 0 16 0;
#X connect 2 0 4 0;
#X connect 3 0 12 0;
#X connect 4 0 3 0;
#X connect 4 1 3 1;
#X connect 5 0 8 1;
#X connect 6 0 5 0;
#X connect 7 0 9 0;
#X connect 7 1 6 0;
#X connect 8 0 0 1;
#X connect 9 0 8 0;
#X connect 10 0 11 0;
#X connect 11 0 1 1;
#X connect 12 0 11 1;
#X connect 13 0 10 0;
#X connect 13 1 10 1;
#X connect 13 2 12 0;
#X connect 14 0 24 0;
#X connect 15 0 7 0;
#X connect 17 0 13 0;
#X connect 19 0 2 0;
#X connect 19 0 24 2;
#X connect 22 0 0 0;
#X connect 24 0 1 0;
#X restore 151 393 pd reaonbp;
#X obj 204 589 outlet~;
#X obj 205 100 inlet;
#X obj 262 102 inlet;
#X text 204 81 pitch;
#X text 262 81 params;
#X obj 184 137 mtof;
#X obj 258 323 unpack f f f f f f f f f f f f f f f;
#N canvas 419 377 628 478 reaonbp 0;
#X obj 23 233 *;
#X obj -85 483 *~;
#X obj -142 87 log;
#X obj -147 142 *;
#X obj -150 116 t f f;
#X obj 85 157 pow -1;
#X obj 86 135 * -1;
#X obj 63 104 t f f;
#X obj 47 190 +;
#X obj 20 149 clip 0 16;
#X obj -211 198 *;
#X obj -165 257 *;
#X obj -139 229 float;
#X obj -214 173 t f f b;
#X obj -372 170 inlet~;
#X obj 92 54 inlet;
#X obj -67 518 outlet~;
#X obj -249 62 inlet;
#X text -246 45 level (0..1);
#X obj -107 37 inlet;
#X text 90 39 ratio;
#X text -121 19 res/decay (1..10000);
#X obj -320 98 inlet;
#X text -322 79 freq;
#X obj -63 433 vcf~ 1;
#X connect 0 0 24 1;
#X connect 1 0 16 0;
#X connect 2 0 4 0;
#X connect 3 0 12 0;
#X connect 4 0 3 0;
#X connect 4 1 3 1;
#X connect 5 0 8 1;
#X connect 6 0 5 0;
#X connect 7 0 9 0;
#X connect 7 1 6 0;
#X connect 8 0 0 1;
#X connect 9 0 8 0;
#X connect 10 0 11 0;
#X connect 11 0 1 1;
#X connect 12 0 11 1;
#X connect 13 0 10 0;
#X connect 13 1 10 1;
#X connect 13 2 12 0;
#X connect 14 0 24 0;
#X connect 15 0 7 0;
#X connect 17 0 13 0;
#X connect 19 0 2 0;
#X connect 19 0 24 2;
#X connect 22 0 0 0;
#X connect 24 0 1 0;
#X restore 184 428 pd reaonbp;
#N canvas 417 378 628 478 reaonbp 0;
#X obj 23 233 *;
#X obj -85 483 *~;
#X obj -142 87 log;
#X obj -147 142 *;
#X obj -150 116 t f f;
#X obj 85 157 pow -1;
#X obj 86 135 * -1;
#X obj 63 104 t f f;
#X obj 47 190 +;
#X obj 20 149 clip 0 16;
#X obj -211 198 *;
#X obj -165 257 *;
#X obj -139 229 float;
#X obj -214 173 t f f b;
#X obj -372 170 inlet~;
#X obj 92 54 inlet;
#X obj -67 518 outlet~;
#X obj -249 62 inlet;
#X text -246 45 level (0..1);
#X obj -107 37 inlet;
#X text 90 39 ratio;
#X text -121 19 res/decay (1..10000);
#X obj -320 98 inlet;
#X text -322 79 freq;
#X obj -63 433 vcf~ 1;
#X connect 0 0 24 1;
#X connect 1 0 16 0;
#X connect 2 0 4 0;
#X connect 3 0 12 0;
#X connect 4 0 3 0;
#X connect 4 1 3 1;
#X connect 5 0 8 1;
#X connect 6 0 5 0;
#X connect 7 0 9 0;
#X connect 7 1 6 0;
#X connect 8 0 0 1;
#X connect 9 0 8 0;
#X connect 10 0 11 0;
#X connect 11 0 1 1;
#X connect 12 0 11 1;
#X connect 13 0 10 0;
#X connect 13 1 10 1;
#X connect 13 2 12 0;
#X connect 14 0 24 0;
#X connect 15 0 7 0;
#X connect 17 0 13 0;
#X connect 19 0 2 0;
#X connect 19 0 24 2;
#X connect 22 0 0 0;
#X connect 24 0 1 0;
#X restore 218 464 pd reaonbp;
#N canvas 419 377 628 478 reaonbp 0;
#X obj 23 233 *;
#X obj -85 483 *~;
#X obj -142 87 log;
#X obj -147 142 *;
#X obj -150 116 t f f;
#X obj 85 157 pow -1;
#X obj 86 135 * -1;
#X obj 63 104 t f f;
#X obj 47 190 +;
#X obj 20 149 clip 0 16;
#X obj -211 198 *;
#X obj -165 257 *;
#X obj -139 229 float;
#X obj -214 173 t f f b;
#X obj -372 170 inlet~;
#X obj 92 54 inlet;
#X obj -67 518 outlet~;
#X obj -249 62 inlet;
#X text -246 45 level (0..1);
#X obj -107 37 inlet;
#X text 90 39 ratio;
#X text -121 19 res/decay (1..10000);
#X obj -320 98 inlet;
#X text -322 79 freq;
#X obj -63 433 vcf~ 1;
#X connect 0 0 24 1;
#X connect 1 0 16 0;
#X connect 2 0 4 0;
#X connect 3 0 12 0;
#X connect 4 0 3 0;
#X connect 4 1 3 1;
#X connect 5 0 8 1;
#X connect 6 0 5 0;
#X connect 7 0 9 0;
#X connect 7 1 6 0;
#X connect 8 0 0 1;
#X connect 9 0 8 0;
#X connect 10 0 11 0;
#X connect 11 0 1 1;
#X connect 12 0 11 1;
#X connect 13 0 10 0;
#X connect 13 1 10 1;
#X connect 13 2 12 0;
#X connect 14 0 24 0;
#X connect 15 0 7 0;
#X connect 17 0 13 0;
#X connect 19 0 2 0;
#X connect 19 0 24 2;
#X connect 22 0 0 0;
#X connect 24 0 1 0;
#X restore 251 499 pd reaonbp;
#N canvas 419 377 628 478 reaonbp 0;
#X obj 423 233 *;
#X obj 315 483 *~;
#X obj 258 87 log;
#X obj 253 142 *;
#X obj 250 116 t f f;
#X obj 485 157 pow -1;
#X obj 486 135 * -1;
#X obj 463 104 t f f;
#X obj 447 190 +;
#X obj 420 149 clip 0 16;
#X obj 189 198 *;
#X obj 235 257 *;
#X obj 261 229 float;
#X obj 186 173 t f f b;
#X obj 28 170 inlet~;
#X obj 492 54 inlet;
#X obj 333 518 outlet~;
#X obj 151 62 inlet;
#X text 154 45 level (0..1);
#X obj 293 37 inlet;
#X text 490 39 ratio;
#X text 279 19 res/decay (1..10000);
#X obj 80 98 inlet;
#X text 78 79 freq;
#X obj 337 433 vcf~ 1;
#X connect 0 0 24 1;
#X connect 1 0 16 0;
#X connect 2 0 4 0;
#X connect 3 0 12 0;
#X connect 4 0 3 0;
#X connect 4 1 3 1;
#X connect 5 0 8 1;
#X connect 6 0 5 0;
#X connect 7 0 9 0;
#X connect 7 1 6 0;
#X connect 8 0 0 1;
#X connect 9 0 8 0;
#X connect 10 0 11 0;
#X connect 11 0 1 1;
#X connect 12 0 11 1;
#X connect 13 0 10 0;
#X connect 13 1 10 1;
#X connect 13 2 12 0;
#X connect 14 0 24 0;
#X connect 15 0 7 0;
#X connect 17 0 13 0;
#X connect 19 0 2 0;
#X connect 19 0 24 2;
#X connect 22 0 0 0;
#X connect 24 0 1 0;
#X restore 280 531 pd reaonbp;
#X obj 13 54 noise~;
#X obj 112 90 line~;
#X msg 72 38 0 10;
#X obj 114 42 float;
#X obj 90 -5 t b b f;
#X obj 99 121 *~;
#X obj 77 -42 inlet;
#X text 72 -59 trig 0..1;
#X connect 0 0 1 0;
#X connect 2 0 6 0;
#X connect 3 0 7 0;
#X connect 6 0 0 1;
#X connect 6 0 8 1;
#X connect 6 0 9 1;
#X connect 6 0 10 1;
#X connect 6 0 11 1;
#X connect 7 0 0 2;
#X connect 7 1 0 3;
#X connect 7 2 0 4;
#X connect 7 3 8 2;
#X connect 7 4 8 3;
#X connect 7 5 8 4;
#X connect 7 6 9 2;
#X connect 7 7 9 3;
#X connect 7 8 9 4;
#X connect 7 9 10 2;
#X connect 7 10 10 3;
#X connect 7 11 10 4;
#X connect 7 12 11 2;
#X connect 7 13 11 3;
#X connect 7 14 11 4;
#X connect 8 0 1 0;
#X connect 9 0 1 0;
#X connect 10 0 1 0;
#X connect 11 0 1 0;
#X connect 12 0 17 0;
#X connect 13 0 17 1;
#X connect 14 0 13 0;
#X connect 15 0 13 0;
#X connect 16 0 14 0;
#X connect 16 1 15 0;
#X connect 16 2 15 1;
#X connect 17 0 0 0;
#X connect 17 0 8 0;
#X connect 17 0 9 0;
#X connect 17 0 10 0;
#X connect 17 0 11 0;
#X connect 18 0 16 0;
#X restore 754 1087 pd monomode;
#X obj 456 656 nbx 3 14 0 127 0 0 \$0-note3 \$0-note3 empty 0 -8 0
10 -262144 -1 -1 0 256;
#N canvas 1 82 844 677 monomode 0;
#N canvas 415 379 628 478 reaonbp 0;
#X obj 23 233 *;
#X obj -85 483 *~;
#X obj -142 87 log;
#X obj -147 142 *;
#X obj -150 116 t f f;
#X obj 85 157 pow -1;
#X obj 86 135 * -1;
#X obj 63 104 t f f;
#X obj 47 190 +;
#X obj 20 149 clip 0 16;
#X obj -211 198 *;
#X obj -165 257 *;
#X obj -139 229 float;
#X obj -214 173 t f f b;
#X obj -372 170 inlet~;
#X obj 92 54 inlet;
#X obj -67 518 outlet~;
#X obj -249 62 inlet;
#X text -246 45 level (0..1);
#X obj -107 37 inlet;
#X text 90 39 ratio;
#X text -121 19 res/decay (1..10000);
#X obj -320 98 inlet;
#X text -322 79 freq;
#X obj -63 433 vcf~ 1;
#X connect 0 0 24 1;
#X connect 1 0 16 0;
#X connect 2 0 4 0;
#X connect 3 0 12 0;
#X connect 4 0 3 0;
#X connect 4 1 3 1;
#X connect 5 0 8 1;
#X connect 6 0 5 0;
#X connect 7 0 9 0;
#X connect 7 1 6 0;
#X connect 8 0 0 1;
#X connect 9 0 8 0;
#X connect 10 0 11 0;
#X connect 11 0 1 1;
#X connect 12 0 11 1;
#X connect 13 0 10 0;
#X connect 13 1 10 1;
#X connect 13 2 12 0;
#X connect 14 0 24 0;
#X connect 15 0 7 0;
#X connect 17 0 13 0;
#X connect 19 0 2 0;
#X connect 19 0 24 2;
#X connect 22 0 0 0;
#X connect 24 0 1 0;
#X restore 151 393 pd reaonbp;
#X obj 204 589 outlet~;
#X obj 205 100 inlet;
#X obj 262 102 inlet;
#X text 204 81 pitch;
#X text 262 81 params;
#X obj 184 137 mtof;
#X obj 258 323 unpack f f f f f f f f f f f f f f f;
#N canvas 419 377 628 478 reaonbp 0;
#X obj 23 233 *;
#X obj -85 483 *~;
#X obj -142 87 log;
#X obj -147 142 *;
#X obj -150 116 t f f;
#X obj 85 157 pow -1;
#X obj 86 135 * -1;
#X obj 63 104 t f f;
#X obj 47 190 +;
#X obj 20 149 clip 0 16;
#X obj -211 198 *;
#X obj -165 257 *;
#X obj -139 229 float;
#X obj -214 173 t f f b;
#X obj -372 170 inlet~;
#X obj 92 54 inlet;
#X obj -67 518 outlet~;
#X obj -249 62 inlet;
#X text -246 45 level (0..1);
#X obj -107 37 inlet;
#X text 90 39 ratio;
#X text -121 19 res/decay (1..10000);
#X obj -320 98 inlet;
#X text -322 79 freq;
#X obj -63 433 vcf~ 1;
#X connect 0 0 24 1;
#X connect 1 0 16 0;
#X connect 2 0 4 0;
#X connect 3 0 12 0;
#X connect 4 0 3 0;
#X connect 4 1 3 1;
#X connect 5 0 8 1;
#X connect 6 0 5 0;
#X connect 7 0 9 0;
#X connect 7 1 6 0;
#X connect 8 0 0 1;
#X connect 9 0 8 0;
#X connect 10 0 11 0;
#X connect 11 0 1 1;
#X connect 12 0 11 1;
#X connect 13 0 10 0;
#X connect 13 1 10 1;
#X connect 13 2 12 0;
#X connect 14 0 24 0;
#X connect 15 0 7 0;
#X connect 17 0 13 0;
#X connect 19 0 2 0;
#X connect 19 0 24 2;
#X connect 22 0 0 0;
#X connect 24 0 1 0;
#X restore 184 428 pd reaonbp;
#N canvas 417 378 628 478 reaonbp 0;
#X obj 23 233 *;
#X obj -85 483 *~;
#X obj -142 87 log;
#X obj -147 142 *;
#X obj -150 116 t f f;
#X obj 85 157 pow -1;
#X obj 86 135 * -1;
#X obj 63 104 t f f;
#X obj 47 190 +;
#X obj 20 149 clip 0 16;
#X obj -211 198 *;
#X obj -165 257 *;
#X obj -139 229 float;
#X obj -214 173 t f f b;
#X obj -372 170 inlet~;
#X obj 92 54 inlet;
#X obj -67 518 outlet~;
#X obj -249 62 inlet;
#X text -246 45 level (0..1);
#X obj -107 37 inlet;
#X text 90 39 ratio;
#X text -121 19 res/decay (1..10000);
#X obj -320 98 inlet;
#X text -322 79 freq;
#X obj -63 433 vcf~ 1;
#X connect 0 0 24 1;
#X connect 1 0 16 0;
#X connect 2 0 4 0;
#X connect 3 0 12 0;
#X connect 4 0 3 0;
#X connect 4 1 3 1;
#X connect 5 0 8 1;
#X connect 6 0 5 0;
#X connect 7 0 9 0;
#X connect 7 1 6 0;
#X connect 8 0 0 1;
#X connect 9 0 8 0;
#X connect 10 0 11 0;
#X connect 11 0 1 1;
#X connect 12 0 11 1;
#X connect 13 0 10 0;
#X connect 13 1 10 1;
#X connect 13 2 12 0;
#X connect 14 0 24 0;
#X connect 15 0 7 0;
#X connect 17 0 13 0;
#X connect 19 0 2 0;
#X connect 19 0 24 2;
#X connect 22 0 0 0;
#X connect 24 0 1 0;
#X restore 218 464 pd reaonbp;
#N canvas 419 377 628 478 reaonbp 0;
#X obj 23 233 *;
#X obj -85 483 *~;
#X obj -142 87 log;
#X obj -147 142 *;
#X obj -150 116 t f f;
#X obj 85 157 pow -1;
#X obj 86 135 * -1;
#X obj 63 104 t f f;
#X obj 47 190 +;
#X obj 20 149 clip 0 16;
#X obj -211 198 *;
#X obj -165 257 *;
#X obj -139 229 float;
#X obj -214 173 t f f b;
#X obj -372 170 inlet~;
#X obj 92 54 inlet;
#X obj -67 518 outlet~;
#X obj -249 62 inlet;
#X text -246 45 level (0..1);
#X obj -107 37 inlet;
#X text 90 39 ratio;
#X text -121 19 res/decay (1..10000);
#X obj -320 98 inlet;
#X text -322 79 freq;
#X obj -63 433 vcf~ 1;
#X connect 0 0 24 1;
#X connect 1 0 16 0;
#X connect 2 0 4 0;
#X connect 3 0 12 0;
#X connect 4 0 3 0;
#X connect 4 1 3 1;
#X connect 5 0 8 1;
#X connect 6 0 5 0;
#X connect 7 0 9 0;
#X connect 7 1 6 0;
#X connect 8 0 0 1;
#X connect 9 0 8 0;
#X connect 10 0 11 0;
#X connect 11 0 1 1;
#X connect 12 0 11 1;
#X connect 13 0 10 0;
#X connect 13 1 10 1;
#X connect 13 2 12 0;
#X connect 14 0 24 0;
#X connect 15 0 7 0;
#X connect 17 0 13 0;
#X connect 19 0 2 0;
#X connect 19 0 24 2;
#X connect 22 0 0 0;
#X connect 24 0 1 0;
#X restore 251 499 pd reaonbp;
#N canvas 419 377 628 478 reaonbp 0;
#X obj 23 233 *;
#X obj -85 483 *~;
#X obj -142 87 log;
#X obj -147 142 *;
#X obj -150 116 t f f;
#X obj 85 157 pow -1;
#X obj 86 135 * -1;
#X obj 63 104 t f f;
#X obj 47 190 +;
#X obj 20 149 clip 0 16;
#X obj -211 198 *;
#X obj -165 257 *;
#X obj -139 229 float;
#X obj -214 173 t f f b;
#X obj -372 170 inlet~;
#X obj 92 54 inlet;
#X obj -67 518 outlet~;
#X obj -249 62 inlet;
#X text -246 45 level (0..1);
#X obj -107 37 inlet;
#X text 90 39 ratio;
#X text -121 19 res/decay (1..10000);
#X obj -320 98 inlet;
#X text -322 79 freq;
#X obj -63 433 vcf~ 1;
#X connect 0 0 24 1;
#X connect 1 0 16 0;
#X connect 2 0 4 0;
#X connect 3 0 12 0;
#X connect 4 0 3 0;
#X connect 4 1 3 1;
#X connect 5 0 8 1;
#X connect 6 0 5 0;
#X connect 7 0 9 0;
#X connect 7 1 6 0;
#X connect 8 0 0 1;
#X connect 9 0 8 0;
#X connect 10 0 11 0;
#X connect 11 0 1 1;
#X connect 12 0 11 1;
#X connect 13 0 10 0;
#X connect 13 1 10 1;
#X connect 13 2 12 0;
#X connect 14 0 24 0;
#X connect 15 0 7 0;
#X connect 17 0 13 0;
#X connect 19 0 2 0;
#X connect 19 0 24 2;
#X connect 22 0 0 0;
#X connect 24 0 1 0;
#X restore 280 531 pd reaonbp;
#X obj 13 54 noise~;
#X obj 112 90 line~;
#X msg 72 38 0 10;
#X obj 114 42 float;
#X obj 90 -5 t b b f;
#X obj 99 121 *~;
#X obj 77 -42 inlet;
#X text 72 -59 trig 0..1;
#X connect 0 0 1 0;
#X connect 2 0 6 0;
#X connect 3 0 7 0;
#X connect 6 0 0 1;
#X connect 6 0 8 1;
#X connect 6 0 9 1;
#X connect 6 0 10 1;
#X connect 6 0 11 1;
#X connect 7 0 0 2;
#X connect 7 1 0 3;
#X connect 7 2 0 4;
#X connect 7 3 8 2;
#X connect 7 4 8 3;
#X connect 7 5 8 4;
#X connect 7 6 9 2;
#X connect 7 7 9 3;
#X connect 7 8 9 4;
#X connect 7 9 10 2;
#X connect 7 10 10 3;
#X connect 7 11 10 4;
#X connect 7 12 11 2;
#X connect 7 13 11 3;
#X connect 7 14 11 4;
#X connect 8 0 1 0;
#X connect 9 0 1 0;
#X connect 10 0 1 0;
#X connect 11 0 1 0;
#X connect 12 0 17 0;
#X connect 13 0 17 1;
#X connect 14 0 13 0;
#X connect 15 0 13 0;
#X connect 16 0 14 0;
#X connect 16 1 15 0;
#X connect 16 2 15 1;
#X connect 17 0 0 0;
#X connect 17 0 8 0;
#X connect 17 0 9 0;
#X connect 17 0 10 0;
#X connect 17 0 11 0;
#X connect 18 0 16 0;
#X restore 836 1084 pd monomode;
#X obj 503 616 nbx 3 14 0 127 0 0 \$0-note4 \$0-note4 empty 0 -8 0
10 -262144 -1 -1 0 256;
#N canvas 1 82 844 677 monomode 0;
#N canvas 415 379 628 478 reaonbp 0;
#X obj 23 233 *;
#X obj -85 483 *~;
#X obj -142 87 log;
#X obj -147 142 *;
#X obj -150 116 t f f;
#X obj 85 157 pow -1;
#X obj 86 135 * -1;
#X obj 63 104 t f f;
#X obj 47 190 +;
#X obj 20 149 clip 0 16;
#X obj -211 198 *;
#X obj -165 257 *;
#X obj -139 229 float;
#X obj -214 173 t f f b;
#X obj -372 170 inlet~;
#X obj 92 54 inlet;
#X obj -67 518 outlet~;
#X obj -249 62 inlet;
#X text -246 45 level (0..1);
#X obj -107 37 inlet;
#X text 90 39 ratio;
#X text -121 19 res/decay (1..10000);
#X obj -320 98 inlet;
#X text -322 79 freq;
#X obj -63 433 vcf~ 1;
#X connect 0 0 24 1;
#X connect 1 0 16 0;
#X connect 2 0 4 0;
#X connect 3 0 12 0;
#X connect 4 0 3 0;
#X connect 4 1 3 1;
#X connect 5 0 8 1;
#X connect 6 0 5 0;
#X connect 7 0 9 0;
#X connect 7 1 6 0;
#X connect 8 0 0 1;
#X connect 9 0 8 0;
#X connect 10 0 11 0;
#X connect 11 0 1 1;
#X connect 12 0 11 1;
#X connect 13 0 10 0;
#X connect 13 1 10 1;
#X connect 13 2 12 0;
#X connect 14 0 24 0;
#X connect 15 0 7 0;
#X connect 17 0 13 0;
#X connect 19 0 2 0;
#X connect 19 0 24 2;
#X connect 22 0 0 0;
#X connect 24 0 1 0;
#X restore 151 393 pd reaonbp;
#X obj 204 589 outlet~;
#X obj 205 100 inlet;
#X obj 262 102 inlet;
#X text 204 81 pitch;
#X text 262 81 params;
#X obj 184 137 mtof;
#X obj 258 323 unpack f f f f f f f f f f f f f f f;
#N canvas 419 377 628 478 reaonbp 0;
#X obj 23 233 *;
#X obj -85 483 *~;
#X obj -142 87 log;
#X obj -147 142 *;
#X obj -150 116 t f f;
#X obj 85 157 pow -1;
#X obj 86 135 * -1;
#X obj 63 104 t f f;
#X obj 47 190 +;
#X obj 20 149 clip 0 16;
#X obj -211 198 *;
#X obj -165 257 *;
#X obj -139 229 float;
#X obj -214 173 t f f b;
#X obj -372 170 inlet~;
#X obj 92 54 inlet;
#X obj -67 518 outlet~;
#X obj -249 62 inlet;
#X text -246 45 level (0..1);
#X obj -107 37 inlet;
#X text 90 39 ratio;
#X text -121 19 res/decay (1..10000);
#X obj -320 98 inlet;
#X text -322 79 freq;
#X obj -63 433 vcf~ 1;
#X connect 0 0 24 1;
#X connect 1 0 16 0;
#X connect 2 0 4 0;
#X connect 3 0 12 0;
#X connect 4 0 3 0;
#X connect 4 1 3 1;
#X connect 5 0 8 1;
#X connect 6 0 5 0;
#X connect 7 0 9 0;
#X connect 7 1 6 0;
#X connect 8 0 0 1;
#X connect 9 0 8 0;
#X connect 10 0 11 0;
#X connect 11 0 1 1;
#X connect 12 0 11 1;
#X connect 13 0 10 0;
#X connect 13 1 10 1;
#X connect 13 2 12 0;
#X connect 14 0 24 0;
#X connect 15 0 7 0;
#X connect 17 0 13 0;
#X connect 19 0 2 0;
#X connect 19 0 24 2;
#X connect 22 0 0 0;
#X connect 24 0 1 0;
#X restore 184 428 pd reaonbp;
#N canvas 417 378 628 478 reaonbp 0;
#X obj 23 233 *;
#X obj -85 483 *~;
#X obj -142 87 log;
#X obj -147 142 *;
#X obj -150 116 t f f;
#X obj 85 157 pow -1;
#X obj 86 135 * -1;
#X obj 63 104 t f f;
#X obj 47 190 +;
#X obj 20 149 clip 0 16;
#X obj -211 198 *;
#X obj -165 257 *;
#X obj -139 229 float;
#X obj -214 173 t f f b;
#X obj -372 170 inlet~;
#X obj 92 54 inlet;
#X obj -67 518 outlet~;
#X obj -249 62 inlet;
#X text -246 45 level (0..1);
#X obj -107 37 inlet;
#X text 90 39 ratio;
#X text -121 19 res/decay (1..10000);
#X obj -320 98 inlet;
#X text -322 79 freq;
#X obj -63 433 vcf~ 1;
#X connect 0 0 24 1;
#X connect 1 0 16 0;
#X connect 2 0 4 0;
#X connect 3 0 12 0;
#X connect 4 0 3 0;
#X connect 4 1 3 1;
#X connect 5 0 8 1;
#X connect 6 0 5 0;
#X connect 7 0 9 0;
#X connect 7 1 6 0;
#X connect 8 0 0 1;
#X connect 9 0 8 0;
#X connect 10 0 11 0;
#X connect 11 0 1 1;
#X connect 12 0 11 1;
#X connect 13 0 10 0;
#X connect 13 1 10 1;
#X connect 13 2 12 0;
#X connect 14 0 24 0;
#X connect 15 0 7 0;
#X connect 17 0 13 0;
#X connect 19 0 2 0;
#X connect 19 0 24 2;
#X connect 22 0 0 0;
#X connect 24 0 1 0;
#X restore 218 464 pd reaonbp;
#N canvas 419 377 628 478 reaonbp 0;
#X obj 23 233 *;
#X obj -85 483 *~;
#X obj -142 87 log;
#X obj -147 142 *;
#X obj -150 116 t f f;
#X obj 85 157 pow -1;
#X obj 86 135 * -1;
#X obj 63 104 t f f;
#X obj 47 190 +;
#X obj 20 149 clip 0 16;
#X obj -211 198 *;
#X obj -165 257 *;
#X obj -139 229 float;
#X obj -214 173 t f f b;
#X obj -372 170 inlet~;
#X obj 92 54 inlet;
#X obj -67 518 outlet~;
#X obj -249 62 inlet;
#X text -246 45 level (0..1);
#X obj -107 37 inlet;
#X text 90 39 ratio;
#X text -121 19 res/decay (1..10000);
#X obj -320 98 inlet;
#X text -322 79 freq;
#X obj -63 433 vcf~ 1;
#X connect 0 0 24 1;
#X connect 1 0 16 0;
#X connect 2 0 4 0;
#X connect 3 0 12 0;
#X connect 4 0 3 0;
#X connect 4 1 3 1;
#X connect 5 0 8 1;
#X connect 6 0 5 0;
#X connect 7 0 9 0;
#X connect 7 1 6 0;
#X connect 8 0 0 1;
#X connect 9 0 8 0;
#X connect 10 0 11 0;
#X connect 11 0 1 1;
#X connect 12 0 11 1;
#X connect 13 0 10 0;
#X connect 13 1 10 1;
#X connect 13 2 12 0;
#X connect 14 0 24 0;
#X connect 15 0 7 0;
#X connect 17 0 13 0;
#X connect 19 0 2 0;
#X connect 19 0 24 2;
#X connect 22 0 0 0;
#X connect 24 0 1 0;
#X restore 251 499 pd reaonbp;
#N canvas 419 377 628 478 reaonbp 0;
#X obj 23 233 *;
#X obj -85 483 *~;
#X obj -142 87 log;
#X obj -147 142 *;
#X obj -150 116 t f f;
#X obj 85 157 pow -1;
#X obj 86 135 * -1;
#X obj 63 104 t f f;
#X obj 47 190 +;
#X obj 20 149 clip 0 16;
#X obj -211 198 *;
#X obj -165 257 *;
#X obj -139 229 float;
#X obj -214 173 t f f b;
#X obj -372 170 inlet~;
#X obj 92 54 inlet;
#X obj -67 518 outlet~;
#X obj -249 62 inlet;
#X text -246 45 level (0..1);
#X obj -107 37 inlet;
#X text 90 39 ratio;
#X text -121 19 res/decay (1..10000);
#X obj -320 98 inlet;
#X text -322 79 freq;
#X obj -63 433 vcf~ 1;
#X connect 0 0 24 1;
#X connect 1 0 16 0;
#X connect 2 0 4 0;
#X connect 3 0 12 0;
#X connect 4 0 3 0;
#X connect 4 1 3 1;
#X connect 5 0 8 1;
#X connect 6 0 5 0;
#X connect 7 0 9 0;
#X connect 7 1 6 0;
#X connect 8 0 0 1;
#X connect 9 0 8 0;
#X connect 10 0 11 0;
#X connect 11 0 1 1;
#X connect 12 0 11 1;
#X connect 13 0 10 0;
#X connect 13 1 10 1;
#X connect 13 2 12 0;
#X connect 14 0 24 0;
#X connect 15 0 7 0;
#X connect 17 0 13 0;
#X connect 19 0 2 0;
#X connect 19 0 24 2;
#X connect 22 0 0 0;
#X connect 24 0 1 0;
#X restore 280 531 pd reaonbp;
#X obj 13 54 noise~;
#X obj 112 90 line~;
#X msg 72 38 0 10;
#X obj 114 42 float;
#X obj 90 -5 t b b f;
#X obj 99 121 *~;
#X obj 77 -42 inlet;
#X text 72 -59 trig 0..1;
#X connect 0 0 1 0;
#X connect 2 0 6 0;
#X connect 3 0 7 0;
#X connect 6 0 0 1;
#X connect 6 0 8 1;
#X connect 6 0 9 1;
#X connect 6 0 10 1;
#X connect 6 0 11 1;
#X connect 7 0 0 2;
#X connect 7 1 0 3;
#X connect 7 2 0 4;
#X connect 7 3 8 2;
#X connect 7 4 8 3;
#X connect 7 5 8 4;
#X connect 7 6 9 2;
#X connect 7 7 9 3;
#X connect 7 8 9 4;
#X connect 7 9 10 2;
#X connect 7 10 10 3;
#X connect 7 11 10 4;
#X connect 7 12 11 2;
#X connect 7 13 11 3;
#X connect 7 14 11 4;
#X connect 8 0 1 0;
#X connect 9 0 1 0;
#X connect 10 0 1 0;
#X connect 11 0 1 0;
#X connect 12 0 17 0;
#X connect 13 0 17 1;
#X connect 14 0 13 0;
#X connect 15 0 13 0;
#X connect 16 0 14 0;
#X connect 16 1 15 0;
#X connect 16 2 15 1;
#X connect 17 0 0 0;
#X connect 17 0 8 0;
#X connect 17 0 9 0;
#X connect 17 0 10 0;
#X connect 17 0 11 0;
#X connect 18 0 16 0;
#X restore 883 1140 pd monomode;
#X obj 503 636 nbx 3 14 0 127 0 0 \$0-note5 \$0-note5 empty 0 -8 0
10 -262144 -1 -1 0 256;
#N canvas 1 82 844 677 monomode 0;
#N canvas 415 379 628 478 reaonbp 0;
#X obj 23 233 *;
#X obj -85 483 *~;
#X obj -142 87 log;
#X obj -147 142 *;
#X obj -150 116 t f f;
#X obj 85 157 pow -1;
#X obj 86 135 * -1;
#X obj 63 104 t f f;
#X obj 47 190 +;
#X obj 20 149 clip 0 16;
#X obj -211 198 *;
#X obj -165 257 *;
#X obj -139 229 float;
#X obj -214 173 t f f b;
#X obj -372 170 inlet~;
#X obj 92 54 inlet;
#X obj -67 518 outlet~;
#X obj -249 62 inlet;
#X text -246 45 level (0..1);
#X obj -107 37 inlet;
#X text 90 39 ratio;
#X text -121 19 res/decay (1..10000);
#X obj -320 98 inlet;
#X text -322 79 freq;
#X obj -63 433 vcf~ 1;
#X connect 0 0 24 1;
#X connect 1 0 16 0;
#X connect 2 0 4 0;
#X connect 3 0 12 0;
#X connect 4 0 3 0;
#X connect 4 1 3 1;
#X connect 5 0 8 1;
#X connect 6 0 5 0;
#X connect 7 0 9 0;
#X connect 7 1 6 0;
#X connect 8 0 0 1;
#X connect 9 0 8 0;
#X connect 10 0 11 0;
#X connect 11 0 1 1;
#X connect 12 0 11 1;
#X connect 13 0 10 0;
#X connect 13 1 10 1;
#X connect 13 2 12 0;
#X connect 14 0 24 0;
#X connect 15 0 7 0;
#X connect 17 0 13 0;
#X connect 19 0 2 0;
#X connect 19 0 24 2;
#X connect 22 0 0 0;
#X connect 24 0 1 0;
#X restore 151 393 pd reaonbp;
#X obj 204 589 outlet~;
#X obj 205 100 inlet;
#X obj 262 102 inlet;
#X text 204 81 pitch;
#X text 262 81 params;
#X obj 184 137 mtof;
#X obj 258 323 unpack f f f f f f f f f f f f f f f;
#N canvas 419 377 628 478 reaonbp 0;
#X obj 23 233 *;
#X obj -85 483 *~;
#X obj -142 87 log;
#X obj -147 142 *;
#X obj -150 116 t f f;
#X obj 85 157 pow -1;
#X obj 86 135 * -1;
#X obj 63 104 t f f;
#X obj 47 190 +;
#X obj 20 149 clip 0 16;
#X obj -211 198 *;
#X obj -165 257 *;
#X obj -139 229 float;
#X obj -214 173 t f f b;
#X obj -372 170 inlet~;
#X obj 92 54 inlet;
#X obj -67 518 outlet~;
#X obj -249 62 inlet;
#X text -246 45 level (0..1);
#X obj -107 37 inlet;
#X text 90 39 ratio;
#X text -121 19 res/decay (1..10000);
#X obj -320 98 inlet;
#X text -322 79 freq;
#X obj -63 433 vcf~ 1;
#X connect 0 0 24 1;
#X connect 1 0 16 0;
#X connect 2 0 4 0;
#X connect 3 0 12 0;
#X connect 4 0 3 0;
#X connect 4 1 3 1;
#X connect 5 0 8 1;
#X connect 6 0 5 0;
#X connect 7 0 9 0;
#X connect 7 1 6 0;
#X connect 8 0 0 1;
#X connect 9 0 8 0;
#X connect 10 0 11 0;
#X connect 11 0 1 1;
#X connect 12 0 11 1;
#X connect 13 0 10 0;
#X connect 13 1 10 1;
#X connect 13 2 12 0;
#X connect 14 0 24 0;
#X connect 15 0 7 0;
#X connect 17 0 13 0;
#X connect 19 0 2 0;
#X connect 19 0 24 2;
#X connect 22 0 0 0;
#X connect 24 0 1 0;
#X restore 184 428 pd reaonbp;
#N canvas 417 378 628 478 reaonbp 0;
#X obj 23 233 *;
#X obj -85 483 *~;
#X obj -142 87 log;
#X obj -147 142 *;
#X obj -150 116 t f f;
#X obj 85 157 pow -1;
#X obj 86 135 * -1;
#X obj 63 104 t f f;
#X obj 47 190 +;
#X obj 20 149 clip 0 16;
#X obj -211 198 *;
#X obj -165 257 *;
#X obj -139 229 float;
#X obj -214 173 t f f b;
#X obj -372 170 inlet~;
#X obj 92 54 inlet;
#X obj -67 518 outlet~;
#X obj -249 62 inlet;
#X text -246 45 level (0..1);
#X obj -107 37 inlet;
#X text 90 39 ratio;
#X text -121 19 res/decay (1..10000);
#X obj -320 98 inlet;
#X text -322 79 freq;
#X obj -63 433 vcf~ 1;
#X connect 0 0 24 1;
#X connect 1 0 16 0;
#X connect 2 0 4 0;
#X connect 3 0 12 0;
#X connect 4 0 3 0;
#X connect 4 1 3 1;
#X connect 5 0 8 1;
#X connect 6 0 5 0;
#X connect 7 0 9 0;
#X connect 7 1 6 0;
#X connect 8 0 0 1;
#X connect 9 0 8 0;
#X connect 10 0 11 0;
#X connect 11 0 1 1;
#X connect 12 0 11 1;
#X connect 13 0 10 0;
#X connect 13 1 10 1;
#X connect 13 2 12 0;
#X connect 14 0 24 0;
#X connect 15 0 7 0;
#X connect 17 0 13 0;
#X connect 19 0 2 0;
#X connect 19 0 24 2;
#X connect 22 0 0 0;
#X connect 24 0 1 0;
#X restore 218 464 pd reaonbp;
#N canvas 419 377 628 478 reaonbp 0;
#X obj 23 233 *;
#X obj -85 483 *~;
#X obj -142 87 log;
#X obj -147 142 *;
#X obj -150 116 t f f;
#X obj 85 157 pow -1;
#X obj 86 135 * -1;
#X obj 63 104 t f f;
#X obj 47 190 +;
#X obj 20 149 clip 0 16;
#X obj -211 198 *;
#X obj -165 257 *;
#X obj -139 229 float;
#X obj -214 173 t f f b;
#X obj -372 170 inlet~;
#X obj 92 54 inlet;
#X obj -67 518 outlet~;
#X obj -249 62 inlet;
#X text -246 45 level (0..1);
#X obj -107 37 inlet;
#X text 90 39 ratio;
#X text -121 19 res/decay (1..10000);
#X obj -320 98 inlet;
#X text -322 79 freq;
#X obj -63 433 vcf~ 1;
#X connect 0 0 24 1;
#X connect 1 0 16 0;
#X connect 2 0 4 0;
#X connect 3 0 12 0;
#X connect 4 0 3 0;
#X connect 4 1 3 1;
#X connect 5 0 8 1;
#X connect 6 0 5 0;
#X connect 7 0 9 0;
#X connect 7 1 6 0;
#X connect 8 0 0 1;
#X connect 9 0 8 0;
#X connect 10 0 11 0;
#X connect 11 0 1 1;
#X connect 12 0 11 1;
#X connect 13 0 10 0;
#X connect 13 1 10 1;
#X connect 13 2 12 0;
#X connect 14 0 24 0;
#X connect 15 0 7 0;
#X connect 17 0 13 0;
#X connect 19 0 2 0;
#X connect 19 0 24 2;
#X connect 22 0 0 0;
#X connect 24 0 1 0;
#X restore 251 499 pd reaonbp;
#N canvas 419 377 628 478 reaonbp 0;
#X obj 23 233 *;
#X obj -85 483 *~;
#X obj -142 87 log;
#X obj -147 142 *;
#X obj -150 116 t f f;
#X obj 85 157 pow -1;
#X obj 86 135 * -1;
#X obj 63 104 t f f;
#X obj 47 190 +;
#X obj 20 149 clip 0 16;
#X obj -211 198 *;
#X obj -165 257 *;
#X obj -139 229 float;
#X obj -214 173 t f f b;
#X obj -372 170 inlet~;
#X obj 92 54 inlet;
#X obj -67 518 outlet~;
#X obj -249 62 inlet;
#X text -246 45 level (0..1);
#X obj -107 37 inlet;
#X text 90 39 ratio;
#X text -121 19 res/decay (1..10000);
#X obj -320 98 inlet;
#X text -322 79 freq;
#X obj -63 433 vcf~ 1;
#X connect 0 0 24 1;
#X connect 1 0 16 0;
#X connect 2 0 4 0;
#X connect 3 0 12 0;
#X connect 4 0 3 0;
#X connect 4 1 3 1;
#X connect 5 0 8 1;
#X connect 6 0 5 0;
#X connect 7 0 9 0;
#X connect 7 1 6 0;
#X connect 8 0 0 1;
#X connect 9 0 8 0;
#X connect 10 0 11 0;
#X connect 11 0 1 1;
#X connect 12 0 11 1;
#X connect 13 0 10 0;
#X connect 13 1 10 1;
#X connect 13 2 12 0;
#X connect 14 0 24 0;
#X connect 15 0 7 0;
#X connect 17 0 13 0;
#X connect 19 0 2 0;
#X connect 19 0 24 2;
#X connect 22 0 0 0;
#X connect 24 0 1 0;
#X restore 280 531 pd reaonbp;
#X obj 13 54 noise~;
#X obj 112 90 line~;
#X msg 72 38 0 10;
#X obj 114 42 float;
#X obj 90 -5 t b b f;
#X obj 99 121 *~;
#X obj 77 -42 inlet;
#X text 72 -59 trig 0..1;
#X connect 0 0 1 0;
#X connect 2 0 6 0;
#X connect 3 0 7 0;
#X connect 6 0 0 1;
#X connect 6 0 8 1;
#X connect 6 0 9 1;
#X connect 6 0 10 1;
#X connect 6 0 11 1;
#X connect 7 0 0 2;
#X connect 7 1 0 3;
#X connect 7 2 0 4;
#X connect 7 3 8 2;
#X connect 7 4 8 3;
#X connect 7 5 8 4;
#X connect 7 6 9 2;
#X connect 7 7 9 3;
#X connect 7 8 9 4;
#X connect 7 9 10 2;
#X connect 7 10 10 3;
#X connect 7 11 10 4;
#X connect 7 12 11 2;
#X connect 7 13 11 3;
#X connect 7 14 11 4;
#X connect 8 0 1 0;
#X connect 9 0 1 0;
#X connect 10 0 1 0;
#X connect 11 0 1 0;
#X connect 12 0 17 0;
#X connect 13 0 17 1;
#X connect 14 0 13 0;
#X connect 15 0 13 0;
#X connect 16 0 14 0;
#X connect 16 1 15 0;
#X connect 16 2 15 1;
#X connect 17 0 0 0;
#X connect 17 0 8 0;
#X connect 17 0 9 0;
#X connect 17 0 10 0;
#X connect 17 0 11 0;
#X connect 18 0 16 0;
#X restore 917 1086 pd monomode;
#X obj 503 656 nbx 3 14 0 127 0 0 \$0-note6 \$0-note6 empty 0 -8 0
10 -262144 -1 -1 0 256;
#N canvas 1 82 844 677 monomode 0;
#N canvas 415 379 628 478 reaonbp 0;
#X obj 23 233 *;
#X obj -85 483 *~;
#X obj -142 87 log;
#X obj -147 142 *;
#X obj -150 116 t f f;
#X obj 85 157 pow -1;
#X obj 86 135 * -1;
#X obj 63 104 t f f;
#X obj 47 190 +;
#X obj 20 149 clip 0 16;
#X obj -211 198 *;
#X obj -165 257 *;
#X obj -139 229 float;
#X obj -214 173 t f f b;
#X obj -372 170 inlet~;
#X obj 92 54 inlet;
#X obj -67 518 outlet~;
#X obj -249 62 inlet;
#X text -246 45 level (0..1);
#X obj -107 37 inlet;
#X text 90 39 ratio;
#X text -121 19 res/decay (1..10000);
#X obj -320 98 inlet;
#X text -322 79 freq;
#X obj -63 433 vcf~ 1;
#X connect 0 0 24 1;
#X connect 1 0 16 0;
#X connect 2 0 4 0;
#X connect 3 0 12 0;
#X connect 4 0 3 0;
#X connect 4 1 3 1;
#X connect 5 0 8 1;
#X connect 6 0 5 0;
#X connect 7 0 9 0;
#X connect 7 1 6 0;
#X connect 8 0 0 1;
#X connect 9 0 8 0;
#X connect 10 0 11 0;
#X connect 11 0 1 1;
#X connect 12 0 11 1;
#X connect 13 0 10 0;
#X connect 13 1 10 1;
#X connect 13 2 12 0;
#X connect 14 0 24 0;
#X connect 15 0 7 0;
#X connect 17 0 13 0;
#X connect 19 0 2 0;
#X connect 19 0 24 2;
#X connect 22 0 0 0;
#X connect 24 0 1 0;
#X restore 151 393 pd reaonbp;
#X obj 204 589 outlet~;
#X obj 205 100 inlet;
#X obj 262 102 inlet;
#X text 204 81 pitch;
#X text 262 81 params;
#X obj 184 137 mtof;
#X obj 258 323 unpack f f f f f f f f f f f f f f f;
#N canvas 419 377 628 478 reaonbp 0;
#X obj 23 233 *;
#X obj -85 483 *~;
#X obj -142 87 log;
#X obj -147 142 *;
#X obj -150 116 t f f;
#X obj 85 157 pow -1;
#X obj 86 135 * -1;
#X obj 63 104 t f f;
#X obj 47 190 +;
#X obj 20 149 clip 0 16;
#X obj -211 198 *;
#X obj -165 257 *;
#X obj -139 229 float;
#X obj -214 173 t f f b;
#X obj -372 170 inlet~;
#X obj 92 54 inlet;
#X obj -67 518 outlet~;
#X obj -249 62 inlet;
#X text -246 45 level (0..1);
#X obj -107 37 inlet;
#X text 90 39 ratio;
#X text -121 19 res/decay (1..10000);
#X obj -320 98 inlet;
#X text -322 79 freq;
#X obj -63 433 vcf~ 1;
#X connect 0 0 24 1;
#X connect 1 0 16 0;
#X connect 2 0 4 0;
#X connect 3 0 12 0;
#X connect 4 0 3 0;
#X connect 4 1 3 1;
#X connect 5 0 8 1;
#X connect 6 0 5 0;
#X connect 7 0 9 0;
#X connect 7 1 6 0;
#X connect 8 0 0 1;
#X connect 9 0 8 0;
#X connect 10 0 11 0;
#X connect 11 0 1 1;
#X connect 12 0 11 1;
#X connect 13 0 10 0;
#X connect 13 1 10 1;
#X connect 13 2 12 0;
#X connect 14 0 24 0;
#X connect 15 0 7 0;
#X connect 17 0 13 0;
#X connect 19 0 2 0;
#X connect 19 0 24 2;
#X connect 22 0 0 0;
#X connect 24 0 1 0;
#X restore 184 428 pd reaonbp;
#N canvas 417 378 628 478 reaonbp 0;
#X obj 23 233 *;
#X obj -85 483 *~;
#X obj -142 87 log;
#X obj -147 142 *;
#X obj -150 116 t f f;
#X obj 85 157 pow -1;
#X obj 86 135 * -1;
#X obj 63 104 t f f;
#X obj 47 190 +;
#X obj 20 149 clip 0 16;
#X obj -211 198 *;
#X obj -165 257 *;
#X obj -139 229 float;
#X obj -214 173 t f f b;
#X obj -372 170 inlet~;
#X obj 92 54 inlet;
#X obj -67 518 outlet~;
#X obj -249 62 inlet;
#X text -246 45 level (0..1);
#X obj -107 37 inlet;
#X text 90 39 ratio;
#X text -121 19 res/decay (1..10000);
#X obj -320 98 inlet;
#X text -322 79 freq;
#X obj -63 433 vcf~ 1;
#X connect 0 0 24 1;
#X connect 1 0 16 0;
#X connect 2 0 4 0;
#X connect 3 0 12 0;
#X connect 4 0 3 0;
#X connect 4 1 3 1;
#X connect 5 0 8 1;
#X connect 6 0 5 0;
#X connect 7 0 9 0;
#X connect 7 1 6 0;
#X connect 8 0 0 1;
#X connect 9 0 8 0;
#X connect 10 0 11 0;
#X connect 11 0 1 1;
#X connect 12 0 11 1;
#X connect 13 0 10 0;
#X connect 13 1 10 1;
#X connect 13 2 12 0;
#X connect 14 0 24 0;
#X connect 15 0 7 0;
#X connect 17 0 13 0;
#X connect 19 0 2 0;
#X connect 19 0 24 2;
#X connect 22 0 0 0;
#X connect 24 0 1 0;
#X restore 218 464 pd reaonbp;
#N canvas 419 377 628 478 reaonbp 0;
#X obj 23 233 *;
#X obj -85 483 *~;
#X obj -142 87 log;
#X obj -147 142 *;
#X obj -150 116 t f f;
#X obj 85 157 pow -1;
#X obj 86 135 * -1;
#X obj 63 104 t f f;
#X obj 47 190 +;
#X obj 20 149 clip 0 16;
#X obj -211 198 *;
#X obj -165 257 *;
#X obj -139 229 float;
#X obj -214 173 t f f b;
#X obj -372 170 inlet~;
#X obj 92 54 inlet;
#X obj -67 518 outlet~;
#X obj -249 62 inlet;
#X text -246 45 level (0..1);
#X obj -107 37 inlet;
#X text 90 39 ratio;
#X text -121 19 res/decay (1..10000);
#X obj -320 98 inlet;
#X text -322 79 freq;
#X obj -63 433 vcf~ 1;
#X connect 0 0 24 1;
#X connect 1 0 16 0;
#X connect 2 0 4 0;
#X connect 3 0 12 0;
#X connect 4 0 3 0;
#X connect 4 1 3 1;
#X connect 5 0 8 1;
#X connect 6 0 5 0;
#X connect 7 0 9 0;
#X connect 7 1 6 0;
#X connect 8 0 0 1;
#X connect 9 0 8 0;
#X connect 10 0 11 0;
#X connect 11 0 1 1;
#X connect 12 0 11 1;
#X connect 13 0 10 0;
#X connect 13 1 10 1;
#X connect 13 2 12 0;
#X connect 14 0 24 0;
#X connect 15 0 7 0;
#X connect 17 0 13 0;
#X connect 19 0 2 0;
#X connect 19 0 24 2;
#X connect 22 0 0 0;
#X connect 24 0 1 0;
#X restore 251 499 pd reaonbp;
#N canvas 419 377 628 478 reaonbp 0;
#X obj 23 233 *;
#X obj -85 483 *~;
#X obj -142 87 log;
#X obj -147 142 *;
#X obj -150 116 t f f;
#X obj 85 157 pow -1;
#X obj 86 135 * -1;
#X obj 63 104 t f f;
#X obj 47 190 +;
#X obj 20 149 clip 0 16;
#X obj -211 198 *;
#X obj -165 257 *;
#X obj -139 229 float;
#X obj -214 173 t f f b;
#X obj -372 170 inlet~;
#X obj 92 54 inlet;
#X obj -67 518 outlet~;
#X obj -249 62 inlet;
#X text -246 45 level (0..1);
#X obj -107 37 inlet;
#X text 90 39 ratio;
#X text -121 19 res/decay (1..10000);
#X obj -320 98 inlet;
#X text -322 79 freq;
#X obj -63 433 vcf~ 1;
#X connect 0 0 24 1;
#X connect 1 0 16 0;
#X connect 2 0 4 0;
#X connect 3 0 12 0;
#X connect 4 0 3 0;
#X connect 4 1 3 1;
#X connect 5 0 8 1;
#X connect 6 0 5 0;
#X connect 7 0 9 0;
#X connect 7 1 6 0;
#X connect 8 0 0 1;
#X connect 9 0 8 0;
#X connect 10 0 11 0;
#X connect 11 0 1 1;
#X connect 12 0 11 1;
#X connect 13 0 10 0;
#X connect 13 1 10 1;
#X connect 13 2 12 0;
#X connect 14 0 24 0;
#X connect 15 0 7 0;
#X connect 17 0 13 0;
#X connect 19 0 2 0;
#X connect 19 0 24 2;
#X connect 22 0 0 0;
#X connect 24 0 1 0;
#X restore 280 531 pd reaonbp;
#X obj 13 54 noise~;
#X obj 112 90 line~;
#X msg 72 38 0 10;
#X obj 114 42 float;
#X obj 90 -5 t b b f;
#X obj 99 121 *~;
#X obj 77 -42 inlet;
#X text 72 -59 trig 0..1;
#X connect 0 0 1 0;
#X connect 2 0 6 0;
#X connect 3 0 7 0;
#X connect 6 0 0 1;
#X connect 6 0 8 1;
#X connect 6 0 9 1;
#X connect 6 0 10 1;
#X connect 6 0 11 1;
#X connect 7 0 0 2;
#X connect 7 1 0 3;
#X connect 7 2 0 4;
#X connect 7 3 8 2;
#X connect 7 4 8 3;
#X connect 7 5 8 4;
#X connect 7 6 9 2;
#X connect 7 7 9 3;
#X connect 7 8 9 4;
#X connect 7 9 10 2;
#X connect 7 10 10 3;
#X connect 7 11 10 4;
#X connect 7 12 11 2;
#X connect 7 13 11 3;
#X connect 7 14 11 4;
#X connect 8 0 1 0;
#X connect 9 0 1 0;
#X connect 10 0 1 0;
#X connect 11 0 1 0;
#X connect 12 0 17 0;
#X connect 13 0 17 1;
#X connect 14 0 13 0;
#X connect 15 0 13 0;
#X connect 16 0 14 0;
#X connect 16 1 15 0;
#X connect 16 2 15 1;
#X connect 17 0 0 0;
#X connect 17 0 8 0;
#X connect 17 0 9 0;
#X connect 17 0 10 0;
#X connect 17 0 11 0;
#X connect 18 0 16 0;
#X restore 975 1136 pd monomode;
#X obj 548 616 nbx 3 14 0 127 0 0 \$0-note7 \$0-note7 empty 0 -8 0
10 -262144 -1 -1 0 256;
#N canvas 1 82 844 677 monomode 0;
#N canvas 415 379 628 478 reaonbp 0;
#X obj 23 233 *;
#X obj -85 483 *~;
#X obj -142 87 log;
#X obj -147 142 *;
#X obj -150 116 t f f;
#X obj 85 157 pow -1;
#X obj 86 135 * -1;
#X obj 63 104 t f f;
#X obj 47 190 +;
#X obj 20 149 clip 0 16;
#X obj -211 198 *;
#X obj -165 257 *;
#X obj -139 229 float;
#X obj -214 173 t f f b;
#X obj -372 170 inlet~;
#X obj 92 54 inlet;
#X obj -67 518 outlet~;
#X obj -249 62 inlet;
#X text -246 45 level (0..1);
#X obj -107 37 inlet;
#X text 90 39 ratio;
#X text -121 19 res/decay (1..10000);
#X obj -320 98 inlet;
#X text -322 79 freq;
#X obj -63 433 vcf~ 1;
#X connect 0 0 24 1;
#X connect 1 0 16 0;
#X connect 2 0 4 0;
#X connect 3 0 12 0;
#X connect 4 0 3 0;
#X connect 4 1 3 1;
#X connect 5 0 8 1;
#X connect 6 0 5 0;
#X connect 7 0 9 0;
#X connect 7 1 6 0;
#X connect 8 0 0 1;
#X connect 9 0 8 0;
#X connect 10 0 11 0;
#X connect 11 0 1 1;
#X connect 12 0 11 1;
#X connect 13 0 10 0;
#X connect 13 1 10 1;
#X connect 13 2 12 0;
#X connect 14 0 24 0;
#X connect 15 0 7 0;
#X connect 17 0 13 0;
#X connect 19 0 2 0;
#X connect 19 0 24 2;
#X connect 22 0 0 0;
#X connect 24 0 1 0;
#X restore 151 393 pd reaonbp;
#X obj 204 589 outlet~;
#X obj 205 100 inlet;
#X obj 262 102 inlet;
#X text 204 81 pitch;
#X text 262 81 params;
#X obj 184 137 mtof;
#X obj 258 323 unpack f f f f f f f f f f f f f f f;
#N canvas 419 377 628 478 reaonbp 0;
#X obj 23 233 *;
#X obj -85 483 *~;
#X obj -142 87 log;
#X obj -147 142 *;
#X obj -150 116 t f f;
#X obj 85 157 pow -1;
#X obj 86 135 * -1;
#X obj 63 104 t f f;
#X obj 47 190 +;
#X obj 20 149 clip 0 16;
#X obj -211 198 *;
#X obj -165 257 *;
#X obj -139 229 float;
#X obj -214 173 t f f b;
#X obj -372 170 inlet~;
#X obj 92 54 inlet;
#X obj -67 518 outlet~;
#X obj -249 62 inlet;
#X text -246 45 level (0..1);
#X obj -107 37 inlet;
#X text 90 39 ratio;
#X text -121 19 res/decay (1..10000);
#X obj -320 98 inlet;
#X text -322 79 freq;
#X obj -63 433 vcf~ 1;
#X connect 0 0 24 1;
#X connect 1 0 16 0;
#X connect 2 0 4 0;
#X connect 3 0 12 0;
#X connect 4 0 3 0;
#X connect 4 1 3 1;
#X connect 5 0 8 1;
#X connect 6 0 5 0;
#X connect 7 0 9 0;
#X connect 7 1 6 0;
#X connect 8 0 0 1;
#X connect 9 0 8 0;
#X connect 10 0 11 0;
#X connect 11 0 1 1;
#X connect 12 0 11 1;
#X connect 13 0 10 0;
#X connect 13 1 10 1;
#X connect 13 2 12 0;
#X connect 14 0 24 0;
#X connect 15 0 7 0;
#X connect 17 0 13 0;
#X connect 19 0 2 0;
#X connect 19 0 24 2;
#X connect 22 0 0 0;
#X connect 24 0 1 0;
#X restore 184 428 pd reaonbp;
#N canvas 417 378 628 478 reaonbp 0;
#X obj 23 233 *;
#X obj -85 483 *~;
#X obj -142 87 log;
#X obj -147 142 *;
#X obj -150 116 t f f;
#X obj 85 157 pow -1;
#X obj 86 135 * -1;
#X obj 63 104 t f f;
#X obj 47 190 +;
#X obj 20 149 clip 0 16;
#X obj -211 198 *;
#X obj -165 257 *;
#X obj -139 229 float;
#X obj -214 173 t f f b;
#X obj -372 170 inlet~;
#X obj 92 54 inlet;
#X obj -67 518 outlet~;
#X obj -249 62 inlet;
#X text -246 45 level (0..1);
#X obj -107 37 inlet;
#X text 90 39 ratio;
#X text -121 19 res/decay (1..10000);
#X obj -320 98 inlet;
#X text -322 79 freq;
#X obj -63 433 vcf~ 1;
#X connect 0 0 24 1;
#X connect 1 0 16 0;
#X connect 2 0 4 0;
#X connect 3 0 12 0;
#X connect 4 0 3 0;
#X connect 4 1 3 1;
#X connect 5 0 8 1;
#X connect 6 0 5 0;
#X connect 7 0 9 0;
#X connect 7 1 6 0;
#X connect 8 0 0 1;
#X connect 9 0 8 0;
#X connect 10 0 11 0;
#X connect 11 0 1 1;
#X connect 12 0 11 1;
#X connect 13 0 10 0;
#X connect 13 1 10 1;
#X connect 13 2 12 0;
#X connect 14 0 24 0;
#X connect 15 0 7 0;
#X connect 17 0 13 0;
#X connect 19 0 2 0;
#X connect 19 0 24 2;
#X connect 22 0 0 0;
#X connect 24 0 1 0;
#X restore 218 464 pd reaonbp;
#N canvas 419 377 628 478 reaonbp 0;
#X obj 23 233 *;
#X obj -85 483 *~;
#X obj -142 87 log;
#X obj -147 142 *;
#X obj -150 116 t f f;
#X obj 85 157 pow -1;
#X obj 86 135 * -1;
#X obj 63 104 t f f;
#X obj 47 190 +;
#X obj 20 149 clip 0 16;
#X obj -211 198 *;
#X obj -165 257 *;
#X obj -139 229 float;
#X obj -214 173 t f f b;
#X obj -372 170 inlet~;
#X obj 92 54 inlet;
#X obj -67 518 outlet~;
#X obj -249 62 inlet;
#X text -246 45 level (0..1);
#X obj -107 37 inlet;
#X text 90 39 ratio;
#X text -121 19 res/decay (1..10000);
#X obj -320 98 inlet;
#X text -322 79 freq;
#X obj -63 433 vcf~ 1;
#X connect 0 0 24 1;
#X connect 1 0 16 0;
#X connect 2 0 4 0;
#X connect 3 0 12 0;
#X connect 4 0 3 0;
#X connect 4 1 3 1;
#X connect 5 0 8 1;
#X connect 6 0 5 0;
#X connect 7 0 9 0;
#X connect 7 1 6 0;
#X connect 8 0 0 1;
#X connect 9 0 8 0;
#X connect 10 0 11 0;
#X connect 11 0 1 1;
#X connect 12 0 11 1;
#X connect 13 0 10 0;
#X connect 13 1 10 1;
#X connect 13 2 12 0;
#X connect 14 0 24 0;
#X connect 15 0 7 0;
#X connect 17 0 13 0;
#X connect 19 0 2 0;
#X connect 19 0 24 2;
#X connect 22 0 0 0;
#X connect 24 0 1 0;
#X restore 251 499 pd reaonbp;
#N canvas 419 377 628 478 reaonbp 0;
#X obj 23 233 *;
#X obj -85 483 *~;
#X obj -142 87 log;
#X obj -147 142 *;
#X obj -150 116 t f f;
#X obj 85 157 pow -1;
#X obj 86 135 * -1;
#X obj 63 104 t f f;
#X obj 47 190 +;
#X obj 20 149 clip 0 16;
#X obj -211 198 *;
#X obj -165 257 *;
#X obj -139 229 float;
#X obj -214 173 t f f b;
#X obj -372 170 inlet~;
#X obj 92 54 inlet;
#X obj -67 518 outlet~;
#X obj -249 62 inlet;
#X text -246 45 level (0..1);
#X obj -107 37 inlet;
#X text 90 39 ratio;
#X text -121 19 res/decay (1..10000);
#X obj -320 98 inlet;
#X text -322 79 freq;
#X obj -63 433 vcf~ 1;
#X connect 0 0 24 1;
#X connect 1 0 16 0;
#X connect 2 0 4 0;
#X connect 3 0 12 0;
#X connect 4 0 3 0;
#X connect 4 1 3 1;
#X connect 5 0 8 1;
#X connect 6 0 5 0;
#X connect 7 0 9 0;
#X connect 7 1 6 0;
#X connect 8 0 0 1;
#X connect 9 0 8 0;
#X connect 10 0 11 0;
#X connect 11 0 1 1;
#X connect 12 0 11 1;
#X connect 13 0 10 0;
#X connect 13 1 10 1;
#X connect 13 2 12 0;
#X connect 14 0 24 0;
#X connect 15 0 7 0;
#X connect 17 0 13 0;
#X connect 19 0 2 0;
#X connect 19 0 24 2;
#X connect 22 0 0 0;
#X connect 24 0 1 0;
#X restore 280 531 pd reaonbp;
#X obj 13 54 noise~;
#X obj 112 90 line~;
#X msg 72 38 0 10;
#X obj 114 42 float;
#X obj 90 -5 t b b f;
#X obj 99 121 *~;
#X obj 77 -42 inlet;
#X text 72 -59 trig 0..1;
#X connect 0 0 1 0;
#X connect 2 0 6 0;
#X connect 3 0 7 0;
#X connect 6 0 0 1;
#X connect 6 0 8 1;
#X connect 6 0 9 1;
#X connect 6 0 10 1;
#X connect 6 0 11 1;
#X connect 7 0 0 2;
#X connect 7 1 0 3;
#X connect 7 2 0 4;
#X connect 7 3 8 2;
#X connect 7 4 8 3;
#X connect 7 5 8 4;
#X connect 7 6 9 2;
#X connect 7 7 9 3;
#X connect 7 8 9 4;
#X connect 7 9 10 2;
#X connect 7 10 10 3;
#X connect 7 11 10 4;
#X connect 7 12 11 2;
#X connect 7 13 11 3;
#X connect 7 14 11 4;
#X connect 8 0 1 0;
#X connect 9 0 1 0;
#X connect 10 0 1 0;
#X connect 11 0 1 0;
#X connect 12 0 17 0;
#X connect 13 0 17 1;
#X connect 14 0 13 0;
#X connect 15 0 13 0;
#X connect 16 0 14 0;
#X connect 16 1 15 0;
#X connect 16 2 15 1;
#X connect 17 0 0 0;
#X connect 17 0 8 0;
#X connect 17 0 9 0;
#X connect 17 0 10 0;
#X connect 17 0 11 0;
#X connect 18 0 16 0;
#X restore 1002 1094 pd monomode;
#X obj 548 636 nbx 3 14 0 127 0 0 \$0-note8 \$0-note8 empty 0 -8 0
10 -262144 -1 -1 0 256;
#N canvas 613 347 844 677 monomode 0;
#N canvas 415 379 628 478 reaonbp 0;
#X obj 23 233 *;
#X obj -85 483 *~;
#X obj -142 87 log;
#X obj -147 142 *;
#X obj -150 116 t f f;
#X obj 85 157 pow -1;
#X obj 86 135 * -1;
#X obj 63 104 t f f;
#X obj 47 190 +;
#X obj 20 149 clip 0 16;
#X obj -211 198 *;
#X obj -165 257 *;
#X obj -139 229 float;
#X obj -214 173 t f f b;
#X obj -372 170 inlet~;
#X obj 92 54 inlet;
#X obj -67 518 outlet~;
#X obj -249 62 inlet;
#X text -246 45 level (0..1);
#X obj -107 37 inlet;
#X text 90 39 ratio;
#X text -121 19 res/decay (1..10000);
#X obj -320 98 inlet;
#X text -322 79 freq;
#X obj -63 433 vcf~ 1;
#X connect 0 0 24 1;
#X connect 1 0 16 0;
#X connect 2 0 4 0;
#X connect 3 0 12 0;
#X connect 4 0 3 0;
#X connect 4 1 3 1;
#X connect 5 0 8 1;
#X connect 6 0 5 0;
#X connect 7 0 9 0;
#X connect 7 1 6 0;
#X connect 8 0 0 1;
#X connect 9 0 8 0;
#X connect 10 0 11 0;
#X connect 11 0 1 1;
#X connect 12 0 11 1;
#X connect 13 0 10 0;
#X connect 13 1 10 1;
#X connect 13 2 12 0;
#X connect 14 0 24 0;
#X connect 15 0 7 0;
#X connect 17 0 13 0;
#X connect 19 0 2 0;
#X connect 19 0 24 2;
#X connect 22 0 0 0;
#X connect 24 0 1 0;
#X restore 151 393 pd reaonbp;
#X obj 204 589 outlet~;
#X obj 205 100 inlet;
#X obj 262 102 inlet;
#X text 204 81 pitch;
#X text 262 81 params;
#X obj 184 137 mtof;
#X obj 258 323 unpack f f f f f f f f f f f f f f f;
#N canvas 419 377 628 478 reaonbp 0;
#X obj 23 233 *;
#X obj -85 483 *~;
#X obj -142 87 log;
#X obj -147 142 *;
#X obj -150 116 t f f;
#X obj 85 157 pow -1;
#X obj 86 135 * -1;
#X obj 63 104 t f f;
#X obj 47 190 +;
#X obj 20 149 clip 0 16;
#X obj -211 198 *;
#X obj -165 257 *;
#X obj -139 229 float;
#X obj -214 173 t f f b;
#X obj -372 170 inlet~;
#X obj 92 54 inlet;
#X obj -67 518 outlet~;
#X obj -249 62 inlet;
#X text -246 45 level (0..1);
#X obj -107 37 inlet;
#X text 90 39 ratio;
#X text -121 19 res/decay (1..10000);
#X obj -320 98 inlet;
#X text -322 79 freq;
#X obj -63 433 vcf~ 1;
#X connect 0 0 24 1;
#X connect 1 0 16 0;
#X connect 2 0 4 0;
#X connect 3 0 12 0;
#X connect 4 0 3 0;
#X connect 4 1 3 1;
#X connect 5 0 8 1;
#X connect 6 0 5 0;
#X connect 7 0 9 0;
#X connect 7 1 6 0;
#X connect 8 0 0 1;
#X connect 9 0 8 0;
#X connect 10 0 11 0;
#X connect 11 0 1 1;
#X connect 12 0 11 1;
#X connect 13 0 10 0;
#X connect 13 1 10 1;
#X connect 13 2 12 0;
#X connect 14 0 24 0;
#X connect 15 0 7 0;
#X connect 17 0 13 0;
#X connect 19 0 2 0;
#X connect 19 0 24 2;
#X connect 22 0 0 0;
#X connect 24 0 1 0;
#X restore 184 428 pd reaonbp;
#N canvas 417 378 628 478 reaonbp 0;
#X obj 23 233 *;
#X obj -85 483 *~;
#X obj -142 87 log;
#X obj -147 142 *;
#X obj -150 116 t f f;
#X obj 85 157 pow -1;
#X obj 86 135 * -1;
#X obj 63 104 t f f;
#X obj 47 190 +;
#X obj 20 149 clip 0 16;
#X obj -211 198 *;
#X obj -165 257 *;
#X obj -139 229 float;
#X obj -214 173 t f f b;
#X obj -372 170 inlet~;
#X obj 92 54 inlet;
#X obj -67 518 outlet~;
#X obj -249 62 inlet;
#X text -246 45 level (0..1);
#X obj -107 37 inlet;
#X text 90 39 ratio;
#X text -121 19 res/decay (1..10000);
#X obj -320 98 inlet;
#X text -322 79 freq;
#X obj -63 433 vcf~ 1;
#X connect 0 0 24 1;
#X connect 1 0 16 0;
#X connect 2 0 4 0;
#X connect 3 0 12 0;
#X connect 4 0 3 0;
#X connect 4 1 3 1;
#X connect 5 0 8 1;
#X connect 6 0 5 0;
#X connect 7 0 9 0;
#X connect 7 1 6 0;
#X connect 8 0 0 1;
#X connect 9 0 8 0;
#X connect 10 0 11 0;
#X connect 11 0 1 1;
#X connect 12 0 11 1;
#X connect 13 0 10 0;
#X connect 13 1 10 1;
#X connect 13 2 12 0;
#X connect 14 0 24 0;
#X connect 15 0 7 0;
#X connect 17 0 13 0;
#X connect 19 0 2 0;
#X connect 19 0 24 2;
#X connect 22 0 0 0;
#X connect 24 0 1 0;
#X restore 218 464 pd reaonbp;
#N canvas 419 377 628 478 reaonbp 0;
#X obj 23 233 *;
#X obj -85 483 *~;
#X obj -142 87 log;
#X obj -147 142 *;
#X obj -150 116 t f f;
#X obj 85 157 pow -1;
#X obj 86 135 * -1;
#X obj 63 104 t f f;
#X obj 47 190 +;
#X obj 20 149 clip 0 16;
#X obj -211 198 *;
#X obj -165 257 *;
#X obj -139 229 float;
#X obj -214 173 t f f b;
#X obj -372 170 inlet~;
#X obj 92 54 inlet;
#X obj -67 518 outlet~;
#X obj -249 62 inlet;
#X text -246 45 level (0..1);
#X obj -107 37 inlet;
#X text 90 39 ratio;
#X text -121 19 res/decay (1..10000);
#X obj -320 98 inlet;
#X text -322 79 freq;
#X obj -63 433 vcf~ 1;
#X connect 0 0 24 1;
#X connect 1 0 16 0;
#X connect 2 0 4 0;
#X connect 3 0 12 0;
#X connect 4 0 3 0;
#X connect 4 1 3 1;
#X connect 5 0 8 1;
#X connect 6 0 5 0;
#X connect 7 0 9 0;
#X connect 7 1 6 0;
#X connect 8 0 0 1;
#X connect 9 0 8 0;
#X connect 10 0 11 0;
#X connect 11 0 1 1;
#X connect 12 0 11 1;
#X connect 13 0 10 0;
#X connect 13 1 10 1;
#X connect 13 2 12 0;
#X connect 14 0 24 0;
#X connect 15 0 7 0;
#X connect 17 0 13 0;
#X connect 19 0 2 0;
#X connect 19 0 24 2;
#X connect 22 0 0 0;
#X connect 24 0 1 0;
#X restore 251 499 pd reaonbp;
#N canvas 419 377 628 478 reaonbp 0;
#X obj 23 233 *;
#X obj -85 483 *~;
#X obj -142 87 log;
#X obj -147 142 *;
#X obj -150 116 t f f;
#X obj 85 157 pow -1;
#X obj 86 135 * -1;
#X obj 63 104 t f f;
#X obj 47 190 +;
#X obj 20 149 clip 0 16;
#X obj -211 198 *;
#X obj -165 257 *;
#X obj -139 229 float;
#X obj -214 173 t f f b;
#X obj -372 170 inlet~;
#X obj 92 54 inlet;
#X obj -67 518 outlet~;
#X obj -249 62 inlet;
#X text -246 45 level (0..1);
#X obj -107 37 inlet;
#X text 90 39 ratio;
#X text -121 19 res/decay (1..10000);
#X obj -320 98 inlet;
#X text -322 79 freq;
#X obj -63 433 vcf~ 1;
#X connect 0 0 24 1;
#X connect 1 0 16 0;
#X connect 2 0 4 0;
#X connect 3 0 12 0;
#X connect 4 0 3 0;
#X connect 4 1 3 1;
#X connect 5 0 8 1;
#X connect 6 0 5 0;
#X connect 7 0 9 0;
#X connect 7 1 6 0;
#X connect 8 0 0 1;
#X connect 9 0 8 0;
#X connect 10 0 11 0;
#X connect 11 0 1 1;
#X connect 12 0 11 1;
#X connect 13 0 10 0;
#X connect 13 1 10 1;
#X connect 13 2 12 0;
#X connect 14 0 24 0;
#X connect 15 0 7 0;
#X connect 17 0 13 0;
#X connect 19 0 2 0;
#X connect 19 0 24 2;
#X connect 22 0 0 0;
#X connect 24 0 1 0;
#X restore 280 531 pd reaonbp;
#X obj 13 54 noise~;
#X obj 112 90 line~;
#X msg 72 38 0 10;
#X obj 114 42 float;
#X obj 90 -5 t b b f;
#X obj 99 121 *~;
#X obj 77 -42 inlet;
#X text 72 -59 trig 0..1;
#X connect 0 0 1 0;
#X connect 2 0 6 0;
#X connect 3 0 7 0;
#X connect 6 0 0 1;
#X connect 6 0 8 1;
#X connect 6 0 9 1;
#X connect 6 0 10 1;
#X connect 6 0 11 1;
#X connect 7 0 0 2;
#X connect 7 1 0 3;
#X connect 7 2 0 4;
#X connect 7 3 8 2;
#X connect 7 4 8 3;
#X connect 7 5 8 4;
#X connect 7 6 9 2;
#X connect 7 7 9 3;
#X connect 7 8 9 4;
#X connect 7 9 10 2;
#X connect 7 10 10 3;
#X connect 7 11 10 4;
#X connect 7 12 11 2;
#X connect 7 13 11 3;
#X connect 7 14 11 4;
#X connect 8 0 1 0;
#X connect 9 0 1 0;
#X connect 10 0 1 0;
#X connect 11 0 1 0;
#X connect 12 0 17 0;
#X connect 13 0 17 1;
#X connect 14 0 13 0;
#X connect 15 0 13 0;
#X connect 16 0 14 0;
#X connect 16 1 15 0;
#X connect 16 2 15 1;
#X connect 17 0 0 0;
#X connect 17 0 8 0;
#X connect 17 0 9 0;
#X connect 17 0 10 0;
#X connect 17 0 11 0;
#X connect 18 0 16 0;
#X restore 1063 1139 pd monomode;
#X obj 548 656 nbx 3 14 0 127 0 0 \$0-note9 \$0-note9 empty 0 -8 0
10 -262144 -1 -1 0 256;
#X obj 873 1208 outlet~;
#X obj 38 24 inlet;
#X obj 77 23 inlet;
#X obj 118 23 inlet;
#X obj 171 22 inlet;
#X obj 210 21 inlet;
#X obj 251 21 inlet;
#X obj 298 18 inlet;
#X obj 337 17 inlet;
#X obj 378 17 inlet;
#X obj 1026 80 unpack f f f f f f f f f;
#X obj 439 28 inlet;
#X text 141 0 triggers (0..1);
#X text 438 7 scale;
#X obj 495 27 inlet;
#X obj 392 167 random 32;
#X obj 390 233 - 16;
#X msg 604 114 32;
#X obj 622 146 /;
#X obj 650 116 pow -1;
#X obj 610 85 t b f;
#X obj 427 189 t f f;
#X obj 426 212 * 0.5;
#X obj 391 255 /;
#X obj 399 278 +;
#X obj 399 139 t b b;
#X obj 608 622 nbx 3 14 1 8 0 1 empty empty rat -20 7 0 10 -262144
-1 -1 1 256;
#X obj 668 622 nbx 3 14 0 99 0 1 empty empty fin -20 7 0 10 -262144
-1 -1 2 256;
#X obj 569 197 * 10;
#X obj 451 236 random;
#X obj 271 231 random 32;
#X obj 279 299 - 16;
#X obj 316 255 t f f;
#X obj 315 278 * 0.5;
#X obj 280 321 /;
#X obj 288 344 +;
#X obj 278 203 t b b;
#X obj 340 302 random;
#X obj 443 264 / 10000;
#X obj 332 330 / 10000;
#X obj 195 316 random 32;
#X obj 203 384 - 16;
#X obj 240 340 t f f;
#X obj 239 363 * 0.5;
#X obj 204 406 /;
#X obj 212 429 +;
#X obj 202 288 t b b;
#X obj 264 387 random;
#X obj 256 415 / 10000;
#X obj 114 402 random 32;
#X obj 122 470 - 16;
#X obj 159 426 t f f;
#X obj 158 449 * 0.5;
#X obj 123 492 /;
#X obj 131 515 +;
#X obj 121 374 t b b;
#X obj 183 473 random;
#X obj 175 501 / 10000;
#X obj 38 487 random 32;
#X obj 46 555 - 16;
#X obj 83 511 t f f;
#X obj 82 534 * 0.5;
#X obj 47 577 /;
#X obj 55 600 +;
#X obj 45 459 t b b;
#X obj 107 558 random;
#X obj 99 586 / 10000;
#X text 160 101 random ratios;
#X text 1099 170 random levels;
#X msg 742 30 48 50 57 58 60 62 64 65 69;
#X msg 761 73 48 50 52 55 57 60 62 64 67;
#X msg 769 94 48 51 53 55 58 60 63 65 67;
#X msg 754 52 48 51 55 58 60 62 63 65 70;
#X text 496 8 transp;
#X obj 1026 55 r \$0-scale;
#X obj 424 55 s \$0-scale;
#X obj 698 136 s \$0-scale;
#X obj 772 892 r \$0-trsp;
#X obj 504 58 s \$0-trsp;
#X obj 865 1004 bondo;
#X obj 905 1004 bondo;
#X obj 945 1004 bondo;
#X obj 985 1004 bondo;
#X obj 1025 1004 bondo;
#X obj 1065 1004 bondo;
#X obj 745 1004 bondo;
#X obj 785 1004 bondo;
#X obj 825 1004 bondo;
#X obj 745 1025 +;
#X obj 785 1025 +;
#X obj 825 1025 +;
#X obj 865 1025 +;
#X obj 905 1025 +;
#X obj 945 1025 +;
#X obj 985 1025 +;
#X obj 1025 1025 +;
#X obj 1065 1025 +;
#X obj 1121 805 r \$0-note1;
#X obj 1121 821 r \$0-note2;
#X obj 1121 837 r \$0-note3;
#X obj 1121 853 r \$0-note4;
#X obj 1121 869 r \$0-note5;
#X obj 1121 885 r \$0-note6;
#X obj 1121 901 r \$0-note7;
#X obj 1121 917 r \$0-note8;
#X obj 1121 933 r \$0-note9;
#X obj 940 129 s \$0-note1;
#X obj 940 145 s \$0-note2;
#X obj 940 161 s \$0-note3;
#X obj 940 177 s \$0-note4;
#X obj 940 193 s \$0-note5;
#X obj 940 209 s \$0-note6;
#X obj 940 225 s \$0-note7;
#X obj 940 241 s \$0-note8;
#X obj 940 257 s \$0-note9;
#X obj 38 45 s \$0-tr1;
#X obj 711 1113 r \$0-tr1;
#X obj 76 68 s \$0-tr2;
#X obj 755 1063 r \$0-tr2;
#X obj 118 44 s \$0-tr3;
#X obj 795 1115 r \$0-tr3;
#X obj 169 72 s \$0-tr4;
#X obj 836 1059 r \$0-tr4;
#X obj 192 49 s \$0-tr5;
#X obj 883 1116 r \$0-tr5;
#X obj 250 61 s \$0-tr6;
#X obj 920 1064 r \$0-tr6;
#X obj 298 39 s \$0-tr7;
#X obj 330 73 s \$0-tr8;
#X obj 357 48 s \$0-tr9;
#X obj 973 1111 r \$0-tr7;
#X obj 1002 1071 r \$0-tr8;
#X obj 1062 1116 r \$0-tr9;
#X obj 1114 186 r \$0-rnd_l;
#X obj 1094 207 randf;
#X obj 1134 207 randf;
#X obj 1050 244 s \$0-lev1;
#X obj 1050 260 s \$0-lev2;
#X obj 1050 276 s \$0-lev3;
#X obj 1050 292 s \$0-lev4;
#X obj 1050 308 s \$0-lev5;
#N canvas 0 50 1547 666 savestate 0;
#X obj 194 225 f;
#X obj 143 200 savestate;
#X obj 334 57 r \$0-note1;
#X obj 334 73 r \$0-note2;
#X obj 334 89 r \$0-note3;
#X obj 334 105 r \$0-note4;
#X obj 334 121 r \$0-note5;
#X obj 334 137 r \$0-note6;
#X obj 334 153 r \$0-note7;
#X obj 334 169 r \$0-note8;
#X obj 334 185 r \$0-note9;
#X obj 125 323 s \$0-note1;
#X obj 125 339 s \$0-note2;
#X obj 125 355 s \$0-note3;
#X obj 125 371 s \$0-note4;
#X obj 125 387 s \$0-note5;
#X obj 125 403 s \$0-note6;
#X obj 125 419 s \$0-note7;
#X obj 125 435 s \$0-note8;
#X obj 125 451 s \$0-note9;
#X obj 234 371 s \$0-lev1;
#X obj 234 387 s \$0-lev2;
#X obj 234 403 s \$0-lev3;
#X obj 234 419 s \$0-lev4;
#X obj 234 435 s \$0-lev5;
#X obj 414 106 r \$0-fin;
#X obj 234 355 s \$0-fin;
#X obj 311 370 s \$0-rat1;
#X obj 311 386 s \$0-rat2;
#X obj 311 354 s \$0-rat;
#X obj 311 402 s \$0-rat3;
#X obj 311 418 s \$0-rat4;
#X obj 311 434 s \$0-rat5;
#X obj 499 107 r \$0-rat;
#X obj 499 123 r \$0-rat1;
#X obj 499 139 r \$0-rat2;
#X obj 499 155 r \$0-rat3;
#X obj 499 171 r \$0-rat4;
#X obj 499 187 r \$0-rat5;
#X obj 414 122 r \$0-lev1;
#X obj 414 138 r \$0-lev2;
#X obj 414 154 r \$0-lev3;
#X obj 414 170 r \$0-lev4;
#X obj 414 186 r \$0-lev5;
#X obj 601 122 r \$0-dec1;
#X obj 601 138 r \$0-dec2;
#X obj 601 170 r \$0-dec4;
#X obj 601 186 r \$0-dec5;
#X obj 194 248 pack f f f f f f f f f f f f f f f f f f f f f f f f
f f;
#X obj 143 267 unpack f f f f f f f f f f f f f f f f f f f f f f f
f f f;
#X obj 387 363 s \$0-dec1;
#X obj 387 379 s \$0-dec2;
#X obj 387 411 s \$0-dec4;
#X obj 387 427 s \$0-dec5;
#X obj 387 395 s \$0-dec3;
#X obj 601 154 r \$0-dec3;
#X connect 0 0 48 0;
#X connect 1 0 49 0;
#X connect 1 1 0 0;
#X connect 2 0 0 1;
#X connect 3 0 48 1;
#X connect 4 0 48 2;
#X connect 5 0 48 3;
#X connect 6 0 48 4;
#X connect 7 0 48 5;
#X connect 8 0 48 6;
#X connect 9 0 48 7;
#X connect 10 0 48 8;
#X connect 25 0 48 9;
#X connect 33 0 48 15;
#X connect 34 0 48 16;
#X connect 35 0 48 17;
#X connect 36 0 48 18;
#X connect 37 0 48 19;
#X connect 38 0 48 20;
#X connect 39 0 48 10;
#X connect 40 0 48 11;
#X connect 41 0 48 12;
#X connect 42 0 48 13;
#X connect 43 0 48 14;
#X connect 44 0 48 21;
#X connect 45 0 48 22;
#X connect 46 0 48 24;
#X connect 47 0 48 25;
#X connect 48 0 1 0;
#X connect 49 0 11 0;
#X connect 49 1 12 0;
#X connect 49 2 13 0;
#X connect 49 3 14 0;
#X connect 49 4 15 0;
#X connect 49 5 16 0;
#X connect 49 6 17 0;
#X connect 49 7 18 0;
#X connect 49 8 19 0;
#X connect 49 9 26 0;
#X connect 49 10 20 0;
#X connect 49 11 21 0;
#X connect 49 12 22 0;
#X connect 49 13 23 0;
#X connect 49 14 24 0;
#X connect 49 15 29 0;
#X connect 49 16 27 0;
#X connect 49 17 28 0;
#X connect 49 18 30 0;
#X connect 49 19 31 0;
#X connect 49 20 32 0;
#X connect 49 21 50 0;
#X connect 49 22 51 0;
#X connect 49 23 54 0;
#X connect 49 24 52 0;
#X connect 49 25 53 0;
#X connect 55 0 48 23;
#X restore 26 156 pd savestate;
#X obj 541 351 s \$0-rat1;
#X obj 304 733 r \$0-rat1;
#X obj 337 438 s \$0-rat2;
#X obj 304 749 r \$0-rat2;
#X obj 304 765 r \$0-rat3;
#X obj 249 506 s \$0-rat3;
#X obj 304 781 r \$0-rat4;
#X obj 191 565 s \$0-rat4;
#X obj 304 797 r \$0-rat5;
#X obj 56 641 s \$0-rat5;
#X obj 60 729 r \$0-lev1;
#X obj 60 745 r \$0-lev2;
#X obj 60 761 r \$0-lev3;
#X obj 60 777 r \$0-lev4;
#X obj 60 793 r \$0-lev5;
#X obj 57 917 bondo 15 -------------------------;
#X obj 170 733 r \$0-dec1;
#X obj 170 749 r \$0-dec2;
#X obj 170 781 r \$0-dec4;
#X obj 170 797 r \$0-dec5;
#X obj 914 425 r \$0-fin;
#X obj 999 426 r \$0-rat;
#X obj 170 765 r \$0-dec3;
#X text 587 8 adapted from peter brinkmann;
#X connect 0 0 20 0;
#X connect 16 0 62 0;
#X connect 16 0 73 0;
#X connect 16 0 83 0;
#X connect 16 0 92 0;
#X connect 16 0 101 0;
#X connect 17 0 0 2;
#X connect 17 0 21 2;
#X connect 17 0 25 2;
#X connect 17 0 27 2;
#X connect 17 0 29 2;
#X connect 17 0 31 2;
#X connect 17 0 33 2;
#X connect 17 0 35 2;
#X connect 17 0 23 2;
#X connect 20 0 37 0;
#X connect 21 0 20 0;
#X connect 23 0 20 0;
#X connect 25 0 20 0;
#X connect 27 0 20 0;
#X connect 29 0 20 0;
#X connect 31 0 20 0;
#X connect 33 0 20 0;
#X connect 35 0 20 0;
#X connect 38 0 152 0;
#X connect 39 0 154 0;
#X connect 40 0 156 0;
#X connect 41 0 158 0;
#X connect 42 0 160 0;
#X connect 43 0 162 0;
#X connect 44 0 164 0;
#X connect 45 0 165 0;
#X connect 46 0 166 0;
#X connect 47 0 143 0;
#X connect 47 1 144 0;
#X connect 47 2 145 0;
#X connect 47 3 146 0;
#X connect 47 4 147 0;
#X connect 47 5 148 0;
#X connect 47 6 149 0;
#X connect 47 7 150 0;
#X connect 47 8 151 0;
#X connect 48 0 112 0;
#X connect 51 0 115 0;
#X connect 52 0 53 0;
#X connect 53 0 60 0;
#X connect 54 0 55 0;
#X connect 55 0 58 0;
#X connect 55 0 69 0;
#X connect 55 0 79 0;
#X connect 55 0 88 0;
#X connect 55 0 97 0;
#X connect 56 0 55 1;
#X connect 57 0 54 0;
#X connect 57 1 56 0;
#X connect 58 0 59 0;
#X connect 58 1 52 1;
#X connect 59 0 53 1;
#X connect 60 0 61 0;
#X connect 61 0 179 0;
#X connect 62 0 52 0;
#X connect 62 1 66 0;
#X connect 63 0 57 0;
#X connect 63 0 60 1;
#X connect 63 0 71 1;
#X connect 63 0 81 1;
#X connect 63 0 90 1;
#X connect 63 0 99 1;
#X connect 64 0 65 0;
#X connect 65 0 66 1;
#X connect 65 0 74 1;
#X connect 65 0 84 1;
#X connect 65 0 93 1;
#X connect 65 0 102 1;
#X connect 66 0 75 0;
#X connect 67 0 68 0;
#X connect 68 0 71 0;
#X connect 69 0 70 0;
#X connect 69 1 67 1;
#X connect 70 0 68 1;
#X connect 71 0 72 0;
#X connect 72 0 181 0;
#X connect 73 0 67 0;
#X connect 73 1 74 0;
#X connect 74 0 76 0;
#X connect 75 0 61 1;
#X connect 76 0 72 1;
#X connect 77 0 78 0;
#X connect 78 0 81 0;
#X connect 79 0 80 0;
#X connect 79 1 77 1;
#X connect 80 0 78 1;
#X connect 81 0 82 0;
#X connect 82 0 184 0;
#X connect 83 0 77 0;
#X connect 83 1 84 0;
#X connect 84 0 85 0;
#X connect 85 0 82 1;
#X connect 86 0 87 0;
#X connect 87 0 90 0;
#X connect 88 0 89 0;
#X connect 88 1 86 1;
#X connect 89 0 87 1;
#X connect 90 0 91 0;
#X connect 91 0 186 0;
#X connect 92 0 86 0;
#X connect 92 1 93 0;
#X connect 93 0 94 0;
#X connect 94 0 91 1;
#X connect 95 0 96 0;
#X connect 96 0 99 0;
#X connect 97 0 98 0;
#X connect 97 1 95 1;
#X connect 98 0 96 1;
#X connect 99 0 100 0;
#X connect 100 0 188 0;
#X connect 101 0 95 0;
#X connect 101 1 102 0;
#X connect 102 0 103 0;
#X connect 103 0 100 1;
#X connect 106 0 113 0;
#X connect 107 0 113 0;
#X connect 108 0 113 0;
#X connect 109 0 113 0;
#X connect 111 0 47 0;
#X connect 114 0 116 1;
#X connect 114 0 117 1;
#X connect 114 0 118 1;
#X connect 114 0 119 1;
#X connect 114 0 120 1;
#X connect 114 0 121 1;
#X connect 114 0 124 1;
#X connect 114 0 123 1;
#X connect 114 0 122 1;
#X connect 116 0 128 0;
#X connect 116 1 128 1;
#X connect 117 0 129 0;
#X connect 117 1 129 1;
#X connect 118 0 130 0;
#X connect 118 1 130 1;
#X connect 119 0 131 0;
#X connect 119 1 131 1;
#X connect 120 0 132 0;
#X connect 120 1 132 1;
#X connect 121 0 133 0;
#X connect 121 1 133 1;
#X connect 122 0 125 0;
#X connect 122 1 125 1;
#X connect 123 0 126 0;
#X connect 123 1 126 1;
#X connect 124 0 127 0;
#X connect 124 1 127 1;
#X connect 125 0 21 1;
#X connect 126 0 23 1;
#X connect 127 0 0 1;
#X connect 128 0 25 1;
#X connect 129 0 27 1;
#X connect 130 0 29 1;
#X connect 131 0 31 1;
#X connect 132 0 33 1;
#X connect 133 0 35 1;
#X connect 134 0 122 0;
#X connect 135 0 123 0;
#X connect 136 0 124 0;
#X connect 137 0 116 0;
#X connect 138 0 117 0;
#X connect 139 0 118 0;
#X connect 140 0 119 0;
#X connect 141 0 120 0;
#X connect 142 0 121 0;
#X connect 153 0 21 0;
#X connect 155 0 23 0;
#X connect 157 0 0 0;
#X connect 159 0 25 0;
#X connect 161 0 27 0;
#X connect 163 0 29 0;
#X connect 167 0 31 0;
#X connect 168 0 33 0;
#X connect 169 0 35 0;
#X connect 170 0 171 0;
#X connect 170 0 172 0;
#X connect 171 0 173 0;
#X connect 171 1 174 0;
#X connect 171 2 175 0;
#X connect 172 0 176 0;
#X connect 172 1 177 0;
#X connect 180 0 194 2;
#X connect 182 0 194 5;
#X connect 183 0 194 8;
#X connect 185 0 194 11;
#X connect 187 0 194 14;
#X connect 189 0 194 0;
#X connect 190 0 194 3;
#X connect 191 0 194 6;
#X connect 192 0 194 9;
#X connect 193 0 194 12;
#X connect 194 0 17 0;
#X connect 194 1 17 1;
#X connect 194 2 17 2;
#X connect 194 3 17 3;
#X connect 194 4 17 4;
#X connect 194 5 17 5;
#X connect 194 6 17 6;
#X connect 194 7 17 7;
#X connect 194 8 17 8;
#X connect 194 9 17 9;
#X connect 194 10 17 10;
#X connect 194 11 17 11;
#X connect 194 12 17 12;
#X connect 194 13 17 13;
#X connect 194 14 17 14;
#X connect 195 0 194 1;
#X connect 196 0 194 4;
#X connect 197 0 194 10;
#X connect 198 0 194 13;
#X connect 201 0 194 7;
#X coords 0 -1 1 1 280 160 1 450 600;
