#N canvas 681 154 814 610 10;
#X obj 24 198 lineb;
#X obj 24 23 inlet;
#X obj 90 24 inlet;
#X obj 180 24 inlet;
#X obj 337 24 loadbang;
#X obj 337 45 list \$1;
#X obj 417 45 list \$2;
#X obj 417 136 s \$0-decay;
#X obj 337 136 s \$0-attack;
#X obj 90 45 s \$0-attack;
#X obj 180 45 s \$0-decay;
#X obj 69 112 r \$0-attack;
#X obj 149 112 r \$0-decay;
#X msg 24 141 1;
#X msg 134 141 0;
#X floatatom 69 139 5 0 0 0 - - -, f 5;
#X floatatom 179 139 5 0 0 0 - - -, f 5;
#X obj 24 165 pack f f;
#X obj 134 165 pack f f;
#X obj 51 219 bng 15 50 10 0 empty empty empty 17 7 0 10 -262144 -1
-1;
#X obj 337 66 sel 0;
#X msg 337 87 1;
#X obj 417 66 sel 0;
#X msg 417 87 1;
#X obj 24 259 outlet;
#X connect 0 0 24 0;
#X connect 0 1 19 0;
#X connect 1 0 13 0;
#X connect 2 0 9 0;
#X connect 3 0 10 0;
#X connect 4 0 5 0;
#X connect 4 0 6 0;
#X connect 5 0 20 0;
#X connect 6 0 22 0;
#X connect 11 0 15 0;
#X connect 12 0 16 0;
#X connect 13 0 17 0;
#X connect 14 0 18 0;
#X connect 15 0 17 1;
#X connect 16 0 18 1;
#X connect 17 0 0 0;
#X connect 18 0 0 0;
#X connect 19 0 14 0;
#X connect 20 0 21 0;
#X connect 20 1 8 0;
#X connect 21 0 8 0;
#X connect 22 0 23 0;
#X connect 22 1 7 0;
#X connect 23 0 7 0;
