#N canvas 448 406 802 395 10;
#X obj 133 72 inlet;
#X msg 133 92 bang;
#X obj 210 47 inlet;
#X text 205 25 attack;
#X obj 285 47 inlet;
#X text 280 25 decay;
#X obj 210 86 s \$0-attack;
#X obj 285 86 s \$0-decay;
#X obj 133 242 pack f f;
#X obj 181 318 outlet~;
#X obj 181 288 vline~;
#X msg 132 136 1;
#X obj 202 140 r \$0-attack;
#X obj 282 140 r \$0-decay;
#X floatatom 202 159 5 0 0 0 - - -;
#X floatatom 282 159 5 0 0 0 - - -;
#X msg 221 216 0;
#X obj 133 111 t b b;
#X obj 221 242 pack f f f;
#X obj 220 194 delay;
#X obj 504 94 f;
#X obj 504 116 pack;
#X obj 453 68 savestate;
#X obj 453 134 unpack;
#X obj 453 188 s \$0-attack;
#X obj 528 188 s \$0-decay;
#X obj 540 46 r \$0-attack;
#X obj 615 46 r \$0-decay;
#X obj 379 232 spigot 1;
#X msg 398 162 0;
#X obj 379 212 ii 1;
#X obj 443 233 spigot 1;
#X obj 443 213 ii 40;
#X obj 14 13 nbx 3 14 0 1e+37 0 0 \$0-attack \$0-attack a -10 7 0 10
-262144 -1 -1 3 256;
#X obj 14 27 nbx 3 14 0 1e+37 0 0 \$0-decay \$0-decay d -10 7 0 10
-262144 -1 -1 40 256;
#X obj 210 67 max 0;
#X obj 285 67 max 0;
#X connect 0 0 1 0;
#X connect 1 0 17 0;
#X connect 2 0 35 0;
#X connect 4 0 36 0;
#X connect 8 0 10 0;
#X connect 10 0 9 0;
#X connect 11 0 8 0;
#X connect 12 0 14 0;
#X connect 13 0 15 0;
#X connect 14 0 8 1;
#X connect 14 0 18 2;
#X connect 14 0 19 1;
#X connect 15 0 18 1;
#X connect 16 0 18 0;
#X connect 17 0 11 0;
#X connect 17 1 19 0;
#X connect 18 0 10 0;
#X connect 19 0 16 0;
#X connect 20 0 21 0;
#X connect 21 0 22 0;
#X connect 22 0 23 0;
#X connect 22 1 20 0;
#X connect 23 0 24 0;
#X connect 23 0 29 0;
#X connect 23 1 25 0;
#X connect 26 0 20 1;
#X connect 27 0 21 1;
#X connect 28 0 24 0;
#X connect 29 0 28 1;
#X connect 29 0 31 1;
#X connect 30 0 28 0;
#X connect 31 0 25 0;
#X connect 32 0 31 0;
#X connect 35 0 6 0;
#X connect 36 0 7 0;
#X coords 0 -1 1 1 50 43 1 0 0;
