#N canvas 562 60 597 393 10;
#X obj 43 42 inlet;
#X msg 43 62 bang;
#X obj 120 47 inlet;
#X text 115 25 attack;
#X obj 195 47 inlet;
#X text 190 25 decay;
#X obj 318 32 loadbang;
#X obj 318 72 list \$1;
#X obj 318 91 sel 0;
#X msg 318 111 1;
#X obj 318 130 s \$0-attack;
#X obj 120 66 s \$0-attack;
#X obj 195 66 s \$0-decay;
#X obj 393 91 sel 0;
#X msg 393 111 1;
#X obj 393 130 s \$0-decay;
#X obj 393 72 list \$2;
#X obj 43 212 pack f f;
#X obj 91 288 outlet~;
#X obj 91 258 vline~;
#X msg 42 106 1;
#X obj 112 110 r \$0-attack;
#X obj 192 110 r \$0-decay;
#X floatatom 112 129 5 0 0 0 - - -, f 5;
#X floatatom 192 129 5 0 0 0 - - -, f 5;
#X msg 131 186 0;
#X obj 43 81 t b b;
#X obj 131 212 pack f f f;
#X obj 130 164 delay;
#X connect 0 0 1 0;
#X connect 1 0 26 0;
#X connect 2 0 11 0;
#X connect 4 0 12 0;
#X connect 6 0 7 0;
#X connect 6 0 16 0;
#X connect 7 0 8 0;
#X connect 8 0 9 0;
#X connect 8 1 10 0;
#X connect 9 0 10 0;
#X connect 13 0 14 0;
#X connect 13 1 15 0;
#X connect 14 0 15 0;
#X connect 16 0 13 0;
#X connect 17 0 19 0;
#X connect 19 0 18 0;
#X connect 20 0 17 0;
#X connect 21 0 23 0;
#X connect 22 0 24 0;
#X connect 23 0 17 1;
#X connect 23 0 27 2;
#X connect 23 0 28 1;
#X connect 24 0 27 1;
#X connect 25 0 27 0;
#X connect 26 0 20 0;
#X connect 26 1 28 0;
#X connect 27 0 19 0;
#X connect 28 0 25 0;
