#N canvas 192 29 706 540 10;
#X obj 38 34 inlet;
#X obj 72 491 outlet~;
#X obj 72 342 osc~;
#X floatatom 72 316 5 0 0 0 - - -, f 5;
#X obj 72 465 *~;
#X obj 132 342 osc~;
#X floatatom 132 315 5 0 0 0 - - -, f 5;
#X obj 132 430 +~ 1;
#X obj 132 404 *~;
#X floatatom 150 386 5 0 1 0 - - -, f 5;
#X obj 98 34 inlet;
#X obj 98 56 s \$0-modfreq;
#N canvas 0 50 450 300 handle_args 0;
#X obj 40 34 loadbang;
#X obj 40 106 list \$1;
#X obj 40 128 s \$0-modfreq;
#X obj 140 128 s \$0-moddepth;
#X obj 240 128 s \$0-ratio;
#X obj 140 106 list \$2;
#X obj 240 106 list \$3;
#X connect 0 0 1 0;
#X connect 0 0 5 0;
#X connect 0 0 6 0;
#X connect 1 0 2 0;
#X connect 5 0 3 0;
#X connect 6 0 4 0;
#X restore 434 57 pd handle_args;
#X obj 198 34 inlet;
#X obj 198 56 s \$0-moddepth;
#X obj 298 34 inlet;
#X obj 298 57 s \$0-ratio;
#X obj 38 56 mtof;
#X obj 248 90 r \$0-ratio;
#X obj 158 151 == 0;
#X obj 119 182 spigot;
#X obj 179 182 spigot;
#X obj 218 151 != 0;
#X obj 119 106 r \$0-modfreq;
#X obj 163 228 f;
#X obj 179 204 t b f;
#X obj 163 250 *;
#X obj 180 315 r \$0-moddepth;
#X floatatom 377 220 5 0 0 0 note - -, f 5;
#X floatatom 377 240 5 0 0 0 mod-freq - -, f 5;
#X floatatom 457 220 5 0 0 0 ratio - -, f 5;
#X floatatom 457 240 5 0 0 0 depth - -, f 5;
#X obj 248 111 t f f;
#X obj 163 272 spigot;
#X obj 180 337 clip 0 1;
#X connect 0 0 28 0;
#X connect 2 0 4 0;
#X connect 3 0 2 0;
#X connect 4 0 1 0;
#X connect 5 0 8 0;
#X connect 6 0 29 0;
#X connect 7 0 4 1;
#X connect 8 0 7 0;
#X connect 9 0 8 1;
#X connect 10 0 11 0;
#X connect 13 0 14 0;
#X connect 15 0 16 0;
#X connect 17 0 3 0;
#X connect 17 0 24 0;
#X connect 18 0 30 0;
#X connect 19 0 20 1;
#X connect 20 0 6 0;
#X connect 21 0 25 0;
#X connect 22 0 21 1;
#X connect 22 0 33 1;
#X connect 23 0 20 0;
#X connect 24 0 26 0;
#X connect 25 0 24 0;
#X connect 25 1 26 1;
#X connect 26 0 33 0;
#X connect 27 0 34 0;
#X connect 28 0 17 0;
#X connect 29 0 5 0;
#X connect 30 0 32 0;
#X connect 31 0 9 0;
#X connect 32 0 21 0;
#X connect 32 1 22 0;
#X connect 32 1 19 0;
#X connect 33 0 6 0;
#X connect 34 0 31 0;
#X coords 0 -1 1 1 186 56 1 350 200;
