#N canvas 0 50 701 573 10;
#X obj 160 148 t l b;
#X obj 140 173 list-drip;
#X obj 193 193 f;
#X obj 223 193 + 1;
#X msg 210 173 0;
#X obj 140 193 t f b;
#X obj 160 52 inlet;
#X obj 160 91 route list;
#X obj 148 252 tabwrite;
#X connect 0 0 1 0;
#X connect 0 1 4 0;
#X connect 1 0 5 0;
#X connect 2 0 3 0;
#X connect 2 0 8 1;
#X connect 3 0 2 1;
#X connect 4 0 2 1;
#X connect 5 0 8 0;
#X connect 5 1 2 0;
#X connect 6 0 7 0;
#X connect 7 0 0 0;
#X connect 7 1 8 0;
