#N canvas 550 29 1111 608 10;
#X obj 114 155 count;
#X obj 116 280 list store;
#X obj 114 238 list store;
#X obj 192 237 list store;
#X msg 239 155 bang;
#X obj 116 310 route bang;
#X obj 241 181 t b b b;
#X obj 114 122 t f b;
#X obj 167 358 list-rev;
#X obj 107 36 inlet;
#X obj 114 183 tabread;
#X obj 167 379 outlet;
#X obj 107 75 route float;
#X connect 0 0 10 0;
#X connect 0 1 1 0;
#X connect 1 0 5 0;
#X connect 2 0 1 1;
#X connect 2 0 3 0;
#X connect 3 0 2 1;
#X connect 4 0 6 0;
#X connect 5 1 8 0;
#X connect 6 0 1 0;
#X connect 6 1 2 0;
#X connect 6 2 3 0;
#X connect 7 0 0 0;
#X connect 7 1 4 0;
#X connect 8 0 11 0;
#X connect 9 0 12 0;
#X connect 10 0 2 0;
#X connect 12 0 7 0;
#X connect 12 1 10 0;
