#N canvas 720 133 450 300 10;
#X obj 30 20 inlet;
#X obj 57 219 outlet;
#X obj 80 92 ii 1;
#X obj 57 174 spigot;
#X obj 268 71 loadbang;
#X obj 268 92 list \$1;
#X obj 268 113 sel 0;
#X msg 268 134 0.001;
#X obj 30 41 t b b;
#X msg 116 71 0;
#X msg 116 92 1;
#X obj 116 133 pipe;
#X obj 137 113 r \$0-close_time;
#X obj 268 155 s \$0-close_time;
#X connect 0 0 8 0;
#X connect 2 0 3 1;
#X connect 3 0 1 0;
#X connect 4 0 5 0;
#X connect 5 0 6 0;
#X connect 6 0 7 0;
#X connect 6 1 13 0;
#X connect 7 0 13 0;
#X connect 8 0 9 0;
#X connect 8 1 3 0;
#X connect 9 0 3 1;
#X connect 9 0 10 0;
#X connect 10 0 11 0;
#X connect 11 0 3 1;
#X connect 12 0 11 1;
