#N canvas 641 469 313 182 10;
#X obj 77 30 bng 15 250 50 0 empty empty empty 17 7 0 10 -262144 -1
-1;
#X obj 77 50 t b b;
#X obj 39 117 bangeater;
#X obj 39 138 print once;
#X obj 123 138 print all;
#X connect 0 0 1 0;
#X connect 1 0 2 0;
#X connect 1 0 4 0;
#X connect 1 1 2 0;
#X connect 1 1 4 0;
#X connect 2 0 3 0;
