#N canvas 188 337 1029 653 10;
#X obj 21 386 bob~;
#X obj 17 280 phasor~;
#X obj 14 182 expr $f1 + 12*$f2;
#X obj 300 196 nbx 2 14 0 8 0 0 \$0-oct \$0-oct oct 0 -8 0 10 -262144
-1 -1 2 256;
#X obj 336 256 nbx 3 14 0 4 0 0 \$0-res \$0-res res 5 -8 0 10 -262144
-1 -1 2 256;
#X obj 33 312 vline~;
#X obj 17 253 mtof;
#X obj 300 256 nbx 3 14 0 100 0 0 \$0-filter \$0-filter filter 0 -8
0 10 -262144 -1 -1 2.82739 256;
#X obj 33 351 *~;
#X obj 90 338 *;
#X obj 336 196 nbx 3 14 1 20 0 0 \$0-pow \$0-pow pow 0 -8 0 10 -262144
-1 -1 12.5605 256;
#X msg 135 288 1 \$1 \, 0 \$2 \$1;
#X msg 109 208 bang;
#X obj 300 225 nbx 3 14 0 200 0 0 \$0-attack \$0-attack attack 0 -8
0 10 -262144 -1 -1 1 256;
#X obj 336 225 nbx 3 14 0 800 0 0 \$0-decay \$0-decay decay 5 -8 0
10 -262144 -1 -1 727.818 256;
#X obj 142 258 pack;
#X obj 146 231 f;
#X obj 33 331 pow~ 1;
#X obj 63 401 vline~;
#X obj 23 435 *~;
#X obj 11 50 inlet;
#X obj 23 456 outlet~;
#X obj 718 125 f;
#X obj 667 100 savestate;
#X obj 827 38 r \$0-oct;
#X obj 827 54 r \$0-pow;
#X obj 827 70 r \$0-attack;
#X obj 827 86 r \$0-decay;
#X obj 827 102 r \$0-filter;
#X obj 827 118 r \$0-res;
#X obj 645 215 s \$0-oct;
#X obj 645 231 s \$0-pow;
#X obj 645 247 s \$0-attack;
#X obj 645 263 s \$0-decay;
#X obj 645 279 s \$0-filter;
#X obj 645 295 s \$0-res;
#X obj 667 171 unpack f f f f f f;
#X obj 718 149 pack f f f f f f;
#X obj 485 236 spigot 1;
#X msg 589 175 0;
#X obj 484 281 spigot 1;
#X obj 485 327 spigot 1;
#X obj 549 236 spigot 1;
#X obj 548 281 spigot 1;
#X obj 549 327 spigot 1;
#X obj 485 215 ii 2;
#X obj 484 260 ii 0;
#X obj 485 305 ii 16;
#X obj 549 215 ii 1;
#X obj 548 260 ii 360;
#X obj 549 306 ii 0;
#X obj 155 47 inlet;
#X text 11 27 note in;
#X obj 155 68 s \$0-pow;
#X obj 213 47 inlet;
#X obj 213 68 s \$0-attack;
#X obj 287 42 inlet;
#X obj 287 63 s \$0-decay;
#X obj 357 43 inlet;
#X obj 357 64 s \$0-filter;
#X obj 432 43 inlet;
#X obj 432 64 s \$0-res;
#X obj 174 237 r \$0-decay;
#X obj 162 208 r \$0-attack;
#X obj 106 315 r \$0-filter;
#X obj 77 263 r \$0-pow;
#X obj 59 365 r \$0-res;
#X obj 89 47 inlet;
#X obj 89 68 s \$0-oct;
#X obj 110 136 r \$0-oct;
#X connect 0 0 19 0;
#X connect 1 0 0 0;
#X connect 2 0 6 0;
#X connect 2 0 12 0;
#X connect 5 0 17 0;
#X connect 6 0 1 0;
#X connect 6 0 9 0;
#X connect 8 0 0 1;
#X connect 9 0 8 1;
#X connect 11 0 5 0;
#X connect 11 0 18 0;
#X connect 12 0 16 0;
#X connect 15 0 11 0;
#X connect 16 0 15 0;
#X connect 17 0 8 0;
#X connect 18 0 19 1;
#X connect 19 0 21 0;
#X connect 20 0 2 0;
#X connect 22 0 37 0;
#X connect 23 0 36 0;
#X connect 23 1 22 0;
#X connect 24 0 22 1;
#X connect 25 0 37 1;
#X connect 26 0 37 2;
#X connect 27 0 37 3;
#X connect 28 0 37 4;
#X connect 29 0 37 5;
#X connect 36 0 30 0;
#X connect 36 0 39 0;
#X connect 36 1 31 0;
#X connect 36 2 32 0;
#X connect 36 3 33 0;
#X connect 36 4 34 0;
#X connect 36 5 35 0;
#X connect 37 0 23 0;
#X connect 38 0 30 0;
#X connect 39 0 38 1;
#X connect 39 0 40 1;
#X connect 39 0 41 1;
#X connect 39 0 42 1;
#X connect 39 0 43 1;
#X connect 39 0 44 1;
#X connect 40 0 32 0;
#X connect 41 0 34 0;
#X connect 42 0 31 0;
#X connect 43 0 33 0;
#X connect 44 0 35 0;
#X connect 45 0 38 0;
#X connect 46 0 40 0;
#X connect 47 0 41 0;
#X connect 48 0 42 0;
#X connect 49 0 43 0;
#X connect 50 0 44 0;
#X connect 51 0 53 0;
#X connect 54 0 55 0;
#X connect 56 0 57 0;
#X connect 58 0 59 0;
#X connect 60 0 61 0;
#X connect 62 0 15 1;
#X connect 63 0 16 1;
#X connect 64 0 9 1;
#X connect 65 0 17 1;
#X connect 66 0 0 2;
#X connect 67 0 68 0;
#X connect 69 0 2 1;
#X coords 0 -1 1 1 72 102 1 300 170;
