#N canvas 637 206 656 706 10;
#X obj 100 406 gain~;
#A saved 0.797468;
#X obj 94 471 dac~;
#X obj 38 168 randlist;
#X obj 96 16 tgl 15 0 empty empty empty 17 7 0 10 -262144 -1 -1 1 1
;
#X obj 101 279 bass_bob;
#A saved 2 4.67651 1 1048.9 5.78816 2;
#X obj 173 214 * 100;
#X obj 96 53 metro 200;
#X obj 197 144 randf 1 20;
#X obj 254 60 randline;
#A saved 2 0;
#X obj 254 95 * 60;
#X msg 38 147 0 0 0 3 5 7 10 12 12;
#X floatatom 254 119 5 0 0 0 - - -;
#X connect 0 0 1 0;
#X connect 0 0 1 1;
#X connect 2 0 4 0;
#X connect 3 0 6 0;
#X connect 4 0 0 0;
#X connect 5 0 4 4;
#X connect 6 0 10 0;
#X connect 6 0 7 0;
#X connect 7 0 4 2;
#X connect 7 1 5 0;
#X connect 7 2 4 5;
#X connect 8 0 9 0;
#X connect 9 0 11 0;
#X connect 10 0 2 0;
#X connect 11 0 7 2;
