#N canvas 276 44 1350 668 10;
#X obj 354 534 vline~;
#X obj 322 567 *~;
#X obj 292 534 osc~ 440;
#X obj 292 512 vline~;
#X obj 597 233 bng 15 50 10 0 empty \$0-play empty 17 7 0 10 -262144
-1 -1;
#X obj 199 50 inlet;
#X obj 323 607 outlet~;
#X obj 683 48 inlet;
#X text 197 30 bang to play;
#X text 576 144 random amount ->;
#X obj 605 263 f;
#X obj 514 455 pack f f;
#X obj 605 291 t f f f f f f;
#X obj 683 170 t b f f;
#X obj 691 501 pack f f f;
#X msg 691 476 0;
#X text 514 347 p-env stage 2;
#X text 354 346 p-env stage 1;
#X text 691 348 p-env stage 3;
#X obj 691 525 s \$0-penv;
#X obj 292 483 r \$0-penv;
#X obj 514 479 s \$0-penv;
#X obj 353 392 s \$0-penv;
#X text 681 8 random (overwrite creation argument);
#X text 680 22 intended range 0-1;
#X obj 354 511 r \$0-aenv;
#X floatatom 470 344 5 0 0 0 p1 #0-p1 -;
#X obj 353 369 expr $f2 + 100 * $f1;
#X obj 513 367 expr $f2 + 100 * $f1;
#X floatatom 630 344 5 0 0 0 p2 #0-p2 -;
#X floatatom 668 397 5 0 0 0 t1 #0-t1 -;
#X obj 559 425 expr $f2 - 40 * $f1;
#X floatatom 806 339 5 0 0 0 t2 #0-t2 -;
#X obj 689 367 expr $f2 + 100 * $f1;
#X obj 65 395 s \$0-aenv;
#X msg 65 371 1 1;
#X obj 186 394 pack f f f;
#X msg 253 370 1;
#X msg 186 371 0;
#X obj 219 370 +;
#X obj 114 243 t b b b b b;
#X obj 186 421 s \$0-aenv;
#X text 63 350 a-env stage 1;
#X text 190 349 a-env stage 2;
#X text 1026 53 presets;
#X obj 403 80 inlet;
#X obj 300 106 route p1 p2 t1 t2;
#X obj 429 139 s \$0-p1;
#X obj 429 160 s \$0-p2;
#X obj 429 180 s \$0-t1;
#X obj 429 200 s \$0-t2;
#X msg 1017 78 p1 337 \, p2 84 \, t1 25 \, t2 174;
#X msg 1017 99 p1 445 \, p2 90 \, t1 26 \, t2 431;
#X msg 1017 120 p1 300 p2 100 \, t1 25 \, t2 300;
#X msg 1017 141 p1 207 \, p2 44 \, t1 15 \, t2 400;
#X obj 620 201 randf 1;
#X text 408 62 p1;
#X obj 443 80 inlet;
#X obj 483 80 inlet;
#X obj 523 80 inlet;
#X text 448 62 p2;
#X text 488 62 t1;
#X text 528 62 t2;
#X obj 881 96 s \$0-rand;
#X obj 683 67 s \$0-rand;
#X obj 683 148 r \$0-rand;
#X obj 428 223 s \$0-play;
#X obj 116 118 nbx 3 14 0 999 0 0 \$0-p1 \$0-p1 p1 -14 7 0 10 -262144
-1 -1 300 256;
#X obj 116 132 nbx 3 14 0 999 0 0 \$0-p2 \$0-p2 p2 -14 7 0 10 -262144
-1 -1 100 256;
#X obj 170 118 nbx 3 14 0 999 0 0 \$0-t1 \$0-t1 t1 -14 7 0 10 -262144
-1 -1 25 256;
#X obj 170 132 nbx 3 14 0 999 0 0 \$0-t2 \$0-t2 t2 -14 7 0 10 -262144
-1 -1 300 256;
#X obj 881 56 loadbang;
#X obj 114 218 r \$0-play;
#X floatatom 218 287 5 0 0 0 t1 #0-t1 -;
#X floatatom 267 290 5 0 0 0 t2 #0-t2 -;
#X obj 191 102 bng 15 50 10 0 empty \$0-play empty 17 7 0 10 -262144
-1 -1;
#X obj 1061 299 f;
#X obj 1010 242 savestate;
#X obj 1010 373 unpack f f f f;
#X obj 1061 328 pack f f f f;
#X obj 1070 242 r \$0-p1;
#X obj 1120 242 r \$0-p2;
#X obj 1170 242 r \$0-t1;
#X obj 1220 242 r \$0-t2;
#X obj 1010 412 s \$0-p1;
#X obj 1060 412 s \$0-p2;
#X obj 1110 412 s \$0-t1;
#X obj 1160 412 s \$0-t2;
#X obj 199 71 s \$0-in;
#X obj 300 83 r \$0-in;
#X obj 962 164 s \$0-in;
#X obj 881 76 list \$1;
#X obj 907 475 spigot 1;
#X msg 964 399 0;
#X obj 967 475 spigot 1;
#X obj 1027 475 spigot 1;
#X obj 1087 475 spigot 1;
#X obj 907 454 ii 300;
#X obj 967 454 ii 100;
#X obj 1027 454 ii 25;
#X obj 1087 454 ii 300;
#X obj 620 227 expr if($f2 \, $f1 * 2 - $f2 \, 0);
#X obj 702 289 print expr;
#X obj 231 315 bondo;
#X connect 0 0 1 1;
#X connect 1 0 6 0;
#X connect 2 0 1 0;
#X connect 3 0 2 0;
#X connect 4 0 10 0;
#X connect 5 0 88 0;
#X connect 7 0 64 0;
#X connect 10 0 12 0;
#X connect 11 0 21 0;
#X connect 12 0 15 0;
#X connect 12 1 33 0;
#X connect 12 3 28 0;
#X connect 12 4 31 0;
#X connect 12 5 27 0;
#X connect 13 0 55 0;
#X connect 13 1 55 1;
#X connect 13 2 101 1;
#X connect 14 0 19 0;
#X connect 15 0 14 0;
#X connect 20 0 3 0;
#X connect 25 0 0 0;
#X connect 26 0 27 1;
#X connect 27 0 22 0;
#X connect 28 0 11 0;
#X connect 29 0 28 1;
#X connect 30 0 31 1;
#X connect 31 0 11 1;
#X connect 31 0 14 2;
#X connect 32 0 33 1;
#X connect 33 0 14 1;
#X connect 35 0 34 0;
#X connect 36 0 41 0;
#X connect 37 0 36 2;
#X connect 38 0 36 0;
#X connect 39 0 36 1;
#X connect 40 1 38 0;
#X connect 40 3 37 0;
#X connect 40 4 35 0;
#X connect 45 0 47 0;
#X connect 46 0 47 0;
#X connect 46 1 48 0;
#X connect 46 2 49 0;
#X connect 46 3 50 0;
#X connect 46 4 66 0;
#X connect 51 0 90 0;
#X connect 52 0 90 0;
#X connect 53 0 90 0;
#X connect 54 0 90 0;
#X connect 55 0 101 0;
#X connect 57 0 48 0;
#X connect 58 0 49 0;
#X connect 59 0 50 0;
#X connect 65 0 13 0;
#X connect 71 0 91 0;
#X connect 72 0 40 0;
#X connect 73 0 103 0;
#X connect 74 0 103 1;
#X connect 76 0 79 0;
#X connect 77 0 78 0;
#X connect 77 1 76 0;
#X connect 78 0 84 0;
#X connect 78 0 93 0;
#X connect 78 1 85 0;
#X connect 78 2 86 0;
#X connect 78 3 87 0;
#X connect 79 0 77 0;
#X connect 80 0 76 1;
#X connect 81 0 79 1;
#X connect 82 0 79 2;
#X connect 83 0 79 3;
#X connect 89 0 46 0;
#X connect 91 0 63 0;
#X connect 92 0 84 0;
#X connect 93 0 92 1;
#X connect 93 0 94 1;
#X connect 93 0 95 1;
#X connect 93 0 96 1;
#X connect 94 0 85 0;
#X connect 95 0 86 0;
#X connect 96 0 87 0;
#X connect 97 0 92 0;
#X connect 98 0 94 0;
#X connect 99 0 95 0;
#X connect 100 0 96 0;
#X connect 101 0 10 1;
#X connect 101 0 102 0;
#X connect 103 0 39 0;
#X connect 103 1 39 1;
#X coords 0 -1 1 1 106 48 1 100 100;
