#N canvas 426 243 338 284 10;
#X obj 34 110 bd2;
#A saved 200 0.14 200 5;
#X obj 24 215 dac~;
#X obj 34 25 tgl 15 0 empty empty empty 17 7 0 10 -262144 -1 -1 0 1
;
#X obj 34 45 metro 500;
#X obj 34 65 bng 15 50 10 0 empty empty empty 17 7 0 10 -262144 -1
-1;
#X connect 0 0 1 0;
#X connect 0 0 1 1;
#X connect 2 0 3 0;
#X connect 3 0 4 0;
#X connect 4 0 0 0;
