#N canvas 144 157 936 505 10;
#X obj 151 164 bng 15 50 10 0 empty \$0-play empty 17 7 0 10 -262144
-1 -1;
#X obj 151 285 line~;
#X obj 151 368 osc~;
#X obj 151 389 *~;
#X obj 151 306 pow~ 2;
#X obj 151 327 *~ 200;
#X obj 151 42 inlet;
#X obj 151 430 outlet~;
#X obj 166 206 r \$0-decay;
#X obj 151 236 f;
#X msg 151 264 1 \, 0 \$1;
#X obj 261 42 inlet;
#X obj 261 63 s \$0-decay;
#X obj 0 28 nbx 5 14 -1e+37 1e+37 0 0 \$0-decay \$0-decay decay 0 -8
0 10 -262144 -1 -1 200 256;
#X obj 0 58 nbx 5 14 0 1 0 0 \$0-click \$0-click click 0 -8 0 10 -262144
-1 -1 0.14 256;
#X obj 54 58 nbx 5 14 -1e+37 1e+37 0 0 \$0-pow \$0-pow pow 0 -8 0 10
-262144 -1 -1 5 256;
#X obj 151 184 t b b;
#X floatatom 211 303 5 0 0 0 - - -;
#X obj 196 327 f;
#X obj 211 241 r \$0-click;
#X obj 54 28 nbx 5 14 -1e+37 1e+37 0 0 \$0-freq \$0-freq freq 0 -8
0 10 -262144 -1 -1 200 256;
#X obj 294 231 r \$0-freq;
#X obj 294 210 r \$0-pow;
#X obj 331 42 inlet;
#X obj 401 42 inlet;
#X obj 471 42 inlet;
#X obj 331 63 s \$0-click;
#X obj 471 63 s \$0-pow;
#X obj 211 262 clip 0 1;
#X obj 401 63 s \$0-freq;
#X obj 151 109 route decay d click c freq f pow p;
#X obj 134 134 s \$0-decay;
#X obj 200 134 s \$0-click;
#X obj 266 134 s \$0-freq;
#X obj 328 134 s \$0-pow;
#X msg 609 63 d 232 \, c 0.12 \, f 200 \, p 3;
#X msg 609 83 d 200 \, c 0.7 \, f 100 \, p 5;
#X obj 589 125 s \$0-in;
#X obj 151 63 s \$0-in;
#X obj 384 134 s \$0-play;
#X obj 151 88 r \$0-in;
#X text 626 34 presets;
#X obj 477 266 f;
#X obj 426 219 savestate;
#X obj 477 288 pack f f f f;
#X obj 426 314 unpack f f f f;
#X obj 426 347 s \$0-decay;
#X obj 496 347 s \$0-click;
#X obj 636 347 s \$0-pow;
#X obj 566 347 s \$0-freq;
#X obj 492 243 r \$0-decay;
#X obj 562 243 r \$0-click;
#X obj 632 243 r \$0-freq;
#X obj 702 243 r \$0-pow;
#X obj 211 283 expr .25-$f1*.25;
#X obj 322 401 spigot 1;
#X msg 389 345 0;
#X obj 322 380 ii 200;
#X obj 406 404 spigot 1;
#X obj 536 414 spigot 1;
#X obj 637 415 spigot 1;
#X obj 637 394 ii 5;
#X obj 536 393 ii 200;
#X obj 406 383 ii 0.14;
#X connect 0 0 16 0;
#X connect 1 0 4 0;
#X connect 2 0 3 0;
#X connect 3 0 7 0;
#X connect 4 0 3 1;
#X connect 4 0 5 0;
#X connect 5 0 2 0;
#X connect 6 0 38 0;
#X connect 8 0 9 1;
#X connect 9 0 10 0;
#X connect 10 0 1 0;
#X connect 11 0 12 0;
#X connect 16 0 9 0;
#X connect 16 1 18 0;
#X connect 17 0 18 1;
#X connect 18 0 2 1;
#X connect 19 0 28 0;
#X connect 21 0 5 1;
#X connect 22 0 4 1;
#X connect 23 0 26 0;
#X connect 24 0 29 0;
#X connect 25 0 27 0;
#X connect 28 0 54 0;
#X connect 30 0 31 0;
#X connect 30 1 31 0;
#X connect 30 2 32 0;
#X connect 30 3 32 0;
#X connect 30 4 33 0;
#X connect 30 5 33 0;
#X connect 30 6 34 0;
#X connect 30 7 34 0;
#X connect 30 8 39 0;
#X connect 35 0 37 0;
#X connect 36 0 37 0;
#X connect 40 0 30 0;
#X connect 42 0 44 0;
#X connect 43 0 45 0;
#X connect 43 1 42 0;
#X connect 44 0 43 0;
#X connect 45 0 46 0;
#X connect 45 0 56 0;
#X connect 45 1 47 0;
#X connect 45 2 49 0;
#X connect 45 3 48 0;
#X connect 50 0 42 1;
#X connect 51 0 44 1;
#X connect 52 0 44 2;
#X connect 53 0 44 3;
#X connect 54 0 17 0;
#X connect 55 0 46 0;
#X connect 56 0 55 1;
#X connect 56 0 58 1;
#X connect 56 0 59 1;
#X connect 56 0 60 1;
#X connect 57 0 55 0;
#X connect 58 0 47 0;
#X connect 59 0 49 0;
#X connect 60 0 48 0;
#X connect 61 0 60 0;
#X connect 62 0 59 0;
#X connect 63 0 58 0;
#X coords 0 -1 1 1 108 74 1 0 0;
