#N canvas 235 144 928 457 10;
#X obj 37 37 inlet;
#X obj 51 372 outlet~;
#X obj 132 238 line~;
#X obj 80 100 s \$0-load;
#X obj 132 213 r \$0-playline;
#X obj 190 371 outlet~;
#X obj 52 270 tabread4~ \$0-left;
#X obj 191 267 tabread4~ \$0-right;
#N canvas 511 105 731 455 load_file 0;
#X obj 16 286 soundfiler;
#X obj 140 128 s \$0-samplerate;
#X obj 16 309 s \$0-samplelength;
#X obj 101 106 wavinfo;
#X obj 56 27 r \$0-load;
#X obj 56 74 t l l;
#X obj 56 50 list;
#X obj 91 210 f \$0;
#X obj 16 210 symbol \$1;
#X obj 16 232 pack symbol f;
#X obj 56 178 t s b;
#X obj 114 149 select 2;
#X msg 114 170 0;
#X msg 159 171 1;
#X obj 141 200 s \$0-is_mono;
#X msg 16 254 read -resize \$1 \$2-left \$2-right;
#X obj 292 64 openpanel;
#X obj 292 85 s \$0-load;
#X obj 292 44 r \$0-loadfile;
#X text 291 27 load from gui;
#X msg 262 85 1;
#X obj 262 106 s \$0-playrate;
#X obj 379 86 f;
#X obj 394 66 r $nb_slices;
#X obj 379 106 s $nb_slices;
#X obj 350 199 r \$0-samplelength;
#X obj 281 180 r \$0-nb_slices;
#X obj 491 203 r \$0-playrate;
#X obj 491 224 < 0;
#X obj 491 245 s \$0-backwards;
#X obj 281 239 s \$0-slicelength;
#X obj 281 219 expr $f2/$f1;
#X connect 0 0 2 0;
#X connect 3 1 11 0;
#X connect 3 3 1 0;
#X connect 4 0 6 0;
#X connect 5 0 10 0;
#X connect 5 1 3 0;
#X connect 6 0 5 0;
#X connect 7 0 9 1;
#X connect 8 0 9 0;
#X connect 9 0 15 0;
#X connect 10 0 8 0;
#X connect 10 1 7 0;
#X connect 11 0 12 0;
#X connect 11 1 13 0;
#X connect 12 0 14 0;
#X connect 13 0 14 0;
#X connect 15 0 0 0;
#X connect 16 0 17 0;
#X connect 18 0 16 0;
#X connect 18 0 20 0;
#X connect 18 0 22 0;
#X connect 20 0 21 0;
#X connect 22 0 24 0;
#X connect 23 0 22 1;
#X connect 25 0 31 1;
#X connect 26 0 31 0;
#X connect 27 0 28 0;
#X connect 28 0 29 0;
#X connect 31 0 30 0;
#X restore 741 43 pd load_file;
#X obj 93 296 r \$0-is_mono;
#X obj 75 319 *~;
#X obj 37 122 s \$0-play;
#N canvas 590 71 1090 759 play_file 0;
#X obj 309 50 t b b;
#X obj 309 23 r \$0-play;
#X obj 433 206 expr ($f1 + $f2) * $f3;
#X obj 448 144 r \$0-current_slice;
#X obj 433 171 f;
#X obj 497 164 r \$0-backwards;
#X obj 562 184 r \$0-slicelength;
#X obj 103 88 r \$0-current_slice;
#X obj 88 115 f;
#X obj 122 108 r \$0-backwards;
#X obj 147 128 r \$0-slicelength;
#X obj 88 170 expr ($f1 + 1 - $f2) * $f3 \; $f3 * 1000 / $f4 / $f5
;
#X obj 224 108 r \$0-playrate;
#X obj 251 128 r \$0-samplerate;
#X obj 207 150 abs;
#X obj 88 202 pack f f;
#X obj 88 223 s \$0-playline;
#X obj 433 227 s \$0-playline;
#X text 432 244 first: send start point;
#X text 91 240 second: send line (target + time);
#X connect 0 0 8 0;
#X connect 0 1 4 0;
#X connect 1 0 0 0;
#X connect 2 0 17 0;
#X connect 3 0 4 1;
#X connect 4 0 2 0;
#X connect 5 0 2 1;
#X connect 6 0 2 2;
#X connect 7 0 8 1;
#X connect 8 0 11 0;
#X connect 9 0 11 1;
#X connect 10 0 11 2;
#X connect 11 0 15 0;
#X connect 11 1 15 1;
#X connect 12 0 14 0;
#X connect 13 0 11 4;
#X connect 14 0 11 3;
#X connect 15 0 16 0;
#X restore 740 63 pd play_file;
#X obj 177 36 inlet;
#X obj 177 58 s \$0-playrate;
#X text 35 18 bang to play;
#X text 175 15 playback rate;
#X obj 363 257 bng 15 250 50 0 \$0-loadfile empty empty 17 8 0 10 -262144
-1 -1;
#X obj 363 274 nbx 4 14 -100 100 0 0 \$0-playrate \$0-playrate rate
48 7 0 10 -262144 -1 -1 1 256;
#N canvas 0 50 450 250 (subpatch) 0;
#X array \$0-left 125426 float 2;
#X coords 0 250 125426 249 200 140 0;
#X restore 741 23 graph;
#N canvas 0 50 450 250 (subpatch) 0;
#X array \$0-right 125426 float 2;
#X coords 0 250 125426 249 200 140 0;
#X restore 781 23 graph;
#X obj 616 176 savestate;
#X obj 667 196 f;
#X obj 682 155 r \$0-playrate;
#X obj 724 196 r \$0-load;
#X obj 696 306 s \$0-playrate;
#X obj 696 266 s \$0-load;
#X obj 80 79 symbol;
#X symbolatom 382 256 20 0 0 0 - - -;
#X obj 382 211 stripdir;
#X obj 382 188 r \$0-load;
#X obj 37 59 route bang load stop;
#X obj 143 100 s \$0-stop;
#X obj 37 97 bng 15 250 50 0 empty empty empty 17 7 0 10 -262144 -1
-1;
#X obj 143 81 bng 15 250 50 0 empty empty empty 17 7 0 10 -262144 -1
-1;
#X obj 267 36 inlet;
#X obj 267 78 s \$0-nb_slices;
#X obj 363 290 nbx 2 14 1 99 0 0 \$0-nb_slices \$0-nb_slices slices
31 7 0 10 -262144 -1 -1 16 256;
#X obj 433 290 nbx 2 14 0 99 0 0 \$0-current_slice \$0-current_slice
cur 31 7 0 10 -262144 -1 -1 1 256;
#X obj 367 36 inlet;
#X obj 367 78 s \$0-current_slice;
#X obj 667 216 pack f f s;
#X obj 616 236 unpack f f s;
#X obj 695 176 r \$0-nb_slices;
#X obj 695 286 s \$0-nb_slices;
#X obj 267 56 max 1;
#X obj 367 56 mod;
#X obj 408 36 r \$0-nb_slices;
#X obj 569 319 spigot 1;
#X msg 614 283 0;
#X obj 569 298 ii 1;
#X obj 256 122 i;
#X obj 256 143 t b f;
#X connect 0 0 31 0;
#X connect 2 0 6 0;
#X connect 2 0 7 0;
#X connect 4 0 2 0;
#X connect 6 0 1 0;
#X connect 6 0 10 0;
#X connect 7 0 5 0;
#X connect 9 0 10 1;
#X connect 10 0 5 0;
#X connect 13 0 14 0;
#X connect 21 0 42 0;
#X connect 21 1 22 0;
#X connect 22 0 41 0;
#X connect 23 0 22 1;
#X connect 24 0 41 2;
#X connect 27 0 3 0;
#X connect 29 0 28 0;
#X connect 30 0 29 0;
#X connect 31 0 33 0;
#X connect 31 1 27 0;
#X connect 31 2 34 0;
#X connect 31 3 51 0;
#X connect 33 0 11 0;
#X connect 34 0 32 0;
#X connect 35 0 45 0;
#X connect 39 0 46 0;
#X connect 41 0 21 0;
#X connect 42 0 25 0;
#X connect 42 0 49 0;
#X connect 42 1 44 0;
#X connect 42 2 26 0;
#X connect 43 0 41 1;
#X connect 45 0 36 0;
#X connect 46 0 40 0;
#X connect 47 0 46 1;
#X connect 48 0 25 0;
#X connect 49 0 48 1;
#X connect 50 0 48 0;
#X connect 51 0 52 0;
#X connect 52 0 33 0;
#X connect 52 1 46 0;
#X coords 0 -1 1 1 147 70 1 360 240;
