#N canvas 175 57 1236 870 10;
#X obj 107 411 i;
#X obj 47 362 select 0;
#X obj 47 282 t f f;
#X obj 441 27 loadbang;
#X msg 341 127 1;
#X obj 122 333 / 1;
#X obj 47 335 mod 1;
#X obj 63 608 outlet;
#X obj 137 284 *;
#X text 558 78 <- tick resolution;
#X msg 518 78 24;
#X obj 202 610 outlet;
#X obj 341 105 sel 0;
#X obj 341 156 s \$0-div;
#X obj 137 240 r \$0-div;
#X obj 401 176 s \$0-delay;
#X obj 62 177 r \$0-delay;
#X obj 47 217 -;
#X obj 62 37 inlet;
#X obj 62 57 s \$0-div;
#X obj 122 37 inlet;
#X obj 122 57 s \$0-delay;
#X obj 518 99 s \$0-tickres;
#X obj 152 260 r \$0-tickres;
#X obj 112 107 r \$0-div;
#X obj 112 127 > 0;
#X obj 47 157 spigot;
#X obj 286 236 expr if ($f1==0 & $f2 < 0 \, 1 \, 0);
#X obj 286 259 moses 0.5;
#X obj 337 286 bng 15 250 50 0 empty empty empty 17 7 0 10 -262144
-1 -1;
#X text 356 261 send 0 even if delay is negative;
#X obj 919 163 r tick;
#X obj 192 37 inlet;
#X obj 192 57 s \$0-reset;
#X obj 919 396 s \$0-tick;
#X obj 47 107 r \$0-tick;
#X obj 919 347 f;
#X obj 949 348 + 1;
#X msg 919 306 bang;
#X obj 974 314 r \$0-reset;
#X obj 941 58 nbx 4 14 0.5 0.75 0 0 \$0-swing \$0-swing swng -26 7
0 10 -262144 -1 -1 0.5 256;
#X obj 615 329 f;
#X obj 615 354 pack;
#X obj 564 304 savestate;
#X obj 578 385 unpack;
#X obj 640 287 r \$0-swing;
#X obj 553 433 s \$0-swing;
#X obj 432 528 mod 2;
#X obj 594 514 bpm2ms;
#X obj 630 538 r \$0-div;
#X obj 609 591 bondo 3;
#X obj 422 487 r \$0-swing;
#X obj 354 592 pipe;
#X obj 432 549 sel 0 1;
#X msg 434 570 0;
#X obj 375 507 t f f;
#X obj 496 575 f;
#X obj 594 649 expr $f1 * $f2 * ($f3- 0.5) * 2;
#X obj 635 562 pipe 0.001;
#X obj 250 100 tgl 10 0 \$0-reset_on_part \$0-reset_on_part empty -18
6 0 10 -262144 -1 -1 1 1;
#X obj 650 317 r \$0-reset_on_part;
#X obj 658 441 s \$0-reset_on_part;
#X obj 755 86 r part;
#X msg 755 107 0;
#X obj 805 86 r \$0-reset_on_part;
#X obj 755 128 spigot;
#X obj 755 149 s \$0-reset;
#X obj 141 580 s \$0-bang;
#X obj 250 110 bng 10 50 10 0 \$0-bang \$0-bang empty 17 7 0 10 -262144
-1 -1;
#X obj 1007 270 spigot 1;
#X msg 1052 248 0;
#X obj 919 184 t b b f;
#X obj 202 580 r \$0-bang;
#X obj 74 544 t b f;
#X obj 813 119 r reset;
#X obj 441 50 t b b b b;
#X msg 461 127 1;
#X obj 461 105 sel 0;
#X obj 401 82 \$2;
#X obj 341 82 \$1;
#X obj 461 82 \$3;
#X obj 461 156 s \$0-reset_on_part;
#X connect 0 0 73 0;
#X connect 1 0 0 0;
#X connect 2 0 6 0;
#X connect 2 1 5 0;
#X connect 3 0 75 0;
#X connect 4 0 13 0;
#X connect 5 0 0 1;
#X connect 6 0 1 0;
#X connect 8 0 6 1;
#X connect 8 0 5 1;
#X connect 10 0 22 0;
#X connect 12 0 4 0;
#X connect 12 1 13 0;
#X connect 14 0 8 0;
#X connect 16 0 17 1;
#X connect 16 0 27 1;
#X connect 17 0 2 0;
#X connect 18 0 19 0;
#X connect 20 0 21 0;
#X connect 23 0 8 1;
#X connect 24 0 25 0;
#X connect 25 0 26 1;
#X connect 26 0 17 0;
#X connect 27 0 28 0;
#X connect 28 1 29 0;
#X connect 29 0 0 0;
#X connect 31 0 71 0;
#X connect 32 0 33 0;
#X connect 35 0 26 0;
#X connect 35 0 27 0;
#X connect 36 0 37 0;
#X connect 36 0 34 0;
#X connect 37 0 36 1;
#X connect 38 0 36 0;
#X connect 39 0 36 1;
#X connect 41 0 42 0;
#X connect 42 0 43 0;
#X connect 43 1 41 0;
#X connect 44 0 46 0;
#X connect 44 1 61 0;
#X connect 45 0 41 1;
#X connect 47 0 53 0;
#X connect 48 0 50 0;
#X connect 49 0 58 0;
#X connect 50 0 57 0;
#X connect 50 1 57 1;
#X connect 50 2 57 2;
#X connect 51 0 50 2;
#X connect 53 0 54 0;
#X connect 53 1 56 0;
#X connect 54 0 52 1;
#X connect 55 0 52 0;
#X connect 55 1 47 0;
#X connect 56 0 52 1;
#X connect 57 0 56 1;
#X connect 58 0 50 1;
#X connect 60 0 42 1;
#X connect 62 0 63 0;
#X connect 63 0 65 0;
#X connect 64 0 65 1;
#X connect 65 0 66 0;
#X connect 69 0 36 1;
#X connect 70 0 69 1;
#X connect 71 0 38 0;
#X connect 71 1 70 0;
#X connect 71 2 69 0;
#X connect 72 0 11 0;
#X connect 73 0 67 0;
#X connect 73 1 7 0;
#X connect 74 0 66 0;
#X connect 75 0 79 0;
#X connect 75 1 78 0;
#X connect 75 2 80 0;
#X connect 75 3 10 0;
#X connect 76 0 81 0;
#X connect 77 0 76 0;
#X connect 77 1 81 0;
#X connect 78 0 15 0;
#X connect 79 0 12 0;
#X connect 80 0 77 0;
#X coords 0 870 1 869 60 20 0;
