#N canvas 534 180 784 389 10;
#X obj 148 318 dac~;
#X obj 94 33 tgl 15 0 empty empty play -27 7 0 10 -262144 -1 -1 1 1
;
#X obj 94 104 t b b;
#X floatatom 145 40 5 0 0 1 bpm - -;
#X obj 94 82 metro 150;
#X obj 145 60 expr 60000 / $f1 / 4;
#X msg 253 115 reset;
#X obj 253 95 sel 0;
#X obj 458 318 dac~;
#X obj 404 33 tgl 15 0 empty empty play -27 7 0 10 -262144 -1 -1 1
1;
#X floatatom 455 40 5 0 0 1 bpm - -;
#X obj 404 82 metro 150;
#X obj 455 60 expr 60000 / $f1 / 4;
#X obj 544 157 rand 16;
#X obj 455 19 ii 160;
#X obj 145 19 ii 130;
#X obj 234 135 counter;
#X obj 140 164 mod 16;
#X obj 450 153 randf 3 0.8;
#X obj 404 104 t b b b;
#X obj 619 179 branch;
#X msg 619 199 1;
#X msg 652 199 -1;
#X floatatom 633 238 5 0 0 0 - - -;
#X obj 450 192 *;
#X obj 633 258 s \$0-dir;
#X obj 468 173 r \$0-dir;
#X msg 619 158 0.9;
#X obj 140 185 sel 0;
#X obj 140 206 randf 2 -2;
#X obj 94 226 beatcut2;
#A saved 0.350548 0 /mnt/data/atte/medium/music/pd/samples/breezing.wav
;
#X obj 404 226 beatcut2;
#A saved 2.02985 0 /mnt/data/atte/medium/music/pd/samples/after_ra.wav
;
#X connect 1 0 4 0;
#X connect 1 0 7 0;
#X connect 2 0 30 0;
#X connect 2 1 16 0;
#X connect 3 0 5 0;
#X connect 4 0 2 0;
#X connect 5 0 4 1;
#X connect 6 0 16 1;
#X connect 7 0 6 0;
#X connect 9 0 11 0;
#X connect 10 0 12 0;
#X connect 11 0 19 0;
#X connect 12 0 11 1;
#X connect 13 0 31 3;
#X connect 14 0 10 0;
#X connect 15 0 3 0;
#X connect 16 0 17 0;
#X connect 16 0 30 3;
#X connect 17 0 28 0;
#X connect 18 0 24 0;
#X connect 19 0 31 0;
#X connect 19 1 13 0;
#X connect 19 1 18 0;
#X connect 19 2 27 0;
#X connect 20 0 21 0;
#X connect 20 1 22 0;
#X connect 21 0 23 0;
#X connect 22 0 23 0;
#X connect 23 0 25 0;
#X connect 24 0 31 1;
#X connect 26 0 24 1;
#X connect 27 0 20 0;
#X connect 28 0 29 0;
#X connect 29 0 30 1;
#X connect 30 0 0 0;
#X connect 30 1 0 1;
#X connect 31 0 8 0;
#X connect 31 1 8 1;
