#N canvas 572 438 315 262 10;
#X obj 57 85 boostlo~;
#A saved 144 6;
#X obj 57 35 phasor~ 440;
#X obj 81 204 dac~;
#X obj 57 154 gain~;
#A saved 0.151899;
#X obj 82 55 phasor~ 442;
#X connect 0 0 3 0;
#X connect 0 1 3 1;
#X connect 1 0 0 0;
#X connect 3 0 2 0;
#X connect 3 1 2 1;
#X connect 4 0 0 1;
