#N canvas 364 230 611 288 10;
#X obj 40 33 inlet~;
#X obj 40 203 outlet~;
#X obj 50 134 lop~;
#X obj 50 175 *~;
#X obj 90 33 inlet~;
#X obj 90 203 outlet~;
#X obj 100 134 lop~;
#X obj 100 175 *~;
#X obj 200 33 inlet;
#X obj 280 33 inlet;
#X obj 200 74 s \$0-freq;
#X obj 280 74 s \$0-boost;
#X obj 235 140 nbx 4 14 0 1000 0 0 \$0-freq \$0-freq freq -27 7 0 10
-262144 -1 -1 56 256;
#X obj 235 157 nbx 4 14 0 10 0 0 \$0-boost \$0-boost boost -32 7 0
10 -262144 -1 -1 10 256;
#X obj 200 54 clip 0 1000;
#X obj 280 54 clip 0 10;
#X obj 427 114 f;
#X obj 376 95 savestate;
#X obj 427 134 pack f f;
#X obj 376 154 unpack f f;
#X obj 376 174 s \$0-freq;
#X obj 442 174 s \$0-boost;
#X obj 442 95 r \$0-freq;
#X obj 472 115 r \$0-boost;
#X obj 121 113 r \$0-freq;
#X obj 115 155 r \$0-boost;
#X obj 264 123 tgl 15 0 \$0-mute_dry empty empty 17 7 0 10 -262144
-1 -1 1 1;
#X obj 105 54 r \$0-mute_dry;
#X obj 105 75 == 0;
#X obj 40 98 *~;
#X obj 90 98 *~;
#X obj 391 45 ii 0;
#X connect 0 0 29 0;
#X connect 0 0 2 0;
#X connect 2 0 3 0;
#X connect 3 0 1 0;
#X connect 4 0 30 0;
#X connect 4 0 6 0;
#X connect 6 0 7 0;
#X connect 7 0 5 0;
#X connect 8 0 14 0;
#X connect 9 0 15 0;
#X connect 14 0 10 0;
#X connect 16 0 18 0;
#X connect 17 0 19 0;
#X connect 17 1 16 0;
#X connect 18 0 17 0;
#X connect 19 0 20 0;
#X connect 19 1 21 0;
#X connect 22 0 16 1;
#X connect 23 0 18 1;
#X connect 24 0 6 1;
#X connect 24 0 2 1;
#X connect 25 0 7 1;
#X connect 25 0 3 1;
#X connect 27 0 28 0;
#X connect 28 0 30 1;
#X connect 28 0 29 1;
#X connect 29 0 1 0;
#X connect 30 0 5 0;
#X connect 31 0 26 0;
#X coords 0 -1 1 1 84 54 1 200 120;
