#N canvas 794 619 450 300 10;
#X obj 88 112 r bpm;
#X obj 88 188 outlet;
#X obj 225 56 list \$1;
#X obj 225 34 loadbang;
#X obj 88 166 expr 60000/$f1 * $f2;
#X msg 225 105 1;
#X obj 42 34 inlet;
#X text 256 104 <- default multiplier;
#X obj 88 139 f;
#X obj 42 112 t b f;
#X obj 225 78 sel 0;
#X connect 0 0 8 0;
#X connect 2 0 10 0;
#X connect 3 0 2 0;
#X connect 4 0 1 0;
#X connect 5 0 4 1;
#X connect 6 0 9 0;
#X connect 8 0 4 0;
#X connect 9 0 8 0;
#X connect 9 1 4 1;
#X connect 10 0 5 0;
#X connect 10 1 4 1;
