#N canvas 271 93 532 448 10;
#X obj 56 47 inlet;
#X obj 56 279 outlet;
#X obj 145 127 randf;
#X obj 56 68 t f f b;
#X obj 89 195 >=;
#X obj 56 236 spigot;
#X obj 179 195 <;
#X obj 146 236 spigot;
#X obj 146 279 outlet;
#X text 212 42 branch floats between 0-1 left/right \, based on value=probability
to go left;
#X connect 0 0 3 0;
#X connect 2 0 4 1;
#X connect 2 0 6 1;
#X connect 3 0 5 0;
#X connect 3 0 7 0;
#X connect 3 1 4 0;
#X connect 3 1 6 0;
#X connect 3 2 2 0;
#X connect 4 0 5 1;
#X connect 5 0 1 0;
#X connect 6 0 7 1;
#X connect 7 0 8 0;
