#N canvas 514 144 712 452 10;
#X obj 183 208 f;
#X obj 223 208 + 1;
#X msg 215 177 0;
#X obj 183 153 t b b;
#X obj 181 276 <;
#X msg 181 337 bang;
#X obj 135 37 inlet;
#X obj 443 134 select 0;
#X obj 443 110 list \$1;
#X obj 76 37 inlet;
#X obj 274 37 inlet;
#X obj 416 249 select 0;
#X msg 416 272 0;
#X obj 416 225 list \$2;
#X obj 416 83 loadbang;
#X msg 443 157 1;
#X text 474 156 <- default nb repeats;
#X obj 39 176 delay;
#X text 447 271 default delay time;
#X obj 82 387 outlet;
#X obj 181 359 s \$0-outbang;
#X obj 72 361 r \$0-outbang;
#X obj 39 132 r \$0-outbang;
#X obj 274 59 s \$0-delaytime;
#X obj 71 153 r \$0-delaytime;
#X obj 416 294 s \$0-delaytime;
#X obj 135 59 s \$0-nb_bursts;
#X obj 199 247 r \$0-nb_bursts;
#X obj 443 179 s \$0-nb_bursts;
#X text 413 34 creation arguments;
#X text 413 45 1: nb repeats (default = 1);
#X text 414 56 2: burst time in ms (default = 0);
#X obj 76 59 s \$0-in;
#X obj 183 131 r \$0-in;
#X obj 317 367 outlet;
#X obj 181 310 sel 1;
#X obj 260 314 spigot;
#X connect 0 0 1 0;
#X connect 0 0 4 0;
#X connect 0 0 36 0;
#X connect 1 0 0 1;
#X connect 2 0 0 1;
#X connect 3 0 0 0;
#X connect 3 1 2 0;
#X connect 4 0 35 0;
#X connect 4 0 36 1;
#X connect 5 0 20 0;
#X connect 6 0 26 0;
#X connect 7 0 15 0;
#X connect 7 1 28 0;
#X connect 8 0 7 0;
#X connect 9 0 32 0;
#X connect 10 0 23 0;
#X connect 11 0 12 0;
#X connect 11 1 25 0;
#X connect 12 0 25 0;
#X connect 13 0 11 0;
#X connect 14 0 8 0;
#X connect 14 0 13 0;
#X connect 15 0 28 0;
#X connect 17 0 0 0;
#X connect 21 0 19 0;
#X connect 22 0 17 0;
#X connect 24 0 17 1;
#X connect 27 0 4 1;
#X connect 33 0 3 0;
#X connect 35 0 5 0;
#X connect 36 0 34 0;
