#N canvas 1117 637 450 300 10;
#X obj 101 103 vsl 15 50 0 1 0 0 gain\$1 gain\$1 empty 0 -9 0 10 -262144
-1 -1 4900 1;
#X text 52 26 fader for one channel;
#X text 222 22 creation argument:;
#X text 229 38 1: channel number;
#X coords 0 -1 1 1 17 57 2 100 100;
