#N canvas 708 53 747 979 10;
#X obj 32 402 dac~;
#X obj 32 251 pan~;
#X obj 99 246 env~;
#X obj 99 268 - 100;
#X obj 99 290 s vu\$1;
#X obj 38 54 r ch\$1-gain;
#X obj 164 32 r ch\$1-pan;
#X obj 43 307 r master-gain;
#X obj 183 314 r master-gain;
#X obj 32 33 catch~ ch\$1-audio;
#X obj 165 359 throw~ ch\$1-audioR;
#X obj 25 352 throw~ ch\$1-audioL;
#X obj 32 78 *~ 0.5;
#X obj 64 108 r ch\$1-line;
#X obj 64 127 vline~;
#X obj 144 127 vline~;
#X obj 144 108 r ch\$1-mute;
#X obj 25 328 *~;
#X obj 165 335 *~;
#X obj 334 152 loadbang;
#X msg 334 173 1;
#X obj 334 224 s ch\$1-line;
#X obj 33 196 *~;
#X obj 33 169 *~;
#X obj 344 244 s ch\$1-mute;
#X obj 354 294 s ch\$1-gain;
#X connect 1 0 17 0;
#X connect 1 1 18 0;
#X connect 2 0 3 0;
#X connect 3 0 4 0;
#X connect 5 0 12 1;
#X connect 6 0 1 1;
#X connect 7 0 17 1;
#X connect 8 0 18 1;
#X connect 9 0 12 0;
#X connect 12 0 2 0;
#X connect 12 0 23 0;
#X connect 13 0 14 0;
#X connect 14 0 23 1;
#X connect 15 0 22 1;
#X connect 16 0 15 0;
#X connect 17 0 0 0;
#X connect 17 0 11 0;
#X connect 18 0 0 1;
#X connect 18 0 10 0;
#X connect 19 0 20 0;
#X connect 20 0 21 0;
#X connect 20 0 24 0;
#X connect 22 0 1 0;
#X connect 23 0 22 0;
