#N canvas 576 211 741 473 10;
#X obj 73 52 inlet~;
#X obj 373 396 outlet~;
#X obj 272 396 outlet~;
#X obj 174 244 cos~;
#X obj 174 264 +~ 1;
#X obj 257 224 +~ 0.25;
#X obj 257 244 cos~;
#X obj 257 264 +~ 1;
#X obj 302 128 phasor~;
#X obj 302 45 loadbang;
#X msg 302 109 0.8;
#X obj 174 304 vd~ \$0mychr1;
#X obj 257 304 vd~ \$0mychr1;
#X obj 257 284 *~ 0.3;
#X obj 343 244 cos~;
#X obj 343 264 +~ 1;
#X obj 343 304 vd~ \$0mychr1;
#X obj 343 284 *~ 0.3;
#X obj 73 88 delwrite~ \$0mychr1 100;
#X obj 343 224 +~ 0.5;
#X obj 428 244 cos~;
#X obj 428 264 +~ 1;
#X obj 428 304 vd~ \$0mychr1;
#X obj 428 224 +~ 0.75;
#X obj 428 284 *~ 0.31;
#X obj 174 284 *~ 0.31;
#X text 429 25 adapted from peter brinkmann;
#X connect 0 0 18 0;
#X connect 3 0 4 0;
#X connect 4 0 25 0;
#X connect 5 0 6 0;
#X connect 6 0 7 0;
#X connect 7 0 13 0;
#X connect 8 0 3 0;
#X connect 8 0 5 0;
#X connect 8 0 19 0;
#X connect 8 0 23 0;
#X connect 9 0 10 0;
#X connect 10 0 8 0;
#X connect 11 0 2 0;
#X connect 12 0 1 0;
#X connect 13 0 12 0;
#X connect 14 0 15 0;
#X connect 15 0 17 0;
#X connect 16 0 2 0;
#X connect 17 0 16 0;
#X connect 19 0 14 0;
#X connect 20 0 21 0;
#X connect 21 0 24 0;
#X connect 22 0 1 0;
#X connect 23 0 20 0;
#X connect 24 0 22 0;
#X connect 25 0 11 0;
