#N canvas 100 242 970 359 10;
#X obj 15 31 inlet~;
#X obj 32 271 outlet~;
#X obj 98 272 outlet~;
#X obj 89 31 inlet~;
#X obj 158 31 inlet;
#X obj 103 166 - 1;
#X obj 31 245 +~;
#X obj 98 247 +~;
#X obj 350 162 +~ 30;
#X obj 255 163 +~ 30;
#X obj 443 161 +~ 30;
#X obj 349 110 osc~ 0.6;
#X obj 442 109 osc~ 0.2;
#X obj 156 110 osc~ 0.8;
#X obj 254 111 osc~ 0.15;
#X obj 157 162 +~ 20;
#X obj 350 137 *~ 2.2;
#X obj 157 137 *~ 2.1;
#X obj 443 136 *~ 3.1;
#X obj 255 138 *~ 2.8;
#X obj 14 219 *~;
#X obj 48 218 *~;
#X obj 88 219 *~;
#X obj 117 220 *~;
#X obj 815 39 loadbang;
#X obj 815 60 list \$1;
#X obj 815 81 sel 0;
#X msg 815 102 0.5;
#X obj 815 123 s \$0-wet_dry;
#X obj 48 137 f;
#X obj 48 116 r \$0-wet_dry;
#X obj 158 52 s \$0-wet_dry;
#X obj 156 84 delwrite~ \$0-chorus 300;
#X obj 157 185 vd~ \$0-chorus;
#X obj 255 186 vd~ \$0-chorus;
#X obj 350 185 vd~ \$0-chorus;
#X obj 443 184 vd~ \$0-chorus;
#X text 565 92 inlets:;
#X text 566 152 outlets:;
#X text 583 172 1/2: audio out (L/R);
#X text 581 109 1/2: audio in (L/R);
#X text 561 37 [stereo_chorus] abstraction;
#X text 582 124 3 (creation arg): wet(1)/dry(0);
#X text 578 69 based on chorus_example.pd;
#X text 577 54 implements a simple chorus \,;
#X connect 0 0 20 0;
#X connect 0 0 32 0;
#X connect 3 0 22 0;
#X connect 3 0 32 0;
#X connect 4 0 31 0;
#X connect 5 0 20 1;
#X connect 5 0 22 1;
#X connect 6 0 1 0;
#X connect 7 0 2 0;
#X connect 8 0 35 0;
#X connect 9 0 34 0;
#X connect 10 0 36 0;
#X connect 11 0 16 0;
#X connect 12 0 18 0;
#X connect 13 0 17 0;
#X connect 14 0 19 0;
#X connect 15 0 33 0;
#X connect 16 0 8 0;
#X connect 17 0 15 0;
#X connect 18 0 10 0;
#X connect 19 0 9 0;
#X connect 20 0 6 0;
#X connect 21 0 6 1;
#X connect 22 0 7 0;
#X connect 23 0 7 1;
#X connect 24 0 25 0;
#X connect 25 0 26 0;
#X connect 26 0 27 0;
#X connect 26 1 28 0;
#X connect 27 0 28 0;
#X connect 29 0 5 0;
#X connect 29 0 21 0;
#X connect 29 0 23 0;
#X connect 30 0 29 0;
#X connect 33 0 21 1;
#X connect 34 0 21 1;
#X connect 35 0 23 1;
#X connect 36 0 23 1;
