#N canvas 1098 407 478 440 10;
#X obj 122 39 inlet;
#X obj 122 233 outlet;
#X obj 288 45 loadbang;
#X obj 288 66 list \$1;
#X obj 122 86 f;
#X obj 151 87 + 1;
#X obj 122 66 bng 15 250 50 0 empty empty empty 17 7 0 10 -262144 -1
-1;
#X obj 122 156 mod;
#X obj 251 45 inlet;
#X obj 122 177 sel 0;
#X obj 122 198 bng 15 250 50 0 empty empty empty 17 7 0 10 -262144
-1 -1;
#X obj 288 120 i;
#X obj 288 87 max 1;
#X text 118 21 bang in;
#X text 119 249 bang out;
#X text 257 27 div;
#X obj 28 38 inlet;
#X obj 55 232 outlet;
#X text 30 20 pos in;
#X obj 55 155 /;
#X obj 55 176 i;
#X obj 55 197 change;
#X obj 28 102 sel 0;
#X msg 28 130 0;
#X text 55 248 pos out;
#X connect 0 0 6 0;
#X connect 2 0 3 0;
#X connect 3 0 12 0;
#X connect 4 0 5 0;
#X connect 4 0 7 0;
#X connect 5 0 4 1;
#X connect 6 0 4 0;
#X connect 7 0 9 0;
#X connect 8 0 11 0;
#X connect 9 0 10 0;
#X connect 10 0 1 0;
#X connect 11 0 7 1;
#X connect 11 0 19 1;
#X connect 12 0 11 0;
#X connect 16 0 22 0;
#X connect 19 0 20 0;
#X connect 20 0 21 0;
#X connect 21 0 17 0;
#X connect 22 0 23 0;
#X connect 22 1 19 0;
#X connect 23 0 17 0;
#X connect 23 0 20 1;
