#N canvas 272 232 835 464 10;
#X obj 23 37 inlet~;
#X obj 31 379 outlet~;
#X obj 223 276 *~;
#X obj 173 110 *~;
#X obj 372 37 inlet;
#X obj 372 59 s \$0-beats;
#X obj 181 379 outlet~;
#X obj 462 37 inlet;
#X obj 462 59 s \$0-feedback;
#X obj 181 315 r \$0-delaytime;
#N canvas 0 50 384 189 calc_delay_time 0;
#X obj 29 37 r \$0-beats;
#X obj 113 37 bpm2ms;
#X obj 113 59 t b f;
#X obj 113 81 *;
#X obj 113 103 s \$0-delaytime;
#X connect 0 0 3 0;
#X connect 1 0 2 0;
#X connect 2 0 3 0;
#X connect 2 1 3 1;
#X connect 3 0 4 0;
#X restore 650 112 pd calc_delay_time;
#X obj 191 85 r \$0-real_fb;
#X obj 241 252 r \$0-real_fb;
#N canvas 0 50 419 218 tame_fb_amount 0;
#X obj 25 30 r \$0-feedback;
#X obj 25 73 s \$0-real_fb;
#X obj 25 52 clip 0 0.99;
#X connect 0 0 2 0;
#X connect 2 0 1 0;
#X restore 650 140 pd tame_fb_amount;
#X obj 73 276 *~;
#X obj 23 110 *~;
#X obj 22 214 delwrite~ \$0-left 4000;
#X obj 31 338 delread~ \$0-left;
#X obj 31 315 r \$0-delaytime;
#X obj 41 85 r \$0-real_fb;
#X obj 91 252 r \$0-real_fb;
#X obj 172 214 delwrite~ \$0-right 4000;
#X obj 181 338 delread~ \$0-right;
#X obj 567 59 s \$0-flp;
#X obj 637 59 s \$0-fhp;
#X obj 567 37 inlet;
#X obj 637 37 inlet;
#X obj 172 159 lop~;
#X obj 172 181 hip~;
#X obj 197 138 r \$0-flp;
#X obj 213 159 r \$0-fhp;
#X obj 22 159 lop~;
#X obj 22 181 hip~;
#X obj 47 138 r \$0-flp;
#X obj 63 159 r \$0-fhp;
#X obj 173 37 inlet~;
#X obj 412 263 f;
#X obj 361 239 savestate;
#X obj 412 292 pack f f f f;
#X obj 361 316 unpack f f f f;
#X obj 382 397 s \$0-beats;
#X obj 402 377 s \$0-feedback;
#X obj 422 357 s \$0-flp;
#X obj 442 337 s \$0-fhp;
#X obj 487 179 r \$0-fhp;
#X obj 467 199 r \$0-flp;
#X obj 447 219 r \$0-feedback;
#X obj 427 239 r \$0-beats;
#X obj 652 314 nbx 5 14 0.125 16 0 0 \$0-beats \$0-beats beats -32
7 0 10 -262144 -1 -1 0.5 256;
#X obj 652 334 nbx 5 14 0 1 0 0 \$0-feedback \$0-feedback feedback
-50 7 0 10 -262144 -1 -1 0.74 256;
#X obj 723 314 nbx 5 14 0 20000 0 0 \$0-flp \$0-flp lp -14 7 0 10 -262144
-1 -1 800 256;
#X obj 723 334 nbx 5 14 0 20000 0 0 \$0-fhp \$0-fhp hp -14 7 0 10 -262144
-1 -1 200 256;
#X text 27 19 in L;
#X text 179 19 in R;
#X text 33 397 out L;
#X text 185 397 out R;
#X connect 0 0 15 0;
#X connect 2 0 31 0;
#X connect 3 0 27 0;
#X connect 4 0 5 0;
#X connect 7 0 8 0;
#X connect 9 0 22 0;
#X connect 11 0 3 1;
#X connect 12 0 2 1;
#X connect 14 0 27 0;
#X connect 15 0 31 0;
#X connect 17 0 14 0;
#X connect 17 0 1 0;
#X connect 18 0 17 0;
#X connect 19 0 15 1;
#X connect 20 0 14 1;
#X connect 22 0 2 0;
#X connect 22 0 6 0;
#X connect 25 0 23 0;
#X connect 26 0 24 0;
#X connect 27 0 28 0;
#X connect 28 0 21 0;
#X connect 29 0 27 1;
#X connect 30 0 28 1;
#X connect 31 0 32 0;
#X connect 32 0 16 0;
#X connect 33 0 31 1;
#X connect 34 0 32 1;
#X connect 35 0 3 0;
#X connect 36 0 38 0;
#X connect 37 0 39 0;
#X connect 37 1 36 0;
#X connect 38 0 37 0;
#X connect 39 0 40 0;
#X connect 39 1 41 0;
#X connect 39 2 42 0;
#X connect 39 3 43 0;
#X connect 44 0 38 3;
#X connect 45 0 38 2;
#X connect 46 0 38 1;
#X connect 47 0 36 1;
#X coords 0 -1 1 1 180 50 1 600 300;
