#N canvas 858 273 622 369 10;
#X obj 41 54 tgl 15 0 empty empty empty 17 7 0 10 -262144 -1 -1 1 1
;
#X obj 92 76 nbx 5 14 -1e+37 1e+37 0 1 bpm bpm bpm 0 -8 0 10 -262144
-1 -1 60 256;
#X obj 41 75 ticker;
#X obj 278 62 bng 15 250 50 0 empty empty empty 17 7 0 10 -262144 -1
-1;
#X obj 343 249 dac~;
#X obj 41 171 random 4;
#X obj 41 196 sel 0 1 2 3;
#X msg 41 226 1;
#X msg 78 225 2;
#X msg 119 223 1.5;
#X obj 41 144 beat 2;
#X msg 157 224 0.75;
#X floatatom 106 268 5 0 0 0 - - -;
#X obj 106 287 s \$0-delay_in_beats;
#X obj 359 86 r \$0-delay_in_beats;
#X obj 278 34 beat 2;
#X obj 41 21 loadbang;
#X obj 278 86 hh 10 1000;
#X obj 364 195 nbx 5 14 0 1 0 1 empty empty empty 0 -8 0 10 -262144
-1 -1 1 256;
#X obj 346 220 *~;
#X obj 277 139 clocked_delay~;
#A saved 0.75 0.6 2000 0;
#X connect 0 0 2 0;
#X connect 3 0 17 0;
#X connect 5 0 6 0;
#X connect 6 0 7 0;
#X connect 6 1 8 0;
#X connect 6 2 9 0;
#X connect 6 3 11 0;
#X connect 7 0 12 0;
#X connect 8 0 12 0;
#X connect 9 0 12 0;
#X connect 10 1 5 0;
#X connect 11 0 12 0;
#X connect 12 0 13 0;
#X connect 14 0 20 2;
#X connect 15 0 3 0;
#X connect 16 0 0 0;
#X connect 17 0 19 0;
#X connect 17 0 20 0;
#X connect 18 0 19 1;
#X connect 19 0 4 0;
#X connect 19 0 4 1;
#X connect 20 0 4 0;
#X connect 20 1 4 1;
