#N canvas 550 110 757 447 10;
#X obj 277 151 f;
#X obj 311 151 + 1;
#X obj 14 67 inlet;
#X obj 310 331 outlet;
#X obj 275 67 inlet;
#X text 8 19 bang to count;
#X text 7 34 send f to reset-to + output;
#X msg 275 116 0;
#X text 272 19 send f to reset (don't send);
#X text 272 32 bang to reset to 0 (don't send);
#X obj 275 91 route bang reset step;
#X text 272 45 send 'step X' to change step length;
#X obj 528 144 loadbang;
#X obj 528 166 list \$1;
#X obj 565 67 inlet;
#X text 563 43 non-zero: mod output;
#X obj 310 246 spigot;
#X obj 565 88 s \$0-mod;
#X obj 528 188 s \$0-mod;
#X obj 389 154 r \$0-mod;
#X obj 349 224 == 0;
#X obj 389 224 != 0;
#X obj 350 270 spigot;
#X obj 350 296 mod;
#X connect 0 0 1 0;
#X connect 0 0 16 0;
#X connect 0 0 22 0;
#X connect 1 0 0 1;
#X connect 2 0 0 0;
#X connect 4 0 10 0;
#X connect 7 0 0 1;
#X connect 10 0 7 0;
#X connect 10 1 7 0;
#X connect 10 2 1 1;
#X connect 10 3 0 1;
#X connect 12 0 13 0;
#X connect 13 0 18 0;
#X connect 14 0 17 0;
#X connect 16 0 3 0;
#X connect 19 0 20 0;
#X connect 19 0 21 0;
#X connect 19 0 23 1;
#X connect 20 0 16 1;
#X connect 21 0 22 1;
#X connect 22 0 23 0;
#X connect 23 0 3 0;
