#N canvas 287 29 483 308 10;
#X obj 41 217 outlet;
#X obj 101 68 s \$0-count_to;
#X obj 41 189 counter;
#X msg 41 68 bang;
#X obj 41 46 inlet;
#X obj 101 46 inlet;
#X obj 41 90 t b b;
#X obj 223 93 select 0;
#X obj 223 69 list \$1;
#X obj 223 46 loadbang;
#X text 254 115 <- default nb repeats;
#X obj 223 138 s \$0-count_to;
#X obj 41 166 burst;
#X obj 57 141 r \$0-count_to;
#X msg 223 116 0;
#X connect 2 0 0 0;
#X connect 3 0 6 0;
#X connect 4 0 3 0;
#X connect 5 0 1 0;
#X connect 6 0 12 0;
#X connect 6 1 2 1;
#X connect 7 0 14 0;
#X connect 7 1 11 0;
#X connect 8 0 7 0;
#X connect 9 0 8 0;
#X connect 12 0 2 0;
#X connect 13 0 12 1;
#X connect 14 0 11 0;
