#N canvas 1257 178 335 301 10;
#X obj 46 33 inlet;
#X obj 46 212 outlet;
#X obj 46 104 until;
#X obj 46 84 t f b;
#X obj 46 144 f;
#X obj 76 144 + 1;
#X msg 91 104 0;
#X obj 46 174 t f f;
#X obj 46 54 t f f;
#X obj 131 169 expr if($f1 == $f2-1 \, 1 \, 0);
#X obj 131 214 outlet;
#X obj 131 190 sel 1;
#X text 134 234 bang when done;
#X connect 0 0 8 0;
#X connect 2 0 4 0;
#X connect 3 0 2 0;
#X connect 3 1 6 0;
#X connect 4 0 5 0;
#X connect 4 0 7 0;
#X connect 5 0 4 1;
#X connect 6 0 4 1;
#X connect 7 0 9 0;
#X connect 7 1 1 0;
#X connect 8 0 3 0;
#X connect 8 1 9 1;
#X connect 9 0 11 0;
#X connect 11 0 10 0;
