#N canvas 657 161 394 237 10;
#X obj 51 164 debug;
#X obj 27 46 s debug;
#X floatatom 27 106 5 0 0 0 - - -;
#X obj 27 26 tgl 15 1 empty empty empty 17 7 0 10 -262144 -1 -1 1 1
;
#X obj 77 106 bng 15 250 50 0 empty empty empty 17 7 0 10 -262144 -1
-1;
#X obj 112 164 debug \$0-number;
#X floatatom 112 106 5 0 0 0 - - -;
#X floatatom 222 106 5 0 0 0 - - -;
#X obj 222 164 debug r_num;
#X obj 222 126 s r_num;
#X connect 2 0 0 0;
#X connect 3 0 1 0;
#X connect 4 0 0 0;
#X connect 6 0 5 0;
#X connect 7 0 9 0;
