#N canvas 0 29 334 233 10;
#X floatatom 42 114 5 0 0 0 - - -, f 5;
#X obj 42 155 print a;
#X obj 103 155 print b;
#X msg 98 64 1;
#X msg 98 85 2;
#X msg 98 43 0;
#X obj 42 133 diff;
#X connect 0 0 6 0;
#X connect 3 0 0 0;
#X connect 4 0 0 0;
#X connect 5 0 0 0;
#X connect 6 0 1 0;
#X connect 6 1 2 0;
