#N canvas 189 519 450 300 10;
#X obj 36 25 inlet;
#X obj 36 194 outlet;
#X obj 116 194 outlet;
#X obj 36 72 !=;
#X obj 36 95 select 1;
#X obj 117 155 f;
#X obj 36 49 t f f f;
#X text 24 212 only send;
#X text 24 223 on change;
#X text 114 223 on change;
#X text 114 212 send bang;
#X obj 36 117 t b b;
#X connect 0 0 6 0;
#X connect 3 0 4 0;
#X connect 4 0 11 0;
#X connect 5 0 1 0;
#X connect 6 0 3 1;
#X connect 6 1 3 0;
#X connect 6 2 5 1;
#X connect 11 0 2 0;
#X connect 11 1 5 0;
