#N canvas 526 29 763 301 10;
#X obj 34 30 inlet;
#X obj 34 248 outlet;
#X obj 34 115 exp;
#X obj 256 24 loadbang;
#X obj 198 102 exp;
#X msg 198 80 1;
#X obj 340 91 list \$1;
#X obj 430 91 list \$2;
#X obj 520 91 list \$3;
#X obj 610 91 list \$4;
#X obj 340 113 s \$0-lo_in;
#X obj 520 113 s \$0-lo_out;
#X obj 610 113 s \$0-hi_out;
#X obj 430 113 s \$0-hi_in;
#X obj 120 165 r \$0-lo_out;
#X obj 34 85 scale 0 1 0 1;
#X obj 120 185 r \$0-hi_out;
#X obj 120 35 r \$0-lo_in;
#X obj 120 55 r \$0-hi_in;
#X obj 158 102 exp;
#X msg 158 80 0;
#X obj 34 215 scale;
#X connect 0 0 15 0;
#X connect 2 0 21 0;
#X connect 3 0 5 0;
#X connect 3 0 6 0;
#X connect 3 0 7 0;
#X connect 3 0 8 0;
#X connect 3 0 9 0;
#X connect 3 0 20 0;
#X connect 4 0 21 2;
#X connect 5 0 4 0;
#X connect 6 0 10 0;
#X connect 7 0 13 0;
#X connect 8 0 11 0;
#X connect 9 0 12 0;
#X connect 14 0 21 3;
#X connect 15 0 2 0;
#X connect 16 0 21 4;
#X connect 17 0 15 1;
#X connect 18 0 15 2;
#X connect 19 0 21 1;
#X connect 20 0 19 0;
#X connect 21 0 1 0;
