#N canvas 527 248 534 216 10;
#X obj 52 44 hsl 128 15 0 1 0 0 empty empty 0-1 -25 7 0 10 -262144
-1 -1 6600 1;
#X floatatom 49 64 5 0 0 0 - - -, f 5;
#X floatatom 49 125 5 0 0 0 - - -, f 5;
#X obj 52 104 hsl 128 15 0 1 0 0 empty empty 0-1 -25 7 0 10 -262144
-1 -1 5037 1;
#X obj 50 82 distribution_exp 0 1 0 1;
#X obj 262 44 hsl 128 15 -1 1 0 0 empty empty -1-1 -30 7 0 10 -262144
-1 -1 12300 1;
#X floatatom 259 64 5 0 0 0 - - -, f 5;
#X floatatom 259 125 5 0 0 0 - - -, f 5;
#X obj 262 104 hsl 128 15 -1 1 0 0 empty empty -1-1 -30 7 0 10 -262144
-1 -1 12077 1;
#X obj 260 82 distribution_exp -1 1 -1 1;
#X connect 0 0 1 0;
#X connect 1 0 4 0;
#X connect 3 0 2 0;
#X connect 4 0 3 0;
#X connect 5 0 6 0;
#X connect 6 0 9 0;
#X connect 8 0 7 0;
#X connect 9 0 8 0;
