#N canvas 463 29 730 494 10;
#X obj 232 361 *~;
#X obj 232 384 osc~;
#X obj 249 210 nbx 5 14 -1e+37 1e+37 0 0 empty empty empty 0 -8 0 10
-262144 -1 -1 622.254 256;
#X obj 249 229 osc~;
#X obj 249 331 *~;
#X text 313 209 modulation freq;
#X text 322 288 modulation index;
#X text 337 180 carrier freq;
#X obj 232 158 nbx 5 14 -1e+37 1e+37 0 0 empty empty empty 0 -8 0 10
-262144 -1 -1 195 256;
#X obj 249 183 mtof;
#X obj 56 131 bng 15 250 50 0 empty empty empty 17 7 0 10 -262144 -1
-1;
#X obj 121 247 f;
#X floatatom 124 218 5 0 0 0 - - -, f 5;
#X obj 81 301 s \$0-index_env;
#X msg 121 269 \$1;
#X obj 268 266 r \$0-index_env;
#X obj 268 288 vline~;
#X msg 56 235 0 300;
#X obj 232 416 outlet~;
#X obj 122 56 inlet;
#X obj 293 56 inlet;
#X obj 122 78 route bang;
#X text 123 19 notes;
#X text 123 30 bang to play;
#X obj 56 173 t b b b;
#N canvas 0 50 450 300 handle_args 0;
#X obj 126 70 loadbang;
#X obj 126 132 list \$1;
#X obj 126 154 sel 0;
#X msg 126 176 2;
#X obj 126 198 s \$0-index_lo;
#X obj 236 154 sel 0;
#X obj 236 132 list \$2;
#X msg 236 176 10;
#X obj 236 198 s \$0-index_hi;
#X connect 0 0 1 0;
#X connect 0 0 6 0;
#X connect 1 0 2 0;
#X connect 2 0 3 0;
#X connect 2 1 4 0;
#X connect 3 0 4 0;
#X connect 5 0 7 0;
#X connect 5 1 8 0;
#X connect 6 0 5 0;
#X connect 7 0 8 0;
#X restore 589 167 pd handle_args;
#X text 257 22 bang for;
#X obj 463 56 inlet;
#X text 257 33 random modulation freq;
#X text 457 33 index lo;
#X obj 593 56 inlet;
#X text 587 33 index hi;
#X obj 463 78 s \$0-index_lo;
#X obj 593 78 s \$0-index_hi;
#X obj 108 124 r \$0-index_lo;
#X obj 108 144 r \$0-index_hi;
#X obj 124 195 rand;
#X obj 232 134 rand 2 200;
#X connect 0 0 1 0;
#X connect 1 0 18 0;
#X connect 2 0 3 0;
#X connect 3 0 4 0;
#X connect 4 0 0 1;
#X connect 8 0 0 0;
#X connect 9 0 2 0;
#X connect 10 0 24 0;
#X connect 11 0 14 0;
#X connect 12 0 11 1;
#X connect 14 0 13 0;
#X connect 15 0 16 0;
#X connect 16 0 4 1;
#X connect 17 0 13 0;
#X connect 19 0 21 0;
#X connect 20 0 37 0;
#X connect 21 0 10 0;
#X connect 21 1 9 0;
#X connect 24 0 17 0;
#X connect 24 1 11 0;
#X connect 24 2 36 0;
#X connect 27 0 32 0;
#X connect 30 0 33 0;
#X connect 34 0 36 1;
#X connect 35 0 36 2;
#X connect 36 0 12 0;
#X connect 37 0 8 0;
