#N canvas 748 116 1010 879 10;
#X msg 393 220 0 \$1;
#X floatatom 393 201 5 0 0 0 - - -;
#X obj 141 532 *~;
#X obj 387 274 *~;
#X obj 156 451 *~;
#X floatatom 173 348 5 0 0 0 - - -;
#X obj 141 511 osc~;
#X obj 141 471 +~;
#X floatatom 75 366 5 0 0 0 - - -;
#X msg 433 220 1;
#X obj 233 488 *~;
#X obj 64 36 inlet;
#X obj 101 165 hsl 128 15 0 127 0 1 \$0-p_amt \$0-p_amt p-amt 2 6 0
10 -262144 -1 -1 2600 1;
#X obj 173 327 mtof;
#X obj 101 182 hsl 128 15 0 127 0 1 \$0-pitch \$0-pitch pitch 2 6 0
10 -262144 -1 -1 8400 1;
#X obj 75 345 mtof;
#X obj 101 148 hsl 128 15 1.27 800 1 1 \$0-p_dec \$0-p_dec p-dec 2
6 0 10 -262144 -1 -1 5800 1;
#X obj 241 286 * 2;
#X obj 241 306 - 1;
#X obj 187 367 *;
#X msg 205 328 bang;
#X obj 141 491 +~;
#X obj 102 199 hsl 128 15 0 1 0 1 \$0-fm_mod \$0-fm_mod fm-mod 2 6
0 10 -225271 -45076 -1 11900 1;
#X obj 198 464 *~;
#X obj 102 216 hsl 128 15 0 1 0 1 \$0-fm_send \$0-fm_send fm-send 2
6 0 10 -225271 -1 -1 8700 1;
#X obj 185 760 *~;
#X obj 243 134 vsl 15 100 0 1 0 1 \$0-l \$0-l l 4 8 0 10 -262144 -1
-1 3900 1;
#X obj 50 770 *~;
#X obj 357 763 *~;
#X text 420 783 <- to rm bus;
#X text 244 782 <- to fm bus;
#X text 175 39 <-fm in;
#X obj 188 593 *~;
#X text 299 30 <-rm in;
#X obj 102 233 hsl 128 15 0 1 0 1 \$0-rm_mod \$0-rm_mod rm-mod 2 6
0 10 -261689 -1 -1 8500 1;
#X obj 102 250 hsl 128 15 0 1 0 1 \$0-rm_send \$0-rm_send rm-send 2
6 0 10 -261689 -1 -1 0 1;
#X obj 144 641 +~;
#X obj 126 612 *~;
#X obj 173 616 *~;
#X obj 49 501 -;
#X msg 39 481 1;
#X obj 218 110 hradio 15 1 1 2 \$0-pol \$0-pol pol -18 7 0 10 -262144
-1 -1 1;
#X msg 528 254 0 \$1;
#X floatatom 528 235 5 0 0 0 - - -;
#X obj 534 328 *~;
#X msg 588 242 1;
#X obj 482 181 +;
#X msg 482 161 0;
#X text 568 330 amp env;
#X obj 101 131 hsl 128 15 1.27 800 1 1 \$0-decay \$0-decay decay 2
6 0 10 -262144 -1 -1 11900 1;
#X obj 213 440 * 8000;
#X obj 133 35 inlet~;
#X obj 252 28 inlet~;
#X obj 50 789 outlet~;
#X obj 185 779 outlet~;
#X obj 358 782 outlet~;
#X obj 393 244 vline~;
#X obj 541 296 vline~;
#X obj 392 100 t f b b;
#X obj 528 205 t b b;
#X obj 314 137 moses 0.001;
#X text 380 293 quadratic pitch/amp env;
#X text 5 35 bang to ?;
#X obj 133 56 throw~ \$0-fm_in;
#X obj 198 394 catch~ \$0-fm_in;
#X obj 252 49 throw~ \$0-rm_in;
#X obj 202 570 catch~ \$0-rm_in;
#X obj 65 749 r \$0-l;
#X obj 75 324 r \$0-pitch;
#X obj 393 181 r \$0-p_dec;
#X obj 512 161 r \$0-decay;
#X obj 173 307 r \$0-p_amt;
#X obj 241 266 r \$0-pol;
#X obj 392 80 r \$0-in;
#X obj 64 56 s \$0-in;
#X obj 482 141 r \$0-in;
#X obj 528 185 r \$0-in;
#X obj 213 420 r \$0-fm_mod;
#X obj 200 740 r \$0-fm_send;
#X obj 64 461 r \$0-rm_mod;
#X obj 372 743 r \$0-rm_send;
#X connect 0 0 56 0;
#X connect 1 0 0 0;
#X connect 2 0 32 0;
#X connect 2 0 37 1;
#X connect 3 0 4 0;
#X connect 4 0 7 1;
#X connect 5 0 19 0;
#X connect 6 0 2 0;
#X connect 7 0 21 0;
#X connect 8 0 7 0;
#X connect 9 0 56 0;
#X connect 10 0 2 1;
#X connect 11 0 74 0;
#X connect 13 0 5 0;
#X connect 15 0 8 0;
#X connect 17 0 18 0;
#X connect 18 0 19 1;
#X connect 18 0 20 0;
#X connect 19 0 4 1;
#X connect 20 0 5 0;
#X connect 21 0 6 0;
#X connect 23 0 21 1;
#X connect 25 0 54 0;
#X connect 27 0 53 0;
#X connect 28 0 55 0;
#X connect 32 0 38 1;
#X connect 36 0 27 0;
#X connect 36 0 25 0;
#X connect 36 0 28 0;
#X connect 37 0 36 0;
#X connect 38 0 36 1;
#X connect 39 0 37 0;
#X connect 40 0 39 0;
#X connect 42 0 57 0;
#X connect 43 0 42 0;
#X connect 44 0 10 1;
#X connect 45 0 57 0;
#X connect 46 0 43 0;
#X connect 47 0 46 0;
#X connect 50 0 23 1;
#X connect 51 0 63 0;
#X connect 52 0 65 0;
#X connect 56 0 3 1;
#X connect 56 0 3 0;
#X connect 57 0 44 1;
#X connect 57 0 44 0;
#X connect 58 0 60 0;
#X connect 58 1 1 0;
#X connect 58 2 9 0;
#X connect 59 0 43 0;
#X connect 59 1 45 0;
#X connect 60 1 10 0;
#X connect 64 0 23 0;
#X connect 66 0 32 1;
#X connect 67 0 27 1;
#X connect 68 0 15 0;
#X connect 69 0 1 0;
#X connect 70 0 46 1;
#X connect 71 0 13 0;
#X connect 72 0 17 0;
#X connect 73 0 58 0;
#X connect 75 0 47 0;
#X connect 76 0 59 0;
#X connect 77 0 50 0;
#X connect 78 0 25 1;
#X connect 79 0 40 0;
#X connect 79 0 39 1;
#X connect 79 0 38 0;
#X connect 80 0 28 1;
