#N canvas 331 29 621 581 10;
#X obj 134 279 osc~;
#X obj 133 240 +~;
#X obj 152 186 osc~;
#X obj 152 218 *~;
#X floatatom 237 187 5 0 0 0 - - -, f 5;
#X obj 30 30 inlet;
#X obj 134 401 outlet~;
#X obj 130 30 inlet;
#X obj 130 52 s \$0-ratio;
#X obj 379 45 loadbang;
#X obj 379 67 list \$1;
#X obj 379 89 s \$0-ratio;
#X obj 210 30 inlet;
#X obj 210 52 s \$0-index;
#X obj 459 67 list \$1;
#X obj 459 89 s \$0-index;
#X obj 332 219 *;
#X obj 371 173 r \$0-ratio;
#X obj 237 161 r \$0-index;
#X floatatom 300 273 5 0 0 0 note - -, f 5;
#X floatatom 300 293 5 0 0 0 m-freq - -, f 5;
#X floatatom 380 273 5 0 0 0 ratio #0-ratio -, f 5;
#X floatatom 380 293 5 0 0 0 index #0-index -, f 5;
#X obj 371 195 t b f;
#X obj 30 52 s \$0-note;
#X obj 317 134 r \$0-note;
#X connect 0 0 6 0;
#X connect 1 0 0 0;
#X connect 2 0 3 0;
#X connect 3 0 1 1;
#X connect 4 0 3 1;
#X connect 5 0 24 0;
#X connect 7 0 8 0;
#X connect 9 0 10 0;
#X connect 9 0 14 0;
#X connect 10 0 11 0;
#X connect 12 0 13 0;
#X connect 14 0 15 0;
#X connect 16 0 20 0;
#X connect 17 0 23 0;
#X connect 18 0 4 0;
#X connect 19 0 1 0;
#X connect 20 0 2 0;
#X connect 21 0 16 1;
#X connect 22 0 4 0;
#X connect 23 0 16 0;
#X connect 23 1 16 1;
#X connect 25 0 16 0;
#X connect 25 0 19 0;
#X coords 0 -1 1 1 170 60 1 250 250;
