#N canvas 186 163 792 297 10;
#X obj 69 29 osc~ 220;
#X obj 58 224 dac~;
#X obj 456 75 metro 100;
#N canvas 0 22 450 278 (subpatch) 0;
#X array folded 100 float 4;
#X coords 0 1 99 -1 200 140 1 0 0;
#X restore 540 29 graph;
#X obj 432 101 tabwrite~ folded;
#X obj 70 159 gate~;
#X obj 456 52 loadbang;
#X obj 24 244 throw~ \$0-graph;
#X obj 431 29 catch~ \$0-graph;
#X obj 247 29 osc~ 220;
#X obj 235 224 dac~;
#X obj 247 159 gate~;
#X obj 201 244 throw~ \$0-graph;
#X obj 246 101 folder~;
#X obj 70 101 folder~;
#X obj 266 77 *~ 5;
#X obj 266 55 osc~ 0.022;
#X obj 324 75 osc~ 0.033;
#X obj 134 52 nbx 5 14 -1e+37 1e+37 0 1 empty empty nb_folds 0 -8 0
10 -262144 -1 -1 1 256;
#X obj 134 82 nbx 5 14 -1e+37 1e+37 0 0 empty empty offset 0 -8 0 10
-262144 -1 -1 0 256;
#X connect 0 0 14 0;
#X connect 2 0 4 0;
#X connect 5 0 1 0;
#X connect 5 0 1 1;
#X connect 5 0 7 0;
#X connect 6 0 2 0;
#X connect 8 0 4 0;
#X connect 9 0 13 0;
#X connect 11 0 10 0;
#X connect 11 0 10 1;
#X connect 11 0 12 0;
#X connect 13 0 11 0;
#X connect 14 0 5 0;
#X connect 15 0 13 1;
#X connect 16 0 15 0;
#X connect 17 0 13 2;
#X connect 18 0 14 1;
#X connect 19 0 14 2;
