#N canvas 664 149 468 344 10;
#X obj 125 115 hsl 80 8 0 1 0 0 \$0-gain \$0-gain empty -2 -8 0 10
-262144 -1 -1 1000 1;
#X obj 43 208 *~;
#X obj 44 26 inlet~;
#X obj 44 241 outlet~;
#X obj 93 208 *~;
#X obj 94 26 inlet~;
#X obj 94 241 outlet~;
#X obj 164 26 inlet;
#X obj 164 47 clip 0 1;
#X obj 164 68 s \$0-gain;
#X obj 261 181 f;
#X obj 210 161 savestate;
#X obj 210 241 s \$0-gain;
#X obj 276 161 r \$0-gain;
#X obj 122 180 vline~;
#X msg 122 158 \$1 20;
#X obj 261 202 pack f;
#X obj 210 222 unpack f;
#X obj 122 138 r \$0-gain;
#X connect 1 0 3 0;
#X connect 2 0 1 0;
#X connect 4 0 6 0;
#X connect 5 0 4 0;
#X connect 7 0 8 0;
#X connect 8 0 9 0;
#X connect 10 0 16 0;
#X connect 11 0 17 0;
#X connect 11 1 10 0;
#X connect 13 0 10 1;
#X connect 14 0 1 1;
#X connect 14 0 4 1;
#X connect 15 0 14 0;
#X connect 16 0 11 0;
#X connect 17 0 12 0;
#X connect 18 0 15 0;
#X coords 0 -1 1 1 90 25 1 120 100;
