#N canvas 867 222 587 315 10;
#X obj 292 49 inlet;
#X obj 133 101 tgl 14 0 \$0-on \$0-on empty 17 7 0 10 -262144 -1 -1
1 1;
#X obj 53 55 inlet~;
#X obj 53 249 outlet~;
#X obj 54 201 *~;
#X obj 156 175 vline~;
#X msg 156 154 \$1 5;
#X obj 292 69 > 0.5;
#X obj 455 81 f;
#X obj 455 110 pack;
#X obj 404 54 savestate;
#X obj 403 130 unpack;
#X obj 474 54 r \$0-on;
#X obj 403 183 s \$0-on;
#X obj 159 131 pipe 0.0001;
#X obj 163 105 r \$0-on;
#X obj 292 90 diff;
#X obj 292 111 s \$0-on;
#X obj 113 55 inlet~;
#X obj 113 249 outlet~;
#X obj 114 201 *~;
#X connect 0 0 7 0;
#X connect 2 0 4 0;
#X connect 4 0 3 0;
#X connect 5 0 4 1;
#X connect 5 0 20 1;
#X connect 6 0 5 0;
#X connect 7 0 16 0;
#X connect 8 0 9 0;
#X connect 9 0 10 0;
#X connect 10 0 11 0;
#X connect 10 1 8 0;
#X connect 11 0 13 0;
#X connect 12 0 8 1;
#X connect 14 0 6 0;
#X connect 15 0 14 0;
#X connect 16 0 17 0;
#X connect 18 0 20 0;
#X connect 20 0 19 0;
#X coords 0 -1 1 1 47 16 1 100 100;
