#N canvas 194 119 768 531 10;
#X obj 425 20 inlet;
#X obj 138 122 tgl 14 0 \$0-on \$0-on empty 17 7 0 10 -262144 -1 -1
0 1;
#X obj 46 20 inlet;
#X obj 46 228 outlet;
#X obj 46 183 spigot;
#X obj 425 42 > 0.5;
#X obj 425 63 diff;
#X obj 425 84 s \$0-on;
#X obj 79 162 r \$0-on;
#X obj 579 57 f;
#X obj 579 86 pack;
#X obj 528 30 savestate;
#X obj 528 106 unpack;
#X obj 594 30 r \$0-on;
#X obj 528 129 s \$0-on;
#X obj 156 20 inlet;
#X obj 156 228 outlet;
#X obj 156 183 spigot;
#X obj 189 162 r \$0-on;
#X obj 236 20 inlet;
#X obj 236 228 outlet;
#X obj 236 183 spigot;
#X obj 269 162 r \$0-on;
#X obj 316 20 inlet;
#X obj 316 228 outlet;
#X obj 316 183 spigot;
#X obj 349 162 r \$0-on;
#X connect 0 0 5 0;
#X connect 2 0 4 0;
#X connect 4 0 3 0;
#X connect 5 0 6 0;
#X connect 6 0 7 0;
#X connect 8 0 4 1;
#X connect 9 0 10 0;
#X connect 10 0 11 0;
#X connect 11 0 12 0;
#X connect 11 1 9 0;
#X connect 12 0 14 0;
#X connect 13 0 9 1;
#X connect 15 0 17 0;
#X connect 17 0 16 0;
#X connect 18 0 17 1;
#X connect 19 0 21 0;
#X connect 21 0 20 0;
#X connect 22 0 21 1;
#X connect 23 0 25 0;
#X connect 25 0 24 0;
#X connect 26 0 25 1;
#X coords 0 -1 1 1 52 18 1 100 120;
