#N canvas 797 74 416 304 10;
#X obj 99 20 inlet;
#X obj 105 137 tgl 15 0 \$0-on \$0-on empty 17 7 0 10 -262144 -1 -1
1 1;
#X obj 46 20 inlet;
#X obj 46 228 outlet;
#X obj 46 183 spigot;
#X obj 99 42 > 0.5;
#X obj 99 63 diff;
#X obj 99 84 s \$0-on;
#X obj 79 162 r \$0-on;
#X obj 253 57 f;
#X obj 253 86 pack;
#X obj 202 30 savestate;
#X obj 202 106 unpack;
#X obj 268 30 r \$0-on;
#X obj 202 129 s \$0-on;
#X connect 0 0 5 0;
#X connect 2 0 4 0;
#X connect 4 0 3 0;
#X connect 5 0 6 0;
#X connect 6 0 7 0;
#X connect 8 0 4 1;
#X connect 9 0 10 0;
#X connect 10 0 11 0;
#X connect 11 0 12 0;
#X connect 11 1 9 0;
#X connect 12 0 14 0;
#X connect 13 0 9 1;
#X coords 0 -1 1 1 40 35 1 100 120;
