#N canvas 655 66 482 412 10;
#X obj 30 60 tgl 15 1 empty empty empty 17 7 0 10 -262144 -1 -1 1 1
;
#X floatatom 88 171 5 0 0 1 decay - -;
#X floatatom 179 171 5 0 0 1 freq - -;
#X obj 29 80 metro 100;
#X obj 88 150 rand 10 100;
#X obj 179 150 rand 4000 20000;
#X obj 20 290 dac~;
#X obj 88 115 gate;
#A saved 0 0;
#X text 137 114 <- random on/off;
#X obj 29 201 hh;
#A saved 20 5000;
#X connect 0 0 3 0;
#X connect 1 0 9 1;
#X connect 2 0 9 2;
#X connect 3 0 7 0;
#X connect 3 0 9 0;
#X connect 4 0 1 0;
#X connect 5 0 2 0;
#X connect 7 0 4 0;
#X connect 7 0 5 0;
#X connect 9 0 6 0;
#X connect 9 0 6 1;
