#N canvas 120 29 496 298 10;
#X obj 27 41 inlet;
#X obj 196 260 outlet~;
#X obj 195 120 noise~;
#X obj 27 110 t b b;
#X msg 59 138 1;
#N canvas 0 29 450 300 handle_args 0;
#X obj 55 34 loadbang;
#X obj 55 76 list \$1;
#X obj 55 98 sel 0;
#X obj 55 142 s \$0-decaytime;
#X obj 185 98 sel 0;
#X obj 185 76 list \$2;
#X obj 185 142 s \$0-freq;
#X msg 55 119 20;
#X msg 185 119 5000;
#X connect 0 0 1 0;
#X connect 0 0 5 0;
#X connect 1 0 2 0;
#X connect 2 0 7 0;
#X connect 2 1 3 0;
#X connect 4 0 8 0;
#X connect 4 1 6 0;
#X connect 5 0 4 0;
#X connect 7 0 3 0;
#X connect 8 0 6 0;
#X restore 335 61 pd handle_args;
#X obj 45 185 r \$0-decaytime;
#X obj 105 41 inlet;
#X obj 105 63 s \$0-decaytime;
#X msg 27 236 0 \$1;
#X obj 27 209 f;
#X obj 27 260 s \$0-env;
#X obj 214 144 r \$0-env;
#X obj 59 160 s \$0-env;
#X obj 214 168 vline~;
#X obj 196 234 *~;
#X obj 215 40 inlet;
#X obj 215 62 s \$0-freq;
#X obj 196 212 hip~;
#X obj 221 189 r \$0-freq;
#X text 202 101 the sound;
#X text 28 22 play;
#X text 105 22 decay;
#X text 214 22 freq of hip;
#X connect 0 0 3 0;
#X connect 2 0 18 0;
#X connect 3 0 10 0;
#X connect 3 1 4 0;
#X connect 4 0 13 0;
#X connect 6 0 10 1;
#X connect 7 0 8 0;
#X connect 9 0 11 0;
#X connect 10 0 9 0;
#X connect 12 0 14 0;
#X connect 14 0 15 1;
#X connect 15 0 1 0;
#X connect 16 0 17 0;
#X connect 18 0 15 0;
#X connect 19 0 18 1;
