#N canvas 558 290 1013 734 10;
#X obj 117 41 inlet;
#X obj 286 260 outlet~;
#X obj 285 120 noise~;
#X obj 117 110 t b b;
#X msg 149 138 1;
#X obj 135 185 r \$0-decaytime;
#X obj 195 41 inlet;
#X obj 195 63 s \$0-decaytime;
#X msg 117 236 0 \$1;
#X obj 117 209 f;
#X obj 117 260 s \$0-env;
#X obj 304 144 r \$0-env;
#X obj 149 160 s \$0-env;
#X obj 304 168 vline~;
#X obj 286 234 *~;
#X obj 305 40 inlet;
#X obj 305 62 s \$0-freq;
#X obj 286 212 hip~;
#X obj 311 189 r \$0-freq;
#X text 292 101 the sound;
#X text 118 22 play;
#X text 195 22 decay;
#X text 304 22 freq of hip;
#X obj 22 13 nbx 5 14 1 999 0 0 \$0-decaytime \$0-decaytime dec -20
7 0 10 -262144 -1 -1 20 256;
#X obj 22 27 nbx 5 14 0 20000 0 0 \$0-freq \$0-freq frq -20 7 0 10
-262144 -1 -1 5000 256;
#X obj 753 89 f;
#X obj 753 111 pack;
#X obj 702 65 savestate;
#X obj 702 125 unpack;
#X obj 790 58 r \$0-decaytime;
#X obj 794 78 r \$0-freq;
#X obj 796 156 s \$0-freq;
#X obj 701 155 s \$0-decaytime;
#X obj 600 221 spigot 1;
#X msg 645 155 0;
#X obj 600 200 ii 20;
#X obj 656 220 spigot 1;
#X obj 656 199 ii 5000;
#X connect 0 0 3 0;
#X connect 2 0 17 0;
#X connect 3 0 9 0;
#X connect 3 1 4 0;
#X connect 4 0 12 0;
#X connect 5 0 9 1;
#X connect 6 0 7 0;
#X connect 8 0 10 0;
#X connect 9 0 8 0;
#X connect 11 0 13 0;
#X connect 13 0 14 1;
#X connect 14 0 1 0;
#X connect 15 0 16 0;
#X connect 17 0 14 0;
#X connect 18 0 17 1;
#X connect 25 0 26 0;
#X connect 26 0 27 0;
#X connect 27 0 28 0;
#X connect 27 1 25 0;
#X connect 28 0 32 0;
#X connect 28 0 34 0;
#X connect 28 1 31 0;
#X connect 29 0 25 1;
#X connect 30 0 26 1;
#X connect 33 0 32 0;
#X connect 34 0 33 1;
#X connect 34 0 36 1;
#X connect 35 0 33 0;
#X connect 36 0 31 0;
#X connect 37 0 36 0;
#X coords 0 -1 1 1 76 43 1 0 0;
