#N canvas 736 243 344 285 10;
#X obj 48 29 tgl 15 0 empty empty empty 17 7 0 10 -262144 -1 -1 1 1
;
#X obj 48 49 metro 1000;
#X obj 48 70 f;
#X obj 78 70 + 1;
#X obj 48 91 mod 8;
#X obj 48 112 hradio 15 1 0 8 empty empty empty 0 -8 0 10 -262144 -1
-1 2;
#X obj 48 152 jitter;
#A saved 1 2;
#X obj 48 213 hradio 15 1 0 8 empty empty empty 0 -8 0 10 -262144 -1
-1 2;
#X connect 0 0 1 0;
#X connect 1 0 2 0;
#X connect 2 0 3 0;
#X connect 2 0 4 0;
#X connect 3 0 2 1;
#X connect 4 0 5 0;
#X connect 5 0 6 0;
#X connect 6 0 7 0;
