#N canvas 775 339 600 400 10;
#X obj 139 67 t f b;
#X obj 138 174 +;
#X obj 29 14 nbx 4 14 0 1 0 0 \$0-prob \$0-prob prob -27 7 0 10 -262144
-1 -1 0.1 256;
#X obj 166 98 branch;
#X msg 213 140 0;
#X obj 139 27 inlet;
#X obj 138 249 outlet;
#X obj 29 28 nbx 4 14 -1e+37 1e+37 0 0 \$0-jitter \$0-jitter amt -22
7 0 10 -262144 -1 -1 10 256;
#X obj 166 139 rand;
#X obj 324 211 f;
#X obj 324 240 pack;
#X obj 273 187 savestate;
#X obj 273 248 unpack;
#X obj 375 170 r \$0-prob;
#X obj 258 277 s \$0-prob;
#X obj 375 186 r \$0-jitter;
#X obj 258 293 s \$0-jitter;
#X obj 236 76 r \$0-jitter;
#X obj 236 97 pipe 0.0001;
#X connect 0 0 1 0;
#X connect 0 1 2 0;
#X connect 1 0 6 0;
#X connect 2 0 3 0;
#X connect 3 0 8 0;
#X connect 3 1 4 0;
#X connect 4 0 1 1;
#X connect 5 0 0 0;
#X connect 8 0 1 1;
#X connect 9 0 10 0;
#X connect 10 0 11 0;
#X connect 11 0 12 0;
#X connect 11 1 9 0;
#X connect 12 0 14 0;
#X connect 12 1 16 0;
#X connect 13 0 9 1;
#X connect 15 0 10 1;
#X connect 17 0 18 0;
#X connect 18 0 8 1;
#X coords 0 -1 1 1 74 44 1 0 0;
