#N canvas 228 29 905 615 10;
#X msg 192 186 0;
#X floatatom 239 209 5 0 0 0 - - -, f 5;
#X obj 30 131 noise~;
#X obj 32 240 *~;
#X msg 155 186 1;
#X obj 238 164 mtof;
#X obj 155 134 t b b f;
#X text 358 210 delay length sets pitch;
#X text 360 163 converts midi notes to hz;
#X obj 239 187 expr 1000 / $f1;
#X text 356 186 converts period to milliseconds;
#N canvas 548 50 476 430 delay 0;
#X obj -20 118 z~;
#X obj 17 116 z~ 2;
#X obj 2 151 +~;
#X obj 2 177 *~ 0.5;
#X obj 3 211 *~ 0.99;
#X obj 1 86 vd~ buff2;
#X obj -394 347 delwrite~ buff2 1000;
#X obj -393 269 inlet~;
#X obj 1 35 inlet~;
#X obj 1 353 outlet~;
#X obj -325 129 block~ 1;
#X obj -394 306 +~;
#X text -338 157 reducing block size to 1 allows for shorter delays
;
#X connect 0 0 2 0;
#X connect 1 0 2 1;
#X connect 2 0 3 0;
#X connect 3 0 4 0;
#X connect 4 0 9 0;
#X connect 4 0 11 1;
#X connect 5 0 0 0;
#X connect 5 0 1 0;
#X connect 7 0 11 0;
#X connect 8 0 5 0;
#X connect 11 0 6 0;
#X restore 32 289 pd delay;
#X floatatom 237 134 5 0 0 0 - - -, f 5;
#X text 281 133 change pulse length;
#X obj 32 348 outlet~;
#X obj 155 64 inlet;
#X obj 224 64 inlet;
#X obj 501 55 list \$1;
#X obj 501 78 select 0;
#X obj 501 33 loadbang;
#X text 103 285 delay loop is in a subpatch to get;
#X text 103 297 shorter than 64 samples;
#X msg 501 100 8;
#X obj 192 164 del;
#X obj 351 63 inlet;
#X obj 224 86 s \$0-del;
#X obj 501 122 s \$0-del;
#X obj 237 111 r \$0-del;
#X obj 351 85 s \$0-cut;
#X obj 56 161 r \$0-cut;
#X text 148 44 note in;
#X text 222 45 delay length;
#X text 351 43 cutoff;
#X obj 601 78 select 0;
#X obj 601 33 loadbang;
#X msg 601 100 1200;
#X obj 601 55 list \$2;
#X obj 601 122 s \$0-cut;
#X obj 31 186 lop~;
#X connect 0 0 3 1;
#X connect 1 0 11 1;
#X connect 2 0 38 0;
#X connect 3 0 11 0;
#X connect 4 0 3 1;
#X connect 5 0 9 0;
#X connect 6 0 4 0;
#X connect 6 1 23 0;
#X connect 6 2 5 0;
#X connect 9 0 1 0;
#X connect 11 0 14 0;
#X connect 12 0 23 1;
#X connect 15 0 6 0;
#X connect 16 0 25 0;
#X connect 17 0 18 0;
#X connect 18 0 22 0;
#X connect 18 1 26 0;
#X connect 19 0 17 0;
#X connect 22 0 26 0;
#X connect 23 0 0 0;
#X connect 24 0 28 0;
#X connect 27 0 12 0;
#X connect 29 0 38 1;
#X connect 33 0 35 0;
#X connect 33 1 37 0;
#X connect 34 0 36 0;
#X connect 35 0 37 0;
#X connect 36 0 33 0;
#X connect 38 0 3 0;
