#N canvas 17 29 893 479 10;
#X obj 83 341 delwrite~ ka 200;
#X obj 41 63 delread~ ka;
#X obj 83 276 *~ 0.5;
#X obj 137 290 *~ 0.5;
#X obj 472 297 mtof;
#X obj 472 369 /;
#X msg 472 345 1000;
#X obj 472 320 t b f;
#X text 518 323 convert Hz to ms;
#X obj 274 241 line~;
#X text 217 150 generate noise pulses;
#X obj 257 192 noise~;
#X obj 256 264 *~;
#X obj 440 175 t b f;
#X obj 136 264 z~ 3;
#X obj 169 37 inlet;
#X obj 41 414 outlet~;
#X obj 733 93 select 0;
#X obj 733 48 loadbang;
#X obj 661 93 select 0;
#X obj 661 48 loadbang;
#X obj 661 70 list \$2;
#X obj 386 37 inlet;
#X obj 316 37 inlet;
#X obj 82 146 lop~;
#X obj 83 232 *~;
#X msg 661 115 1000;
#X obj 101 210 min 1;
#X obj 101 188 max -1;
#X obj 101 167 r \$0-gain;
#X obj 386 59 s \$0-gain;
#X obj 733 137 s \$0-gain;
#X msg 733 115 1;
#X obj 661 137 s \$0-cut;
#X obj 316 59 s \$0-cut;
#X obj 107 122 r \$0-cut;
#X obj 169 59 s \$0-note;
#X obj 440 152 r \$0-note;
#X obj 733 70 list \$3;
#X obj 246 37 inlet;
#X obj 246 59 s \$0-len;
#X msg 274 219 1 \, 0 \$1;
#X obj 313 192 f;
#X obj 313 171 r \$0-len;
#X obj 591 93 select 0;
#X obj 591 48 loadbang;
#X obj 591 70 list \$1;
#X msg 591 115 5;
#X obj 591 137 s \$0-len;
#X obj 472 391 s \$0-ms;
#X obj 39 25 r \$0-ms;
#X text 190 282 current and previous;
#X text 190 293 sample averaged;
#X text 170 19 note;
#X text 244 18 length;
#X text 314 18 cutoff;
#X text 385 18 noise gain;
#X connect 1 0 16 0;
#X connect 1 0 24 0;
#X connect 2 0 0 0;
#X connect 3 0 0 0;
#X connect 4 0 7 0;
#X connect 5 0 49 0;
#X connect 6 0 5 0;
#X connect 7 0 6 0;
#X connect 7 1 5 1;
#X connect 9 0 12 1;
#X connect 11 0 12 0;
#X connect 12 0 0 0;
#X connect 13 0 42 0;
#X connect 13 1 4 0;
#X connect 14 0 3 0;
#X connect 15 0 36 0;
#X connect 17 0 32 0;
#X connect 17 1 31 0;
#X connect 18 0 38 0;
#X connect 19 0 26 0;
#X connect 19 1 33 0;
#X connect 20 0 21 0;
#X connect 21 0 19 0;
#X connect 22 0 30 0;
#X connect 23 0 34 0;
#X connect 24 0 25 0;
#X connect 25 0 2 0;
#X connect 25 0 14 0;
#X connect 26 0 33 0;
#X connect 27 0 25 1;
#X connect 28 0 27 0;
#X connect 29 0 28 0;
#X connect 32 0 31 0;
#X connect 35 0 24 1;
#X connect 37 0 13 0;
#X connect 38 0 17 0;
#X connect 39 0 40 0;
#X connect 41 0 9 0;
#X connect 42 0 41 0;
#X connect 43 0 42 0;
#X connect 44 0 47 0;
#X connect 44 1 48 0;
#X connect 45 0 46 0;
#X connect 46 0 44 0;
#X connect 47 0 48 0;
#X connect 50 0 1 0;
