#N canvas 532 52 322 214 10;
#X obj 32 157 hsl 128 15 -1 1 0 0 empty empty empty -2 -8 0 10 -262144
-1 -1 4064 1;
#X msg 119 45 1000;
#X obj 29 118 lfo_tri 2000;
#X msg 119 25 200;
#X msg 119 65 10000;
#X connect 1 0 2 0;
#X connect 2 0 0 0;
#X connect 3 0 2 0;
#X connect 4 0 2 0;
