#N canvas 296 417 552 351 10;
#X floatatom 98 228 5 0 0 0 - - -;
#X obj 126 260 hsl 128 15 0 1 0 0 empty empty empty -2 -8 0 10 -262144
-1 -1 12700 1;
#X obj 315 37 loadbang;
#X obj 57 36 inlet;
#X obj 57 259 outlet;
#X text 57 15 cycle time (ms);
#X obj 315 99 list \$1;
#X obj 315 121 sel 0;
#X msg 315 143 1000;
#X obj 315 165 s \$0-cycle_time;
#X obj 57 65 s \$0-cycle_time;
#X obj 315 59 t b b;
#X obj 57 183 lineb;
#X obj 176 175 f;
#X msg 176 153 1;
#X obj 209 175 + 1;
#X obj 57 141 mod 2;
#X obj 57 162 pack f f;
#X obj 145 105 r \$0-cycle_time;
#X obj 145 127 / 2;
#X text 56 274 range: 0 - 1;
#X connect 0 0 1 0;
#X connect 0 0 4 0;
#X connect 2 0 11 0;
#X connect 3 0 10 0;
#X connect 6 0 7 0;
#X connect 7 0 8 0;
#X connect 7 1 9 0;
#X connect 8 0 9 0;
#X connect 11 0 14 0;
#X connect 11 1 6 0;
#X connect 12 0 0 0;
#X connect 12 1 13 0;
#X connect 13 0 15 0;
#X connect 13 0 16 0;
#X connect 14 0 13 0;
#X connect 15 0 13 1;
#X connect 16 0 17 0;
#X connect 17 0 12 0;
#X connect 18 0 19 0;
#X connect 19 0 17 1;
