#N canvas 319 120 986 767 10;
#X obj 40 209 sin;
#X obj 117 268 hsl 128 15 0 1 0 0 empty empty empty -2 -8 0 10 -262144
-1 -1 12546 1;
#X obj 40 190 counter;
#X obj 40 267 outlet;
#X obj 45 19 inlet;
#X obj 404 45 loadbang;
#X obj 404 97 list \$1;
#X obj 404 119 sel 0;
#X msg 404 141 1000;
#X obj 404 163 s \$0-cycle_time;
#X obj 45 45 s \$0-cycle_time;
#X obj 126 81 r \$0-cycle_time;
#X obj 404 67 t b b;
#X obj 323 97 s \$0-start;
#X obj 40 103 r \$0-start;
#X msg 126 163 step 0.01;
#X obj 40 165 metro;
#X obj 464 97 s \$0-init;
#X obj 126 143 r \$0-init;
#X obj 126 125 *;
#X obj 190 103 pi;
#X obj 126 103 / 2000;
#X obj 40 230 scale -1 1 0 1;
#X text 39 285 range: 0-1;
#X connect 0 0 22 0;
#X connect 2 0 0 0;
#X connect 4 0 10 0;
#X connect 5 0 12 0;
#X connect 6 0 7 0;
#X connect 7 0 8 0;
#X connect 7 1 9 0;
#X connect 8 0 9 0;
#X connect 11 0 21 0;
#X connect 12 0 13 0;
#X connect 12 1 6 0;
#X connect 12 1 17 0;
#X connect 14 0 16 0;
#X connect 15 0 2 1;
#X connect 16 0 2 0;
#X connect 18 0 15 0;
#X connect 19 0 16 1;
#X connect 20 0 19 1;
#X connect 21 0 19 0;
#X connect 22 0 1 0;
#X connect 22 0 3 0;
