#N canvas 1186 49 322 214 10;
#X obj 32 157 hsl 128 15 -1 1 0 0 empty empty empty -2 -8 0 10 -262144
-1 -1 2494 1;
#X msg 119 45 1000;
#X msg 119 25 200;
#X msg 119 65 10000;
#X obj 36 185 print;
#X msg 119 85 50000;
#X obj 29 118 lfo_sin 1000;
#X connect 1 0 6 0;
#X connect 2 0 6 0;
#X connect 3 0 6 0;
#X connect 5 0 6 0;
#X connect 6 0 0 0;
