#N canvas 763 70 865 463 10;
#X obj 367 253 lineb;
#X msg 570 24 stop;
#X obj 370 309 hsl 128 15 0 1 0 0 empty empty empty -2 -8 0 10 -262144
-1 -1 0 1;
#X obj 417 108 f;
#X msg 417 25 1;
#X obj 450 108 + 1;
#X obj 367 178 mod 2;
#X floatatom 412 198 5 100 2000 0 - - -, f 5;
#X obj 367 225 pack f f;
#X floatatom 367 203 5 0 0 0 - - -, f 5;
#X obj 490 139 loadbang;
#X msg 490 161 1000;
#X obj 417 47 t f f;
#X msg 570 46 0;
#X obj 570 68 t f f;
#X obj 47 253 lineb;
#X obj 50 309 hsl 128 15 0 1 0 0 empty empty empty -2 -8 0 10 -262144
-1 -1 0 1;
#X floatatom 92 198 5 100 2000 0 - - -, f 5;
#X obj 47 225 pack f f;
#X obj 170 139 loadbang;
#X msg 170 161 1000;
#X msg 33 144 1;
#X msg 68 144 0;
#X obj 74 274 bng 15 250 50 0 empty empty empty 17 7 0 10 -262144 -1
-1;
#X connect 0 0 2 0;
#X connect 0 1 3 0;
#X connect 1 0 0 0;
#X connect 1 0 13 0;
#X connect 3 0 5 0;
#X connect 3 0 6 0;
#X connect 4 0 12 0;
#X connect 5 0 3 1;
#X connect 6 0 9 0;
#X connect 7 0 8 1;
#X connect 8 0 0 0;
#X connect 9 0 8 0;
#X connect 10 0 11 0;
#X connect 11 0 7 0;
#X connect 12 0 3 0;
#X connect 12 1 5 1;
#X connect 13 0 14 0;
#X connect 14 0 3 0;
#X connect 14 1 5 1;
#X connect 15 0 16 0;
#X connect 15 1 23 0;
#X connect 17 0 18 1;
#X connect 18 0 15 0;
#X connect 19 0 20 0;
#X connect 20 0 17 0;
#X connect 21 0 18 0;
#X connect 22 0 18 0;
