#N canvas 1095 545 530 357 10;
#X obj 26 71 inlet;
#X obj 95 71 inlet;
#X obj 164 71 inlet;
#X obj 166 281 outlet;
#X obj 309 71 loadbang;
#X obj 276 93 list \$1;
#X obj 338 93 list \$2;
#X obj 338 115 sel 0;
#X msg 338 137 20;
#X obj 26 197 unpack f f;
#X obj 26 175 route list stop;
#X obj 93 226 delay;
#X text 31 24 works as line \, bangs when done (eoc);
#X text 165 300 bang when done (eoc);
#X text 258 54 handle creation arguments;
#X obj 93 247 bng 15 250 50 0 empty empty empty 17 7 0 10 -262144 -1
-1;
#X obj 180 226 vline~;
#X obj 26 282 outlet~;
#X msg 35 237 bang;
#X connect 0 0 10 0;
#X connect 0 0 16 0;
#X connect 1 0 16 1;
#X connect 2 0 16 2;
#X connect 2 0 11 1;
#X connect 4 0 5 0;
#X connect 4 0 6 0;
#X connect 5 0 16 1;
#X connect 6 0 7 0;
#X connect 7 0 8 0;
#X connect 7 1 16 2;
#X connect 7 1 11 1;
#X connect 8 0 16 2;
#X connect 8 0 11 1;
#X connect 9 1 18 0;
#X connect 10 0 9 0;
#X connect 10 1 3 0;
#X connect 11 0 3 0;
#X connect 11 0 15 0;
#X connect 16 0 17 0;
#X connect 18 0 11 0;
