#N canvas 812 106 602 423 10;
#X obj 44 49 inlet~;
#X obj 43 304 outlet~;
#X obj 237 49 inlet;
#X obj 461 54 loadbang;
#X obj 461 105 list \$1;
#X obj 461 126 sel 0;
#X obj 461 168 s \$0-decay;
#X obj 237 71 s \$0-decay;
#X obj 146 115 r \$0-decay;
#X obj 43 273 *~;
#X obj 119 49 inlet;
#X msg 119 70 bang;
#X msg 461 147 200;
#X obj 43 196 lop~;
#X obj 64 145 ad 0.01;
#X obj 119 164 ad~ 1;
#X obj 64 166 * 10000;
#X text 37 31 audio in;
#X text 41 326 audio out;
#X text 116 31 bang to open;
#X text 238 31 decay;
#X obj 119 185 pow~;
#X obj 531 126 sel 0;
#X obj 531 168 s \$0-exp;
#X obj 531 105 list \$2;
#X obj 176 162 r \$0-exp;
#X obj 307 49 inlet;
#X obj 307 71 s \$0-exp;
#X text 308 31 exp;
#X msg 531 147 3;
#X connect 0 0 13 0;
#X connect 2 0 7 0;
#X connect 3 0 4 0;
#X connect 3 0 24 0;
#X connect 4 0 5 0;
#X connect 5 0 12 0;
#X connect 5 1 6 0;
#X connect 8 0 14 2;
#X connect 8 0 15 2;
#X connect 9 0 1 0;
#X connect 10 0 11 0;
#X connect 11 0 14 0;
#X connect 11 0 15 0;
#X connect 12 0 6 0;
#X connect 13 0 9 0;
#X connect 14 0 16 0;
#X connect 15 0 21 0;
#X connect 16 0 13 1;
#X connect 21 0 9 1;
#X connect 22 0 29 0;
#X connect 22 1 23 0;
#X connect 24 0 22 0;
#X connect 25 0 21 1;
#X connect 26 0 27 0;
#X connect 29 0 23 0;
