#N canvas 576 311 757 527 10;
#X obj 98 25 inlet;
#X obj 98 337 outlet;
#X obj 11 14 nbx 5 14 -1e+37 1e+37 0 0 \$0-plus \$0-plus + -8 7 0 10
-262144 -1 -1 0 256;
#X obj 11 28 nbx 5 14 -1e+37 1e+37 0 0 \$0-multiply \$0-multiply x
-8 7 0 10 -262144 -1 -1 1 256;
#X obj 528 180 f;
#X obj 477 160 savestate;
#X obj 543 110 r \$0-plus;
#X obj 477 313 s \$0-plus;
#X obj 551 130 r \$0-multiply;
#X obj 504 293 s \$0-multiply;
#X obj 111 67 r \$0-plus;
#X obj 124 87 r \$0-multiply;
#X obj 208 25 inlet;
#X obj 271 25 inlet;
#X obj 208 45 s \$0-plus;
#X obj 271 45 s \$0-multiply;
#X obj 399 283 spigot 1;
#X msg 444 262 0;
#X obj 399 262 ii 1;
#X obj 32 4 tgl 10 0 \$0-process \$0-process $ 12 5 0 10 -262144 -1
-1 1 1;
#X obj 98 152 bondo 4;
#X obj 98 188 expr if($f4 \, ($f1 + $f2) * $f3 \, $f1);
#X obj 574 150 r \$0-process;
#X obj 531 273 s \$0-process;
#X obj 528 200 pack f f f f;
#X obj 477 220 unpack f f f f;
#X obj 55 4 tgl 10 0 \$0-open \$0-open | -6 3 0 10 -262144 -1 -1 1
1;
#X obj 137 107 r \$0-process;
#X obj 358 25 inlet;
#X obj 438 25 inlet;
#X obj 358 45 s \$0-process;
#X obj 438 45 s \$0-open;
#X obj 98 278 expr if($f2 \, $f1 \, 0);
#X obj 597 170 r \$0-open;
#X obj 558 253 s \$0-open;
#X obj 125 219 r \$0-open;
#X obj 98 249 bondo;
#X connect 0 0 20 0;
#X connect 4 0 24 0;
#X connect 5 0 25 0;
#X connect 5 1 4 0;
#X connect 6 0 4 1;
#X connect 8 0 24 1;
#X connect 10 0 20 1;
#X connect 11 0 20 2;
#X connect 12 0 14 0;
#X connect 13 0 15 0;
#X connect 16 0 9 0;
#X connect 16 0 23 0;
#X connect 16 0 34 0;
#X connect 17 0 16 1;
#X connect 18 0 16 0;
#X connect 20 0 21 0;
#X connect 20 1 21 1;
#X connect 20 2 21 2;
#X connect 20 3 21 3;
#X connect 21 0 36 0;
#X connect 22 0 24 2;
#X connect 24 0 5 0;
#X connect 25 0 7 0;
#X connect 25 0 17 0;
#X connect 25 1 9 0;
#X connect 25 2 23 0;
#X connect 25 3 34 0;
#X connect 27 0 20 3;
#X connect 28 0 30 0;
#X connect 29 0 31 0;
#X connect 32 0 1 0;
#X connect 33 0 24 3;
#X connect 35 0 36 1;
#X connect 36 0 32 0;
#X connect 36 1 32 1;
#X coords 0 -1 1 1 65 42 1 0 0;
