#N canvas 200 50 578 381 10;
#X obj 100 100 ch_bridge 1;
#X obj 118 100 ch_bridge 2;
#X obj 136 100 ch_bridge 3;
#X obj 154 100 ch_bridge 4;
#X obj 172 100 ch_bridge 5;
#X obj 190 100 ch_bridge 6;
#X obj 208 100 ch_bridge 7;
#X obj 226 100 ch_bridge 8;
#X text 103 226 1;
#X text 122 226 2;
#X text 141 226 3;
#X text 160 226 4;
#X text 176 226 5;
#X text 195 226 6;
#X text 214 226 7;
#X text 233 226 8;
#X obj 244 100 ch_bridge 9;
#X obj 262 100 ch_bridge 10;
#X obj 280 100 ch_bridge 11;
#X obj 298 100 ch_bridge 12;
#X obj 316 100 ch_bridge 13;
#X obj 334 100 ch_bridge 14;
#X obj 352 100 ch_bridge 15;
#X obj 370 100 ch_bridge 16;
#X text 250 226 9;
#X text 264 226 10;
#X text 283 226 11;
#X text 302 226 12;
#X text 318 226 13;
#X text 337 226 14;
#X text 356 226 15;
#X text 375 226 16;
#X obj 415 103 vu 15 120 vuL empty -1 -8 0 10 -262144 -262144 1 0;
#X obj 432 103 vu 15 120 vuR empty -1 -8 0 10 -262144 -262144 1 0;
#X coords 0 -1 1 1 350 150 2 100 100;
