#N canvas 576 29 679 628 10;
#X text 50 22 mixer;
#X obj 51 49 ch_strip 1;
#X obj 67 459 s gainL;
#X obj 127 459 s gainR;
#X obj 48 479 s master-gain;
#X obj 218 78 +~;
#X obj 218 108 +~;
#X obj 218 138 +~;
#X obj 218 168 +~;
#X obj 218 527 env~;
#X obj 218 554 - 100;
#X obj 438 78 +~;
#X obj 438 108 +~;
#X obj 438 138 +~;
#X obj 438 168 +~;
#X obj 437 527 env~;
#X obj 437 554 - 100;
#X obj 218 198 +~;
#X obj 218 228 +~;
#X obj 218 258 +~;
#X obj 218 288 +~;
#X obj 438 198 +~;
#X obj 438 228 +~;
#X obj 438 258 +~;
#X obj 438 288 +~;
#X obj 218 321 +~;
#X obj 218 351 +~;
#X obj 218 381 +~;
#X obj 218 411 +~;
#X obj 438 321 +~;
#X obj 438 351 +~;
#X obj 438 381 +~;
#X obj 438 411 +~;
#X obj 218 441 +~;
#X obj 218 471 +~;
#X obj 218 501 +~;
#X obj 438 441 +~;
#X obj 438 471 +~;
#X obj 438 501 +~;
#X obj 218 576 s vuL;
#X obj 437 576 s vuR;
#X obj 51 66 ch_strip 2;
#X obj 51 83 ch_strip 3;
#X obj 51 100 ch_strip 4;
#X obj 51 117 ch_strip 5;
#X obj 51 134 ch_strip 6;
#X obj 51 151 ch_strip 7;
#X obj 51 168 ch_strip 8;
#X obj 51 185 ch_strip 9;
#X obj 51 202 ch_strip 10;
#X obj 51 219 ch_strip 11;
#X obj 51 236 ch_strip 12;
#X obj 51 253 ch_strip 13;
#X obj 51 270 ch_strip 14;
#X obj 51 287 ch_strip 15;
#X obj 51 304 ch_strip 16;
#X obj 267 32 catch~ ch1-audioL;
#X obj 267 92 catch~ ch3-audioL;
#X obj 267 62 catch~ ch2-audioL;
#X obj 267 122 catch~ ch4-audioL;
#X obj 267 152 catch~ ch5-audioL;
#X obj 267 182 catch~ ch6-audioL;
#X obj 268 212 catch~ ch7-audioL;
#X obj 267 242 catch~ ch8-audioL;
#X obj 267 271 catch~ ch9-audioL;
#X obj 268 306 catch~ ch10-audioL;
#X obj 267 335 catch~ ch11-audioL;
#X obj 267 365 catch~ ch12-audioL;
#X obj 267 395 catch~ ch13-audioL;
#X obj 267 425 catch~ ch14-audioL;
#X obj 268 455 catch~ ch15-audioL;
#X obj 268 485 catch~ ch16-audioL;
#X obj 487 32 catch~ ch1-audioR;
#X obj 487 62 catch~ ch2-audioR;
#X obj 488 92 catch~ ch3-audioR;
#X obj 488 122 catch~ ch4-audioR;
#X obj 487 152 catch~ ch5-audioR;
#X obj 487 182 catch~ ch6-audioR;
#X obj 488 212 catch~ ch7-audioR;
#X obj 489 242 catch~ ch8-audioR;
#X obj 487 272 catch~ ch9-audioR;
#X obj 487 305 catch~ ch10-audioR;
#X obj 488 335 catch~ ch11-audioR;
#X obj 488 365 catch~ ch12-audioR;
#X obj 488 395 catch~ ch13-audioR;
#X obj 486 425 catch~ ch14-audioR;
#X obj 488 455 catch~ ch15-audioR;
#X obj 490 485 catch~ ch16-audioR;
#X text 58 328 ch1-gain;
#X text 58 341 ch1-pan;
#X obj 67 434 ii 1;
#X text 68 415 init;
#X connect 5 0 6 0;
#X connect 6 0 7 0;
#X connect 7 0 8 0;
#X connect 8 0 17 0;
#X connect 9 0 10 0;
#X connect 10 0 39 0;
#X connect 11 0 12 0;
#X connect 12 0 13 0;
#X connect 13 0 14 0;
#X connect 14 0 21 0;
#X connect 15 0 16 0;
#X connect 16 0 40 0;
#X connect 17 0 18 0;
#X connect 18 0 19 0;
#X connect 19 0 20 0;
#X connect 20 0 25 0;
#X connect 21 0 22 0;
#X connect 22 0 23 0;
#X connect 23 0 24 0;
#X connect 24 0 29 0;
#X connect 25 0 26 0;
#X connect 26 0 27 0;
#X connect 27 0 28 0;
#X connect 28 0 33 0;
#X connect 29 0 30 0;
#X connect 30 0 31 0;
#X connect 31 0 32 0;
#X connect 32 0 36 0;
#X connect 33 0 34 0;
#X connect 34 0 35 0;
#X connect 35 0 9 0;
#X connect 36 0 37 0;
#X connect 37 0 38 0;
#X connect 38 0 15 0;
#X connect 56 0 5 0;
#X connect 57 0 6 1;
#X connect 58 0 5 1;
#X connect 59 0 7 1;
#X connect 60 0 8 1;
#X connect 61 0 17 1;
#X connect 62 0 18 1;
#X connect 63 0 19 1;
#X connect 64 0 20 1;
#X connect 65 0 25 1;
#X connect 66 0 26 1;
#X connect 67 0 27 1;
#X connect 68 0 28 1;
#X connect 69 0 33 1;
#X connect 70 0 34 1;
#X connect 71 0 35 1;
#X connect 72 0 11 0;
#X connect 73 0 11 1;
#X connect 74 0 12 1;
#X connect 75 0 13 1;
#X connect 76 0 14 1;
#X connect 77 0 21 1;
#X connect 78 0 22 1;
#X connect 79 0 23 1;
#X connect 80 0 24 1;
#X connect 81 0 29 1;
#X connect 82 0 30 1;
#X connect 83 0 31 1;
#X connect 84 0 32 1;
#X connect 85 0 36 1;
#X connect 86 0 37 1;
#X connect 87 0 38 1;
#X connect 90 0 2 0;
#X connect 90 0 3 0;
#X connect 90 0 4 0;
