#N canvas 516 166 1002 563 10;
#X obj 343 358 noteout;
#X obj 147 26 inlet;
#X obj 28 14 nbx 2 14 0 7 0 0 \$0-midi_channel \$0-midi_channel chan
-26 7 0 10 -262144 -1 -1 0 256;
#X obj 612 82 f;
#X obj 612 111 pack;
#X obj 561 53 savestate;
#X obj 561 133 unpack;
#X obj 627 52 r \$0-midi_channel;
#X obj 560 183 s \$0-midi_channel;
#X obj 340 203 r \$0-midi_channel;
#X obj 257 269 f;
#X obj 257 349 noteout;
#X obj 276 315 ii 0;
#X obj 275 229 t f f b;
#X obj 362 313 ii 127;
#X obj 275 209 + 24;
#X obj 275 188 round;
#X msg 145 202 bang;
#X obj 172 221 t b b;
#X obj 143 304 f;
#X obj 170 305 + 1;
#X msg 201 276 0;
#X obj 143 242 burst 130;
#X text 257 368 note off;
#X text 345 378 note on;
#X obj 147 137 sel -3 -2 -1;
#X obj 147 117 clip -3 128;
#X obj 340 253 expr if($f1 <= 4 \, $f1 \, $f1+16);
#X obj 340 231 + 1;
#X obj 637 71 r \$0-octave;
#X obj 654 162 s \$0-octave;
#X obj 79 14 nbx 2 14 -8 8 0 0 \$0-octave \$0-octave oct -20 7 0 10
-262144 -1 -1 0 256;
#X obj 149 81 expr $f1 + $f2*12;
#X obj 231 26 r \$0-octave;
#X obj 231 47 pipe 0.0001;
#X connect 1 0 32 0;
#X connect 3 0 4 0;
#X connect 4 0 5 0;
#X connect 5 0 6 0;
#X connect 5 1 3 0;
#X connect 6 0 8 0;
#X connect 6 1 30 0;
#X connect 7 0 3 1;
#X connect 9 0 28 0;
#X connect 10 0 11 0;
#X connect 12 0 11 1;
#X connect 13 0 0 0;
#X connect 13 1 10 1;
#X connect 13 2 10 0;
#X connect 14 0 0 1;
#X connect 15 0 13 0;
#X connect 16 0 15 0;
#X connect 17 0 18 0;
#X connect 17 0 22 0;
#X connect 18 0 22 0;
#X connect 18 1 21 0;
#X connect 19 0 20 0;
#X connect 19 0 11 0;
#X connect 20 0 19 1;
#X connect 21 0 19 1;
#X connect 22 0 19 0;
#X connect 25 1 17 0;
#X connect 25 2 10 0;
#X connect 25 3 16 0;
#X connect 26 0 25 0;
#X connect 27 0 0 2;
#X connect 27 0 11 2;
#X connect 28 0 27 0;
#X connect 29 0 4 1;
#X connect 32 0 26 0;
#X connect 33 0 34 0;
#X connect 34 0 32 1;
#X coords 0 -1 1 1 107 28 1 0 0;
