#N canvas 763 55 851 561 10;
#X obj 24 49 inlet~;
#X obj 24 114 dac~;
#X obj 145 50 inlet;
#X obj 212 50 loadbang;
#X obj 212 79 list append \$1;
#X obj 212 103 select 0;
#X msg 212 133 0.1;
#X obj 24 77 *~;
#X text 243 132 <- default gain;
#X obj 77 49 inlet~;
#X obj 77 77 *~;
#X connect 0 0 7 0;
#X connect 2 0 7 1;
#X connect 2 0 10 1;
#X connect 3 0 4 0;
#X connect 4 0 5 0;
#X connect 5 0 6 0;
#X connect 5 1 7 1;
#X connect 5 1 10 1;
#X connect 6 0 7 1;
#X connect 6 0 10 1;
#X connect 7 0 1 0;
#X connect 9 0 10 0;
#X connect 10 0 1 1;
