#N canvas 113 276 626 297 10;
#X text 59 135 left;
#X text 259 135 left;
#X obj 46 201 *~;
#X obj 246 201 *~;
#X obj 45 34 inlet~;
#X obj 46 229 outlet~;
#X obj 246 229 outlet~;
#X text 44 14 audio in;
#X text 156 14 pan (-1 to 1);
#X text 245 249 out R;
#X text 45 249 out L;
#X obj 387 49 loadbang;
#X obj 387 75 list \$1;
#X msg 387 120 0;
#X text 388 27 creation argument: pan (-1 to 1);
#X obj 387 98 sel 0;
#X obj 261 154 expr~ if($v1 < 0 \, 1-abs($v1) \, 1);
#X obj 61 154 expr~ if($v1 > 0 \, 1-$v1 \, 1);
#X obj 157 57 clip~ -1 1;
#X obj 157 34 inlet~;
#X connect 2 0 5 0;
#X connect 3 0 6 0;
#X connect 4 0 2 0;
#X connect 4 0 3 0;
#X connect 11 0 12 0;
#X connect 12 0 15 0;
#X connect 13 0 18 0;
#X connect 15 0 13 0;
#X connect 15 1 18 0;
#X connect 16 0 3 1;
#X connect 17 0 2 1;
#X connect 18 0 16 0;
#X connect 18 0 17 0;
#X connect 19 0 18 0;
