#N canvas 898 329 367 207 10;
#X obj 29 36 inlet~;
#X obj 29 148 outlet~;
#X obj 101 148 outlet~;
#X obj 29 128 *~;
#X obj 101 128 *~;
#X text 23 19 audio in;
#X text 102 19 pan -1 to 1;
#X text 31 165 out L;
#X text 106 165 out R;
#X obj 116 108 *~ -1;
#X obj 44 108 +~ 1;
#X obj 116 76 expr~ $v1 * -0.5 - 0.5;
#X obj 116 56 clip~ -1 1;
#X obj 116 36 inlet~;
#X connect 0 0 3 0;
#X connect 0 0 4 0;
#X connect 3 0 1 0;
#X connect 4 0 2 0;
#X connect 9 0 4 1;
#X connect 10 0 3 1;
#X connect 11 0 9 0;
#X connect 11 0 10 0;
#X connect 12 0 11 0;
#X connect 13 0 12 0;
