#N canvas 408 262 768 532 10;
#X obj 11 267 inlet;
#X obj 51 267 inlet;
#X obj 91 267 inlet;
#X obj 131 267 inlet;
#X obj 171 267 inlet;
#X obj 211 267 inlet;
#X obj 251 267 inlet;
#X obj 291 267 inlet;
#X obj 11 479 outlet;
#X obj 51 479 outlet;
#X obj 91 479 outlet;
#X obj 131 479 outlet;
#X obj 171 479 outlet;
#X obj 211 479 outlet;
#X obj 251 479 outlet;
#X obj 291 479 outlet;
#X obj 26 15 hradio 15 1 0 2 \$0-fan_out \$0-fan_out 8-1 -20 7 0 10
-262144 -1 -1 0;
#X text 58 14 1-8;
#X obj 110 112 f;
#X obj 110 133 pack;
#X obj 59 90 savestate;
#X obj 59 146 unpack;
#X obj 59 166 s \$0-fan_out;
#X obj 125 90 r \$0-fan_out;
#X obj 281 23 r \$0-fan_out;
#X obj 239 23 r part;
#X obj 250 49 bondo;
#X obj 354 242 expr if($f1==0 & $f2 \, 1 \, 0) \; if($f1==1 & $f2 \,
1 \, 0) \; if($f1==2 & $f2 \, 1 \, 0) \; if($f1==3 & $f2 \, 1 \, 0)
\; if($f1==4 & $f2 \, 1 \, 0) \; if($f1==5 & $f2 \, 1 \, 0) \; if($f1==6
& $f2 \, 1 \, 0) \; if($f1==7 & $f2 \, 1 \, 0);
#X obj 21 317 spigot;
#X obj 61 317 spigot;
#X obj 101 317 spigot;
#X obj 141 317 spigot;
#X obj 181 317 spigot;
#X obj 221 317 spigot;
#X obj 261 317 spigot;
#X obj 301 317 spigot;
#X obj 21 437 spigot;
#X obj 61 437 spigot;
#X obj 101 437 spigot;
#X obj 141 437 spigot;
#X obj 181 437 spigot;
#X obj 221 437 spigot;
#X obj 261 437 spigot;
#X obj 301 437 spigot;
#X obj 357 138 expr if($f1==0 & !$f2 \, 1 \, 0) \; if($f1==1 & !$f2
\, 1 \, 0) \; if($f1==2 & !$f2 \, 1 \, 0) \; if($f1==3 & !$f2 \, 1
\, 0) \; if($f1==4 & !$f2 \, 1 \, 0) \; if($f1==5 & !$f2 \, 1 \, 0)
\; if($f1==6 & !$f2 \, 1 \, 0) \; if($f1==7 & !$f2 \, 1 \, 0);
#X connect 0 0 28 0;
#X connect 0 0 36 0;
#X connect 0 0 43 0;
#X connect 0 0 42 0;
#X connect 0 0 41 0;
#X connect 0 0 40 0;
#X connect 0 0 39 0;
#X connect 0 0 38 0;
#X connect 0 0 37 0;
#X connect 1 0 29 0;
#X connect 2 0 30 0;
#X connect 3 0 31 0;
#X connect 4 0 32 0;
#X connect 5 0 33 0;
#X connect 6 0 34 0;
#X connect 7 0 35 0;
#X connect 18 0 19 0;
#X connect 19 0 20 0;
#X connect 20 0 21 0;
#X connect 20 1 18 0;
#X connect 21 0 22 0;
#X connect 23 0 18 1;
#X connect 24 0 26 1;
#X connect 25 0 26 0;
#X connect 26 0 27 0;
#X connect 26 0 44 0;
#X connect 26 1 27 1;
#X connect 26 1 44 1;
#X connect 27 0 36 1;
#X connect 27 1 37 1;
#X connect 27 2 38 1;
#X connect 27 3 39 1;
#X connect 27 4 40 1;
#X connect 27 5 41 1;
#X connect 27 6 42 1;
#X connect 27 7 43 1;
#X connect 28 0 8 0;
#X connect 29 0 8 0;
#X connect 30 0 8 0;
#X connect 31 0 8 0;
#X connect 32 0 8 0;
#X connect 33 0 8 0;
#X connect 34 0 8 0;
#X connect 35 0 8 0;
#X connect 36 0 8 0;
#X connect 37 0 9 0;
#X connect 38 0 10 0;
#X connect 39 0 11 0;
#X connect 40 0 12 0;
#X connect 41 0 13 0;
#X connect 42 0 14 0;
#X connect 43 0 15 0;
#X connect 44 0 28 1;
#X connect 44 1 29 1;
#X connect 44 2 30 1;
#X connect 44 3 31 1;
#X connect 44 4 32 1;
#X connect 44 5 33 1;
#X connect 44 6 34 1;
#X connect 44 7 35 1;
#X coords 0 -1 1 1 85 32 1 0 0;
