#N canvas 533 126 677 375 10;
#X obj 42 26 inlet;
#X obj 42 282 outlet;
#X obj 562 26 loadbang;
#X obj 562 47 list \$1;
#X obj 332 26 r part;
#X obj 470 26 inlet;
#X obj 470 47 s \$0-my_part;
#X obj 562 68 s \$0-my_part;
#X obj 383 26 r \$0-my_part;
#X obj 350 126 ==;
#X obj 351 87 f;
#X obj 383 47 t b f;
#X obj 42 229 spigot;
#X obj 92 26 inlet;
#X obj 92 282 outlet;
#X obj 92 229 spigot;
#X obj 142 26 inlet;
#X obj 142 282 outlet;
#X obj 142 229 spigot;
#X obj 192 26 inlet;
#X obj 192 282 outlet;
#X obj 192 229 spigot;
#X connect 0 0 12 0;
#X connect 2 0 3 0;
#X connect 3 0 7 0;
#X connect 4 0 10 0;
#X connect 5 0 6 0;
#X connect 8 0 11 0;
#X connect 9 0 12 1;
#X connect 9 0 15 1;
#X connect 9 0 18 1;
#X connect 9 0 21 1;
#X connect 10 0 9 0;
#X connect 11 0 10 0;
#X connect 11 1 9 1;
#X connect 12 0 1 0;
#X connect 13 0 15 0;
#X connect 15 0 14 0;
#X connect 16 0 18 0;
#X connect 18 0 17 0;
#X connect 19 0 21 0;
#X connect 21 0 20 0;
