#N canvas 178 55 1290 899 10;
#X obj 1 30 hradio 15 1 0 8 \$0-part_sched_try \$0-part_sched_try_in
empty 0 -8 0 10 -262144 -1 -1 0;
#X obj 0 70 hradio 15 1 0 8 empty part empty 0 -8 0 10 -262144 -1 -1
0;
#X obj 349 405 r \$0-part_sched;
#X obj 349 447 == 0;
#X obj 316 489 spigot;
#X msg 316 510 0;
#X obj 265 441 beat -1 -1;
#A saved 0 0;
#X obj 569 405 r \$0-part_sched;
#X obj 536 489 spigot;
#X obj 485 441 beat -1 -1;
#A saved 0 0;
#X obj 569 447 == 1;
#X msg 536 510 1;
#X obj 789 405 r \$0-part_sched;
#X obj 756 489 spigot;
#X obj 705 441 beat -1 -1;
#A saved 0 0;
#X obj 789 447 == 2;
#X msg 756 510 2;
#X obj 1009 405 r \$0-part_sched;
#X obj 976 489 spigot;
#X obj 925 441 beat -1 -1;
#A saved 0 0;
#X obj 1009 447 == 3;
#X msg 976 510 3;
#X obj 349 655 r \$0-part_sched;
#X obj 316 739 spigot;
#X obj 265 691 beat -1 -1;
#A saved 0 0;
#X obj 569 655 r \$0-part_sched;
#X obj 536 739 spigot;
#X obj 485 691 beat -1 -1;
#A saved 0 0;
#X obj 789 655 r \$0-part_sched;
#X obj 756 739 spigot;
#X obj 705 691 beat -1 -1;
#A saved 0 0;
#X obj 1009 655 r \$0-part_sched;
#X obj 976 739 spigot;
#X obj 925 691 beat -1 -1;
#A saved 0 0;
#X obj 349 697 == 4;
#X obj 569 697 == 5;
#X obj 789 697 == 6;
#X obj 1009 697 == 7;
#X msg 316 760 4;
#X msg 536 760 5;
#X msg 756 760 6;
#X msg 976 760 7;
#X obj 1 16 nbx 2 14 -1 7 0 0 \$0-first_part \$0-first_part empty 0
-8 0 10 -262144 -1 -1 0 256;
#X obj 561 126 f;
#X obj 561 146 pack;
#X obj 510 106 savestate;
#X obj 510 146 unpack;
#X obj 510 167 s \$0-first_part;
#X obj 576 106 r \$0-first_part;
#X obj 397 133 r \$0-first_part;
#X obj 342 133 loadbang;
#X obj 358 173 f;
#X obj 358 268 s part;
#X obj 358 194 t f f;
#X obj 337 37 r \$0-part;
#X obj 337 58 diff;
#X obj 337 79 s part;
#X obj 316 531 s \$0-part;
#X obj 536 531 s \$0-part;
#X obj 756 531 s \$0-part;
#X obj 976 531 s \$0-part;
#X obj 316 781 s \$0-part;
#X obj 536 781 s \$0-part;
#X obj 756 781 s \$0-part;
#X obj 976 781 s \$0-part;
#X text 411 38 fixme: maybe option to disconnect diff to resend part
evere sched period?;
#X obj 358 240 pipe 0.001;
#X obj 147 15 inlet;
#X obj 147 36 clip 0 7;
#X obj 1 46 cnv 14 14 14 empty \$0-status0 empty 20 12 0 14 -33289
-66577 0;
#X obj 16 46 cnv 14 14 14 empty \$0-status1 empty 20 12 0 14 -262144
-66577 0;
#X obj 31 46 cnv 14 14 14 empty \$0-status2 empty 20 12 0 14 -262144
-66577 0;
#X obj 46 46 cnv 14 14 14 empty \$0-status3 empty 20 12 0 14 -262144
-66577 0;
#X obj 61 46 cnv 14 14 14 empty \$0-status4 empty 20 12 0 14 -262144
-66577 0;
#X obj 76 46 cnv 14 14 14 empty \$0-status5 empty 20 12 0 14 -262144
-66577 0;
#X obj 91 46 cnv 14 14 14 empty \$0-status6 empty 20 12 0 14 -262144
-66577 0;
#X obj 106 46 cnv 14 14 14 empty \$0-status7 empty 20 12 0 14 -262144
-66577 0;
#N canvas 92 47 1492 955 blink 0;
#X obj 955 100 r \$0-part_sched;
#X obj 1058 75 r part;
#X obj 988 142 bondo 2;
#X obj 968 184 expr if($f1 != $f2 \, 1 \, 0);
#X msg 1047 231 0;
#X obj 982 267 f;
#X obj 1020 267 + 1;
#X obj 982 309 sel 0 1;
#X msg 977 351 13;
#X msg 1016 350 0;
#X obj 998 400 pack f f \$0;
#X msg 998 421 \; \$3-status\$2 color \$1;
#X obj 982 288 mod 2;
#X obj 968 226 metro 100;
#X msg 1155 154 0 0 \, 0 1 \, 0 2 \, 0 3 \, 0 4 \, 0 5 \, 0 6 \, 0
7;
#X obj 968 205 t f b;
#X obj 1058 101 t f b f;
#X msg 1150 234 12;
#X obj 1161 204 t b f;
#X obj 1134 277 pack f f \$0;
#X obj 178 91 r \$0-part_sched_try;
#X obj 268 123 r \$0-q0;
#X obj 328 124 r \$0-q1;
#X obj 380 128 r \$0-q2;
#X obj 447 128 r \$0-q3;
#X obj 502 125 r \$0-q4;
#X obj 551 134 r \$0-q5;
#X obj 611 134 r \$0-q6;
#X obj 669 134 r \$0-q7;
#X obj 189 224 moses 0;
#X obj 218 271 s \$0-part_sched;
#X obj 189 245 bng 15 250 50 0 empty empty empty 17 7 0 10 -262144
-1 -1;
#X obj 177 392 f;
#X obj 199 342 r part;
#X obj 353 385 s \$0-part_sched_in;
#X obj 198 473 spigot;
#X obj 177 413 t f b;
#X msg 233 446 1;
#X msg 268 444 0;
#X obj 267 413 delay 1;
#X obj 190 180 expr if(($f1==0 & $f2!=0) | ($f1==1 & $f3!=0) | ($f1==2
& $f4!=0) | ($f1==3 & $f5!=0) | ($f1==4 & $f6!=0) | ($f1==5 & $f7!=0)
| ($f1==6 & $f8!=0) | ($f1==7 & $f9!=0) \, $f1 \, -1);
#X obj 976 46 t f f b b;
#X msg 857 198 12;
#X obj 868 168 t b f;
#X obj 841 241 pack f f \$0;
#X obj 874 129 f;
#X obj 367 293 r part;
#X obj 351 344 f;
#X connect 0 0 41 0;
#X connect 1 0 16 0;
#X connect 1 0 45 1;
#X connect 2 0 3 0;
#X connect 2 1 3 1;
#X connect 3 0 15 0;
#X connect 4 0 5 1;
#X connect 5 0 6 0;
#X connect 5 0 12 0;
#X connect 6 0 5 1;
#X connect 7 0 8 0;
#X connect 7 1 9 0;
#X connect 8 0 10 0;
#X connect 9 0 10 0;
#X connect 10 0 11 0;
#X connect 12 0 7 0;
#X connect 13 0 5 0;
#X connect 14 0 10 0;
#X connect 15 0 13 0;
#X connect 15 1 4 0;
#X connect 16 0 18 0;
#X connect 16 1 14 0;
#X connect 16 2 2 1;
#X connect 17 0 19 0;
#X connect 18 0 17 0;
#X connect 18 1 19 1;
#X connect 19 0 11 0;
#X connect 20 0 40 0;
#X connect 21 0 40 1;
#X connect 22 0 40 2;
#X connect 23 0 40 3;
#X connect 24 0 40 4;
#X connect 25 0 40 5;
#X connect 26 0 40 6;
#X connect 27 0 40 7;
#X connect 28 0 40 8;
#X connect 29 0 31 0;
#X connect 29 1 30 0;
#X connect 31 0 32 0;
#X connect 31 0 47 0;
#X connect 32 0 36 0;
#X connect 33 0 32 1;
#X connect 36 0 35 0;
#X connect 36 1 37 0;
#X connect 36 1 39 0;
#X connect 37 0 35 1;
#X connect 38 0 35 1;
#X connect 39 0 38 0;
#X connect 40 0 29 0;
#X connect 41 0 2 0;
#X connect 41 1 10 1;
#X connect 41 2 45 0;
#X connect 41 3 14 0;
#X connect 42 0 44 0;
#X connect 43 0 42 0;
#X connect 43 1 44 1;
#X connect 44 0 11 0;
#X connect 45 0 43 0;
#X connect 46 0 47 1;
#X connect 47 0 34 0;
#X restore 162 131 pd blink;
#X obj 771 161 list \$1;
#X obj 821 161 list \$2;
#X obj 821 182 s \$0-q1;
#X obj 771 182 s \$0-q0;
#X obj 871 161 list \$3;
#X obj 921 161 list \$4;
#X obj 872 182 s \$0-q2;
#X obj 921 182 s \$0-q3;
#X obj 771 211 list \$5;
#X obj 821 211 list \$6;
#X obj 871 211 list \$7;
#X obj 921 211 list \$8;
#X obj 771 232 s \$0-q4;
#X obj 821 232 s \$0-q5;
#X obj 872 232 s \$0-q6;
#X obj 921 232 s \$0-q7;
#X obj 265 421 r \$0-q0;
#X obj 485 421 r \$0-q1;
#X obj 705 421 r \$0-q2;
#X obj 925 421 r \$0-q3;
#X obj 265 671 r \$0-q4;
#X obj 485 671 r \$0-q5;
#X obj 705 671 r \$0-q6;
#X obj 925 671 r \$0-q7;
#X obj 33 137 r \$0-part_sched_in;
#X msg 33 158 set \$1;
#X obj 833 48 loadbang;
#X obj 165 68 s \$0-part_sched_try;
#X obj 164 93 s \$0-part_sched_try_in;
#X obj 306 216 print;
#X obj 385 215 s \$0-part_sched_try;
#X text 416 78 fixme: doesn't work with first other than 0;
#X connect 2 0 3 0;
#X connect 3 0 4 1;
#X connect 4 0 5 0;
#X connect 5 0 57 0;
#X connect 6 1 4 0;
#X connect 7 0 10 0;
#X connect 8 0 11 0;
#X connect 9 1 8 0;
#X connect 10 0 8 1;
#X connect 11 0 58 0;
#X connect 12 0 15 0;
#X connect 13 0 16 0;
#X connect 14 1 13 0;
#X connect 15 0 13 1;
#X connect 16 0 59 0;
#X connect 17 0 20 0;
#X connect 18 0 21 0;
#X connect 19 1 18 0;
#X connect 20 0 18 1;
#X connect 21 0 60 0;
#X connect 22 0 34 0;
#X connect 23 0 38 0;
#X connect 24 1 23 0;
#X connect 25 0 35 0;
#X connect 26 0 39 0;
#X connect 27 1 26 0;
#X connect 28 0 36 0;
#X connect 29 0 40 0;
#X connect 30 1 29 0;
#X connect 31 0 37 0;
#X connect 32 0 41 0;
#X connect 33 1 32 0;
#X connect 34 0 23 1;
#X connect 35 0 26 1;
#X connect 36 0 29 1;
#X connect 37 0 32 1;
#X connect 38 0 61 0;
#X connect 39 0 62 0;
#X connect 40 0 63 0;
#X connect 41 0 64 0;
#X connect 43 0 44 0;
#X connect 44 0 45 0;
#X connect 45 0 46 0;
#X connect 45 1 43 0;
#X connect 46 0 47 0;
#X connect 48 0 43 1;
#X connect 49 0 51 1;
#X connect 50 0 51 0;
#X connect 51 0 53 0;
#X connect 53 0 66 0;
#X connect 53 0 107 0;
#X connect 53 1 108 0;
#X connect 54 0 55 0;
#X connect 55 0 56 0;
#X connect 66 0 52 0;
#X connect 67 0 68 0;
#X connect 68 0 105 0;
#X connect 68 0 106 0;
#X connect 78 0 81 0;
#X connect 79 0 80 0;
#X connect 82 0 84 0;
#X connect 83 0 85 0;
#X connect 86 0 90 0;
#X connect 87 0 91 0;
#X connect 88 0 92 0;
#X connect 89 0 93 0;
#X connect 94 0 6 0;
#X connect 95 0 9 0;
#X connect 96 0 14 0;
#X connect 97 0 19 0;
#X connect 98 0 24 0;
#X connect 99 0 27 0;
#X connect 100 0 30 0;
#X connect 101 0 33 0;
#X connect 102 0 103 0;
#X connect 103 0 0 0;
#X connect 104 0 78 0;
#X connect 104 0 89 0;
#X connect 104 0 88 0;
#X connect 104 0 87 0;
#X connect 104 0 86 0;
#X connect 104 0 83 0;
#X connect 104 0 82 0;
#X connect 104 0 79 0;
#X coords 0 -1 1 1 121 61 1 0 0;
