#N canvas 609 367 450 300 10;
#X obj 83 145 part_router;
#A saved 0 0;
#X obj 278 50 hradio 15 1 0 8 part empty part 0 -8 0 10 -262144 -1
-1 0;
#X msg 42 87 0;
#X msg 72 87 1;
#X msg 102 87 2;
#X msg 132 87 3;
#X msg 162 87 4;
#X msg 192 87 5;
#X msg 222 87 6;
#X msg 252 87 7;
#X obj 122 27 tgl 15 0 empty empty empty 20 7 0 10 -262144 -1 -1 1
1;
#X obj 122 47 metro 500;
#X obj 91 225 print 1;
#X obj 41 225 print 0;
#X obj 141 225 print 2;
#X obj 191 225 print 3;
#X obj 241 225 print 4;
#X obj 291 225 print 5;
#X obj 341 225 print 6;
#X obj 391 225 print 7;
#X connect 0 0 13 0;
#X connect 0 1 12 0;
#X connect 0 2 14 0;
#X connect 0 3 15 0;
#X connect 0 4 16 0;
#X connect 0 5 17 0;
#X connect 0 6 18 0;
#X connect 0 7 19 0;
#X connect 2 0 0 0;
#X connect 3 0 0 1;
#X connect 4 0 0 2;
#X connect 5 0 0 3;
#X connect 6 0 0 4;
#X connect 7 0 0 5;
#X connect 8 0 0 6;
#X connect 9 0 0 7;
#X connect 10 0 11 0;
#X connect 11 0 2 0;
#X connect 11 0 9 0;
#X connect 11 0 8 0;
#X connect 11 0 7 0;
#X connect 11 0 6 0;
#X connect 11 0 5 0;
#X connect 11 0 4 0;
#X connect 11 0 3 0;
