#N canvas 399 238 1131 785 10;
#X obj 33 101 inlet;
#X obj 33 227 outlet;
#X obj 33 161 spigot;
#N canvas 0 50 1070 687 part_on 0;
#X obj 58 66 r part;
#X obj 103 66 r \$0-part0;
#X obj 173 66 r \$0-part1;
#X obj 245 66 r \$0-part2;
#X obj 313 66 r \$0-part3;
#X obj 385 66 r \$0-part4;
#X obj 453 66 r \$0-part5;
#X obj 525 66 r \$0-part6;
#X obj 593 66 r \$0-part7;
#X obj 95 204 send \$0-part_on;
#X obj 53 29 ii 0;
#X obj 95 142 expr if(($f1==0 & $f2) | ($f1==1 & $f3) | ($f1==2 & $f4)
| ($f1==3 & $f5) | ($f1==4 & $f6) | ($f1==5 & $f7) | ($f1==6 & $f8)
| ($f1==7 & $f9) \, 1 \, 0);
#X obj 96 105 bondo 9 ---------------------------------------------------
;
#X connect 0 0 12 0;
#X connect 1 0 12 1;
#X connect 2 0 12 2;
#X connect 3 0 12 3;
#X connect 4 0 12 4;
#X connect 5 0 12 5;
#X connect 6 0 12 6;
#X connect 7 0 12 7;
#X connect 8 0 12 8;
#X connect 11 0 9 0;
#X connect 12 0 11 0;
#X connect 12 1 11 1;
#X connect 12 2 11 2;
#X connect 12 3 11 3;
#X connect 12 4 11 4;
#X connect 12 5 11 5;
#X connect 12 6 11 6;
#X connect 12 7 11 7;
#X connect 12 8 11 8;
#X restore 20 346 pd part_on;
#X obj 66 139 r \$0-part_on;
#X obj 153 101 inlet;
#X obj 153 227 outlet;
#X obj 153 161 spigot;
#X obj 186 139 r \$0-part_on;
#X obj 273 101 inlet;
#X obj 273 227 outlet;
#X obj 273 161 spigot;
#X obj 306 139 r \$0-part_on;
#X obj 393 101 inlet;
#X obj 393 227 outlet;
#X obj 393 161 spigot;
#X obj 426 139 r \$0-part_on;
#X obj 0 15 tgl 10 0 \$0-part0 \$0-part0 empty 17 7 0 10 -262144 -1
-1 0 1;
#X obj 10 15 tgl 10 0 \$0-part1 \$0-part1 empty 17 7 0 10 -262144 -1
-1 0 1;
#X obj 20 15 tgl 10 0 \$0-part2 \$0-part2 empty 17 7 0 10 -262144 -1
-1 0 1;
#X obj 30 15 tgl 10 0 \$0-part3 \$0-part3 empty 17 7 0 10 -262144 -1
-1 0 1;
#X obj 40 15 tgl 10 0 \$0-part4 \$0-part4 empty 17 7 0 10 -262144 -1
-1 0 1;
#X obj 50 15 tgl 10 0 \$0-part5 \$0-part5 empty 17 7 0 10 -262144 -1
-1 0 1;
#X obj 60 15 tgl 10 0 \$0-part6 \$0-part6 empty 17 7 0 10 -262144 -1
-1 0 1;
#X obj 70 15 tgl 10 0 \$0-part7 \$0-part7 empty 17 7 0 10 -262144 -1
-1 0 1;
#X obj 991 41 r \$0-part1;
#X obj 991 25 r \$0-part0;
#X obj 991 57 r \$0-part2;
#X obj 991 73 r \$0-part3;
#X obj 991 89 r \$0-part4;
#X obj 991 105 r \$0-part5;
#X obj 991 121 r \$0-part6;
#X obj 991 137 r \$0-part7;
#X obj 850 161 f;
#X obj 799 136 savestate;
#X obj 850 185 pack f f f f f f f f;
#X obj 799 211 unpack f f f f f f f f;
#X obj 759 249 s \$0-part0;
#X obj 759 265 s \$0-part1;
#X obj 759 281 s \$0-part2;
#X obj 759 297 s \$0-part3;
#X obj 759 313 s \$0-part4;
#X obj 759 329 s \$0-part5;
#X obj 759 345 s \$0-part6;
#X obj 759 361 s \$0-part7;
#X connect 0 0 2 0;
#X connect 2 0 1 0;
#X connect 4 0 2 1;
#X connect 5 0 7 0;
#X connect 7 0 6 0;
#X connect 8 0 7 1;
#X connect 9 0 11 0;
#X connect 11 0 10 0;
#X connect 12 0 11 1;
#X connect 13 0 15 0;
#X connect 15 0 14 0;
#X connect 16 0 15 1;
#X connect 25 0 35 1;
#X connect 26 0 33 1;
#X connect 27 0 35 2;
#X connect 28 0 35 3;
#X connect 29 0 35 4;
#X connect 30 0 35 5;
#X connect 31 0 35 6;
#X connect 32 0 35 7;
#X connect 33 0 35 0;
#X connect 34 0 36 0;
#X connect 34 1 33 0;
#X connect 35 0 34 0;
#X connect 36 0 37 0;
#X connect 36 1 38 0;
#X connect 36 2 39 0;
#X connect 36 3 40 0;
#X connect 36 4 41 0;
#X connect 36 5 42 0;
#X connect 36 6 43 0;
#X connect 36 7 44 0;
#X coords 0 -1 1 1 80 27 1 0 0;
