#N canvas 653 224 571 427 10;
#X obj 32 148 part_gate;
#A saved 1 1 0 0 0 0 0 0;
#X obj 400 44 hradio 15 1 0 8 part empty part 0 -8 0 10 -262144 -1
-1 2;
#X obj 132 16 tgl 15 1 empty empty empty 17 7 0 10 -262144 -1 -1 1
1;
#X floatatom 32 180 5 0 0 0 - - -;
#X obj 132 36 metro 100;
#X obj 132 57 random 10;
#X floatatom 132 108 5 0 0 0 - - -;
#X floatatom 168 170 5 0 0 0 - - -;
#X obj 168 149 part_gate2 1;
#X connect 0 0 3 0;
#X connect 2 0 4 0;
#X connect 4 0 5 0;
#X connect 5 0 6 0;
#X connect 6 0 0 0;
#X connect 6 0 8 0;
#X connect 8 0 7 0;
