#N canvas 600 121 451 336 10;
#X obj 180 76 ticker;
#A saved 120 1;
#X obj 180 44 ii 1;
#X floatatom 18 40 5 0 0 0 - - -;
#X obj 18 182 r part;
#X obj 18 204 print part;
#X floatatom 224 191 5 0 0 0 - - -;
#X obj 224 170 beat 4;
#A saved 0 1;
#X floatatom 274 191 5 0 0 0 - - -;
#X floatatom 324 191 5 0 0 0 - - -;
#X obj 274 170 beat;
#A saved 0 1;
#X obj 324 170 beat 1 0 -1;
#A saved 0 0;
#X obj 18 86 parts 1 2 4 8;
#A saved 0 0;
#X connect 1 0 0 0;
#X connect 2 0 11 0;
#X connect 3 0 4 0;
#X connect 6 0 5 0;
#X connect 9 0 7 0;
#X connect 10 0 8 0;
