#N canvas 487 392 1085 658 10;
#X obj 1 16 nbx 2 14 -1 7 0 0 \$0-first_part \$0-first_part empty 0
-8 0 10 -262144 -1 -1 0 256;
#X obj 147 15 inlet;
#X obj 147 36 clip 0 7;
#X obj 1 46 cnv 14 14 14 empty \$0-status0 empty 20 12 0 14 -33289
-66577 0;
#X obj 16 46 cnv 14 14 14 empty \$0-status1 empty 20 12 0 14 -262144
-66577 0;
#X obj 31 46 cnv 14 14 14 empty \$0-status2 empty 20 12 0 14 -262144
-66577 0;
#X obj 46 46 cnv 14 14 14 empty \$0-status3 empty 20 12 0 14 -262144
-66577 0;
#X obj 61 46 cnv 14 14 14 empty \$0-status4 empty 20 12 0 14 -262144
-66577 0;
#X obj 76 46 cnv 14 14 14 empty \$0-status5 empty 20 12 0 14 -262144
-66577 0;
#X obj 91 46 cnv 14 14 14 empty \$0-status6 empty 20 12 0 14 -262144
-66577 0;
#X obj 106 46 cnv 14 14 14 empty \$0-status7 empty 20 12 0 14 -262144
-66577 0;
#X obj 147 76 s \$0-part_sched_try;
#X obj 1 30 bng 15 250 50 0 \$0-btn0 \$0-btn0 empty 17 7 0 10 -262144
-1 -1;
#X obj 16 30 bng 15 250 50 0 \$0-btn1 \$0-btn1 empty 17 7 0 10 -262144
-1 -1;
#X obj 31 30 bng 15 250 50 0 \$0-btn2 \$0-btn2 empty 17 7 0 10 -262144
-1 -1;
#X obj 46 30 bng 15 250 50 0 \$0-btn3 \$0-btn3 empty 17 7 0 10 -262144
-1 -1;
#X obj 61 30 bng 15 250 50 0 \$0-btn4 \$0-btn4 empty 17 7 0 10 -262144
-1 -1;
#X obj 76 30 bng 15 250 50 0 \$0-btn5 \$0-btn5 empty 17 7 0 10 -262144
-1 -1;
#X obj 91 30 bng 15 250 50 0 \$0-btn6 \$0-btn6 empty 17 7 0 10 -262144
-1 -1;
#X obj 106 30 bng 15 250 50 0 \$0-btn7 \$0-btn7 empty 17 7 0 10 -262144
-1 -1;
#N canvas 221 330 555 280 handle_butttons 0;
#X obj 448 31 r \$0-btn7;
#X obj 28 31 r \$0-btn0;
#X obj 88 31 r \$0-btn1;
#X obj 148 31 r \$0-btn2;
#X obj 208 31 r \$0-btn3;
#X obj 268 31 r \$0-btn4;
#X obj 328 31 r \$0-btn5;
#X obj 388 31 r \$0-btn6;
#X msg 28 52 1;
#X msg 88 52 2;
#X msg 148 52 3;
#X msg 208 52 4;
#X msg 268 52 5;
#X msg 328 52 6;
#X msg 448 52 8;
#X msg 388 52 7;
#X obj 64 144 s \$0-part_sched_try;
#X connect 0 0 14 0;
#X connect 1 0 8 0;
#X connect 2 0 9 0;
#X connect 3 0 10 0;
#X connect 4 0 11 0;
#X connect 5 0 12 0;
#X connect 6 0 13 0;
#X connect 7 0 15 0;
#X connect 8 0 16 0;
#X connect 9 0 16 0;
#X connect 10 0 16 0;
#X connect 11 0 16 0;
#X connect 12 0 16 0;
#X connect 13 0 16 0;
#X connect 14 0 16 0;
#X connect 15 0 16 0;
#X restore 22 117 pd handle_butttons;
#X obj 147 56 + 1;
#X obj 694 63 f;
#X obj 694 84 pack;
#X obj 643 43 savestate;
#X obj 643 84 unpack;
#X obj 643 104 s \$0-first_part;
#X obj 709 43 r \$0-first_part;
#X obj 286 35 r \$0-first_part;
#X obj 286 76 + 1;
#X obj 286 97 s \$0-first;
#X obj 286 55 pipe 0.0001;
#X obj 404 35 r \$0-part;
#X obj 404 76 - 1;
#X obj 404 97 s part;
#N canvas 0 50 518 452 handle_first 0;
#X obj 101 135 expr if(($f1 == 1 & $f2 != 0) | ($f1 == 2 & $f3 != 0)
| ($f1 == 3 & $f4 != 0) | ($f1 == 4 & $f5 != 0) | ($f1 == 5 & $f6 !=
0) | ($f1 == 6 & $f7 != 0) | ($f1 == 7 & $f8 != 0) | ($f1 == 8 & $f9
!= 0) \, $f1 \, 0);
#X obj 101 91 r \$0-first;
#X obj 172 77 list \$1;
#X obj 222 77 list \$2;
#X obj 272 77 list \$3;
#X obj 322 77 list \$4;
#X obj 172 97 list \$5;
#X obj 222 97 list \$6;
#X obj 272 97 list \$7;
#X obj 322 97 list \$8;
#X obj 270 31 loadbang;
#X obj 101 242 spigot 1;
#X obj 146 198 delay 0.0002;
#X msg 146 219 0;
#X obj 101 263 s \$0-part;
#X obj 56 304 - 1;
#X obj 56 345 s part;
#X obj 56 325 moses 0;
#X connect 0 0 11 0;
#X connect 1 0 0 0;
#X connect 2 0 0 1;
#X connect 3 0 0 2;
#X connect 4 0 0 3;
#X connect 5 0 0 4;
#X connect 6 0 0 5;
#X connect 7 0 0 6;
#X connect 8 0 0 7;
#X connect 9 0 0 8;
#X connect 10 0 2 0;
#X connect 10 0 9 0;
#X connect 10 0 8 0;
#X connect 10 0 7 0;
#X connect 10 0 6 0;
#X connect 10 0 5 0;
#X connect 10 0 4 0;
#X connect 10 0 3 0;
#X connect 10 0 12 0;
#X connect 11 0 14 0;
#X connect 11 0 15 0;
#X connect 12 0 13 0;
#X connect 13 0 11 1;
#X connect 15 0 17 0;
#X connect 17 0 16 0;
#X restore 22 137 pd handle_first;
#N canvas 0 50 1516 561 handle_sched 0;
#X obj 154 111 r \$0-part_sched;
#X obj 121 195 spigot;
#X obj 40 147 beat -1 -1;
#A saved 0 1;
#X obj 374 111 r \$0-part_sched;
#X obj 341 195 spigot;
#X obj 260 147 beat -1 -1;
#A saved 0 1;
#X obj 594 111 r \$0-part_sched;
#X obj 561 195 spigot;
#X obj 480 147 beat -1 -1;
#A saved 0 1;
#X obj 814 111 r \$0-part_sched;
#X obj 781 195 spigot;
#X obj 700 147 beat -1 -1;
#A saved 0 1;
#X obj 154 281 r \$0-part_sched;
#X obj 121 365 spigot;
#X obj 40 317 beat -1 -1;
#A saved 0 1;
#X obj 374 281 r \$0-part_sched;
#X obj 341 365 spigot;
#X obj 260 317 beat -1 -1;
#A saved 0 1;
#X obj 594 281 r \$0-part_sched;
#X obj 561 365 spigot;
#X obj 480 317 beat -1 -1;
#A saved 0 1;
#X obj 814 281 r \$0-part_sched;
#X obj 781 365 spigot;
#X obj 700 317 beat -1 -1;
#A saved 0 1;
#X obj 121 237 s \$0-part;
#X obj 341 237 s \$0-part;
#X obj 561 237 s \$0-part;
#X obj 781 237 s \$0-part;
#X obj 121 407 s \$0-part;
#X obj 341 407 s \$0-part;
#X obj 561 407 s \$0-part;
#X obj 781 407 s \$0-part;
#X obj 154 153 == 1;
#X obj 374 153 == 2;
#X obj 594 153 == 3;
#X obj 814 153 == 4;
#X obj 154 323 == 5;
#X obj 374 323 == 6;
#X obj 594 323 == 7;
#X obj 814 323 == 8;
#X msg 781 386 8;
#X msg 561 386 7;
#X msg 341 386 6;
#X msg 121 386 5;
#X msg 781 216 4;
#X msg 561 216 3;
#X msg 341 216 2;
#X msg 121 216 1;
#X obj 518 54 r \$0-reset;
#X obj 1021 183 list \$1;
#X obj 1071 183 list \$2;
#X obj 1148 100 loadbang;
#X obj 1121 183 list \$3;
#X obj 1171 183 list \$4;
#X obj 1221 183 list \$5;
#X obj 1271 183 list \$6;
#X obj 1321 183 list \$7;
#X obj 1371 183 list \$8;
#X obj 1006 233 f;
#X obj 1056 233 f;
#X obj 1106 233 f;
#X obj 1156 233 f;
#X obj 1206 233 f;
#X obj 1256 233 f;
#X obj 1306 233 f;
#X obj 1356 233 f;
#X obj 1006 79 r \$0-part;
#X obj 1124 309 s \$0-div;
#X obj 1006 100 sel 1 2 3 4 5 6 7 8;
#X obj 353 54 r \$0-div;
#X msg 1404 233 1;
#X connect 0 0 32 0;
#X connect 1 0 47 0;
#X connect 2 1 1 0;
#X connect 3 0 33 0;
#X connect 4 0 46 0;
#X connect 5 1 4 0;
#X connect 6 0 34 0;
#X connect 7 0 45 0;
#X connect 8 1 7 0;
#X connect 9 0 35 0;
#X connect 10 0 44 0;
#X connect 11 1 10 0;
#X connect 12 0 36 0;
#X connect 13 0 43 0;
#X connect 14 1 13 0;
#X connect 15 0 37 0;
#X connect 16 0 42 0;
#X connect 17 1 16 0;
#X connect 18 0 38 0;
#X connect 19 0 41 0;
#X connect 20 1 19 0;
#X connect 21 0 39 0;
#X connect 22 0 40 0;
#X connect 23 1 22 0;
#X connect 32 0 1 1;
#X connect 33 0 4 1;
#X connect 34 0 7 1;
#X connect 35 0 10 1;
#X connect 36 0 13 1;
#X connect 37 0 16 1;
#X connect 38 0 19 1;
#X connect 39 0 22 1;
#X connect 40 0 31 0;
#X connect 41 0 30 0;
#X connect 42 0 29 0;
#X connect 43 0 28 0;
#X connect 44 0 27 0;
#X connect 45 0 26 0;
#X connect 46 0 25 0;
#X connect 47 0 24 0;
#X connect 48 0 2 2;
#X connect 48 0 5 2;
#X connect 48 0 8 2;
#X connect 48 0 11 2;
#X connect 48 0 14 2;
#X connect 48 0 17 2;
#X connect 48 0 20 2;
#X connect 48 0 23 2;
#X connect 49 0 58 1;
#X connect 50 0 59 1;
#X connect 51 0 49 0;
#X connect 51 0 50 0;
#X connect 51 0 52 0;
#X connect 51 0 53 0;
#X connect 51 0 54 0;
#X connect 51 0 55 0;
#X connect 51 0 56 0;
#X connect 51 0 57 0;
#X connect 52 0 60 1;
#X connect 53 0 61 1;
#X connect 54 0 62 1;
#X connect 55 0 63 1;
#X connect 56 0 64 1;
#X connect 57 0 65 1;
#X connect 58 0 67 0;
#X connect 59 0 67 0;
#X connect 60 0 67 0;
#X connect 61 0 67 0;
#X connect 62 0 67 0;
#X connect 63 0 67 0;
#X connect 64 0 67 0;
#X connect 65 0 67 0;
#X connect 66 0 68 0;
#X connect 68 0 58 0;
#X connect 68 1 59 0;
#X connect 68 2 60 0;
#X connect 68 3 61 0;
#X connect 68 4 62 0;
#X connect 68 5 63 0;
#X connect 68 6 64 0;
#X connect 68 7 65 0;
#X connect 68 8 70 0;
#X connect 69 0 2 0;
#X connect 69 0 5 0;
#X connect 69 0 8 0;
#X connect 69 0 11 0;
#X connect 69 0 14 0;
#X connect 69 0 17 0;
#X connect 69 0 20 0;
#X connect 69 0 23 0;
#X connect 70 0 67 0;
#X restore 22 157 pd handle_sched;
#N canvas 778 234 584 356 handle_sched_try 0;
#X obj 61 135 expr if(($f1 == 1 & $f2 != 0) | ($f1 == 2 & $f3 != 0)
| ($f1 == 3 & $f4 != 0) | ($f1 == 4 & $f5 != 0) | ($f1 == 5 & $f6 !=
0) | ($f1 == 6 & $f7 != 0) | ($f1 == 7 & $f8 != 0) | ($f1 == 8 & $f9
!= 0) \, $f1 \, 0);
#X obj 132 77 list \$1;
#X obj 182 77 list \$2;
#X obj 232 77 list \$3;
#X obj 282 77 list \$4;
#X obj 132 97 list \$5;
#X obj 182 97 list \$6;
#X obj 232 97 list \$7;
#X obj 282 97 list \$8;
#X obj 230 31 loadbang;
#X obj 61 31 r \$0-part_sched_try;
#X obj 61 189 moses 0.5;
#X obj 112 289 s \$0-part_sched;
#X obj 145 249 !=;
#X obj 160 229 r \$0-part;
#X obj 112 269 spigot;
#X obj 112 209 t f f;
#X connect 0 0 11 0;
#X connect 1 0 0 1;
#X connect 2 0 0 2;
#X connect 3 0 0 3;
#X connect 4 0 0 4;
#X connect 5 0 0 5;
#X connect 6 0 0 6;
#X connect 7 0 0 7;
#X connect 8 0 0 8;
#X connect 9 0 1 0;
#X connect 9 0 8 0;
#X connect 9 0 7 0;
#X connect 9 0 6 0;
#X connect 9 0 5 0;
#X connect 9 0 4 0;
#X connect 9 0 3 0;
#X connect 9 0 2 0;
#X connect 10 0 0 0;
#X connect 11 1 16 0;
#X connect 13 0 15 1;
#X connect 14 0 13 1;
#X connect 15 0 12 0;
#X connect 16 0 15 0;
#X connect 16 1 13 0;
#X restore 22 177 pd handle_sched_try;
#X obj 404 55 diff;
#X msg 456 76 0;
#X obj 456 97 s \$0-reset;
#N canvas 257 202 908 484 handle_colors 0;
#X obj 72 39 r \$0-part_sched;
#X obj 580 209 pack f f \$0;
#X msg 580 229 \; \$3-status\$2 color \$1;
#X obj 579 93 s \$0-color;
#X obj 580 189 r \$0-color;
#X msg 579 73 0 0 \, 0 1 \, 0 2 \, 0 3 \, 0 4 \, 0 5 \, 0 6 \, 0 7
;
#X obj 579 53 r \$0-clear_colors;
#X obj 431 94 s \$0-clear_colors;
#X obj 387 52 r \$0-show_current_part;
#X obj 387 253 s \$0-color;
#X obj 142 91 s \$0-show_current_part;
#X obj 387 163 f;
#X obj 402 123 r \$0-part;
#X obj 387 73 t b b;
#X obj 402 143 - 1;
#X msg 387 233 12 \$1;
#X obj 73 201 metro 100;
#X msg 73 161 1;
#X msg 103 161 0;
#X obj 103 141 r \$0-show_current_part;
#X obj 73 252 f;
#X obj 103 252 + 1;
#X msg 104 232 0;
#X obj 73 273 mod 2;
#X obj 580 133 r part;
#X obj 580 153 s \$0-show_current_part;
#X obj 73 60 t b f b b;
#X obj 73 300 sel 0 1;
#X msg 73 331 13;
#X msg 112 331 0;
#X obj 118 371 pack f f \$0;
#X msg 118 391 \; \$3-status\$2 color \$1;
#X obj 149 331 - 1;
#X obj 387 199 moses 0;
#X connect 0 0 26 0;
#X connect 1 0 2 0;
#X connect 4 0 1 0;
#X connect 5 0 3 0;
#X connect 6 0 5 0;
#X connect 8 0 13 0;
#X connect 11 0 33 0;
#X connect 12 0 14 0;
#X connect 13 0 11 0;
#X connect 13 1 7 0;
#X connect 14 0 11 1;
#X connect 15 0 9 0;
#X connect 16 0 20 0;
#X connect 17 0 16 0;
#X connect 18 0 16 0;
#X connect 19 0 18 0;
#X connect 20 0 21 0;
#X connect 20 0 23 0;
#X connect 21 0 20 1;
#X connect 22 0 20 1;
#X connect 23 0 27 0;
#X connect 24 0 25 0;
#X connect 26 0 17 0;
#X connect 26 1 32 0;
#X connect 26 2 22 0;
#X connect 26 3 10 0;
#X connect 27 0 28 0;
#X connect 27 1 29 0;
#X connect 28 0 30 0;
#X connect 29 0 30 0;
#X connect 30 0 31 0;
#X connect 32 0 30 1;
#X connect 33 1 15 0;
#X restore 22 196 pd handle_colors;
#N canvas 657 480 529 397 handle_progress_bar 0;
#X obj 113 20 r \$0-div;
#X obj 31 156 mod;
#X obj 110 108 beat 0.125;
#A saved 0 1;
#X obj 83 82 * 8;
#X obj 31 176 /;
#X obj 113 41 t f b;
#X msg 172 74 0;
#X obj 31 266 s \$0-progress;
#X obj 51 216 line;
#X msg 51 196 \$1 50;
#X connect 0 0 5 0;
#X connect 1 0 4 0;
#X connect 2 0 1 0;
#X connect 3 0 1 1;
#X connect 3 0 4 1;
#X connect 4 0 9 0;
#X connect 5 0 3 0;
#X connect 5 1 6 0;
#X connect 8 0 7 0;
#X connect 9 0 8 0;
#X restore 22 216 pd handle_progress_bar;
#X obj 3 61 hsl 116 10 0 1 0 0 \$0-junk \$0-progress empty -2 -8 0
10 -262144 -1 -1 6828 1;
#X obj 231 165 outlet;
#X obj 231 145 r \$0-progress;
#X obj 211 185 s part_progress;
#X obj 600 165 spigot 1;
#X msg 598 115 0;
#X obj 600 144 ii 0;
#X obj 509 36 r reset;
#X obj 509 57 s \$0-reset;
#X connect 1 0 2 0;
#X connect 2 0 21 0;
#X connect 21 0 11 0;
#X connect 22 0 23 0;
#X connect 23 0 24 0;
#X connect 24 0 25 0;
#X connect 24 1 22 0;
#X connect 25 0 26 0;
#X connect 25 0 48 0;
#X connect 27 0 22 1;
#X connect 28 0 31 0;
#X connect 29 0 30 0;
#X connect 31 0 29 0;
#X connect 32 0 38 0;
#X connect 33 0 34 0;
#X connect 38 0 33 0;
#X connect 38 0 39 0;
#X connect 39 0 40 0;
#X connect 45 0 44 0;
#X connect 45 0 46 0;
#X connect 47 0 26 0;
#X connect 48 0 47 1;
#X connect 49 0 47 0;
#X connect 50 0 51 0;
#X coords 0 -1 1 1 121 71 1 0 0;
