#N canvas 637 206 656 706 10;
#X obj 20 260 noise~;
#X obj 20 322 *~;
#X obj 69 302 vline~;
#X obj 27 497 bob~;
#X obj 100 114 nbx 3 14 0 1 0 0 \$0-decay \$0-decay decay 0 -8 0 10
-262144 -1 -1 0.5 256;
#X obj 107 400 expr $f1 * 0.2 + 3.79;
#X obj 64 216 mtof;
#X obj 136 114 nbx 1 14 0 7 0 0 \$0-oct \$0-oct oct 0 -8 0 10 -262144
-1 -1 5 256;
#X obj 64 195 expr $f1 + $f2*12;
#X msg 69 281 1 \, 0 2;
#X obj 52 132 inlet;
#X obj 18 564 outlet~;
#X obj 436 195 f;
#X obj 436 215 pack;
#X obj 385 175 savestate;
#X obj 385 240 unpack;
#X obj 476 165 r \$0-decay;
#X obj 358 272 s \$0-decay;
#X obj 476 181 r \$0-oct;
#X obj 358 288 s \$0-oct;
#X msg 24 207 clear;
#X obj 63 165 t f b;
#X obj 240 353 spigot 1;
#X msg 343 238 0;
#X obj 240 332 ii 5;
#X obj 297 353 spigot 1;
#X obj 297 332 ii 0.5;
#X obj 130 351 r \$0-decay;
#X obj 180 158 r \$0-oct;
#X obj 18 292 hip~ 40;
#X connect 0 0 29 0;
#X connect 1 0 3 0;
#X connect 2 0 1 1;
#X connect 3 0 11 0;
#X connect 5 0 3 2;
#X connect 6 0 9 0;
#X connect 6 0 3 1;
#X connect 8 0 6 0;
#X connect 9 0 2 0;
#X connect 10 0 21 0;
#X connect 12 0 13 0;
#X connect 13 0 14 0;
#X connect 14 0 15 0;
#X connect 14 0 23 0;
#X connect 14 1 12 0;
#X connect 15 0 17 0;
#X connect 15 1 19 0;
#X connect 16 0 12 1;
#X connect 18 0 13 1;
#X connect 21 0 8 0;
#X connect 21 1 20 0;
#X connect 22 0 19 0;
#X connect 23 0 22 1;
#X connect 23 0 25 1;
#X connect 24 0 22 0;
#X connect 25 0 17 0;
#X connect 26 0 25 0;
#X connect 27 0 5 0;
#X connect 28 0 8 1;
#X connect 29 0 1 0;
#X coords 0 -1 1 1 55 28 2 100 100;
