#N canvas 859 29 376 471 10;
#X obj 43 47 inlet;
#X obj 43 299 outlet;
#X obj 132 147 randf;
#X obj 43 214 >=;
#X obj 43 88 t f f f b;
#X obj 93 299 outlet;
#X obj 93 214 >=;
#X obj 143 299 outlet;
#X obj 143 214 >=;
#X obj 43 67 clip 0 1;
#X obj 43 235 sel 1;
#X obj 93 235 sel 1;
#X obj 143 235 sel 1;
#X connect 0 0 9 0;
#X connect 2 0 3 1;
#X connect 2 1 6 1;
#X connect 2 2 8 1;
#X connect 3 0 10 0;
#X connect 4 0 3 0;
#X connect 4 1 6 0;
#X connect 4 2 8 0;
#X connect 4 3 2 0;
#X connect 6 0 11 0;
#X connect 8 0 12 0;
#X connect 9 0 4 0;
#X connect 10 0 1 0;
#X connect 11 0 5 0;
#X connect 12 0 7 0;
#X coords 0 471 1 470 50 40 0;
