#N canvas 859 29 810 789 10;
#X obj 63 56 bng 15 50 10 0 empty empty empty 17 7 0 10 -262144 -1
-1;
#X obj 20 25 inlet;
#X obj 20 233 outlet;
#X obj 151 25 inlet;
#X text 256 16 right inlet or creation argument:;
#X text 256 34 probability (0-99%) of bang passing through;
#X text 256 52 NB: 99 equals 100 % probability;
#X obj 99 53 seed;
#X obj 279 106 loadbang;
#X obj 279 128 list \$1;
#X obj 279 150 sel 0;
#X msg 279 172 1;
#X obj 151 47 s \$0-prob;
#X obj 78 107 r \$0-prob;
#X obj 279 194 s \$0-prob;
#X obj 20 198 spigot;
#X obj 185 252 bng 15 50 10 0 empty empty empty 17 7 0 10 -262144 -1
-1;
#X obj 205 252 bng 15 50 10 0 empty empty empty 17 7 0 10 -262144 -1
-1;
#X obj 67 233 outlet;
#X msg 67 198 bang;
#X obj 63 82 randf 1;
#X obj 63 133 <=;
#X connect 0 0 16 0;
#X connect 0 0 20 0;
#X connect 1 0 0 0;
#X connect 1 0 15 0;
#X connect 3 0 12 0;
#X connect 7 0 20 0;
#X connect 8 0 9 0;
#X connect 9 0 10 0;
#X connect 10 0 11 0;
#X connect 10 1 14 0;
#X connect 11 0 14 0;
#X connect 13 0 21 1;
#X connect 15 0 2 0;
#X connect 15 0 19 0;
#X connect 19 0 18 0;
#X connect 19 0 17 0;
#X connect 20 0 21 0;
#X connect 21 0 15 1;
#X coords 0 -1 1 1 50 40 1 180 230;
