#N canvas 543 131 577 353 10;
#X obj 48 25 tgl 15 0 empty empty empty 17 7 0 10 -262144 -1 -1 1 1
;
#X obj 48 45 metro 500;
#X obj 48 97 quantize;
#X msg 207 52 set 0 2 3 7 8;
#X obj 207 32 loadbang;
#X floatatom 48 118 5 0 0 0 - - -;
#X obj 48 138 mtof;
#X obj 48 159 tri~;
#X obj 48 251 dac~;
#X obj 48 201 gate~;
#X obj 98 201 gate~;
#X obj 48 76 rand 30 80;
#X obj 98 284 dac~;
#X obj 127 97 sel 0;
#X obj 193 141 hsl 128 15 0 1 0 0 empty empty empty -2 -8 0 10 -262144
-1 -1 6517 1;
#X obj 98 253 pvoclooprandom~;
#X floatatom 190 161 5 0 0 0 - - -;
#X obj 190 121 randline;
#X obj 211 77 randline;
#X obj 211 98 hsl 128 15 0 1 0 0 empty empty empty -2 -8 0 10 -262144
-1 -1 4496 1;
#X obj 369 102 branch;
#X obj 369 123 bng 15 250 50 0 empty empty empty 17 7 0 10 -262144
-1 -1;
#X obj 369 81 randf 0.6;
#X obj 368 38 randline;
#X obj 371 59 hsl 128 15 0 1 0 0 empty empty empty -2 -8 0 10 -262144
-1 -1 720 1;
#X obj 369 164 quantize;
#X obj 444 109 loadbang;
#X floatatom 369 185 5 0 0 0 - - -;
#X msg 444 129 set 0 3 7;
#X obj 48 180 lpg~ 300;
#X obj 127 76 counter 2;
#X obj 369 143 rand 14;
#X connect 0 0 1 0;
#X connect 1 0 11 0;
#X connect 1 0 22 0;
#X connect 1 0 30 0;
#X connect 2 0 5 0;
#X connect 3 0 2 0;
#X connect 4 0 3 0;
#X connect 5 0 6 0;
#X connect 5 0 29 1;
#X connect 6 0 7 0;
#X connect 7 0 29 0;
#X connect 9 0 8 0;
#X connect 9 0 8 1;
#X connect 10 0 15 0;
#X connect 11 0 2 0;
#X connect 13 0 15 1;
#X connect 14 0 16 0;
#X connect 15 0 12 0;
#X connect 15 0 12 1;
#X connect 16 0 15 2;
#X connect 17 0 14 0;
#X connect 18 0 19 0;
#X connect 19 0 17 0;
#X connect 20 0 21 0;
#X connect 21 0 31 0;
#X connect 22 0 20 0;
#X connect 23 0 24 0;
#X connect 24 0 22 1;
#X connect 25 0 27 0;
#X connect 26 0 28 0;
#X connect 27 0 15 3;
#X connect 28 0 25 0;
#X connect 29 0 9 0;
#X connect 29 0 10 0;
#X connect 30 0 13 0;
#X connect 31 0 25 0;
