#N canvas 826 48 459 301 10;
#X obj 196 170 quantize_time;
#A saved 0.5 0.66;
#X obj 58 69 ticker;
#A saved 80 0;
#X obj 58 37 tgl 15 0 empty empty empty 17 7 0 10 -262144 -1 -1 1 1
;
#X obj 58 206 bng 15 50 10 0 empty empty empty 17 7 0 10 -262144 -1
-1;
#X obj 58 171 beat 1;
#A saved 0 0;
#X obj 196 125 bng 15 250 50 0 empty empty empty 17 7 0 10 -262144
-1 -1;
#X obj 196 235 print;
#X obj 207 189;
#X obj 229 125 hsl 128 15 0 1 0 0 empty empty empty -2 -8 0 10 -262144
-1 -1 0 1;
#X connect 0 0 6 0;
#X connect 2 0 1 0;
#X connect 4 0 3 0;
#X connect 5 0 0 0;
#X connect 8 0 0 0;
