#N canvas 137 29 1108 752 10;
#X obj 52 46 inlet;
#X text 53 26 note in;
#X text 423 439 note out;
#N canvas 769 443 450 250 (subpatch) 0;
#X array \$0-notes 128 float 2;
#X coords 0 128 128 0 200 140 1 0 0;
#X restore 373 35 graph;
#X msg 752 38 0 2 4 5 7 9 11;
#X msg 753 66 0 3 5 7 10;
#N canvas 629 54 834 702 read_notes 0;
#X obj 32 206 spigot;
#X msg 147 116 1;
#X obj 147 138 s \$0-open;
#X obj 71 183 r \$0-open;
#X msg 96 116 reset;
#X obj 32 150 counter;
#X obj 64 29 inlet;
#X obj 64 73 t b b;
#X obj 32 370 select -1;
#X obj 92 416 outlet;
#X obj 32 416 outlet;
#X msg 32 393 bang;
#X obj 32 116 burst 128;
#X obj 32 240 tabread \$0-notes;
#X obj 32 274 t f f;
#X obj 64 311 != -1;
#X obj 64 333 s \$0-open;
#X connect 0 0 13 0;
#X connect 1 0 2 0;
#X connect 3 0 0 1;
#X connect 4 0 5 1;
#X connect 5 0 0 0;
#X connect 6 0 7 0;
#X connect 7 0 12 0;
#X connect 7 1 1 0;
#X connect 7 1 4 0;
#X connect 8 0 11 0;
#X connect 8 1 9 0;
#X connect 11 0 10 0;
#X connect 12 0 5 0;
#X connect 13 0 14 0;
#X connect 14 0 8 0;
#X connect 14 1 15 0;
#X connect 15 0 16 0;
#X restore 52 242 pd read_notes;
#X msg 264 221 1000;
#X msg 378 221 -1;
#X obj 378 305 f;
#X obj 264 302 f;
#X obj 52 179 t b f b;
#X text 377 202 best;
#X obj 113 411 abs;
#X obj 113 383 -;
#X obj 75 221 s \$0-innote;
#X obj 98 201 s \$0-init;
#X obj 285 177 r \$0-init;
#X obj 140 264 s \$0-done;
#X text 263 202 error;
#X obj 422 277 r \$0-done;
#X obj 422 360 select -1;
#X obj 131 353 r \$0-innote;
#X obj 52 264 s \$0-guess;
#X obj 113 308 r \$0-guess;
#X obj 113 457 expr if($f1<$f2 \, $f1 \, $f2) \; if($f1<$f2 \, $f3
\, $f4);
#X obj 113 330 t f f;
#X msg 753 94 5 7;
#X obj 422 338 f;
#X obj 422 420 outlet;
#X obj 651 317 cnv 10 109 55 empty empty empty 20 12 0 14 -228856 -66577
0;
#X obj 652 318 cnv 10 10 40 empty \$0-keyon0 empty 20 12 0 14 -262144
-66577 0;
#X obj 668 318 cnv 10 10 40 empty \$0-keyon2 empty 20 12 0 14 -262144
-66577 0;
#X obj 684 318 cnv 10 10 40 empty \$0-keyon4 empty 20 12 0 14 -262144
-66577 0;
#X obj 700 318 cnv 10 10 40 empty \$0-keyon5 empty 20 12 0 14 -262144
-66577 0;
#X obj 716 318 cnv 10 10 40 empty \$0-keyon7 empty 20 12 0 14 -262144
-66577 0;
#X obj 732 318 cnv 10 10 40 empty \$0-keyon9 empty 20 12 0 14 -262144
-66577 0;
#X obj 748 318 cnv 10 10 40 empty \$0-keyon11 empty 20 12 0 14 -262144
-66577 0;
#X obj 660 318 cnv 10 10 30 empty \$0-keyon1 empty 20 12 0 14 -66577
-66577 0;
#X obj 676 318 cnv 10 10 30 empty \$0-keyon3 empty 20 12 0 14 -66577
-66577 0;
#X obj 708 318 cnv 10 10 30 empty \$0-keyon6 empty 20 12 0 14 -66577
-66577 0;
#X obj 724 318 cnv 10 10 30 empty \$0-keyon8 empty 20 12 0 14 -66577
-66577 0;
#X obj 740 318 cnv 10 10 30 empty \$0-keyon10 empty 20 12 0 14 -66577
-66577 0;
#X obj 652 359 cnv 10 10 10 empty \$0-key0 empty 20 12 0 14 -262144
-66577 0;
#X obj 668 359 cnv 10 10 10 empty \$0-key2 empty 20 12 0 14 -262144
-66577 0;
#X obj 684 359 cnv 10 10 10 empty \$0-key4 empty 20 12 0 14 -262144
-66577 0;
#X obj 700 359 cnv 10 10 10 empty \$0-key5 empty 20 12 0 14 -262144
-66577 0;
#X obj 716 359 cnv 10 10 10 empty \$0-key7 empty 20 12 0 14 -262144
-66577 0;
#X obj 732 359 cnv 10 10 10 empty \$0-key9 empty 20 12 0 14 -262144
-66577 0;
#X obj 748 359 cnv 10 10 10 empty \$0-key11 empty 20 12 0 14 -262144
-66577 0;
#X obj 740 338 cnv 10 10 10 empty \$0-key10 empty 20 12 0 14 -66577
-66577 0;
#X obj 724 338 cnv 10 10 10 empty \$0-key8 empty 20 12 0 14 -66577
-66577 0;
#X obj 708 338 cnv 10 10 10 empty \$0-key6 empty 20 12 0 14 -66577
-66577 0;
#X obj 676 338 cnv 10 10 10 empty \$0-key3 empty 20 12 0 14 -66577
-66577 0;
#X obj 660 338 cnv 10 10 10 empty \$0-key1 empty 20 12 0 14 -66577
-66577 0;
#N canvas 287 275 1224 388 handle_keyboard 0;
#X floatatom 133 100 5 0 0 0 - - -;
#X obj 133 119 pack 0 0 \$0;
#X msg 133 141 \; \$3-key\$2 color \$1;
#X floatatom 195 100 5 0 11 0 - - -;
#X text 132 82 color;
#X text 196 82 key;
#X text 147 36 13 = red;
#X text 147 47 0 = white;
#X text 147 58 2 = black;
#X msg 133 193 0 0 \, 2 1 \, 0 2 \, 2 3 \, 0 4 \, 0 5 \, 2 6 \, 0 7
\, 2 8 \, 0 9 \, 2 10 \, 0 11;
#X obj 82 286 mod 12;
#X msg 82 318 13 \$1;
#X obj 22 227 r \$0-keyboard;
#X obj 22 258 select -1;
#X obj 602 126 round;
#X obj 602 148 mod 12;
#X obj 602 35 r \$0-outnote;
#X obj 602 96 t f b;
#X obj 655 148 pack 0 0 \$0;
#X msg 734 249 \; \$3-keyon\$2 color \$1;
#X msg 655 125 0 0 \, 2 1 \, 0 2 \, 2 3 \, 0 4 \, 0 5 \, 2 6 \, 0 7
\, 2 8 \, 0 9 \, 2 10 \, 0 11;
#X text 295 83 display current scale;
#X text 724 78 display current outnote;
#X obj 603 170 t b f;
#X obj 603 214 pack 10 \$1 \$0;
#X msg 603 192 11;
#X obj 602 57 route -1;
#X connect 0 0 1 0;
#X connect 1 0 2 0;
#X connect 3 0 1 1;
#X connect 9 0 1 0;
#X connect 10 0 11 0;
#X connect 11 0 1 0;
#X connect 12 0 13 0;
#X connect 13 0 9 0;
#X connect 13 1 10 0;
#X connect 14 0 15 0;
#X connect 15 0 23 0;
#X connect 16 0 26 0;
#X connect 17 0 14 0;
#X connect 17 1 20 0;
#X connect 18 0 19 0;
#X connect 20 0 18 0;
#X connect 23 0 25 0;
#X connect 23 1 24 1;
#X connect 24 0 19 0;
#X connect 25 0 24 0;
#X connect 26 0 20 0;
#X connect 26 1 17 0;
#X restore 669 243 pd handle_keyboard;
#X msg 753 120 -1;
#X text 864 122 <- clear;
#X text 864 39 <- c major;
#X text 864 66 <- c minor pentatonic;
#X text 864 95 <- f and g;
#X obj 523 396 s \$0-outnote;
#X obj 118 47 inlet;
#X text 117 21 set scale;
#X obj 118 68 s \$0-set_scale;
#X obj 639 168 s \$0-set_scale;
#N canvas 115 310 417 448 set_scale 0;
#X obj 24 86 list-drip;
#X obj 64 240 counter;
#X msg 160 90 reset;
#X obj 24 64 t l b;
#X obj 89 272 expr $f1 + $f2;
#X obj 64 328 pack;
#X obj 24 197 t b f;
#X obj 24 111 t b f;
#X obj 84 117 t b b;
#X msg 115 300 -1;
#X obj 64 356 list-rev;
#X msg 24 140 0 \, 12 \, 24 \, 36 \, 48 \, 60 \, 72 \, 84 \, 96 \,
108 \, 120;
#X msg 230 192 -1;
#X obj 230 256 s \$0-keyboard;
#X obj 64 388 tabwrite \$0-notes;
#X obj 250 223 s \$0-outnote;
#X obj 188 192 round;
#X obj 24 23 r \$0-set_scale;
#X connect 0 0 7 0;
#X connect 0 1 8 0;
#X connect 1 0 5 0;
#X connect 2 0 1 1;
#X connect 2 0 12 0;
#X connect 3 0 0 0;
#X connect 3 1 2 0;
#X connect 4 0 5 1;
#X connect 5 0 10 0;
#X connect 6 0 1 0;
#X connect 6 1 4 0;
#X connect 7 0 11 0;
#X connect 7 1 4 1;
#X connect 7 1 16 0;
#X connect 8 0 1 0;
#X connect 8 1 9 0;
#X connect 9 0 5 1;
#X connect 10 0 14 0;
#X connect 11 0 6 0;
#X connect 12 0 13 0;
#X connect 12 0 15 0;
#X connect 16 0 13 0;
#X connect 17 0 3 0;
#X restore 670 221 pd set_scale;
#X connect 0 0 11 0;
#X connect 4 0 65 0;
#X connect 5 0 65 0;
#X connect 6 0 18 0;
#X connect 6 1 23 0;
#X connect 7 0 10 0;
#X connect 8 0 9 0;
#X connect 9 0 25 3;
#X connect 9 0 28 1;
#X connect 10 0 25 1;
#X connect 11 0 6 0;
#X connect 11 1 15 0;
#X connect 11 2 16 0;
#X connect 13 0 25 0;
#X connect 14 0 13 0;
#X connect 17 0 7 0;
#X connect 17 0 8 0;
#X connect 20 0 9 0;
#X connect 20 0 28 0;
#X connect 21 1 29 0;
#X connect 21 1 61 0;
#X connect 22 0 14 1;
#X connect 24 0 26 0;
#X connect 25 0 10 0;
#X connect 25 1 9 0;
#X connect 26 0 14 0;
#X connect 26 1 25 2;
#X connect 27 0 65 0;
#X connect 28 0 21 0;
#X connect 56 0 65 0;
#X connect 62 0 64 0;
#X coords 0 -1 1 1 110 74 1 650 300;
