#N canvas 618 76 779 628 10;
#X obj 30 30 inlet;
#X obj 32 470 outlet;
#X obj 134 116 nbx 4 14 0 1e+37 0 0 \$0-div \$0-div div -21 7 0 10
-262144 -1 -1 1 256;
#X obj 134 130 nbx 4 14 0.5 0.75 0 0 \$0-swing \$0-swing swing -33
7 0 10 -262144 -1 -1 0.5 256;
#N canvas 732 127 567 521 savestate 0;
#X obj 270 153 f;
#X obj 270 175 pack;
#X obj 219 132 savestate;
#X obj 219 190 unpack;
#X obj 285 132 r \$0-div;
#X obj 219 228 s \$0-div;
#X obj 349 133 r \$0-swing;
#X obj 280 228 s \$0-swing;
#X obj 138 274 spigot 1;
#X msg 183 216 0;
#X obj 138 253 ii 1;
#X connect 0 0 1 0;
#X connect 1 0 2 0;
#X connect 2 0 3 0;
#X connect 2 1 0 0;
#X connect 3 0 5 0;
#X connect 3 0 9 0;
#X connect 3 1 7 0;
#X connect 4 0 0 1;
#X connect 6 0 1 1;
#X connect 8 0 5 0;
#X connect 9 0 8 1;
#X connect 10 0 8 0;
#X restore 105 171 pd savestate;
#X obj 30 51 s \$0-in;
#X obj 32 450 r \$0-out;
#X obj 220 155 r \$0-in;
#X obj 220 274 f;
#X obj 251 274 + 1;
#X obj 314 101 beat 1;
#A saved 0.66 0;
#X obj 314 48 r \$0-div;
#X obj 314 68 pipe 0.0001;
#X obj 149 145 bng 15 150 10 0 empty \$0-q empty 17 7 0 10 -262144
-1 -1;
#X msg 235 211 0;
#X obj 220 340 spigot;
#X msg 317 211 1;
#X obj 314 159 t b b b b;
#X msg 274 211 0;
#X obj 220 361 moses 0.5;
#X obj 271 393 bng 15 250 50 0 empty empty empty 17 7 0 10 -262144
-1 -1;
#X obj 271 413 s \$0-out;
#X obj 394 47 r \$0-swing;
#X obj 394 68 pipe 0.0001;
#X obj 383 159 s \$0-q;
#X msg 220 176 bang;
#X obj 138 274 s \$0-bangin;
#X obj 134 145 bng 15 150 10 0 empty \$0-bangin empty 17 7 0 10 -262144
-1 -1;
#X obj 164 145 bng 15 150 10 0 empty \$0-out empty 17 7 0 10 -262144
-1 -1;
#X connect 0 0 5 0;
#X connect 6 0 1 0;
#X connect 7 0 25 0;
#X connect 8 0 9 0;
#X connect 8 0 15 0;
#X connect 9 0 8 1;
#X connect 10 0 17 0;
#X connect 10 0 24 0;
#X connect 11 0 12 0;
#X connect 12 0 10 0;
#X connect 14 0 8 1;
#X connect 15 0 19 0;
#X connect 16 0 15 1;
#X connect 17 0 14 0;
#X connect 17 1 18 0;
#X connect 17 2 8 0;
#X connect 17 3 16 0;
#X connect 18 0 15 1;
#X connect 19 1 20 0;
#X connect 20 0 21 0;
#X connect 22 0 23 0;
#X connect 23 0 10 3;
#X connect 25 0 8 0;
#X connect 25 0 26 0;
#X coords 0 -1 1 1 79 60 1 100 100;
