#N canvas 685 29 433 456 10;
#X obj 39 29 loadbang;
#X obj 39 93 tgl 15 0 empty empty empty 17 7 0 10 -262144 -1 -1 1 1
;
#X obj 39 135 bng 15 250 50 0 empty empty empty 17 7 0 10 -262144 -1
-1;
#X obj 39 113 metro 1000;
#X floatatom 39 200 5 0 0 0 - - -;
#X floatatom 39 383 5 0 0 0 - - -;
#X msg 180 145 set 0 2 4 5 7 9 11;
#X msg 180 165 set 0 2 3 5 7 8 10;
#X msg 180 185 set 0 7;
#X text 245 186 c + g;
#X text 322 166 c minor;
#X text 324 145 c major;
#X obj 39 71 t b b;
#X obj 39 228 quantize_gui;
#X obj 39 155 rand 26;
#X obj 39 177 + 36;
#X connect 0 0 12 0;
#X connect 1 0 3 0;
#X connect 2 0 14 0;
#X connect 3 0 2 0;
#X connect 4 0 13 0;
#X connect 6 0 13 0;
#X connect 7 0 13 0;
#X connect 8 0 13 0;
#X connect 12 0 1 0;
#X connect 12 1 6 0;
#X connect 13 0 5 0;
#X connect 14 0 15 0;
#X connect 15 0 4 0;
