#N canvas 59 275 795 530 10;
#X obj 52 46 inlet;
#X text 53 26 note in;
#X text 418 419 note out;
#X obj 52 109 route set;
#N canvas 766 419 450 250 (subpatch) 0;
#X array \$0-notes 128 float 2;
#X coords 0 128 128 0 200 140 1 0 0;
#X restore 373 35 graph;
#N canvas 1240 338 336 444 set 0;
#X obj 24 24 inlet;
#X obj 24 86 list-drip;
#X obj 64 240 counter;
#X msg 160 90 reset;
#X obj 24 64 t l b;
#X obj 89 272 expr $f1 + $f2;
#X obj 64 328 pack;
#X obj 24 197 t b f;
#X obj 24 111 t b f;
#X obj 84 117 t b b;
#X msg 115 300 -1;
#X obj 64 356 list-rev;
#X msg 24 140 0 \, 12 \, 24 \, 36 \, 48 \, 60 \, 72 \, 84 \, 96 \,
108 \, 120;
#X obj 64 388 tabwrite \$0-notes;
#X connect 0 0 4 0;
#X connect 1 0 8 0;
#X connect 1 1 9 0;
#X connect 2 0 6 0;
#X connect 3 0 2 1;
#X connect 4 0 1 0;
#X connect 4 1 3 0;
#X connect 5 0 6 1;
#X connect 6 0 11 0;
#X connect 7 0 2 0;
#X connect 7 1 5 0;
#X connect 8 0 12 0;
#X connect 8 1 5 1;
#X connect 9 0 2 0;
#X connect 9 1 10 0;
#X connect 10 0 6 1;
#X connect 11 0 13 0;
#X connect 12 0 7 0;
#X restore 52 150 pd set;
#X msg 651 27 0 2 4 5 7 9 11;
#X msg 652 66 0 3 5 7 10;
#N canvas 226 87 622 703 read_notes 1;
#X obj 32 206 spigot;
#X msg 147 116 1;
#X obj 147 138 s \$0-open;
#X obj 71 183 r \$0-open;
#X msg 96 116 reset;
#X obj 32 150 counter;
#X obj 64 29 inlet;
#X obj 64 73 t b b;
#X obj 32 373 select -1;
#X obj 92 419 outlet;
#X obj 32 419 outlet;
#X msg 32 396 bang;
#X obj 32 116 burst 128;
#X obj 32 240 tabread \$0-notes;
#X obj 32 274 t f f;
#X obj 64 311 != -1;
#X obj 64 333 s \$0-open;
#X connect 0 0 13 0;
#X connect 1 0 2 0;
#X connect 3 0 0 1;
#X connect 4 0 5 1;
#X connect 5 0 0 0;
#X connect 6 0 7 0;
#X connect 7 0 12 0;
#X connect 7 1 1 0;
#X connect 7 1 4 0;
#X connect 8 0 11 0;
#X connect 8 1 9 0;
#X connect 11 0 10 0;
#X connect 12 0 5 0;
#X connect 13 0 14 0;
#X connect 14 0 8 0;
#X connect 14 1 15 0;
#X connect 15 0 16 0;
#X restore 52 242 pd read_notes;
#X msg 264 221 1000;
#X msg 378 221 -1;
#X obj 378 305 f;
#X obj 264 302 f;
#X obj 52 179 t b f b;
#X text 377 202 best;
#X obj 113 411 abs;
#X obj 113 383 -;
#X obj 75 221 s \$0-innote;
#X obj 98 201 s \$0-init;
#X obj 285 177 r \$0-init;
#X obj 140 264 s \$0-done;
#X text 263 202 error;
#X obj 422 277 r \$0-done;
#X obj 417 360 select -1;
#X obj 131 353 r \$0-innote;
#X obj 52 264 s \$0-guess;
#X obj 113 308 r \$0-guess;
#X obj 113 457 expr if($f1<$f2 \, $f1 \, $f2) \; if($f1<$f2 \, $f3
\, $f4);
#X obj 113 330 t f f;
#X msg 652 94 5 7;
#X obj 417 338 f;
#N canvas 554 285 347 298 clear_notes 0;
#X obj 27 171 burst 128;
#X obj 27 122 bng 15 250 50 0 empty empty empty 17 7 0 10 -262144 -1
-1;
#X obj 27 202 counter;
#X msg 100 171 reset;
#X obj 27 226 list prepend 0;
#X obj 27 144 t b b;
#X obj 27 250 tabwrite \$0-notes;
#X connect 0 0 2 0;
#X connect 1 0 5 0;
#X connect 2 0 4 0;
#X connect 3 0 2 1;
#X connect 4 0 6 0;
#X connect 5 0 0 0;
#X connect 5 1 3 0;
#X coords 0 -1 1 1 85 40 1 20 100;
#X restore 652 126 pd clear_notes;
#X obj 417 400 outlet;
#X connect 0 0 3 0;
#X connect 3 0 5 0;
#X connect 3 1 13 0;
#X connect 6 0 5 0;
#X connect 7 0 5 0;
#X connect 8 0 20 0;
#X connect 8 1 25 0;
#X connect 9 0 12 0;
#X connect 10 0 11 0;
#X connect 11 0 27 3;
#X connect 11 0 30 1;
#X connect 12 0 27 1;
#X connect 13 0 8 0;
#X connect 13 1 17 0;
#X connect 13 2 18 0;
#X connect 15 0 27 0;
#X connect 16 0 15 0;
#X connect 19 0 9 0;
#X connect 19 0 10 0;
#X connect 22 0 11 0;
#X connect 22 0 30 0;
#X connect 23 1 32 0;
#X connect 24 0 16 1;
#X connect 26 0 28 0;
#X connect 27 0 12 0;
#X connect 27 1 11 0;
#X connect 28 0 16 0;
#X connect 28 1 27 2;
#X connect 29 0 5 0;
#X connect 30 0 23 0;
