#N canvas 76 533 733 338 10;
#X obj 93 29 inlet;
#X obj 170 29 inlet;
#X obj 98 162 random;
#X obj 386 45 loadbang;
#X obj 98 190 /;
#X text 424 66 <- resolution;
#X msg 447 115 seed \$1;
#X obj 230 29 inlet;
#X obj 230 51 s \$0-lo;
#X obj 170 51 s \$0-hi;
#X obj 559 31 loadbang;
#X obj 559 130 s \$0-hi;
#X obj 619 85 s \$0-lo;
#X msg 386 66 1e+06;
#X obj 98 264 outlet;
#X obj 98 242 scale 0 1;
#X obj 559 85 sel 0;
#X msg 559 107 1;
#X obj 386 95 r \$0-lo;
#X obj 386 115 r \$0-hi;
#X obj 248 162 random;
#X obj 248 190 /;
#X obj 248 264 outlet;
#X obj 248 242 scale 0 1;
#X obj 318 162 random;
#X obj 318 190 /;
#X obj 318 264 outlet;
#X obj 318 242 scale 0 1;
#X obj 559 63 list \$1;
#X obj 619 63 list \$2;
#X obj 32 223 s seed;
#X obj 447 95 r seed;
#X obj 178 162 random;
#X obj 178 190 /;
#X obj 178 264 outlet;
#X obj 178 242 scale 0 1;
#X obj 93 50 t b b b b;
#X connect 0 0 36 0;
#X connect 1 0 9 0;
#X connect 2 0 4 0;
#X connect 2 0 30 0;
#X connect 3 0 13 0;
#X connect 4 0 15 0;
#X connect 6 0 24 0;
#X connect 7 0 8 0;
#X connect 10 0 28 0;
#X connect 10 0 29 0;
#X connect 13 0 4 1;
#X connect 13 0 2 1;
#X connect 13 0 21 1;
#X connect 13 0 25 1;
#X connect 13 0 24 1;
#X connect 13 0 20 1;
#X connect 13 0 32 1;
#X connect 13 0 33 1;
#X connect 15 0 14 0;
#X connect 16 0 17 0;
#X connect 16 1 11 0;
#X connect 17 0 11 0;
#X connect 18 0 15 3;
#X connect 18 0 27 3;
#X connect 18 0 23 3;
#X connect 18 0 35 3;
#X connect 19 0 15 4;
#X connect 19 0 27 4;
#X connect 19 0 23 4;
#X connect 19 0 35 4;
#X connect 20 0 21 0;
#X connect 21 0 23 0;
#X connect 23 0 22 0;
#X connect 24 0 25 0;
#X connect 25 0 27 0;
#X connect 27 0 26 0;
#X connect 28 0 16 0;
#X connect 29 0 12 0;
#X connect 31 0 6 0;
#X connect 32 0 33 0;
#X connect 33 0 35 0;
#X connect 35 0 34 0;
#X connect 36 0 2 0;
#X connect 36 1 32 0;
#X connect 36 2 20 0;
#X connect 36 3 24 0;
