#N canvas 568 119 796 713 10;
#X obj 138 430 pack;
#X obj 86 297 / 1000;
#X obj 90 493 ==;
#X obj 138 456 line;
#X obj 234 320 exp;
#X obj 234 297 / 100;
#X obj 221 21 inlet;
#X obj 204 594 outlet;
#X obj 90 516 moses 0.1;
#X obj 54 557 delay 1000;
#X obj 234 343 int;
#X obj 264 474 +;
#X obj 264 376 t f f;
#X obj 216 203 t b b b;
#X obj 159 368 + 1000;
#X text 25 115 start new line;
#X obj 21 137 inlet;
#X obj 21 158 s \$0-time_scale;
#X obj 269 22 loadbang;
#X obj 344 253 r \$0-time_scale;
#X obj 159 407 *;
#X obj 254 544 *;
#X obj 86 276 rand 1000;
#X obj 234 274 rand 950;
#X obj 282 432 rand 950;
#X obj 3 16 hsl 94 8 0 1 0 0 empty \$0-line empty -2 -8 0 10 -262144
-1 -1 2679 1;
#X obj 138 477 s \$0-line;
#X obj 99 16 bng 10 250 10 0 empty empty empty 17 7 0 10 -262144 -1
-1;
#X obj 54 578 s \$0-done;
#X obj 279 596 outlet;
#X obj 284 546 r \$0-done;
#X obj 198 536 f;
#X obj 145 183 s \$0-done;
#X obj 594 99 f;
#X obj 594 123 pack;
#X obj 543 74 savestate;
#X obj 543 140 unpack;
#X obj 344 274 max 0.01;
#X obj 543 172 s \$0-time_scale;
#X obj 609 71 r \$0-time_scale;
#X obj 56 2 nbx 5 14 0.01 999 0 0 \$0-time_scale \$0-time_scale empty
0 -8 0 10 -262144 -1 -1 0.3 256;
#X obj 467 174 ii 1;
#X obj 467 199 spigot 1;
#X msg 512 174 0;
#X obj 467 223 s \$0-time_scale;
#X obj 286 571 bangeater 2;
#X obj 217 137 bangeater 2;
#X connect 0 0 3 0;
#X connect 1 0 0 0;
#X connect 1 0 2 1;
#X connect 2 0 8 0;
#X connect 3 0 2 0;
#X connect 3 0 26 0;
#X connect 3 0 31 0;
#X connect 4 0 10 0;
#X connect 5 0 4 0;
#X connect 6 0 27 0;
#X connect 8 1 9 0;
#X connect 9 0 28 0;
#X connect 9 0 27 0;
#X connect 10 0 12 0;
#X connect 10 0 14 0;
#X connect 11 0 21 0;
#X connect 12 0 11 0;
#X connect 12 1 24 1;
#X connect 13 0 22 0;
#X connect 13 1 23 0;
#X connect 13 2 24 0;
#X connect 14 0 20 0;
#X connect 16 0 17 0;
#X connect 18 0 27 0;
#X connect 19 0 37 0;
#X connect 20 0 0 1;
#X connect 21 0 9 1;
#X connect 22 0 1 0;
#X connect 23 0 5 0;
#X connect 24 0 11 1;
#X connect 27 0 32 0;
#X connect 27 0 46 0;
#X connect 30 0 45 0;
#X connect 31 0 7 0;
#X connect 33 0 34 0;
#X connect 34 0 35 0;
#X connect 35 0 36 0;
#X connect 35 1 33 0;
#X connect 36 0 38 0;
#X connect 36 0 43 0;
#X connect 37 0 20 1;
#X connect 37 0 21 1;
#X connect 39 0 33 1;
#X connect 41 0 42 0;
#X connect 42 0 44 0;
#X connect 43 0 42 1;
#X connect 45 0 29 0;
#X connect 46 0 13 0;
#X coords 0 -1 1 1 110 27 1 0 0;
