#N canvas 889 359 341 202 10;
#X obj 45 39 inlet;
#X obj 123 97 list length;
#X obj 90 117 random;
#X obj 45 59 t l b l;
#X obj 45 137 list-nth;
#X obj 45 158 outlet;
#X connect 0 0 3 0;
#X connect 1 0 2 1;
#X connect 2 0 4 1;
#X connect 3 0 4 0;
#X connect 3 1 2 0;
#X connect 3 2 1 0;
#X connect 4 0 5 0;
