#N canvas 656 136 345 160 10;
#X floatatom 38 33 5 0 0 0 - - -;
#X floatatom 38 105 5 0 0 0 - - -;
#X floatatom 88 105 5 0 0 0 - - -;
#X obj 88 33 relay in out1 out2 out3;
#X obj 38 84 r out1;
#X obj 88 84 r out2;
#X obj 38 53 s in;
#X floatatom 138 105 5 0 0 0 - - -;
#X floatatom 188 105 5 0 0 0 - - -;
#X obj 138 84 r out3;
#X obj 188 84 r out4;
#X connect 0 0 6 0;
#X connect 4 0 1 0;
#X connect 5 0 2 0;
#X connect 9 0 7 0;
#X connect 10 0 8 0;
