#N canvas 348 107 899 457 10;
#X obj 27 36 loadbang;
#X obj 28 78 list fromsymbol;
#X obj 28 99 route bang;
#X msg 85 119 1;
#X msg 28 119 0;
#X obj 28 164 spigot;
#X obj 28 142 r \$1;
#X obj 127 36 loadbang;
#X obj 128 57 symbol \$3;
#X obj 128 78 list fromsymbol;
#X obj 128 99 route bang;
#X msg 185 119 1;
#X msg 128 119 0;
#X obj 128 164 spigot;
#X obj 128 142 r \$1;
#X obj 128 185 s \$3;
#X obj 227 36 loadbang;
#X obj 228 78 list fromsymbol;
#X obj 228 99 route bang;
#X msg 285 119 1;
#X msg 228 119 0;
#X obj 228 164 spigot;
#X obj 228 142 r \$1;
#X obj 327 36 loadbang;
#X obj 328 78 list fromsymbol;
#X obj 328 99 route bang;
#X msg 385 119 1;
#X msg 328 119 0;
#X obj 328 164 spigot;
#X obj 328 142 r \$1;
#X obj 27 216 loadbang;
#X obj 28 258 list fromsymbol;
#X obj 28 279 route bang;
#X msg 85 299 1;
#X msg 28 299 0;
#X obj 28 344 spigot;
#X obj 28 322 r \$1;
#X obj 127 216 loadbang;
#X obj 128 258 list fromsymbol;
#X obj 128 279 route bang;
#X msg 185 299 1;
#X msg 128 299 0;
#X obj 128 344 spigot;
#X obj 128 322 r \$1;
#X obj 227 216 loadbang;
#X obj 228 258 list fromsymbol;
#X obj 228 279 route bang;
#X msg 285 299 1;
#X msg 228 299 0;
#X obj 228 344 spigot;
#X obj 228 322 r \$1;
#X obj 327 216 loadbang;
#X obj 328 258 list fromsymbol;
#X obj 328 279 route bang;
#X msg 385 299 1;
#X msg 328 299 0;
#X obj 328 344 spigot;
#X obj 328 322 r \$1;
#X obj 427 36 loadbang;
#X obj 428 78 list fromsymbol;
#X obj 428 99 route bang;
#X msg 485 119 1;
#X msg 428 119 0;
#X obj 428 164 spigot;
#X obj 428 142 r \$1;
#X obj 527 36 loadbang;
#X obj 528 78 list fromsymbol;
#X obj 528 99 route bang;
#X msg 585 119 1;
#X msg 528 119 0;
#X obj 528 164 spigot;
#X obj 528 142 r \$1;
#X obj 627 36 loadbang;
#X obj 628 78 list fromsymbol;
#X obj 628 99 route bang;
#X msg 685 119 1;
#X msg 628 119 0;
#X obj 628 164 spigot;
#X obj 628 142 r \$1;
#X obj 727 36 loadbang;
#X obj 728 78 list fromsymbol;
#X obj 728 99 route bang;
#X msg 785 119 1;
#X msg 728 119 0;
#X obj 728 164 spigot;
#X obj 728 142 r \$1;
#X obj 427 216 loadbang;
#X obj 428 258 list fromsymbol;
#X obj 428 279 route bang;
#X msg 485 299 1;
#X msg 428 299 0;
#X obj 428 344 spigot;
#X obj 428 322 r \$1;
#X obj 527 216 loadbang;
#X obj 528 258 list fromsymbol;
#X obj 528 279 route bang;
#X msg 585 299 1;
#X msg 528 299 0;
#X obj 528 344 spigot;
#X obj 528 322 r \$1;
#X obj 627 216 loadbang;
#X obj 628 258 list fromsymbol;
#X obj 628 279 route bang;
#X msg 685 299 1;
#X msg 628 299 0;
#X obj 628 344 spigot;
#X obj 628 322 r \$1;
#X obj 727 216 loadbang;
#X obj 728 258 list fromsymbol;
#X obj 728 279 route bang;
#X msg 785 299 1;
#X msg 728 299 0;
#X obj 728 344 spigot;
#X obj 728 322 r \$1;
#X obj 28 57 symbol \$2;
#X obj 228 57 symbol \$4;
#X obj 328 57 symbol \$5;
#X obj 428 57 symbol \$6;
#X obj 528 57 symbol \$7;
#X obj 628 57 symbol \$8;
#X obj 728 57 symbol \$9;
#X obj 28 237 symbol \$10;
#X obj 128 237 symbol \$11;
#X obj 228 237 symbol \$12;
#X obj 328 237 symbol \$13;
#X obj 428 237 symbol \$14;
#X obj 528 237 symbol \$15;
#X obj 628 237 symbol \$16;
#X obj 728 237 symbol \$17;
#X obj 28 185 s \$2;
#X obj 228 185 s \$4;
#X obj 328 185 s \$5;
#X obj 428 185 s \$6;
#X obj 528 185 s \$7;
#X obj 628 185 s \$8;
#X obj 728 185 s \$9;
#X obj 28 365 s \$10;
#X obj 128 365 s \$11;
#X obj 228 365 s \$12;
#X obj 328 365 s \$13;
#X obj 428 365 s \$14;
#X obj 528 365 s \$15;
#X obj 628 365 s \$16;
#X obj 728 365 s \$17;
#X connect 0 0 114 0;
#X connect 1 0 2 0;
#X connect 2 0 4 0;
#X connect 2 1 3 0;
#X connect 3 0 5 1;
#X connect 4 0 5 1;
#X connect 5 0 129 0;
#X connect 6 0 5 0;
#X connect 7 0 8 0;
#X connect 8 0 9 0;
#X connect 9 0 10 0;
#X connect 10 0 12 0;
#X connect 10 1 11 0;
#X connect 11 0 13 1;
#X connect 12 0 13 1;
#X connect 13 0 15 0;
#X connect 14 0 13 0;
#X connect 16 0 115 0;
#X connect 17 0 18 0;
#X connect 18 0 20 0;
#X connect 18 1 19 0;
#X connect 19 0 21 1;
#X connect 20 0 21 1;
#X connect 21 0 130 0;
#X connect 22 0 21 0;
#X connect 23 0 116 0;
#X connect 24 0 25 0;
#X connect 25 0 27 0;
#X connect 25 1 26 0;
#X connect 26 0 28 1;
#X connect 27 0 28 1;
#X connect 28 0 131 0;
#X connect 29 0 28 0;
#X connect 30 0 121 0;
#X connect 31 0 32 0;
#X connect 32 0 34 0;
#X connect 32 1 33 0;
#X connect 33 0 35 1;
#X connect 34 0 35 1;
#X connect 35 0 136 0;
#X connect 36 0 35 0;
#X connect 37 0 122 0;
#X connect 38 0 39 0;
#X connect 39 0 41 0;
#X connect 39 1 40 0;
#X connect 40 0 42 1;
#X connect 41 0 42 1;
#X connect 42 0 137 0;
#X connect 43 0 42 0;
#X connect 44 0 123 0;
#X connect 45 0 46 0;
#X connect 46 0 48 0;
#X connect 46 1 47 0;
#X connect 47 0 49 1;
#X connect 48 0 49 1;
#X connect 49 0 138 0;
#X connect 50 0 49 0;
#X connect 51 0 124 0;
#X connect 52 0 53 0;
#X connect 53 0 55 0;
#X connect 53 1 54 0;
#X connect 54 0 56 1;
#X connect 55 0 56 1;
#X connect 56 0 139 0;
#X connect 57 0 56 0;
#X connect 58 0 117 0;
#X connect 59 0 60 0;
#X connect 60 0 62 0;
#X connect 60 1 61 0;
#X connect 61 0 63 1;
#X connect 62 0 63 1;
#X connect 63 0 132 0;
#X connect 64 0 63 0;
#X connect 65 0 118 0;
#X connect 66 0 67 0;
#X connect 67 0 69 0;
#X connect 67 1 68 0;
#X connect 68 0 70 1;
#X connect 69 0 70 1;
#X connect 70 0 133 0;
#X connect 71 0 70 0;
#X connect 72 0 119 0;
#X connect 73 0 74 0;
#X connect 74 0 76 0;
#X connect 74 1 75 0;
#X connect 75 0 77 1;
#X connect 76 0 77 1;
#X connect 77 0 134 0;
#X connect 78 0 77 0;
#X connect 79 0 120 0;
#X connect 80 0 81 0;
#X connect 81 0 83 0;
#X connect 81 1 82 0;
#X connect 82 0 84 1;
#X connect 83 0 84 1;
#X connect 84 0 135 0;
#X connect 85 0 84 0;
#X connect 86 0 125 0;
#X connect 87 0 88 0;
#X connect 88 0 90 0;
#X connect 88 1 89 0;
#X connect 89 0 91 1;
#X connect 90 0 91 1;
#X connect 91 0 140 0;
#X connect 92 0 91 0;
#X connect 93 0 126 0;
#X connect 94 0 95 0;
#X connect 95 0 97 0;
#X connect 95 1 96 0;
#X connect 96 0 98 1;
#X connect 97 0 98 1;
#X connect 98 0 141 0;
#X connect 99 0 98 0;
#X connect 100 0 127 0;
#X connect 101 0 102 0;
#X connect 102 0 104 0;
#X connect 102 1 103 0;
#X connect 103 0 105 1;
#X connect 104 0 105 1;
#X connect 105 0 142 0;
#X connect 106 0 105 0;
#X connect 107 0 128 0;
#X connect 108 0 109 0;
#X connect 109 0 111 0;
#X connect 109 1 110 0;
#X connect 110 0 112 1;
#X connect 111 0 112 1;
#X connect 112 0 143 0;
#X connect 113 0 112 0;
#X connect 114 0 1 0;
#X connect 115 0 17 0;
#X connect 116 0 24 0;
#X connect 117 0 59 0;
#X connect 118 0 66 0;
#X connect 119 0 73 0;
#X connect 120 0 80 0;
#X connect 121 0 31 0;
#X connect 122 0 38 0;
#X connect 123 0 45 0;
#X connect 124 0 52 0;
#X connect 125 0 87 0;
#X connect 126 0 94 0;
#X connect 127 0 101 0;
#X connect 128 0 108 0;
