#N canvas 201 280 1124 628 10;
#X obj 42 36 inlet~;
#X obj 41 307 outlet~;
#X obj 155 41 inlet;
#X text 156 25 ms;
#X obj 205 41 inlet;
#X text 206 25 div;
#X obj 255 41 inlet;
#X text 256 25 note;
#X obj 251 356 phasor~;
#X obj 155 62 sel 0;
#X obj 218 297 expr 1000 / $f1;
#X msg 323 298 0;
#X obj 42 253 *~;
#X obj 60 227 vline~;
#X msg 83 134 1;
#X msg 115 135 0;
#N canvas 0 50 450 250 (subpatch) 0;
#X array \$0-snip 2601 float 2;
#X coords 0 1 2601 -1 200 140 1;
#X restore 566 35 graph;
#X obj 430 367 tabwrite~ \$0-snip;
#X obj 386 250 t b b;
#X msg 424 304 start 0;
#X obj 307 201 t f b b f;
#X obj 744 267 expr $f1 / 1000 * 44100;
#X obj 624 374 array;
#X obj 744 309 \$0;
#X obj 744 329 pack f f;
#X obj 744 289 t b f;
#X msg 744 349 \; \$1-snip resize \$2;
#X obj 251 385 *~;
#X obj 240 447 tabread4~ \$0-snip;
#X obj 125 259 *~;
#X obj 143 233 vline~;
#X msg 166 140 0;
#X msg 198 141 1;
#X msg 60 206 \$1 5;
#X msg 143 212 \$1 5;
#X connect 0 0 12 0;
#X connect 0 0 17 0;
#X connect 2 0 9 0;
#X connect 8 0 27 0;
#X connect 9 0 14 0;
#X connect 9 0 31 0;
#X connect 9 1 15 0;
#X connect 9 1 20 0;
#X connect 9 1 32 0;
#X connect 10 0 8 0;
#X connect 11 0 8 1;
#X connect 12 0 1 0;
#X connect 13 0 12 1;
#X connect 14 0 33 0;
#X connect 15 0 33 0;
#X connect 18 1 19 0;
#X connect 19 0 17 0;
#X connect 20 0 10 0;
#X connect 20 1 11 0;
#X connect 20 2 18 0;
#X connect 20 3 21 0;
#X connect 21 0 25 0;
#X connect 21 0 27 1;
#X connect 23 0 24 0;
#X connect 24 0 26 0;
#X connect 25 0 23 0;
#X connect 25 1 24 1;
#X connect 27 0 28 0;
#X connect 28 0 29 0;
#X connect 29 0 1 0;
#X connect 30 0 29 1;
#X connect 31 0 34 0;
#X connect 32 0 34 0;
#X connect 33 0 13 0;
#X connect 34 0 30 0;
