#N canvas 503 86 965 773 10;
#X obj 42 39 inlet~;
#X obj 41 450 outlet~;
#X obj 155 44 inlet;
#X text 156 28 ms;
#X obj 268 44 inlet;
#X text 269 28 div;
#X obj 418 44 inlet;
#X text 419 28 note;
#X obj 251 359 phasor~;
#X obj 155 130 sel 0;
#X obj 218 300 expr 1000 / $f1;
#X msg 323 301 0;
#X obj 42 336 *~;
#X obj 60 310 vline~;
#X msg 83 217 1;
#X msg 115 218 0;
#N canvas 0 50 450 250 (subpatch) 0;
#X array \$0-snip 11025 float 2;
#X coords 0 1 11025 -1 200 140 1;
#X restore 566 38 graph;
#X obj 430 370 tabwrite~ \$0-snip;
#X msg 404 318 start 0;
#X obj 744 270 expr $f1 / 1000 * 44100;
#X obj 744 312 \$0;
#X obj 744 332 pack f f;
#X obj 744 292 t b f;
#X msg 744 352 \; \$1-snip resize \$2;
#X obj 251 388 *~;
#X obj 240 450 tabread4~ \$0-snip;
#X obj 125 342 *~;
#X obj 143 316 vline~;
#X msg 166 223 0;
#X msg 198 224 1;
#X obj 492 34 r bpm;
#X obj 311 46 bpm2ms;
#X obj 313 166 t f f;
#X obj 361 213 t b b f;
#X obj 264 87 expr $f1 * $f2;
#X obj 155 63 s \$0-ms;
#X obj 155 103 r \$0-ms;
#X obj 268 123 s \$0-ms;
#X floatatom 501 478 5 0 0 2 ms #0-ms -;
#X floatatom 533 478 5 0 0 2 div - -;
#X floatatom 565 478 5 0 0 2 note - -;
#X obj 607 526 mtof;
#X obj 607 546 expr 1000 / $f1;
#X obj 607 567 s \$0-ms;
#X obj 565 498 sel 0;
#X msg 565 545 0;
#X obj 418 65 s \$0-note;
#X obj 565 439 r \$0-note;
#X obj 218 68 s \$0-div;
#X obj 533 419 r \$0-div;
#X msg 143 295 \$1 0;
#X msg 60 289 \$1 0;
#X obj 407 409 delwrite~ \$0-L;
#X obj 209 481 delread4~ \$0-L;
#X obj 300 572 print;
#X connect 0 0 12 0;
#X connect 0 0 17 0;
#X connect 0 0 52 0;
#X connect 2 0 35 0;
#X connect 4 0 34 0;
#X connect 4 0 48 0;
#X connect 6 0 46 0;
#X connect 8 0 24 0;
#X connect 9 0 14 0;
#X connect 9 0 28 0;
#X connect 9 1 15 0;
#X connect 9 1 29 0;
#X connect 9 1 32 0;
#X connect 9 1 53 0;
#X connect 9 1 54 0;
#X connect 10 0 8 0;
#X connect 11 0 8 1;
#X connect 12 0 1 0;
#X connect 13 0 12 1;
#X connect 14 0 51 0;
#X connect 15 0 51 0;
#X connect 18 0 17 0;
#X connect 19 0 22 0;
#X connect 19 0 24 1;
#X connect 20 0 21 0;
#X connect 21 0 23 0;
#X connect 22 0 20 0;
#X connect 22 1 21 1;
#X connect 24 0 25 0;
#X connect 26 0 1 0;
#X connect 27 0 26 1;
#X connect 28 0 50 0;
#X connect 29 0 50 0;
#X connect 31 0 34 1;
#X connect 32 0 10 0;
#X connect 32 1 33 0;
#X connect 33 0 11 0;
#X connect 33 1 18 0;
#X connect 33 2 19 0;
#X connect 34 0 37 0;
#X connect 36 0 9 0;
#X connect 40 0 44 0;
#X connect 41 0 42 0;
#X connect 42 0 43 0;
#X connect 44 0 45 0;
#X connect 44 1 41 0;
#X connect 45 0 43 0;
#X connect 47 0 40 0;
#X connect 49 0 39 0;
#X connect 50 0 27 0;
#X connect 51 0 13 0;
#X connect 53 0 26 0;
#X coords 0 773 1 772 97 42 0;
