#N canvas 503 86 1041 779 10;
#X obj 42 45 inlet~;
#X obj 41 456 outlet~;
#X obj 205 50 inlet;
#X text 206 34 ms;
#X obj 318 50 inlet;
#X text 319 34 div;
#X obj 468 50 inlet;
#X text 469 34 note;
#X obj 301 365 phasor~;
#X obj 205 136 sel 0;
#X obj 268 306 expr 1000 / $f1;
#X msg 373 307 0;
#X obj 42 342 *~;
#X obj 110 316 vline~;
#X msg 133 223 1;
#X msg 165 224 0;
#N canvas 0 50 450 250 (subpatch) 0;
#X array \$0-L 1 float 2;
#X coords 0 1 1 -1 200 140 1;
#X restore 566 44 graph;
#X msg 454 324 start 0;
#X obj 694 315 expr $f1 / 1000 * 44100;
#X obj 694 357 \$0;
#X obj 694 377 pack f f;
#X obj 694 337 t b f;
#X obj 301 394 *~;
#X obj 175 348 *~;
#X obj 193 322 vline~;
#X msg 216 229 0;
#X msg 248 230 1;
#X obj 361 52 bpm2ms;
#X obj 363 172 t f f;
#X obj 411 219 t b b f;
#X obj 314 93 expr $f1 * $f2;
#X obj 205 69 s \$0-ms;
#X obj 205 109 r \$0-ms;
#X obj 318 129 s \$0-ms;
#X floatatom 469 512 5 0 0 2 ms #0-ms -;
#X floatatom 501 512 5 0 0 2 div - -;
#X floatatom 533 512 5 0 0 2 note - -;
#X obj 575 560 mtof;
#X obj 575 580 expr 1000 / $f1;
#X obj 575 601 s \$0-ms;
#X obj 533 532 sel 0;
#X msg 533 579 0;
#X obj 468 71 s \$0-note;
#X obj 533 473 r \$0-note;
#X obj 268 74 s \$0-div;
#X obj 501 453 r \$0-div;
#N canvas 0 50 450 250 (subpatch) 0;
#X array \$0-R 1 float 2;
#X coords 0 1 1 -1 200 140 1 0 0;
#X restore 771 44 graph;
#X obj 484 373 tabwrite~ \$0-L;
#X obj 480 396 tabwrite~ \$0-R;
#X obj 102 45 inlet~;
#X obj 101 456 outlet~;
#X obj 102 342 *~;
#X obj 290 456 tabread4~ \$0-L;
#X obj 296 482 tabread4~ \$0-R;
#X obj 205 348 *~;
#X msg 193 301 \$1 1;
#X msg 110 295 \$1 1;
#X obj 159 71 ii 0;
#X msg 775 421 \; \$1-R resize \$2 \;;
#X msg 671 422 \; \$1-L resize \$2;
#X text 596 197 fixme: delay in stereo;
#X connect 0 0 12 0;
#X connect 0 0 47 0;
#X connect 2 0 31 0;
#X connect 4 0 30 0;
#X connect 4 0 44 0;
#X connect 6 0 42 0;
#X connect 8 0 22 0;
#X connect 9 0 14 0;
#X connect 9 0 25 0;
#X connect 9 1 15 0;
#X connect 9 1 26 0;
#X connect 9 1 28 0;
#X connect 10 0 8 0;
#X connect 11 0 8 1;
#X connect 12 0 1 0;
#X connect 13 0 12 1;
#X connect 13 0 51 1;
#X connect 14 0 56 0;
#X connect 15 0 56 0;
#X connect 17 0 47 0;
#X connect 17 0 48 0;
#X connect 18 0 21 0;
#X connect 18 0 22 1;
#X connect 19 0 20 0;
#X connect 20 0 59 0;
#X connect 20 0 58 0;
#X connect 21 0 19 0;
#X connect 21 1 20 1;
#X connect 22 0 52 0;
#X connect 22 0 53 0;
#X connect 23 0 1 0;
#X connect 24 0 23 1;
#X connect 24 0 54 1;
#X connect 25 0 55 0;
#X connect 26 0 55 0;
#X connect 27 0 30 1;
#X connect 28 0 10 0;
#X connect 28 1 29 0;
#X connect 29 0 11 0;
#X connect 29 1 17 0;
#X connect 29 2 18 0;
#X connect 30 0 33 0;
#X connect 32 0 9 0;
#X connect 36 0 40 0;
#X connect 37 0 38 0;
#X connect 38 0 39 0;
#X connect 40 0 41 0;
#X connect 40 1 37 0;
#X connect 41 0 39 0;
#X connect 43 0 36 0;
#X connect 45 0 35 0;
#X connect 49 0 51 0;
#X connect 49 0 48 0;
#X connect 51 0 50 0;
#X connect 52 0 23 0;
#X connect 53 0 54 0;
#X connect 54 0 50 0;
#X connect 55 0 24 0;
#X connect 56 0 13 0;
#X connect 57 0 9 0;
#X coords 0 779 1 778 97 42 0;
