#N canvas 636 41 438 330 10;
#X obj 60 61 phasor~ 440;
#X obj 60 86 lop~ 880;
#X obj 56 227 dac~;
#X obj 60 144 resample~;
#X obj 60 165 gate~;
#X msg 226 63 1000;
#X msg 266 63 4000;
#X msg 316 63 10000;
#X msg 186 63 200;
#X obj 237 119 sig~ 5000;
#X connect 0 0 1 0;
#X connect 1 0 3 0;
#X connect 3 0 4 0;
#X connect 4 0 2 0;
#X connect 4 0 2 1;
#X connect 5 0 9 0;
#X connect 6 0 9 0;
#X connect 7 0 9 0;
#X connect 8 0 9 0;
#X connect 9 0 3 1;
