#N canvas 0 50 456 323 10;
#X obj 38 72 inlet~;
#X obj 37 222 outlet~;
#X text 34 47 audio in;
#X text 36 242 audio out;
#X text 113 48 sample freq;
#X obj 115 72 inlet~;
#X obj 37 183 samphold~;
#X obj 114 161 phasor~;
#X obj 244 72 loadbang;
#X obj 244 93 list \$1;
#X obj 244 114 sig~;
#X connect 0 0 6 0;
#X connect 5 0 7 0;
#X connect 6 0 1 0;
#X connect 7 0 6 1;
#X connect 8 0 9 0;
#X connect 9 0 10 0;
#X connect 10 0 7 0;
