#N canvas 233 104 1272 760 10;
#X text 36 6 some ideas from the michael gerzon studio sound reverb
articles of 1971 and 1972;
#X obj 243 241 inlet~;
#X obj 293 242 inlet~;
#X obj 292 327 +~;
#X obj 162 329 +~;
#X obj 431 64 inlet;
#X text 430 43 fb 0 - 100;
#X obj 427 222 lop~ 3;
#X obj 308 299 *~;
#X obj 177 305 *~;
#X obj 414 309 *~;
#X obj 548 298 *~;
#X obj 68 327 cos;
#X obj 100 324 sin;
#X obj 68 277 wrap;
#X floatatom 101 342 5 0 0 0 - - -;
#X floatatom 69 349 5 0 0 0 - - -;
#X floatatom 73 228 5 0 0 0 - - -;
#X obj 70 301 * 6.28319;
#X obj 170 461 *~;
#X obj 197 462 *~;
#X obj 170 484 -~;
#X obj 283 465 *~;
#X obj 309 466 *~;
#X obj 292 485 +~;
#X obj 419 465 *~;
#X obj 445 467 *~;
#X obj 421 487 -~;
#X obj 526 469 *~;
#X obj 555 469 *~;
#X obj 528 489 +~;
#X obj 165 530 *~;
#X obj 190 531 *~;
#X obj 173 558 -~;
#X obj 290 530 *~;
#X obj 316 530 *~;
#X obj 291 556 +~;
#X obj 420 536 *~;
#X obj 447 537 *~;
#X obj 423 564 -~;
#X obj 548 535 *~;
#X obj 572 536 *~;
#X obj 547 562 +~;
#X obj 45 439 wrap;
#X floatatom 67 514 5 0 0 0 - - -;
#X floatatom 33 514 5 0 0 0 - - -;
#X floatatom 45 388 5 0 0 0 - - -;
#X obj 47 463 * 6.28319;
#X obj 222 627 outlet~;
#X obj 480 630 outlet~;
#X obj 545 351 rpole~;
#X obj 547 332 *~;
#X obj 415 357 rpole~;
#X obj 416 334 *~;
#X obj 574 61 inlet;
#X obj 616 192 clip 0 1;
#X obj 616 213 - 1;
#X obj 616 235 * -1;
#X obj 70 251 / 360;
#X obj 46 413 / 360;
#X obj 45 490 cos;
#X obj 75 490 sin;
#X obj 227 595 *~ 1;
#X obj 483 599 *~ 1;
#X msg 46 212 45;
#X obj 54 167 loadbang;
#X text 28 34 4 prime number delay lines with ratios between 0.5 and
1 47 \, 67 \, 101 \, 137;
#X obj 693 54 inlet;
#X obj 162 353 delwrite~ \$0-a 500;
#X obj 171 401 delread~ \$0-a 40.635;
#X obj 293 352 delwrite~ \$0-b 500;
#X obj 289 401 delread~ \$0-b 62.346;
#X obj 415 381 delwrite~ \$0-c 500;
#X obj 415 403 delread~ \$0-c 99.203;
#X obj 535 381 delwrite~ \$0-d 500;
#X obj 534 402 delread~ \$0-d 135;
#X obj 710 438 vu 15 120 empty empty -1 -8 0 10 -66577 -1 1 0;
#X obj 707 372 env~;
#X obj 707 393 - 100;
#X obj 432 147 r \$0-fbgain;
#X obj 431 85 s \$0-fbgain;
#X obj 840 426 nbx 3 14 0 1 0 0 \$0-fbgain \$0-fbgain fbgain 0 -8 0
10 -262144 -1 -1 0.9 256;
#X obj 574 82 s \$0-damping;
#X obj 614 152 r \$0-damping;
#X text 577 37 damping;
#X obj 693 83 s \$0-coupling;
#X obj 693 145 r \$0-coupling;
#X obj 840 456 nbx 3 14 0 1 0 0 \$0-damping \$0-damping damping 0 -8
0 10 -262144 -1 -1 0.7 256;
#X obj 900 426 nbx 3 14 0 1 0 0 \$0-coupling \$0-coupling coupling
0 -8 0 10 -262144 -1 -1 0.2 256;
#X obj 431 175 clip 0 1;
#X obj 693 166 clip 0 1;
#X text 243 215 in L;
#X text 298 216 in R;
#X obj 980 240 f;
#X obj 931 212 savestate;
#X obj 980 269 pack f f f;
#X obj 920 300 unpack f f f;
#X obj 996 205 r \$0-fbgain;
#X obj 1025 230 r \$0-damping;
#X obj 1106 230 r \$0-coupling;
#X obj 906 337 s \$0-fbgain;
#X obj 988 336 s \$0-damping;
#X obj 1069 336 s \$0-coupling;
#X text 696 31 coupling;
#X obj 693 192 expr $f1 * 50 + 20;
#X obj 874 598 s \$0-fbgain;
#X obj 956 597 s \$0-damping;
#X obj 1037 597 s \$0-coupling;
#X obj 874 575 route fbgain damping coupling;
#X obj 874 552 r \$0-preset;
#X obj 895 100 s \$0-preset;
#X text 959 39 presets;
#X msg 905 59 fbgain 0.9 \, damping 0.7 \, coupling 0.2;
#X msg 905 79 fbgain 0.8 \, damping 0.2 \, coupling 0.8;
#X text 347 565 out gain;
#X obj 350 585 ii 0.2;
#X connect 1 0 4 0;
#X connect 1 0 77 0;
#X connect 2 0 3 0;
#X connect 3 0 70 0;
#X connect 4 0 68 0;
#X connect 5 0 80 0;
#X connect 7 0 8 1;
#X connect 7 0 9 1;
#X connect 7 0 10 0;
#X connect 7 0 11 0;
#X connect 8 0 3 1;
#X connect 9 0 4 1;
#X connect 10 0 53 0;
#X connect 11 0 51 0;
#X connect 12 0 16 0;
#X connect 13 0 15 0;
#X connect 14 0 18 0;
#X connect 15 0 20 1;
#X connect 15 0 22 1;
#X connect 15 0 26 1;
#X connect 15 0 28 1;
#X connect 16 0 19 1;
#X connect 16 0 23 1;
#X connect 16 0 25 1;
#X connect 16 0 29 1;
#X connect 17 0 58 0;
#X connect 18 0 12 0;
#X connect 18 0 13 0;
#X connect 19 0 21 0;
#X connect 20 0 21 1;
#X connect 21 0 31 0;
#X connect 21 0 34 0;
#X connect 22 0 24 0;
#X connect 23 0 24 1;
#X connect 24 0 37 0;
#X connect 24 0 40 0;
#X connect 25 0 27 0;
#X connect 26 0 27 1;
#X connect 27 0 32 0;
#X connect 27 0 35 0;
#X connect 28 0 30 0;
#X connect 29 0 30 1;
#X connect 30 0 41 0;
#X connect 30 0 38 0;
#X connect 31 0 33 0;
#X connect 32 0 33 1;
#X connect 33 0 9 0;
#X connect 33 0 62 0;
#X connect 34 0 36 0;
#X connect 35 0 36 1;
#X connect 36 0 10 1;
#X connect 36 0 62 0;
#X connect 37 0 39 0;
#X connect 38 0 39 1;
#X connect 39 0 8 0;
#X connect 39 0 63 0;
#X connect 40 0 42 0;
#X connect 41 0 42 1;
#X connect 42 0 11 1;
#X connect 42 0 63 0;
#X connect 43 0 47 0;
#X connect 44 0 32 1;
#X connect 44 0 34 1;
#X connect 44 0 38 1;
#X connect 44 0 40 1;
#X connect 45 0 31 1;
#X connect 45 0 35 1;
#X connect 45 0 37 1;
#X connect 45 0 41 1;
#X connect 46 0 59 0;
#X connect 47 0 60 0;
#X connect 47 0 61 0;
#X connect 50 0 74 0;
#X connect 51 0 50 0;
#X connect 52 0 72 0;
#X connect 53 0 52 0;
#X connect 54 0 82 0;
#X connect 55 0 56 0;
#X connect 55 0 50 1;
#X connect 55 0 52 1;
#X connect 56 0 57 0;
#X connect 57 0 53 1;
#X connect 57 0 51 1;
#X connect 58 0 14 0;
#X connect 59 0 43 0;
#X connect 60 0 45 0;
#X connect 61 0 44 0;
#X connect 62 0 48 0;
#X connect 63 0 49 0;
#X connect 64 0 17 0;
#X connect 64 0 46 0;
#X connect 65 0 64 0;
#X connect 67 0 85 0;
#X connect 69 0 19 0;
#X connect 69 0 22 0;
#X connect 71 0 20 0;
#X connect 71 0 23 0;
#X connect 73 0 25 0;
#X connect 73 0 28 0;
#X connect 75 0 26 0;
#X connect 75 0 29 0;
#X connect 77 0 78 0;
#X connect 78 0 76 0;
#X connect 79 0 89 0;
#X connect 83 0 55 0;
#X connect 86 0 90 0;
#X connect 89 0 7 0;
#X connect 90 0 104 0;
#X connect 93 0 95 0;
#X connect 94 0 96 0;
#X connect 94 1 93 0;
#X connect 95 0 94 0;
#X connect 96 0 100 0;
#X connect 96 1 101 0;
#X connect 96 2 102 0;
#X connect 97 0 93 1;
#X connect 98 0 95 1;
#X connect 99 0 95 2;
#X connect 104 0 46 0;
#X connect 108 0 105 0;
#X connect 108 1 106 0;
#X connect 108 2 107 0;
#X connect 109 0 108 0;
#X connect 112 0 110 0;
#X connect 113 0 110 0;
#X connect 115 0 62 1;
#X connect 115 0 63 1;
#X coords 0 -1 1 1 130 75 1 830 400;
