#N canvas 140 29 1118 872 10;
#X obj 50 103 inlet~;
#X obj 222 78 inlet;
#X obj 99 213 clip 0 200;
#X text 48 83 in;
#X text 219 59 predelay;
#X obj 317 79 inlet;
#X obj 177 212 clip 0 1;
#X obj 50 329 rpole~;
#X text 312 60 bandwidth;
#X msg 122 352 0.75;
#X obj 105 328 loadbang;
#X msg 122 416 0.75;
#X obj 104 394 loadbang;
#X obj 104 457 loadbang;
#X msg 122 479 0.625;
#N canvas 863 218 344 312 allpass100ms 0;
#X text 40 218 0 - 100 mSec allpass;
#X obj 37 29 inlet~;
#X obj 32 159 +~;
#X obj 59 114 *~;
#X obj 91 30 inlet;
#X text 37 10 sound;
#X text 95 9 time;
#X text 138 9 gain;
#X obj 138 115 *~;
#X obj 122 144 +~;
#X obj 192 201 outlet~;
#X text 143 258 djsajkdjsahdsk;
#X obj 229 23 block~ 1;
#X obj 142 55 * -1;
#X obj 134 31 inlet;
#X obj 64 79 delread~ \$0-d-short;
#X obj 32 199 delwrite~ \$0-d-short 100;
#X connect 1 0 2 0;
#X connect 2 0 8 0;
#X connect 2 0 16 0;
#X connect 3 0 2 1;
#X connect 4 0 15 0;
#X connect 8 0 9 1;
#X connect 9 0 10 0;
#X connect 13 0 8 1;
#X connect 14 0 3 1;
#X connect 14 0 13 0;
#X connect 15 0 9 0;
#X connect 15 0 3 0;
#X restore 51 563 pd allpass100ms;
#X obj 105 520 loadbang;
#X msg 123 542 0.625;
#X obj 189 818 outlet~;
#X obj 325 309 loadbang;
#X obj 51 291 *~;
#X obj 193 239 - 1;
#X obj 193 262 * -1;
#X obj 272 478 rpole~;
#X obj 273 454 *~;
#X obj 421 79 inlet;
#X obj 251 210 clip 0 1;
#X obj 251 236 - 1;
#X obj 251 259 * -1;
#X text 421 61 damping;
#N canvas 863 218 344 312 allpass100ms 0;
#X text 40 218 0 - 100 mSec allpass;
#X obj 37 29 inlet~;
#X obj 32 159 +~;
#X obj 59 114 *~;
#X obj 91 30 inlet;
#X text 37 10 sound;
#X text 95 9 time;
#X text 138 9 gain;
#X obj 138 115 *~;
#X obj 122 144 +~;
#X obj 192 201 outlet~;
#X text 143 258 djsajkdjsahdsk;
#X obj 229 23 block~ 1;
#X obj 142 55 * -1;
#X obj 134 31 inlet;
#X obj 64 79 delread~ \$0-a-short;
#X obj 32 199 delwrite~ \$0-a-short 100;
#X connect 1 0 2 0;
#X connect 2 0 8 0;
#X connect 2 0 16 0;
#X connect 3 0 2 1;
#X connect 4 0 15 0;
#X connect 8 0 9 1;
#X connect 9 0 10 0;
#X connect 13 0 8 1;
#X connect 14 0 3 1;
#X connect 14 0 13 0;
#X connect 15 0 9 0;
#X connect 15 0 3 0;
#X restore 50 373 pd allpass100ms;
#N canvas 863 218 344 312 allpass100ms 0;
#X text 40 218 0 - 100 mSec allpass;
#X obj 37 29 inlet~;
#X obj 32 159 +~;
#X obj 59 114 *~;
#X obj 91 30 inlet;
#X text 37 10 sound;
#X text 95 9 time;
#X text 138 9 gain;
#X obj 138 115 *~;
#X obj 122 144 +~;
#X obj 192 201 outlet~;
#X text 143 258 djsajkdjsahdsk;
#X obj 229 23 block~ 1;
#X obj 142 55 * -1;
#X obj 134 31 inlet;
#X obj 64 79 delread~ \$0-b-short;
#X obj 32 199 delwrite~ \$0-b-short 100;
#X connect 1 0 2 0;
#X connect 2 0 8 0;
#X connect 2 0 16 0;
#X connect 3 0 2 1;
#X connect 4 0 15 0;
#X connect 8 0 9 1;
#X connect 9 0 10 0;
#X connect 13 0 8 1;
#X connect 14 0 3 1;
#X connect 14 0 13 0;
#X connect 15 0 9 0;
#X connect 15 0 3 0;
#X restore 50 437 pd allpass100ms;
#N canvas 863 218 344 312 allpass100ms 0;
#X text 40 218 0 - 100 mSec allpass;
#X obj 37 29 inlet~;
#X obj 32 159 +~;
#X obj 59 114 *~;
#X obj 91 30 inlet;
#X text 37 10 sound;
#X text 95 9 time;
#X text 138 9 gain;
#X obj 138 115 *~;
#X obj 122 144 +~;
#X obj 192 201 outlet~;
#X text 143 258 djsajkdjsahdsk;
#X obj 229 23 block~ 1;
#X obj 142 55 * -1;
#X obj 134 31 inlet;
#X obj 64 79 delread~ \$0-c-short;
#X obj 32 199 delwrite~ \$0-c-short 100;
#X connect 1 0 2 0;
#X connect 2 0 8 0;
#X connect 2 0 16 0;
#X connect 3 0 2 1;
#X connect 4 0 15 0;
#X connect 8 0 9 1;
#X connect 9 0 10 0;
#X connect 13 0 8 1;
#X connect 14 0 3 1;
#X connect 14 0 13 0;
#X connect 15 0 9 0;
#X connect 15 0 3 0;
#X restore 50 500 pd allpass100ms;
#N canvas 562 591 678 290 allpass100ms2tap 0;
#X text 40 218 0 - 100 mSec allpass;
#X obj 37 29 inlet~;
#X obj 39 145 +~;
#X obj 59 114 *~;
#X obj 91 30 inlet;
#X obj 134 31 inlet;
#X text 37 10 sound;
#X text 95 9 time;
#X text 138 9 gain;
#X obj 142 55 * -1;
#X obj 138 115 *~;
#X obj 122 144 +~;
#X obj 192 189 outlet~;
#X obj 251 191 outlet~;
#X obj 232 32 inlet;
#X text 231 14 time;
#X obj 367 191 outlet~;
#X obj 348 32 inlet;
#X text 347 14 time;
#X obj 64 79 delread~ \$0-f-short;
#X obj 40 190 delwrite~ \$0-f-short 100;
#X obj 239 71 delread~ \$0-f-short;
#X obj 355 71 delread~ \$0-f-short;
#X connect 1 0 2 0;
#X connect 2 0 10 0;
#X connect 2 0 20 0;
#X connect 3 0 2 1;
#X connect 4 0 19 0;
#X connect 5 0 3 1;
#X connect 5 0 9 0;
#X connect 9 0 10 1;
#X connect 10 0 11 1;
#X connect 11 0 12 0;
#X connect 14 0 21 0;
#X connect 17 0 22 0;
#X connect 19 0 3 0;
#X connect 19 0 11 0;
#X connect 21 0 13 0;
#X connect 22 0 16 0;
#X restore 273 528 pd allpass100ms2tap;
#X obj 350 480 loadbang;
#X msg 369 506 64.2;
#X obj 516 315 loadbang;
#X obj 451 475 rpole~;
#X obj 452 451 *~;
#X obj 532 479 loadbang;
#X obj 451 289 *~;
#X obj 288 292 *~;
#X obj 439 344 +~;
#X obj 267 345 +~;
#X obj 515 79 inlet;
#X obj 357 209 clip 0 1;
#X text 513 61 gain;
#X msg 520 345 0.7;
#N canvas 413 405 484 257 allpass100ms2tap 0;
#X text 40 218 0 - 100 mSec allpass;
#X obj 37 29 inlet~;
#X obj 39 145 +~;
#X obj 59 114 *~;
#X obj 91 30 inlet;
#X obj 134 31 inlet;
#X text 37 10 sound;
#X text 95 9 time;
#X text 138 9 gain;
#X obj 142 55 * -1;
#X obj 138 115 *~;
#X obj 122 144 +~;
#X obj 192 189 outlet~;
#X obj 251 191 outlet~;
#X obj 232 32 inlet;
#X text 231 14 time;
#X obj 367 191 outlet~;
#X obj 348 32 inlet;
#X text 347 14 time;
#X obj 64 79 delread~ \$0-h-short;
#X obj 40 190 delwrite~ \$0-h-short 100;
#X obj 239 71 delread~ \$0-h-short;
#X obj 355 71 delread~ \$0-h-short;
#X connect 1 0 2 0;
#X connect 2 0 10 0;
#X connect 2 0 20 0;
#X connect 3 0 2 1;
#X connect 4 0 19 0;
#X connect 5 0 3 1;
#X connect 5 0 9 0;
#X connect 9 0 10 1;
#X connect 10 0 11 1;
#X connect 11 0 12 0;
#X connect 14 0 21 0;
#X connect 17 0 22 0;
#X connect 19 0 3 0;
#X connect 19 0 11 0;
#X connect 21 0 13 0;
#X connect 22 0 16 0;
#X restore 452 525 pd allpass100ms2tap;
#X obj 95 644 +~;
#X obj 105 667 -~;
#X obj 118 693 +~;
#X obj 132 718 -~;
#X msg 548 503 6.3;
#X obj 149 744 -~;
#X obj 160 771 -~;
#X obj 404 812 outlet~;
#X obj 315 636 +~;
#X obj 325 659 -~;
#X obj 338 685 +~;
#X obj 352 710 -~;
#X obj 369 736 -~;
#X obj 380 763 -~;
#X msg 580 501 41.2;
#X msg 406 505 11.2;
#X msg 341 348 0.7;
#X floatatom 193 289 8 0 0 0 - - -;
#X floatatom 229 322 5 0 0 0 - - -;
#N canvas 575 269 331 315 modallpass100ms 0;
#X text 43 259 0 - 100 mSec allpass;
#X obj 37 29 inlet~;
#X obj 42 203 +~;
#X obj 62 172 *~;
#X obj 91 30 inlet;
#X obj 134 31 inlet;
#X text 37 10 sound;
#X text 95 9 time;
#X text 138 9 gain;
#X obj 142 55 * -1;
#X obj 141 173 *~;
#X obj 125 202 +~;
#X obj 206 233 outlet~;
#X obj 182 30 inlet;
#X obj 185 56 osc~;
#X obj 70 113 +~;
#X text 179 9 freq;
#X obj 185 77 *~ 4;
#X obj 67 137 vd~ \$0-g-short;
#X obj 43 231 delwrite~ \$0-g-short 100;
#X connect 1 0 2 0;
#X connect 2 0 10 0;
#X connect 2 0 19 0;
#X connect 3 0 2 1;
#X connect 4 0 15 0;
#X connect 5 0 3 1;
#X connect 5 0 9 0;
#X connect 9 0 10 1;
#X connect 10 0 11 1;
#X connect 11 0 12 0;
#X connect 13 0 14 0;
#X connect 14 0 17 0;
#X connect 15 0 18 0;
#X connect 17 0 15 1;
#X connect 18 0 3 0;
#X connect 18 0 11 0;
#X restore 454 376 pd modallpass100ms;
#X msg 85 542 9.307;
#X msg 84 479 12.73;
#X msg 84 416 3.595;
#X msg 84 352 4.771;
#X msg 482 345 22.58;
#X msg 387 348 0.1;
#X msg 303 348 30.51;
#X msg 477 503 60.48;
#X msg 298 506 89.24;
#X msg 336 507 0.5;
#X msg 515 503 0.5;
#X msg 566 345 0.07;
#N canvas 575 269 331 315 modallpass100ms 0;
#X text 43 259 0 - 100 mSec allpass;
#X obj 37 29 inlet~;
#X obj 42 203 +~;
#X obj 62 172 *~;
#X obj 91 30 inlet;
#X obj 134 31 inlet;
#X text 37 10 sound;
#X text 95 9 time;
#X text 138 9 gain;
#X obj 142 55 * -1;
#X obj 141 173 *~;
#X obj 125 202 +~;
#X obj 206 233 outlet~;
#X obj 182 30 inlet;
#X obj 185 56 osc~;
#X obj 70 113 +~;
#X text 179 9 freq;
#X obj 185 77 *~ 4;
#X obj 67 137 vd~ \$0-e-short;
#X obj 43 231 delwrite~ \$0-e-short 100;
#X connect 1 0 2 0;
#X connect 2 0 10 0;
#X connect 2 0 19 0;
#X connect 3 0 2 1;
#X connect 4 0 15 0;
#X connect 5 0 3 1;
#X connect 5 0 9 0;
#X connect 9 0 10 1;
#X connect 10 0 11 1;
#X connect 11 0 12 0;
#X connect 13 0 14 0;
#X connect 14 0 17 0;
#X connect 15 0 18 0;
#X connect 17 0 15 1;
#X connect 18 0 3 0;
#X connect 18 0 11 0;
#X restore 275 379 pd modallpass100ms;
#X obj 176 794 *~ 0.125;
#X obj 385 786 *~ 0.125;
#X obj 48 215 *~ 0.5;
#X obj 436 552 *~;
#X obj 250 551 *~;
#X obj 222 98 s \$0-predelay;
#X obj 317 98 s \$0-bandwidth;
#X obj 421 98 s \$0-damping;
#X obj 515 98 s \$0-gain;
#X obj 79 178 r \$0-predelay;
#X obj 174 178 r \$0-bandwidth;
#X obj 278 178 r \$0-damping;
#X obj 373 178 r \$0-gain;
#X obj 700 325 nbx 5 14 0 200 0 0 \$0-predelay \$0-predelay predelay
0 -8 0 10 -262144 -1 -1 180.8 256;
#X obj 700 355 nbx 5 14 0 1 0 0 \$0-bandwidth \$0-bandwidth band-wth
0 -8 0 10 -262144 -1 -1 1 256;
#X obj 754 325 nbx 5 14 0 1 0 0 \$0-damping \$0-damping damping 0 -8
0 10 -262144 -1 -1 0.54 256;
#X obj 754 355 nbx 5 14 0 1 0 0 \$0-gain \$0-gain gain 0 -8 0 10 -262144
-1 -1 0.96 256;
#X obj 94 599 delread~ \$0-dela 8.9;
#X obj 109 620 delread~ \$0-dela 99.8;
#X obj 133 668 delread~ \$0-delc 67;
#X obj 147 693 delread~ \$0-deld 66.8;
#X obj 178 746 delread~ \$0-delf 35.8;
#X obj 398 738 delread~ \$0-delc 4.1;
#X obj 367 685 delread~ \$0-dela 70.8;
#X obj 353 660 delread~ \$0-delf 89.7;
#X obj 329 612 delread~ \$0-deld 121.7;
#X obj 314 591 delread~ \$0-deld 11.8;
#X obj 243 575 delwrite~ \$0-delc 200;
#X obj 275 428 delread~ \$0-dela 141.69;
#X obj 453 583 delwrite~ \$0-delf 200;
#X obj 454 425 delread~ \$0-deld 149.62;
#X obj 452 405 delwrite~ \$0-deld 200;
#X obj 462 253 delread~ \$0-delc 106.28;
#X obj 301 250 delread~ \$0-delf 125;
#X obj 273 408 delwrite~ \$0-dela 200;
#X obj 51 262 delread~ \$0-predelay;
#X obj 51 237 delwrite~ \$0-predelay 200;
#X obj 813 472 f;
#X obj 762 445 savestate;
#X obj 813 494 pack f f f f;
#X obj 762 526 unpack f f f f;
#X obj 678 562 s \$0-predelay;
#X obj 768 562 s \$0-bandwidth;
#X obj 863 562 s \$0-damping;
#X obj 947 562 s \$0-gain;
#X obj 828 413 r \$0-predelay;
#X obj 836 433 r \$0-bandwidth;
#X obj 859 453 r \$0-damping;
#X obj 884 473 r \$0-gain;
#X obj 678 682 s \$0-predelay;
#X obj 768 682 s \$0-bandwidth;
#X obj 863 682 s \$0-damping;
#X obj 947 682 s \$0-gain;
#X obj 678 640 r \$0-preset;
#X obj 678 661 route predelay bandwidth damping gain;
#X msg 719 86 predelay 180.8 \, bandwidth 1 \, damping 0.54 \, gain
0.96;
#X obj 709 127 s \$0-preset;
#X msg 719 106 predelay 80 \, bandwidth 0.9 \, damping 0.2 \, gain
0.9;
#X text 788 61 presets;
#X obj 292 791 ii 0.2;
#X text 290 774 out gain;
#X obj 943 293 spigot 1;
#X msg 1018 238 0;
#X obj 1042 293 spigot 1;
#X obj 943 343 spigot 1;
#X obj 1042 343 spigot 1;
#X obj 943 272 ii 180;
#X obj 943 321 ii 1;
#X obj 1042 272 ii 0.55;
#X obj 1042 322 ii 0.96;
#X connect 0 0 84 0;
#X connect 1 0 87 0;
#X connect 2 0 117 0;
#X connect 5 0 88 0;
#X connect 6 0 20 1;
#X connect 6 0 21 0;
#X connect 7 0 30 0;
#X connect 9 0 30 2;
#X connect 10 0 9 0;
#X connect 10 0 72 0;
#X connect 11 0 31 2;
#X connect 12 0 11 0;
#X connect 12 0 71 0;
#X connect 13 0 14 0;
#X connect 13 0 70 0;
#X connect 14 0 32 2;
#X connect 15 0 42 0;
#X connect 15 0 43 0;
#X connect 16 0 17 0;
#X connect 16 0 69 0;
#X connect 17 0 15 2;
#X connect 19 0 65 0;
#X connect 19 0 75 0;
#X connect 19 0 74 0;
#X connect 20 0 7 0;
#X connect 21 0 22 0;
#X connect 22 0 7 1;
#X connect 22 0 66 0;
#X connect 23 0 33 0;
#X connect 24 0 23 0;
#X connect 25 0 89 0;
#X connect 26 0 27 0;
#X connect 26 0 23 1;
#X connect 26 0 37 1;
#X connect 27 0 28 0;
#X connect 28 0 24 1;
#X connect 28 0 38 1;
#X connect 28 0 67 0;
#X connect 30 0 31 0;
#X connect 31 0 32 0;
#X connect 32 0 15 0;
#X connect 33 0 86 1;
#X connect 33 1 50 1;
#X connect 33 2 61 1;
#X connect 34 0 78 0;
#X connect 34 0 77 0;
#X connect 34 0 35 0;
#X connect 34 0 64 0;
#X connect 35 0 33 3;
#X connect 36 0 47 0;
#X connect 36 0 73 0;
#X connect 36 0 80 0;
#X connect 37 0 48 0;
#X connect 38 0 37 0;
#X connect 39 0 79 0;
#X connect 39 0 76 0;
#X connect 39 0 53 0;
#X connect 39 0 63 0;
#X connect 40 0 42 1;
#X connect 41 0 43 1;
#X connect 42 0 68 0;
#X connect 43 0 81 0;
#X connect 44 0 90 0;
#X connect 45 0 40 0;
#X connect 45 0 41 0;
#X connect 45 0 85 0;
#X connect 45 0 86 0;
#X connect 47 0 68 2;
#X connect 48 0 85 1;
#X connect 48 1 54 1;
#X connect 48 2 58 1;
#X connect 49 0 50 0;
#X connect 50 0 51 0;
#X connect 51 0 52 0;
#X connect 52 0 54 0;
#X connect 53 0 48 3;
#X connect 54 0 55 0;
#X connect 55 0 82 0;
#X connect 57 0 58 0;
#X connect 58 0 59 0;
#X connect 59 0 60 0;
#X connect 60 0 61 0;
#X connect 61 0 62 0;
#X connect 62 0 83 0;
#X connect 63 0 48 4;
#X connect 64 0 33 4;
#X connect 65 0 81 2;
#X connect 68 0 113 0;
#X connect 69 0 15 1;
#X connect 70 0 32 1;
#X connect 71 0 31 1;
#X connect 72 0 30 1;
#X connect 73 0 68 1;
#X connect 74 0 81 3;
#X connect 75 0 81 1;
#X connect 76 0 48 1;
#X connect 77 0 33 1;
#X connect 78 0 33 2;
#X connect 79 0 48 2;
#X connect 80 0 68 3;
#X connect 81 0 116 0;
#X connect 82 0 18 0;
#X connect 83 0 56 0;
#X connect 84 0 118 0;
#X connect 85 0 111 0;
#X connect 86 0 109 0;
#X connect 91 0 2 0;
#X connect 92 0 6 0;
#X connect 93 0 26 0;
#X connect 94 0 45 0;
#X connect 99 0 49 0;
#X connect 100 0 49 1;
#X connect 101 0 51 1;
#X connect 102 0 52 1;
#X connect 103 0 55 1;
#X connect 104 0 62 1;
#X connect 105 0 60 1;
#X connect 106 0 59 1;
#X connect 107 0 57 1;
#X connect 108 0 57 0;
#X connect 110 0 24 0;
#X connect 112 0 38 0;
#X connect 114 0 40 1;
#X connect 115 0 41 1;
#X connect 117 0 20 0;
#X connect 119 0 121 0;
#X connect 120 0 122 0;
#X connect 120 1 119 0;
#X connect 121 0 120 0;
#X connect 122 0 123 0;
#X connect 122 0 144 0;
#X connect 122 1 124 0;
#X connect 122 2 125 0;
#X connect 122 3 126 0;
#X connect 127 0 119 1;
#X connect 128 0 121 1;
#X connect 129 0 121 2;
#X connect 130 0 121 3;
#X connect 135 0 136 0;
#X connect 136 0 131 0;
#X connect 136 1 132 0;
#X connect 136 2 133 0;
#X connect 136 3 134 0;
#X connect 137 0 138 0;
#X connect 139 0 138 0;
#X connect 141 0 83 1;
#X connect 141 0 82 1;
#X connect 143 0 123 0;
#X connect 144 0 143 1;
#X connect 144 0 145 1;
#X connect 144 0 146 1;
#X connect 144 0 147 1;
#X connect 145 0 125 0;
#X connect 146 0 124 0;
#X connect 147 0 126 0;
#X connect 148 0 143 0;
#X connect 149 0 146 0;
#X connect 150 0 145 0;
#X connect 151 0 147 0;
#X coords 0 -1 1 1 108 71 1 700 300;
