#N canvas 461 131 1253 914 10;
#X obj 199 123 hh;
#X obj 173 70 bng 15 250 50 0 empty empty empty 17 7 0 10 -262144 -1
-1;
#X obj 70 587 dac~;
#X obj 69 516 catch~ LR;
#X obj 100 566 catch~ R;
#X obj 90 546 catch~ L;
#X obj 158 159 gate~;
#X obj 112 250 throw~ LR;
#X obj 313 403 throw~ L;
#X obj 433 403 throw~ R;
#X obj 242 34 tgl 15 0 empty empty empty 17 7 0 10 -262144 -1 -1 1
1;
#X obj 274 8 loadbang;
#X obj 242 54 metro 1000;
#X obj 392 59 router8out~;
#X msg 355 270 0;
#X obj 355 291 s selector;
#X obj 393 30 r selector;
#X obj 235 291 s selector;
#X obj 605 281 s selector;
#X msg 235 270 -1;
#X msg 605 260 1;
#X obj 602 315 reverb_allpass~;
#A saved 13.1 0.96;
#X obj 325 491 s selector;
#X msg 325 470 2;
#X obj 727 287 env~;
#X obj 730 319 - 100;
#X obj 732 392 vu 15 120 empty empty -1 -8 0 10 -66577 -1 1 0;
#X obj 283 523 reverb_gsp~;
#A saved 0.9 0.7 0.2;
#X obj 465 491 s selector;
#X msg 465 470 3;
#X obj 283 610 throw~ L;
#X obj 353 610 throw~ R;
#X obj 467 609 throw~ L;
#X obj 576 613 throw~ R;
#X obj 449 522 reverb_spacestation~;
#A saved 20000 5 20000 6 0.97;
#X obj 725 131 s selector;
#X msg 725 110 4;
#X obj 713 250 throw~ L;
#X obj 783 250 throw~ R;
#X text 527 35 todo;
#X text 533 51 * all dry;
#X obj 313 316 reverb_dattorro~;
#A saved 180.8 1 0.54 0.96;
#X obj 603 380 throw~ L;
#X obj 657 380 throw~ R;
#X text 236 253 no reverb;
#X obj 715 159 reverb_moorer~;
#A saved 5000 0.94;
#X obj 829 661 reverb_schroeder~;
#A saved 4938 1;
#X obj 875 626 s selector;
#X msg 875 605 5;
#X obj 845 797 throw~ L;
#X obj 954 801 throw~ R;
#X connect 0 0 6 0;
#X connect 0 0 13 0;
#X connect 1 0 0 0;
#X connect 3 0 2 0;
#X connect 3 0 2 1;
#X connect 4 0 2 1;
#X connect 5 0 2 0;
#X connect 6 0 7 0;
#X connect 10 0 12 0;
#X connect 11 0 6 1;
#X connect 12 0 1 0;
#X connect 13 0 41 0;
#X connect 13 1 21 0;
#X connect 13 2 27 0;
#X connect 13 2 27 1;
#X connect 13 3 34 0;
#X connect 13 4 45 0;
#X connect 13 4 45 1;
#X connect 13 5 46 0;
#X connect 13 5 46 1;
#X connect 14 0 15 0;
#X connect 16 0 13 1;
#X connect 19 0 17 0;
#X connect 20 0 18 0;
#X connect 21 0 42 0;
#X connect 21 1 43 0;
#X connect 23 0 22 0;
#X connect 24 0 25 0;
#X connect 25 0 26 0;
#X connect 27 0 30 0;
#X connect 27 1 31 0;
#X connect 29 0 28 0;
#X connect 34 0 32 0;
#X connect 34 1 33 0;
#X connect 36 0 35 0;
#X connect 41 0 8 0;
#X connect 41 1 9 0;
#X connect 45 0 37 0;
#X connect 45 1 38 0;
#X connect 46 0 49 0;
#X connect 46 1 50 0;
#X connect 48 0 47 0;
