#N canvas 269 58 933 558 10;
#N canvas 458 290 344 312 allpass100ms 0;
#X text 40 218 0 - 100 mSec allpass;
#X obj 37 29 inlet~;
#X obj 32 159 +~;
#X obj 59 114 *~;
#X obj 91 30 inlet;
#X text 37 10 sound;
#X text 95 9 time;
#X text 138 9 gain;
#X obj 138 115 *~;
#X obj 122 144 +~;
#X obj 192 201 outlet~;
#X obj 229 23 block~ 1;
#X obj 142 55 * -1;
#X obj 134 31 inlet;
#X obj 64 79 delread~ \$0-b-short;
#X obj 32 199 delwrite~ \$0-b-short 100;
#X connect 1 0 2 0;
#X connect 2 0 8 0;
#X connect 2 0 15 0;
#X connect 3 0 2 1;
#X connect 4 0 14 0;
#X connect 8 0 9 1;
#X connect 9 0 10 0;
#X connect 12 0 8 1;
#X connect 13 0 3 1;
#X connect 13 0 12 0;
#X connect 14 0 9 0;
#X connect 14 0 3 0;
#X restore 28 310 pd allpass100ms;
#N canvas 458 290 344 312 allpass100ms 0;
#X text 40 218 0 - 100 mSec allpass;
#X obj 37 29 inlet~;
#X obj 32 159 +~;
#X obj 59 114 *~;
#X obj 91 30 inlet;
#X text 37 10 sound;
#X text 95 9 time;
#X text 138 9 gain;
#X obj 138 115 *~;
#X obj 122 144 +~;
#X obj 192 201 outlet~;
#X obj 229 23 block~ 1;
#X obj 142 55 * -1;
#X obj 134 31 inlet;
#X obj 64 79 delread~ \$0-c-short;
#X obj 32 199 delwrite~ \$0-c-short 100;
#X connect 1 0 2 0;
#X connect 2 0 8 0;
#X connect 2 0 15 0;
#X connect 3 0 2 1;
#X connect 4 0 14 0;
#X connect 8 0 9 1;
#X connect 9 0 10 0;
#X connect 12 0 8 1;
#X connect 13 0 3 1;
#X connect 13 0 12 0;
#X connect 14 0 9 0;
#X connect 14 0 3 0;
#X restore 85 357 pd allpass100ms;
#N canvas 458 290 344 312 allpass100ms 0;
#X text 40 218 0 - 100 mSec allpass;
#X obj 37 29 inlet~;
#X obj 32 159 +~;
#X obj 59 114 *~;
#X obj 91 30 inlet;
#X text 37 10 sound;
#X text 95 9 time;
#X text 138 9 gain;
#X obj 138 115 *~;
#X obj 122 144 +~;
#X obj 192 201 outlet~;
#X obj 229 23 block~ 1;
#X obj 142 55 * -1;
#X obj 134 31 inlet;
#X obj 64 79 delread~ \$0-a-short;
#X obj 32 199 delwrite~ \$0-a-short 100;
#X connect 1 0 2 0;
#X connect 2 0 8 0;
#X connect 2 0 15 0;
#X connect 3 0 2 1;
#X connect 4 0 14 0;
#X connect 8 0 9 1;
#X connect 9 0 10 0;
#X connect 12 0 8 1;
#X connect 13 0 3 1;
#X connect 13 0 12 0;
#X connect 14 0 9 0;
#X connect 14 0 3 0;
#X restore 45 246 pd allpass100ms;
#N canvas 458 290 344 312 allpass100ms 0;
#X text 40 218 0 - 100 mSec allpass;
#X obj 37 29 inlet~;
#X obj 32 159 +~;
#X obj 59 114 *~;
#X obj 91 30 inlet;
#X text 37 10 sound;
#X text 95 9 time;
#X text 138 9 gain;
#X obj 138 115 *~;
#X obj 122 144 +~;
#X obj 192 201 outlet~;
#X obj 229 23 block~ 1;
#X obj 142 55 * -1;
#X obj 134 31 inlet;
#X obj 64 79 delread~ \$0-d-short;
#X obj 32 199 delwrite~ \$0-d-short 100;
#X connect 1 0 2 0;
#X connect 2 0 8 0;
#X connect 2 0 15 0;
#X connect 3 0 2 1;
#X connect 4 0 14 0;
#X connect 8 0 9 1;
#X connect 9 0 10 0;
#X connect 12 0 8 1;
#X connect 13 0 3 1;
#X connect 13 0 12 0;
#X connect 14 0 9 0;
#X connect 14 0 3 0;
#X restore 74 429 pd allpass100ms;
#X obj 49 39 inlet~;
#X obj 246 42 inlet;
#X obj 59 491 outlet~;
#X obj 29 355 +~;
#X obj 29 421 +~;
#X obj 59 455 +~;
#X obj 140 43 inlet;
#X obj 140 64 s \$0-time;
#X obj 246 63 s \$0-gain;
#X obj 261 170 r \$0-gain;
#X obj 88 226 * 3.595;
#X obj 71 290 * 4.771;
#X obj 128 335 * 9.307;
#X obj 117 407 * 12.73;
#X obj 197 170 r \$0-time;
#X obj 230 116 nbx 5 14 0 10000 0 0 \$0-time \$0-time time -27 7 0
10 -262144 -1 -1 13.1 256;
#X obj 230 132 nbx 5 14 0 0.99 0 0 \$0-gain \$0-gain gain -27 7 0 10
-262144 -1 -1 0.96 256;
#N canvas 458 290 344 312 allpass100ms 0;
#X text 40 218 0 - 100 mSec allpass;
#X obj 37 29 inlet~;
#X obj 32 159 +~;
#X obj 59 114 *~;
#X obj 91 30 inlet;
#X text 37 10 sound;
#X text 95 9 time;
#X text 138 9 gain;
#X obj 138 115 *~;
#X obj 122 144 +~;
#X obj 192 201 outlet~;
#X obj 229 23 block~ 1;
#X obj 142 55 * -1;
#X obj 134 31 inlet;
#X obj 64 79 delread~ \$0-f-short;
#X obj 32 199 delwrite~ \$0-f-short 100;
#X connect 1 0 2 0;
#X connect 2 0 8 0;
#X connect 2 0 15 0;
#X connect 3 0 2 1;
#X connect 4 0 14 0;
#X connect 8 0 9 1;
#X connect 9 0 10 0;
#X connect 12 0 8 1;
#X connect 13 0 3 1;
#X connect 13 0 12 0;
#X connect 14 0 9 0;
#X connect 14 0 3 0;
#X restore 301 310 pd allpass100ms;
#N canvas 458 290 344 312 allpass100ms 0;
#X text 40 218 0 - 100 mSec allpass;
#X obj 37 29 inlet~;
#X obj 32 159 +~;
#X obj 59 114 *~;
#X obj 91 30 inlet;
#X text 37 10 sound;
#X text 95 9 time;
#X text 138 9 gain;
#X obj 138 115 *~;
#X obj 122 144 +~;
#X obj 192 201 outlet~;
#X obj 229 23 block~ 1;
#X obj 142 55 * -1;
#X obj 134 31 inlet;
#X obj 64 79 delread~ \$0-g-short;
#X obj 33 199 delwrite~ \$0-g-short 100;
#X connect 1 0 2 0;
#X connect 2 0 8 0;
#X connect 2 0 15 0;
#X connect 3 0 2 1;
#X connect 4 0 14 0;
#X connect 8 0 9 1;
#X connect 9 0 10 0;
#X connect 12 0 8 1;
#X connect 13 0 3 1;
#X connect 13 0 12 0;
#X connect 14 0 9 0;
#X connect 14 0 3 0;
#X restore 358 357 pd allpass100ms;
#N canvas 458 290 344 312 allpass100ms 0;
#X text 40 218 0 - 100 mSec allpass;
#X obj 37 29 inlet~;
#X obj 32 159 +~;
#X obj 59 114 *~;
#X obj 91 30 inlet;
#X text 37 10 sound;
#X text 95 9 time;
#X text 138 9 gain;
#X obj 138 115 *~;
#X obj 122 144 +~;
#X obj 192 201 outlet~;
#X obj 229 23 block~ 1;
#X obj 142 55 * -1;
#X obj 134 31 inlet;
#X obj 64 79 delread~ \$0-e-short;
#X obj 32 199 delwrite~ \$0-e-short 100;
#X connect 1 0 2 0;
#X connect 2 0 8 0;
#X connect 2 0 15 0;
#X connect 3 0 2 1;
#X connect 4 0 14 0;
#X connect 8 0 9 1;
#X connect 9 0 10 0;
#X connect 12 0 8 1;
#X connect 13 0 3 1;
#X connect 13 0 12 0;
#X connect 14 0 9 0;
#X connect 14 0 3 0;
#X restore 318 246 pd allpass100ms;
#N canvas 458 290 344 312 allpass100ms 0;
#X text 40 218 0 - 100 mSec allpass;
#X obj 37 29 inlet~;
#X obj 32 159 +~;
#X obj 59 114 *~;
#X obj 91 30 inlet;
#X text 37 10 sound;
#X text 95 9 time;
#X text 138 9 gain;
#X obj 138 115 *~;
#X obj 122 144 +~;
#X obj 192 201 outlet~;
#X obj 229 23 block~ 1;
#X obj 142 55 * -1;
#X obj 134 31 inlet;
#X obj 32 199 delwrite~ \$0-h-short 100;
#X obj 64 79 delread~ \$0-h-short;
#X connect 1 0 2 0;
#X connect 2 0 8 0;
#X connect 2 0 14 0;
#X connect 3 0 2 1;
#X connect 4 0 15 0;
#X connect 8 0 9 1;
#X connect 9 0 10 0;
#X connect 12 0 8 1;
#X connect 13 0 3 1;
#X connect 13 0 12 0;
#X connect 15 0 9 0;
#X connect 15 0 3 0;
#X restore 347 429 pd allpass100ms;
#X obj 332 491 outlet~;
#X obj 302 355 +~;
#X obj 302 421 +~;
#X obj 332 455 +~;
#X obj 390 407 * 12.53;
#X obj 452 80 f;
#X obj 401 53 savestate;
#X obj 452 103 pack f f;
#X obj 401 124 unpack f f;
#X obj 401 153 s \$0-time;
#X obj 461 153 s \$0-gain;
#X obj 471 53 r \$0-time;
#X obj 531 53 r \$0-gain;
#X obj 261 190 clip 0 0.99;
#X obj 344 290 * 4.61;
#X obj 401 335 * 9.417;
#X obj 361 226 * 3.175;
#X obj 598 293 s \$0-time;
#X obj 658 293 s \$0-gain;
#X obj 598 272 route time gain;
#X obj 598 251 r \$0-preset;
#X text 717 30 presets;
#X msg 684 52 time 13.1 \, gain 0.96;
#X msg 684 72 time 20 \, gain 0.8;
#X obj 674 93 s \$0-preset;
#X connect 0 0 7 0;
#X connect 1 0 8 1;
#X connect 2 0 7 1;
#X connect 3 0 9 1;
#X connect 4 0 2 0;
#X connect 4 0 0 0;
#X connect 4 0 23 0;
#X connect 4 0 21 0;
#X connect 5 0 12 0;
#X connect 7 0 8 0;
#X connect 8 0 9 0;
#X connect 9 0 6 0;
#X connect 10 0 11 0;
#X connect 13 0 38 0;
#X connect 14 0 2 1;
#X connect 15 0 0 1;
#X connect 16 0 1 1;
#X connect 17 0 3 1;
#X connect 18 0 14 0;
#X connect 18 0 15 0;
#X connect 18 0 16 0;
#X connect 18 0 17 0;
#X connect 18 0 29 0;
#X connect 18 0 39 0;
#X connect 18 0 40 0;
#X connect 18 0 41 0;
#X connect 21 0 26 0;
#X connect 22 0 27 1;
#X connect 23 0 26 1;
#X connect 24 0 28 1;
#X connect 26 0 27 0;
#X connect 27 0 28 0;
#X connect 28 0 25 0;
#X connect 29 0 24 1;
#X connect 30 0 32 0;
#X connect 31 0 33 0;
#X connect 31 1 30 0;
#X connect 32 0 31 0;
#X connect 33 0 34 0;
#X connect 33 1 35 0;
#X connect 36 0 30 1;
#X connect 37 0 32 1;
#X connect 38 0 2 2;
#X connect 38 0 0 2;
#X connect 38 0 1 2;
#X connect 38 0 3 2;
#X connect 38 0 23 2;
#X connect 38 0 21 2;
#X connect 38 0 22 2;
#X connect 38 0 24 2;
#X connect 39 0 21 1;
#X connect 40 0 22 1;
#X connect 41 0 23 1;
#X connect 44 0 42 0;
#X connect 44 1 43 0;
#X connect 45 0 44 0;
#X connect 47 0 49 0;
#X connect 48 0 49 0;
#X coords 0 -1 1 1 86 48 1 200 100;
