#N canvas 428 109 956 567 10;
#X obj 238 256 +~;
#X obj 85 314 +~;
#X obj 240 318 +~;
#X obj 310 254 -~;
#X obj 338 254 -~;
#X obj 324 285 +~;
#N canvas 956 88 578 636 schroederreverb 0;
#X obj 31 39 inlet~;
#N canvas 863 218 344 312 allpass100ms 0;
#X obj 32 199 delwrite~ dzs3-short 100;
#X text 40 218 0 - 100 mSec allpass;
#X obj 37 29 inlet~;
#X obj 32 159 +~;
#X obj 59 114 *~;
#X obj 91 30 inlet;
#X text 37 10 sound;
#X text 95 9 time;
#X text 138 9 gain;
#X obj 138 115 *~;
#X obj 122 144 +~;
#X obj 192 201 outlet~;
#X text 143 258 djsajkdjsahdsk;
#X obj 64 79 delread~ dzs3-short;
#X obj 229 23 block~ 1;
#X obj 142 55 * -1;
#X obj 134 31 inlet;
#X connect 2 0 3 0;
#X connect 3 0 0 0;
#X connect 3 0 9 0;
#X connect 4 0 3 1;
#X connect 5 0 13 0;
#X connect 9 0 10 1;
#X connect 10 0 11 0;
#X connect 13 0 10 0;
#X connect 13 0 4 0;
#X connect 15 0 9 1;
#X connect 16 0 4 1;
#X connect 16 0 15 0;
#X restore 38 191 pd allpass100ms;
#X floatatom 134 118 5 -100 0 0 apgain - -;
#X floatatom 72 166 5 0 0 0 ap1delay - -;
#N canvas 863 218 344 312 allpass100ms 0;
#X obj 32 199 delwrite~ dzs4-short 100;
#X text 40 218 0 - 100 mSec allpass;
#X obj 37 29 inlet~;
#X obj 32 159 +~;
#X obj 59 114 *~;
#X obj 91 30 inlet;
#X text 37 10 sound;
#X text 95 9 time;
#X text 138 9 gain;
#X obj 138 115 *~;
#X obj 122 144 +~;
#X obj 192 201 outlet~;
#X text 143 258 djsajkdjsahdsk;
#X obj 64 79 delread~ dzs4-short;
#X obj 229 23 block~ 1;
#X obj 142 55 * -1;
#X obj 134 31 inlet;
#X connect 2 0 3 0;
#X connect 3 0 0 0;
#X connect 3 0 9 0;
#X connect 4 0 3 1;
#X connect 5 0 13 0;
#X connect 9 0 10 1;
#X connect 10 0 11 0;
#X connect 13 0 10 0;
#X connect 13 0 4 0;
#X connect 15 0 9 1;
#X connect 16 0 4 1;
#X connect 16 0 15 0;
#X restore 40 266 pd allpass100ms;
#X floatatom 73 242 5 0 0 0 ap2delay - -;
#N canvas 755 324 239 224 comb100ms 0;
#X obj 100 83 delread~ dzs5-med;
#X obj 24 190 delwrite~ dzs5-med 100;
#X obj 12 35 inlet~;
#X obj 29 152 +~;
#X obj 67 116 *~;
#X obj 72 36 inlet;
#X obj 119 36 inlet;
#X obj 168 190 outlet~;
#X text 9 8 audio;
#X text 71 9 delay;
#X text 120 8 gain;
#X connect 0 0 4 1;
#X connect 0 0 7 0;
#X connect 2 0 3 0;
#X connect 3 0 1 0;
#X connect 4 0 3 1;
#X connect 5 0 0 0;
#X connect 6 0 4 0;
#X restore 40 522 pd comb100ms;
#X obj 40 548 outlet~;
#N canvas 755 324 239 224 comb100ms 0;
#X obj 100 83 delread~ dzs6-med;
#X obj 24 190 delwrite~ dzs6-med 100;
#X obj 12 35 inlet~;
#X obj 29 152 +~;
#X obj 67 116 *~;
#X obj 72 36 inlet;
#X obj 119 36 inlet;
#X obj 168 190 outlet~;
#X text 9 8 audio;
#X text 71 9 delay;
#X text 120 8 gain;
#X connect 0 0 4 1;
#X connect 0 0 7 0;
#X connect 2 0 3 0;
#X connect 3 0 1 0;
#X connect 4 0 3 1;
#X connect 5 0 0 0;
#X connect 6 0 4 0;
#X restore 138 521 pd comb100ms;
#X obj 138 547 outlet~;
#N canvas 755 324 239 224 comb100ms 0;
#X obj 100 83 delread~ dzs7-med;
#X obj 24 190 delwrite~ dzs7-med 100;
#X obj 12 35 inlet~;
#X obj 29 152 +~;
#X obj 67 116 *~;
#X obj 72 36 inlet;
#X obj 119 36 inlet;
#X obj 168 190 outlet~;
#X text 9 8 audio;
#X text 71 9 delay;
#X text 120 8 gain;
#X connect 0 0 4 1;
#X connect 0 0 7 0;
#X connect 2 0 3 0;
#X connect 3 0 1 0;
#X connect 4 0 3 1;
#X connect 5 0 0 0;
#X connect 6 0 4 0;
#X restore 229 521 pd comb100ms;
#X obj 229 547 outlet~;
#N canvas 755 324 239 224 comb100ms 0;
#X obj 100 83 delread~ dzs8-med;
#X obj 24 190 delwrite~ dzs8-med 100;
#X obj 12 35 inlet~;
#X obj 29 152 +~;
#X obj 67 116 *~;
#X obj 72 36 inlet;
#X obj 119 36 inlet;
#X obj 168 190 outlet~;
#X text 9 8 audio;
#X text 71 9 delay;
#X text 120 8 gain;
#X connect 0 0 4 1;
#X connect 0 0 7 0;
#X connect 2 0 3 0;
#X connect 3 0 1 0;
#X connect 4 0 3 1;
#X connect 5 0 0 0;
#X connect 6 0 4 0;
#X restore 329 521 pd comb100ms;
#X obj 329 546 outlet~;
#X floatatom 65 334 5 0 0 0 cm1delay - -;
#X floatatom 163 334 5 0 0 0 cm2delay - -;
#X floatatom 254 333 5 0 0 0 cm3delay - -;
#X floatatom 358 334 5 0 0 0 cm4delay - -;
#X msg 73 220 5;
#X msg 71 141 1.7;
#X msg 64 310 29.7;
#X msg 163 311 37.1;
#X msg 254 312 41.1;
#X msg 357 313 43.7;
#X obj 380 498 dbtorms;
#X obj 134 162 dbtorms;
#X text 283 284 -60*looptime/reverbtime=gain;
#X obj 378 362 * -60;
#X floatatom 380 383 5 0 0 0 - - -;
#X obj 380 434 /;
#X floatatom 243 194 5 0 0 0 reverbtime-ms - -;
#X obj 369 410 t b f;
#X obj 379 456 + 100;
#X floatatom 380 478 5 0 0 0 - - -;
#X obj 279 499 dbtorms;
#X obj 273 361 * -60;
#X floatatom 275 384 5 0 0 0 - - -;
#X obj 278 435 /;
#X obj 268 411 t b f;
#X obj 278 456 + 100;
#X floatatom 279 478 5 0 0 0 - - -;
#X obj 189 498 dbtorms;
#X obj 187 358 * -60;
#X floatatom 188 382 5 0 0 0 - - -;
#X obj 187 431 /;
#X obj 176 407 t b f;
#X obj 187 452 + 100;
#X floatatom 188 475 5 0 0 0 - - -;
#X obj 91 498 dbtorms;
#X obj 90 358 * -60;
#X floatatom 92 379 5 0 0 0 - - -;
#X obj 92 428 /;
#X obj 83 405 t b f;
#X obj 91 452 + 100;
#X floatatom 91 476 5 0 0 0 - - -;
#X obj 134 140 + 100;
#X obj 115 39 loadbang;
#X obj 182 39 inlet;
#X obj 277 100 t b b;
#X obj 250 39 inlet;
#X connect 0 0 1 0;
#X connect 1 0 4 0;
#X connect 2 0 55 0;
#X connect 3 0 1 1;
#X connect 4 0 6 0;
#X connect 4 0 8 0;
#X connect 4 0 10 0;
#X connect 4 0 12 0;
#X connect 5 0 4 1;
#X connect 6 0 7 0;
#X connect 8 0 9 0;
#X connect 10 0 11 0;
#X connect 12 0 13 0;
#X connect 14 0 6 1;
#X connect 14 0 49 0;
#X connect 15 0 8 1;
#X connect 15 0 42 0;
#X connect 16 0 10 1;
#X connect 16 0 35 0;
#X connect 17 0 12 1;
#X connect 17 0 27 0;
#X connect 18 0 5 0;
#X connect 19 0 3 0;
#X connect 20 0 14 0;
#X connect 21 0 15 0;
#X connect 22 0 16 0;
#X connect 23 0 17 0;
#X connect 24 0 12 2;
#X connect 25 0 1 2;
#X connect 25 0 4 2;
#X connect 27 0 28 0;
#X connect 28 0 29 0;
#X connect 29 0 32 0;
#X connect 30 0 31 0;
#X connect 30 0 38 0;
#X connect 30 0 45 0;
#X connect 30 0 52 0;
#X connect 31 0 29 0;
#X connect 31 1 29 1;
#X connect 32 0 33 0;
#X connect 33 0 24 0;
#X connect 34 0 10 2;
#X connect 35 0 36 0;
#X connect 36 0 37 0;
#X connect 37 0 39 0;
#X connect 38 0 37 0;
#X connect 38 1 37 1;
#X connect 39 0 40 0;
#X connect 40 0 34 0;
#X connect 41 0 8 2;
#X connect 42 0 43 0;
#X connect 43 0 44 0;
#X connect 44 0 46 0;
#X connect 45 0 44 0;
#X connect 45 1 44 1;
#X connect 46 0 47 0;
#X connect 47 0 41 0;
#X connect 48 0 6 2;
#X connect 49 0 50 0;
#X connect 50 0 51 0;
#X connect 51 0 53 0;
#X connect 52 0 51 0;
#X connect 52 1 51 1;
#X connect 53 0 54 0;
#X connect 54 0 48 0;
#X connect 55 0 25 0;
#X connect 56 0 19 0;
#X connect 56 0 18 0;
#X connect 56 0 58 0;
#X connect 57 0 30 0;
#X connect 58 1 23 0;
#X connect 58 1 22 0;
#X connect 58 1 21 0;
#X connect 58 1 20 0;
#X connect 59 0 2 0;
#X coords 0 0 1 1 140 100 0;
#X restore 252 209 pd schroederreverb;
#X obj 267 255 +~;
#X obj 246 286 +~;
#X obj 71 255 +~;
#X obj 143 253 -~;
#X obj 180 254 -~;
#X obj 157 284 +~;
#N canvas 1163 318 518 562 schroederreverb 0;
#X obj 31 19 inlet~;
#N canvas 863 218 344 312 allpass100ms 0;
#X obj 32 199 delwrite~ dzs9-short 100;
#X text 40 218 0 - 100 mSec allpass;
#X obj 37 29 inlet~;
#X obj 32 159 +~;
#X obj 59 114 *~;
#X obj 91 30 inlet;
#X text 37 10 sound;
#X text 95 9 time;
#X text 138 9 gain;
#X obj 138 115 *~;
#X obj 122 144 +~;
#X obj 192 201 outlet~;
#X text 143 258 djsajkdjsahdsk;
#X obj 64 79 delread~ dzs9-short;
#X obj 229 23 block~ 1;
#X obj 142 55 * -1;
#X obj 134 31 inlet;
#X connect 2 0 3 0;
#X connect 3 0 0 0;
#X connect 3 0 9 0;
#X connect 4 0 3 1;
#X connect 5 0 13 0;
#X connect 9 0 10 1;
#X connect 10 0 11 0;
#X connect 13 0 10 0;
#X connect 13 0 4 0;
#X connect 15 0 9 1;
#X connect 16 0 4 1;
#X connect 16 0 15 0;
#X restore 38 171 pd allpass100ms;
#X floatatom 134 98 5 -100 0 0 apgain - -;
#X floatatom 72 146 5 0 0 0 ap1delay - -;
#N canvas 863 218 344 312 allpass100ms 0;
#X obj 32 199 delwrite~ dzs10-short 100;
#X text 40 218 0 - 100 mSec allpass;
#X obj 37 29 inlet~;
#X obj 32 159 +~;
#X obj 59 114 *~;
#X obj 91 30 inlet;
#X text 37 10 sound;
#X text 95 9 time;
#X text 138 9 gain;
#X obj 138 115 *~;
#X obj 122 144 +~;
#X obj 192 201 outlet~;
#X text 143 258 djsajkdjsahdsk;
#X obj 64 79 delread~ dzs10-short;
#X obj 229 23 block~ 1;
#X obj 142 55 * -1;
#X obj 134 31 inlet;
#X connect 2 0 3 0;
#X connect 3 0 0 0;
#X connect 3 0 9 0;
#X connect 4 0 3 1;
#X connect 5 0 13 0;
#X connect 9 0 10 1;
#X connect 10 0 11 0;
#X connect 13 0 10 0;
#X connect 13 0 4 0;
#X connect 15 0 9 1;
#X connect 16 0 4 1;
#X connect 16 0 15 0;
#X restore 40 246 pd allpass100ms;
#X floatatom 73 222 5 0 0 0 ap2delay - -;
#N canvas 755 324 239 224 comb100ms 0;
#X obj 100 83 delread~ dzs11-med;
#X obj 24 190 delwrite~ dzs11-med 100;
#X obj 12 35 inlet~;
#X obj 29 152 +~;
#X obj 67 116 *~;
#X obj 72 36 inlet;
#X obj 119 36 inlet;
#X obj 168 190 outlet~;
#X text 9 8 audio;
#X text 71 9 delay;
#X text 120 8 gain;
#X connect 0 0 4 1;
#X connect 0 0 7 0;
#X connect 2 0 3 0;
#X connect 3 0 1 0;
#X connect 4 0 3 1;
#X connect 5 0 0 0;
#X connect 6 0 4 0;
#X restore 40 502 pd comb100ms;
#X obj 40 528 outlet~;
#N canvas 755 324 239 224 comb100ms 0;
#X obj 100 83 delread~ dzs12-med;
#X obj 24 190 delwrite~ dzs12-med 100;
#X obj 12 35 inlet~;
#X obj 29 152 +~;
#X obj 67 116 *~;
#X obj 72 36 inlet;
#X obj 119 36 inlet;
#X obj 168 190 outlet~;
#X text 9 8 audio;
#X text 71 9 delay;
#X text 120 8 gain;
#X connect 0 0 4 1;
#X connect 0 0 7 0;
#X connect 2 0 3 0;
#X connect 3 0 1 0;
#X connect 4 0 3 1;
#X connect 5 0 0 0;
#X connect 6 0 4 0;
#X restore 138 501 pd comb100ms;
#X obj 138 527 outlet~;
#N canvas 755 324 239 224 comb100ms 0;
#X obj 100 83 delread~ dzs13-med;
#X obj 24 190 delwrite~ dzs13-med 100;
#X obj 12 35 inlet~;
#X obj 29 152 +~;
#X obj 67 116 *~;
#X obj 72 36 inlet;
#X obj 119 36 inlet;
#X obj 168 190 outlet~;
#X text 9 8 audio;
#X text 71 9 delay;
#X text 120 8 gain;
#X connect 0 0 4 1;
#X connect 0 0 7 0;
#X connect 2 0 3 0;
#X connect 3 0 1 0;
#X connect 4 0 3 1;
#X connect 5 0 0 0;
#X connect 6 0 4 0;
#X restore 229 501 pd comb100ms;
#X obj 229 527 outlet~;
#N canvas 755 324 239 224 comb100ms 0;
#X obj 100 83 delread~ dzs14-med;
#X obj 24 190 delwrite~ dzs14-med 100;
#X obj 12 35 inlet~;
#X obj 29 152 +~;
#X obj 67 116 *~;
#X obj 72 36 inlet;
#X obj 119 36 inlet;
#X obj 168 190 outlet~;
#X text 9 8 audio;
#X text 71 9 delay;
#X text 120 8 gain;
#X connect 0 0 4 1;
#X connect 0 0 7 0;
#X connect 2 0 3 0;
#X connect 3 0 1 0;
#X connect 4 0 3 1;
#X connect 5 0 0 0;
#X connect 6 0 4 0;
#X restore 329 501 pd comb100ms;
#X obj 329 526 outlet~;
#X floatatom 65 314 5 0 0 0 cm1delay - -;
#X floatatom 163 314 5 0 0 0 cm2delay - -;
#X floatatom 254 313 5 0 0 0 cm3delay - -;
#X floatatom 358 314 5 0 0 0 cm4delay - -;
#X msg 73 200 5;
#X msg 71 121 1.7;
#X msg 64 290 29.7;
#X msg 163 291 37.1;
#X msg 254 292 41.1;
#X msg 357 293 43.7;
#X obj 380 478 dbtorms;
#X obj 134 142 dbtorms;
#X text 283 264 -60*looptime/reverbtime=gain;
#X obj 378 342 * -60;
#X floatatom 380 363 5 0 0 0 - - -;
#X obj 380 414 /;
#X floatatom 241 210 5 0 0 0 reverbtime-ms - -;
#X obj 369 390 t b f;
#X obj 379 436 + 100;
#X floatatom 380 458 5 0 0 0 - - -;
#X obj 279 479 dbtorms;
#X obj 273 341 * -60;
#X floatatom 275 364 5 0 0 0 - - -;
#X obj 278 415 /;
#X obj 268 391 t b f;
#X obj 278 436 + 100;
#X floatatom 279 458 5 0 0 0 - - -;
#X obj 189 478 dbtorms;
#X obj 187 338 * -60;
#X floatatom 188 362 5 0 0 0 - - -;
#X obj 187 411 /;
#X obj 176 387 t b f;
#X obj 187 432 + 100;
#X floatatom 188 455 5 0 0 0 - - -;
#X obj 91 478 dbtorms;
#X obj 90 338 * -60;
#X floatatom 92 359 5 0 0 0 - - -;
#X obj 92 408 /;
#X obj 83 385 t b f;
#X obj 91 432 + 100;
#X floatatom 91 456 5 0 0 0 - - -;
#X obj 134 120 + 100;
#X obj 115 19 loadbang;
#X obj 182 19 inlet;
#X obj 277 80 t b b;
#X obj 250 19 inlet;
#X connect 0 0 1 0;
#X connect 1 0 4 0;
#X connect 2 0 55 0;
#X connect 3 0 1 1;
#X connect 4 0 6 0;
#X connect 4 0 8 0;
#X connect 4 0 10 0;
#X connect 4 0 12 0;
#X connect 5 0 4 1;
#X connect 6 0 7 0;
#X connect 8 0 9 0;
#X connect 10 0 11 0;
#X connect 12 0 13 0;
#X connect 14 0 6 1;
#X connect 14 0 49 0;
#X connect 15 0 8 1;
#X connect 15 0 42 0;
#X connect 16 0 10 1;
#X connect 16 0 35 0;
#X connect 17 0 12 1;
#X connect 17 0 27 0;
#X connect 18 0 5 0;
#X connect 19 0 3 0;
#X connect 20 0 14 0;
#X connect 21 0 15 0;
#X connect 22 0 16 0;
#X connect 23 0 17 0;
#X connect 24 0 12 2;
#X connect 25 0 1 2;
#X connect 25 0 4 2;
#X connect 27 0 28 0;
#X connect 28 0 29 0;
#X connect 29 0 32 0;
#X connect 30 0 31 0;
#X connect 30 0 38 0;
#X connect 30 0 45 0;
#X connect 30 0 52 0;
#X connect 31 0 29 0;
#X connect 31 1 29 1;
#X connect 32 0 33 0;
#X connect 33 0 24 0;
#X connect 34 0 10 2;
#X connect 35 0 36 0;
#X connect 36 0 37 0;
#X connect 37 0 39 0;
#X connect 38 0 37 0;
#X connect 38 1 37 1;
#X connect 39 0 40 0;
#X connect 40 0 34 0;
#X connect 41 0 8 2;
#X connect 42 0 43 0;
#X connect 43 0 44 0;
#X connect 44 0 46 0;
#X connect 45 0 44 0;
#X connect 45 1 44 1;
#X connect 46 0 47 0;
#X connect 47 0 41 0;
#X connect 48 0 6 2;
#X connect 49 0 50 0;
#X connect 50 0 51 0;
#X connect 51 0 53 0;
#X connect 52 0 51 0;
#X connect 52 1 51 1;
#X connect 53 0 54 0;
#X connect 54 0 48 0;
#X connect 55 0 25 0;
#X connect 56 0 19 0;
#X connect 56 0 18 0;
#X connect 56 0 58 0;
#X connect 57 0 30 0;
#X connect 58 1 23 0;
#X connect 58 1 22 0;
#X connect 58 1 21 0;
#X connect 58 1 20 0;
#X connect 59 0 2 0;
#X coords 0 0 1 1 140 100 0;
#X restore 85 208 pd schroederreverb;
#X obj 100 254 +~;
#X obj 79 285 +~;
#X floatatom 202 82 5 1 5000 0 reverbtimems - -;
#X floatatom 190 169 5 -100 0 0 allpassgain - -;
#X obj 241 403 *~ 0.25;
#X obj 84 397 *~ 0.25;
#X obj 31 92 inlet~;
#X obj 77 92 inlet~;
#X obj 84 494 outlet~;
#X obj 241 491 outlet~;
#X obj 49 14 nbx 5 14 0 10000 0 0 \$0-time \$0-time time -27 7 0 10
-262144 -1 -1 4943 256;
#X obj 49 32 nbx 5 14 0 1 0 0 \$0-ap_gain \$0-ap_gain ap_gain -45 7
0 10 -262144 -1 -1 0.47 256;
#X obj 325 47 r \$0-ap_gain;
#X obj 202 59 r \$0-time;
#X obj 325 68 clip 0 1;
#X obj 325 87 expr $f1 * 22 - 22;
#X obj 462 49 inlet;
#X obj 462 70 s \$0-time;
#X obj 522 49 inlet;
#X obj 522 70 s \$0-ap_gain;
#X obj 468 232 f;
#X obj 417 205 savestate;
#X obj 468 253 pack f f;
#X obj 417 278 unpack f f;
#X obj 417 304 s \$0-time;
#X obj 477 304 s \$0-ap_gain;
#X obj 483 205 r \$0-time;
#X obj 543 205 r \$0-ap_gain;
#X obj 473 131 route time ap_gain;
#X obj 473 152 s \$0-time;
#X obj 533 152 s \$0-ap_gain;
#X obj 473 110 r \$0-preset;
#X obj 708 96 s \$0-preset;
#X text 740 36 presets;
#X msg 718 55 time 1000 \, ap_gain 0.9;
#X msg 718 75 time 2000 \, ap_gain 0.8;
#X obj 171 355 ii 0.05;
#X connect 0 0 8 0;
#X connect 1 0 19 0;
#X connect 2 0 18 0;
#X connect 3 0 5 0;
#X connect 4 0 5 1;
#X connect 5 0 1 1;
#X connect 6 0 0 0;
#X connect 6 0 3 0;
#X connect 6 1 3 1;
#X connect 6 1 0 1;
#X connect 6 2 4 0;
#X connect 6 2 7 0;
#X connect 6 3 4 1;
#X connect 6 3 7 1;
#X connect 7 0 8 1;
#X connect 8 0 2 1;
#X connect 9 0 15 0;
#X connect 10 0 12 0;
#X connect 11 0 12 1;
#X connect 12 0 2 0;
#X connect 13 0 9 0;
#X connect 13 0 10 0;
#X connect 13 1 10 1;
#X connect 13 1 9 1;
#X connect 13 2 11 0;
#X connect 13 2 14 0;
#X connect 13 3 11 1;
#X connect 13 3 14 1;
#X connect 14 0 15 1;
#X connect 15 0 1 0;
#X connect 16 0 6 1;
#X connect 16 0 13 1;
#X connect 17 0 6 2;
#X connect 17 0 13 2;
#X connect 18 0 23 0;
#X connect 19 0 22 0;
#X connect 20 0 13 0;
#X connect 21 0 6 0;
#X connect 26 0 28 0;
#X connect 27 0 16 0;
#X connect 28 0 29 0;
#X connect 29 0 17 0;
#X connect 30 0 31 0;
#X connect 32 0 33 0;
#X connect 34 0 36 0;
#X connect 35 0 37 0;
#X connect 35 1 34 0;
#X connect 36 0 35 0;
#X connect 37 0 38 0;
#X connect 37 1 39 0;
#X connect 40 0 34 1;
#X connect 41 0 36 1;
#X connect 42 0 43 0;
#X connect 42 1 44 0;
#X connect 45 0 42 0;
#X connect 48 0 46 0;
#X connect 49 0 46 0;
#X connect 50 0 19 1;
#X connect 50 0 18 1;
#X coords 0 -1 1 1 106 49 1 0 0;
