#N canvas 87 46 1287 947 10;
#X obj 27 307 delwrite~ \$0-main 500;
#X obj 479 413 delread~ \$0-main 60;
#X obj 633 413 delread~ \$0-main 77;
#X obj 515 452 delread~ \$0-main 137;
#X obj 669 453 delread~ \$0-main 112;
#X obj 551 492 delread~ \$0-main 175;
#X obj 705 492 delread~ \$0-main 160;
#X obj 587 531 delread~ \$0-main 190;
#X obj 741 532 delread~ \$0-main 212;
#X obj 27 416 vd~ \$0-main;
#X floatatom 27 375 5 0 0 0 - - -;
#X obj 27 395 +~;
#X obj 65 376 *~ 4;
#X msg 27 355 47;
#X obj 64 352 osc~ 0.666;
#X obj 26 330 loadbang;
#X obj 26 438 throw~ \$0-fbsum;
#X obj 170 211 catch~ \$0-fbsum;
#X obj 135 416 vd~ \$0-main;
#X floatatom 135 375 5 0 0 0 - - -;
#X obj 135 395 +~;
#X obj 173 376 *~ 4;
#X obj 172 352 osc~ 0.666;
#X obj 134 330 loadbang;
#X obj 134 438 throw~ \$0-fbsum;
#X obj 241 417 vd~ \$0-main;
#X floatatom 241 376 5 0 0 0 - - -;
#X obj 241 396 +~;
#X obj 279 377 *~ 4;
#X obj 240 331 loadbang;
#X obj 240 439 throw~ \$0-fbsum;
#X obj 347 417 vd~ \$0-main;
#X floatatom 347 376 5 0 0 0 - - -;
#X obj 347 396 +~;
#X obj 385 377 *~ 4;
#X obj 346 331 loadbang;
#X obj 346 439 throw~ \$0-fbsum;
#X obj 32 545 vd~ \$0-main;
#X floatatom 32 504 5 0 0 0 - - -;
#X obj 32 524 +~;
#X obj 70 505 *~ 4;
#X obj 31 459 loadbang;
#X obj 31 567 throw~ \$0-fbsum;
#X obj 140 545 vd~ \$0-main;
#X floatatom 140 504 5 0 0 0 - - -;
#X obj 140 524 +~;
#X obj 178 505 *~ 4;
#X obj 139 459 loadbang;
#X obj 139 567 throw~ \$0-fbsum;
#X obj 246 546 vd~ \$0-main;
#X floatatom 246 505 5 0 0 0 - - -;
#X obj 246 525 +~;
#X obj 284 506 *~ 4;
#X obj 245 460 loadbang;
#X obj 245 568 throw~ \$0-fbsum;
#X obj 352 546 vd~ \$0-main;
#X floatatom 352 505 5 0 0 0 - - -;
#X obj 352 525 +~;
#X obj 390 506 *~ 4;
#X obj 351 460 loadbang;
#X obj 351 568 throw~ \$0-fbsum;
#X obj 35 675 vd~ \$0-main;
#X floatatom 35 634 5 0 0 0 - - -;
#X obj 35 654 +~;
#X obj 73 635 *~ 4;
#X obj 34 589 loadbang;
#X obj 34 697 throw~ \$0-fbsum;
#X obj 143 675 vd~ \$0-main;
#X floatatom 143 634 5 0 0 0 - - -;
#X obj 143 654 +~;
#X obj 181 635 *~ 4;
#X obj 142 589 loadbang;
#X obj 142 697 throw~ \$0-fbsum;
#X obj 249 676 vd~ \$0-main;
#X floatatom 249 635 5 0 0 0 - - -;
#X obj 249 655 +~;
#X obj 287 636 *~ 4;
#X obj 248 590 loadbang;
#X obj 248 698 throw~ \$0-fbsum;
#X obj 355 676 vd~ \$0-main;
#X floatatom 355 635 5 0 0 0 - - -;
#X obj 355 655 +~;
#X obj 393 636 *~ 4;
#X obj 354 590 loadbang;
#X obj 354 698 throw~ \$0-fbsum;
#X obj 38 804 vd~ \$0-main;
#X floatatom 38 763 5 0 0 0 - - -;
#X obj 38 783 +~;
#X obj 76 764 *~ 4;
#X obj 37 718 loadbang;
#X obj 37 826 throw~ \$0-fbsum;
#X obj 146 804 vd~ \$0-main;
#X floatatom 146 763 5 0 0 0 - - -;
#X obj 146 783 +~;
#X obj 184 764 *~ 4;
#X obj 145 718 loadbang;
#X obj 145 826 throw~ \$0-fbsum;
#X obj 252 805 vd~ \$0-main;
#X floatatom 252 764 5 0 0 0 - - -;
#X obj 252 784 +~;
#X obj 290 765 *~ 4;
#X obj 251 719 loadbang;
#X obj 251 827 throw~ \$0-fbsum;
#X obj 358 805 vd~ \$0-main;
#X floatatom 358 764 5 0 0 0 - - -;
#X obj 358 784 +~;
#X obj 396 765 *~ 4;
#X obj 357 719 loadbang;
#X obj 357 827 throw~ \$0-fbsum;
#X msg 135 355 120;
#X msg 241 356 134;
#X msg 347 356 146;
#X msg 32 484 158;
#X msg 140 484 169;
#X msg 246 485 180;
#X msg 352 485 190;
#X msg 35 614 200;
#X msg 143 614 209;
#X msg 249 615 217;
#X msg 355 615 225;
#X msg 38 743 233;
#X msg 146 743 240;
#X msg 252 745 244;
#X msg 358 744 247;
#X obj 278 353 osc~ 0.625;
#X obj 384 353 osc~ 0.625;
#X obj 69 481 osc~ 0.555;
#X obj 177 481 osc~ 0.555;
#X obj 283 482 osc~ 0.476;
#X obj 389 482 osc~ 0.476;
#X obj 72 611 osc~ 0.435;
#X obj 180 611 osc~ 0.435;
#X obj 286 612 osc~ 0.303;
#X obj 392 612 osc~ 0.303;
#X obj 75 740 osc~ 0.181;
#X obj 183 740 osc~ 0.181;
#X obj 289 741 osc~ 0.122;
#X obj 395 741 osc~ 0.122;
#X obj 171 236 *~ 0.0625;
#X obj 171 260 lop~ 2000;
#X obj 171 281 hip~ 20;
#X floatatom 233 166 5 0 0 0 fblp - -;
#X floatatom 303 166 5 0 0 0 fbhp - -;
#X floatatom 374 206 5 0 0 0 fbgain - -;
#X obj 25 234 hip~ 20;
#X obj 27 73 inlet~;
#X obj 26 205 lop~ 20000;
#X obj 93 75 inlet;
#X obj 25 280 +~;
#X floatatom 93 166 5 0 0 0 lp - -;
#X obj 163 75 inlet;
#X floatatom 163 166 5 0 0 0 hp - -;
#X obj 233 75 inlet;
#X obj 303 75 inlet;
#X obj 373 75 inlet;
#X obj 172 305 *~ 0.1;
#X obj 479 478 +~;
#X obj 537 530 +~;
#X obj 572 568 +~;
#X obj 571 608 *~ 0.25;
#X obj 640 471 +~;
#X obj 677 512 +~;
#X obj 714 567 +~;
#X obj 717 609 *~ 0.25;
#X obj 573 653 outlet~;
#X obj 717 652 outlet~;
#X obj 93 94 s \$0-inlp;
#X obj 163 94 s \$0-inhp;
#X obj 233 94 s \$0-fblp;
#X obj 303 94 s \$0-fbhp;
#X obj 373 94 s \$0-fbgain;
#X obj 93 146 r \$0-inlp;
#X obj 163 146 r \$0-inhp;
#X obj 233 146 r \$0-fblp;
#X obj 303 146 r \$0-fbhp;
#X obj 373 146 r \$0-fbgain;
#X obj 553 326 nbx 5 14 0 20000 0 0 \$0-inlp \$0-inlp inlp 0 -8 0 10
-262144 -1 -1 20000 256;
#X obj 553 356 nbx 5 14 0 20000 0 0 \$0-inhp \$0-inhp inhp 0 -8 0 10
-262144 -1 -1 5 256;
#X obj 613 326 nbx 5 14 0 20000 0 0 \$0-fblp \$0-fblp fblp 0 -8 0 10
-262144 -1 -1 20000 256;
#X obj 613 356 nbx 5 14 0 20000 0 0 \$0-fbhp \$0-fbhp fbhp 0 -8 0 10
-262144 -1 -1 6 256;
#X obj 673 326 nbx 5 14 0 1 0 0 \$0-fbgain \$0-fbgain fbgain 0 -8 0
10 -262144 -1 -1 0.97 256;
#X obj 910 126 f;
#X obj 859 101 savestate;
#X obj 859 215 s \$0-inlp;
#X obj 929 215 s \$0-inhp;
#X obj 999 215 s \$0-fblp;
#X obj 1069 215 s \$0-fbhp;
#X obj 1139 215 s \$0-fbgain;
#X obj 859 174 unpack f f f f f;
#X obj 925 101 r \$0-inlp;
#X obj 995 101 r \$0-inhp;
#X obj 1065 101 r \$0-fblp;
#X obj 1135 101 r \$0-fbhp;
#X obj 1205 101 r \$0-fbgain;
#X obj 910 149 pack f f f f f;
#X obj 374 166 clip 0 1;
#X obj 374 186 * 2.7;
#X obj 858 289 route inlp inhp fblp fbhp fbgain;
#X obj 828 315 s \$0-inlp;
#X obj 898 315 s \$0-inhp;
#X obj 968 315 s \$0-fblp;
#X obj 1038 315 s \$0-fbhp;
#X obj 1108 315 s \$0-fbgain;
#X obj 510 149 s \$0-preset;
#X obj 858 268 r \$0-preset;
#X msg 520 108 inlp 20000 \, inhp 4 \, fblp 2000 \, fbhp 5 \, fbgain
0.86;
#X text 523 87 presets;
#X msg 520 128 inlp 2000 \, inhp 400 \, fblp 1800 \, fbhp 6 \, fbgain
0.9;
#X obj 654 599 ii 0.15;
#X connect 1 0 156 0;
#X connect 2 0 160 0;
#X connect 3 0 156 1;
#X connect 4 0 160 1;
#X connect 5 0 157 1;
#X connect 6 0 161 1;
#X connect 7 0 158 1;
#X connect 8 0 162 1;
#X connect 9 0 16 0;
#X connect 10 0 11 0;
#X connect 11 0 9 0;
#X connect 12 0 11 1;
#X connect 13 0 10 0;
#X connect 14 0 12 0;
#X connect 15 0 13 0;
#X connect 17 0 138 0;
#X connect 18 0 24 0;
#X connect 19 0 20 0;
#X connect 20 0 18 0;
#X connect 21 0 20 1;
#X connect 22 0 21 0;
#X connect 23 0 109 0;
#X connect 25 0 30 0;
#X connect 26 0 27 0;
#X connect 27 0 25 0;
#X connect 28 0 27 1;
#X connect 29 0 110 0;
#X connect 31 0 36 0;
#X connect 32 0 33 0;
#X connect 33 0 31 0;
#X connect 34 0 33 1;
#X connect 35 0 111 0;
#X connect 37 0 42 0;
#X connect 38 0 39 0;
#X connect 39 0 37 0;
#X connect 40 0 39 1;
#X connect 41 0 112 0;
#X connect 43 0 48 0;
#X connect 44 0 45 0;
#X connect 45 0 43 0;
#X connect 46 0 45 1;
#X connect 47 0 113 0;
#X connect 49 0 54 0;
#X connect 50 0 51 0;
#X connect 51 0 49 0;
#X connect 52 0 51 1;
#X connect 53 0 114 0;
#X connect 55 0 60 0;
#X connect 56 0 57 0;
#X connect 57 0 55 0;
#X connect 58 0 57 1;
#X connect 59 0 115 0;
#X connect 61 0 66 0;
#X connect 62 0 63 0;
#X connect 63 0 61 0;
#X connect 64 0 63 1;
#X connect 65 0 116 0;
#X connect 67 0 72 0;
#X connect 68 0 69 0;
#X connect 69 0 67 0;
#X connect 70 0 69 1;
#X connect 71 0 117 0;
#X connect 73 0 78 0;
#X connect 74 0 75 0;
#X connect 75 0 73 0;
#X connect 76 0 75 1;
#X connect 77 0 118 0;
#X connect 79 0 84 0;
#X connect 80 0 81 0;
#X connect 81 0 79 0;
#X connect 82 0 81 1;
#X connect 83 0 119 0;
#X connect 85 0 90 0;
#X connect 86 0 87 0;
#X connect 87 0 85 0;
#X connect 88 0 87 1;
#X connect 89 0 120 0;
#X connect 91 0 96 0;
#X connect 92 0 93 0;
#X connect 93 0 91 0;
#X connect 94 0 93 1;
#X connect 95 0 121 0;
#X connect 97 0 102 0;
#X connect 98 0 99 0;
#X connect 99 0 97 0;
#X connect 100 0 99 1;
#X connect 101 0 122 0;
#X connect 103 0 108 0;
#X connect 104 0 105 0;
#X connect 105 0 103 0;
#X connect 106 0 105 1;
#X connect 107 0 123 0;
#X connect 109 0 19 0;
#X connect 110 0 26 0;
#X connect 111 0 32 0;
#X connect 112 0 38 0;
#X connect 113 0 44 0;
#X connect 114 0 50 0;
#X connect 115 0 56 0;
#X connect 116 0 62 0;
#X connect 117 0 68 0;
#X connect 118 0 74 0;
#X connect 119 0 80 0;
#X connect 120 0 86 0;
#X connect 121 0 92 0;
#X connect 122 0 98 0;
#X connect 123 0 104 0;
#X connect 124 0 28 0;
#X connect 125 0 34 0;
#X connect 126 0 40 0;
#X connect 127 0 46 0;
#X connect 128 0 52 0;
#X connect 129 0 58 0;
#X connect 130 0 64 0;
#X connect 131 0 70 0;
#X connect 132 0 76 0;
#X connect 133 0 82 0;
#X connect 134 0 88 0;
#X connect 135 0 94 0;
#X connect 136 0 100 0;
#X connect 137 0 106 0;
#X connect 138 0 139 0;
#X connect 139 0 140 0;
#X connect 140 0 155 0;
#X connect 141 0 139 1;
#X connect 142 0 140 1;
#X connect 143 0 155 1;
#X connect 144 0 148 0;
#X connect 145 0 146 0;
#X connect 146 0 144 0;
#X connect 147 0 166 0;
#X connect 148 0 0 0;
#X connect 149 0 146 1;
#X connect 150 0 167 0;
#X connect 151 0 144 1;
#X connect 152 0 168 0;
#X connect 153 0 169 0;
#X connect 154 0 170 0;
#X connect 155 0 148 1;
#X connect 156 0 157 0;
#X connect 157 0 158 0;
#X connect 158 0 159 0;
#X connect 159 0 164 0;
#X connect 160 0 161 0;
#X connect 161 0 162 0;
#X connect 162 0 163 0;
#X connect 163 0 165 0;
#X connect 171 0 149 0;
#X connect 172 0 151 0;
#X connect 173 0 141 0;
#X connect 174 0 142 0;
#X connect 175 0 195 0;
#X connect 181 0 194 0;
#X connect 182 0 188 0;
#X connect 182 1 181 0;
#X connect 188 0 183 0;
#X connect 188 1 184 0;
#X connect 188 2 185 0;
#X connect 188 3 186 0;
#X connect 188 4 187 0;
#X connect 189 0 181 1;
#X connect 190 0 194 1;
#X connect 191 0 194 2;
#X connect 192 0 194 3;
#X connect 193 0 194 4;
#X connect 194 0 182 0;
#X connect 195 0 196 0;
#X connect 196 0 143 0;
#X connect 197 0 198 0;
#X connect 197 1 199 0;
#X connect 197 2 200 0;
#X connect 197 3 201 0;
#X connect 197 4 202 0;
#X connect 204 0 197 0;
#X connect 205 0 203 0;
#X connect 207 0 203 0;
#X connect 208 0 159 1;
#X connect 208 0 163 1;
#X coords 0 -1 1 1 180 72 1 550 300;
