#N canvas 228 114 898 540 10;
#X obj 267 236 +~;
#X obj 114 294 +~;
#X obj 269 298 +~;
#X obj 348 236 -~;
#X obj 376 235 -~;
#X obj 353 265 +~;
#X obj 291 236 +~;
#X obj 275 266 +~;
#X obj 84 233 +~;
#X obj 172 233 -~;
#X obj 200 234 -~;
#X obj 186 264 +~;
#X obj 113 232 +~;
#X obj 92 263 +~;
#X floatatom 202 97 5 1 5000 0 reverbtimems - -;
#X floatatom 313 136 5 -100 0 0 allpassgain - -;
#X obj 100 409 *~;
#X obj 257 412 *~;
#X obj 63 410 *~;
#X obj 218 412 *~;
#X floatatom 169 339 5 0 1 0 drywet - -;
#X obj 236 436 +~;
#X obj 77 438 +~;
#X obj 170 362 - 1;
#X obj 169 383 * -1;
#X obj 142 232 +~;
#X obj 230 234 -~;
#X obj 317 236 +~;
#X obj 401 236 -~;
#X obj 65 146 inlet~;
#X obj 227 149 inlet~;
#X obj 74 486 outlet~;
#X obj 234 479 outlet~;
#X obj 270 323 *~ 0.16;
#X obj 113 317 *~ 0.16;
#N canvas 80 92 999 735 moorerreverb 0;
#X obj 61 49 inlet~;
#X floatatom 164 128 5 -100 0 0 apgain - -;
#N canvas 863 218 344 312 allpass100ms 0;
#X text 40 218 0 - 100 mSec allpass;
#X obj 37 29 inlet~;
#X obj 32 159 +~;
#X obj 59 114 *~;
#X obj 91 30 inlet;
#X text 37 10 sound;
#X text 95 9 time;
#X text 138 9 gain;
#X obj 138 115 *~;
#X obj 122 144 +~;
#X obj 192 201 outlet~;
#X text 143 258 djsajkdjsahdsk;
#X obj 229 23 block~ 1;
#X obj 142 55 * -1;
#X obj 134 31 inlet;
#X obj 33 199 delwrite~ \$0-h-short 100;
#X obj 64 79 delread~ \$0-h-short;
#X connect 1 0 2 0;
#X connect 2 0 8 0;
#X connect 2 0 15 0;
#X connect 3 0 2 1;
#X connect 4 0 16 0;
#X connect 8 0 9 1;
#X connect 9 0 10 0;
#X connect 13 0 8 1;
#X connect 14 0 3 1;
#X connect 14 0 13 0;
#X connect 16 0 9 0;
#X connect 16 0 3 0;
#X restore 83 206 pd allpass100ms;
#X floatatom 116 182 5 0 0 0 ap2delay - -;
#X obj 70 558 outlet~;
#X floatatom 93 344 5 0 0 0 cm1delay - -;
#X obj 164 172 dbtorms;
#X text 313 294 -60*looptime/reverbtime=gain;
#X floatatom 303 174 5 0 0 0 reverbtime-ms - -;
#X obj 112 508 dbtorms;
#X obj 111 368 * -60;
#X floatatom 113 389 5 0 0 0 - - -;
#X obj 113 438 /;
#X obj 104 415 t b f;
#X obj 112 462 + 100;
#X floatatom 112 486 5 0 0 0 - - -;
#X obj 164 150 + 100;
#X obj 116 72 loadbang;
#X obj 212 49 inlet;
#X obj 280 49 inlet;
#X msg 116 160 6;
#X msg 92 320 50;
#N canvas 755 324 325 350 lpcomb100ms 0;
#X obj 12 35 inlet~;
#X obj 17 269 +~;
#X obj 76 245 *~;
#X obj 72 36 inlet;
#X obj 148 30 inlet;
#X obj 169 303 outlet~;
#X text 9 8 audio;
#X text 71 9 delay;
#X text 151 9 gain;
#X obj 73 104 rpole~;
#X obj 175 69 / 250;
#X floatatom 175 91 5 0 0 0 - - -;
#X obj 174 112 sqrt;
#X floatatom 174 134 5 0 0 0 - - -;
#X obj 175 154 * -1;
#X obj 175 175 + 1;
#X obj 152 219 *;
#X obj 178 197 t b f;
#X floatatom 95 225 5 0 0 0 - - -;
#X text 14 324 g1 = sqrt(dt/250) - fudge based on moorer's table;
#X obj 73 69 delread~ \$0-i-med;
#X obj 15 297 delwrite~ \$0-i-med 100;
#X connect 0 0 1 0;
#X connect 1 0 21 0;
#X connect 2 0 1 1;
#X connect 3 0 10 0;
#X connect 3 0 20 0;
#X connect 4 0 16 0;
#X connect 9 0 2 0;
#X connect 10 0 11 0;
#X connect 11 0 12 0;
#X connect 12 0 13 0;
#X connect 13 0 9 1;
#X connect 13 0 14 0;
#X connect 14 0 15 0;
#X connect 15 0 17 0;
#X connect 16 0 18 0;
#X connect 17 0 16 0;
#X connect 17 1 16 1;
#X connect 18 0 2 1;
#X connect 20 0 5 0;
#X connect 20 0 9 0;
#X restore 70 532 pd lpcomb100ms;
#X obj 201 557 outlet~;
#X floatatom 224 343 5 0 0 0 cm1delay - -;
#X obj 243 507 dbtorms;
#X obj 242 367 * -60;
#X floatatom 244 388 5 0 0 0 - - -;
#X obj 244 437 /;
#X obj 235 414 t b f;
#X obj 243 461 + 100;
#X floatatom 243 485 5 0 0 0 - - -;
#X obj 331 557 outlet~;
#X floatatom 354 343 5 0 0 0 cm1delay - -;
#X obj 373 507 dbtorms;
#X obj 372 367 * -60;
#X floatatom 374 388 5 0 0 0 - - -;
#X obj 374 437 /;
#X obj 365 414 t b f;
#X obj 373 461 + 100;
#X floatatom 373 485 5 0 0 0 - - -;
#X obj 463 556 outlet~;
#X floatatom 486 342 5 0 0 0 cm1delay - -;
#X obj 505 506 dbtorms;
#X obj 504 366 * -60;
#X floatatom 506 387 5 0 0 0 - - -;
#X obj 506 436 /;
#X obj 497 413 t b f;
#X obj 505 460 + 100;
#X floatatom 505 484 5 0 0 0 - - -;
#X obj 596 557 outlet~;
#X floatatom 619 343 5 0 0 0 cm1delay - -;
#X obj 638 507 dbtorms;
#X obj 637 367 * -60;
#X floatatom 639 388 5 0 0 0 - - -;
#X obj 639 437 /;
#X obj 630 414 t b f;
#X obj 638 461 + 100;
#X floatatom 638 485 5 0 0 0 - - -;
#X obj 730 556 outlet~;
#X floatatom 753 342 5 0 0 0 cm1delay - -;
#X obj 772 506 dbtorms;
#X obj 771 366 * -60;
#X floatatom 773 387 5 0 0 0 - - -;
#X obj 773 436 /;
#X obj 764 413 t b f;
#X obj 772 460 + 100;
#X floatatom 772 484 5 0 0 0 - - -;
#X msg 223 319 56;
#X msg 353 319 61;
#X msg 485 318 68;
#X msg 618 319 72;
#X msg 752 318 78;
#X floatatom 190 207 5 0 0 0 - - -;
#X floatatom 156 532 5 0 0 0 - - -;
#X floatatom 282 533 5 0 0 0 - - -;
#X floatatom 409 531 5 0 0 0 - - -;
#X floatatom 543 531 5 0 0 0 - - -;
#X floatatom 677 532 5 0 0 0 - - -;
#X floatatom 811 530 5 0 0 0 - - -;
#N canvas 755 324 325 350 lpcomb100ms 0;
#X obj 12 35 inlet~;
#X obj 17 269 +~;
#X obj 76 245 *~;
#X obj 72 36 inlet;
#X obj 148 30 inlet;
#X obj 169 303 outlet~;
#X text 9 8 audio;
#X text 71 9 delay;
#X text 151 9 gain;
#X obj 73 104 rpole~;
#X obj 175 69 / 250;
#X floatatom 175 91 5 0 0 0 - - -;
#X obj 174 112 sqrt;
#X floatatom 174 134 5 0 0 0 - - -;
#X obj 175 154 * -1;
#X obj 175 175 + 1;
#X obj 152 219 *;
#X obj 178 197 t b f;
#X floatatom 95 225 5 0 0 0 - - -;
#X text 14 324 g1 = sqrt(dt/250) - fudge based on moorer's table;
#X obj 73 69 delread~ \$0-j-med;
#X obj 15 297 delwrite~ \$0-j-med 100;
#X connect 0 0 1 0;
#X connect 1 0 21 0;
#X connect 2 0 1 1;
#X connect 3 0 10 0;
#X connect 3 0 20 0;
#X connect 4 0 16 0;
#X connect 9 0 2 0;
#X connect 10 0 11 0;
#X connect 11 0 12 0;
#X connect 12 0 13 0;
#X connect 13 0 9 1;
#X connect 13 0 14 0;
#X connect 14 0 15 0;
#X connect 15 0 17 0;
#X connect 16 0 18 0;
#X connect 17 0 16 0;
#X connect 17 1 16 1;
#X connect 18 0 2 1;
#X connect 20 0 5 0;
#X connect 20 0 9 0;
#X restore 201 531 pd lpcomb100ms;
#N canvas 755 324 325 350 lpcomb100ms 0;
#X obj 12 35 inlet~;
#X obj 17 269 +~;
#X obj 76 245 *~;
#X obj 72 36 inlet;
#X obj 148 30 inlet;
#X obj 169 303 outlet~;
#X text 9 8 audio;
#X text 71 9 delay;
#X text 151 9 gain;
#X obj 73 104 rpole~;
#X obj 175 69 / 250;
#X floatatom 175 91 5 0 0 0 - - -;
#X obj 174 112 sqrt;
#X floatatom 174 134 5 0 0 0 - - -;
#X obj 175 154 * -1;
#X obj 175 175 + 1;
#X obj 152 219 *;
#X obj 178 197 t b f;
#X floatatom 95 225 5 0 0 0 - - -;
#X text 14 324 g1 = sqrt(dt/250) - fudge based on moorer's table;
#X obj 73 69 delread~ \$0-k-med;
#X obj 15 297 delwrite~ \$0-k-med 100;
#X connect 0 0 1 0;
#X connect 1 0 21 0;
#X connect 2 0 1 1;
#X connect 3 0 10 0;
#X connect 3 0 20 0;
#X connect 4 0 16 0;
#X connect 9 0 2 0;
#X connect 10 0 11 0;
#X connect 11 0 12 0;
#X connect 12 0 13 0;
#X connect 13 0 9 1;
#X connect 13 0 14 0;
#X connect 14 0 15 0;
#X connect 15 0 17 0;
#X connect 16 0 18 0;
#X connect 17 0 16 0;
#X connect 17 1 16 1;
#X connect 18 0 2 1;
#X connect 20 0 5 0;
#X connect 20 0 9 0;
#X restore 331 531 pd lpcomb100ms;
#N canvas 755 324 325 350 lpcomb100ms 0;
#X obj 12 35 inlet~;
#X obj 17 269 +~;
#X obj 76 245 *~;
#X obj 72 36 inlet;
#X obj 148 30 inlet;
#X obj 169 303 outlet~;
#X text 9 8 audio;
#X text 71 9 delay;
#X text 151 9 gain;
#X obj 73 104 rpole~;
#X obj 175 69 / 250;
#X floatatom 175 91 5 0 0 0 - - -;
#X obj 174 112 sqrt;
#X floatatom 174 134 5 0 0 0 - - -;
#X obj 175 154 * -1;
#X obj 175 175 + 1;
#X obj 152 219 *;
#X obj 178 197 t b f;
#X floatatom 95 225 5 0 0 0 - - -;
#X text 14 324 g1 = sqrt(dt/250) - fudge based on moorer's table;
#X obj 73 69 delread~ \$0-l-med;
#X obj 17 297 delwrite~ \$0-l-med 100;
#X connect 0 0 1 0;
#X connect 1 0 21 0;
#X connect 2 0 1 1;
#X connect 3 0 10 0;
#X connect 3 0 20 0;
#X connect 4 0 16 0;
#X connect 9 0 2 0;
#X connect 10 0 11 0;
#X connect 11 0 12 0;
#X connect 12 0 13 0;
#X connect 13 0 9 1;
#X connect 13 0 14 0;
#X connect 14 0 15 0;
#X connect 15 0 17 0;
#X connect 16 0 18 0;
#X connect 17 0 16 0;
#X connect 17 1 16 1;
#X connect 18 0 2 1;
#X connect 20 0 5 0;
#X connect 20 0 9 0;
#X restore 463 530 pd lpcomb100ms;
#N canvas 755 324 325 350 lpcomb100ms 0;
#X obj 12 35 inlet~;
#X obj 17 269 +~;
#X obj 76 245 *~;
#X obj 72 36 inlet;
#X obj 148 30 inlet;
#X obj 169 303 outlet~;
#X text 9 8 audio;
#X text 71 9 delay;
#X text 151 9 gain;
#X obj 73 104 rpole~;
#X obj 175 69 / 250;
#X floatatom 175 91 5 0 0 0 - - -;
#X obj 174 112 sqrt;
#X floatatom 174 134 5 0 0 0 - - -;
#X obj 175 154 * -1;
#X obj 175 175 + 1;
#X obj 152 219 *;
#X obj 178 197 t b f;
#X floatatom 95 225 5 0 0 0 - - -;
#X text 14 324 g1 = sqrt(dt/250) - fudge based on moorer's table;
#X obj 73 69 delread~ \$0-m-med;
#X obj 15 297 delwrite~ \$0-m-med 100;
#X connect 0 0 1 0;
#X connect 1 0 21 0;
#X connect 2 0 1 1;
#X connect 3 0 10 0;
#X connect 3 0 20 0;
#X connect 4 0 16 0;
#X connect 9 0 2 0;
#X connect 10 0 11 0;
#X connect 11 0 12 0;
#X connect 12 0 13 0;
#X connect 13 0 9 1;
#X connect 13 0 14 0;
#X connect 14 0 15 0;
#X connect 15 0 17 0;
#X connect 16 0 18 0;
#X connect 17 0 16 0;
#X connect 17 1 16 1;
#X connect 18 0 2 1;
#X connect 20 0 5 0;
#X connect 20 0 9 0;
#X restore 596 531 pd lpcomb100ms;
#N canvas 755 324 325 350 lpcomb100ms 0;
#X obj 12 35 inlet~;
#X obj 17 269 +~;
#X obj 76 245 *~;
#X obj 72 36 inlet;
#X obj 148 30 inlet;
#X obj 169 303 outlet~;
#X text 9 8 audio;
#X text 71 9 delay;
#X text 151 9 gain;
#X obj 73 104 rpole~;
#X obj 175 69 / 250;
#X floatatom 175 91 5 0 0 0 - - -;
#X obj 174 112 sqrt;
#X floatatom 174 134 5 0 0 0 - - -;
#X obj 175 154 * -1;
#X obj 175 175 + 1;
#X obj 152 219 *;
#X obj 178 197 t b f;
#X floatatom 95 225 5 0 0 0 - - -;
#X text 14 324 g1 = sqrt(dt/250) - fudge based on moorer's table;
#X obj 73 69 delread~ \$0-n-med;
#X obj 15 297 delwrite~ \$0-n-med 100;
#X connect 0 0 1 0;
#X connect 1 0 21 0;
#X connect 2 0 1 1;
#X connect 3 0 10 0;
#X connect 3 0 20 0;
#X connect 4 0 16 0;
#X connect 9 0 2 0;
#X connect 10 0 11 0;
#X connect 11 0 12 0;
#X connect 12 0 13 0;
#X connect 13 0 9 1;
#X connect 13 0 14 0;
#X connect 14 0 15 0;
#X connect 15 0 17 0;
#X connect 16 0 18 0;
#X connect 17 0 16 0;
#X connect 17 1 16 1;
#X connect 18 0 2 1;
#X connect 20 0 5 0;
#X connect 20 0 9 0;
#X restore 730 530 pd lpcomb100ms;
#X obj 376 241 t b b b b b b;
#X connect 0 0 2 0;
#X connect 1 0 16 0;
#X connect 2 0 22 0;
#X connect 2 0 80 0;
#X connect 2 0 81 0;
#X connect 2 0 82 0;
#X connect 2 0 83 0;
#X connect 2 0 84 0;
#X connect 3 0 2 1;
#X connect 5 0 10 0;
#X connect 5 0 22 1;
#X connect 6 0 2 2;
#X connect 6 0 73 0;
#X connect 8 0 13 0;
#X connect 8 0 29 0;
#X connect 8 0 38 0;
#X connect 8 0 47 0;
#X connect 8 0 56 0;
#X connect 8 0 65 0;
#X connect 9 0 22 2;
#X connect 9 0 74 0;
#X connect 10 0 11 0;
#X connect 11 0 12 0;
#X connect 12 0 14 0;
#X connect 13 0 12 0;
#X connect 13 1 12 1;
#X connect 14 0 15 0;
#X connect 15 0 9 0;
#X connect 16 0 6 0;
#X connect 17 0 20 0;
#X connect 17 0 85 0;
#X connect 18 0 8 0;
#X connect 19 0 1 0;
#X connect 20 0 3 0;
#X connect 21 0 5 0;
#X connect 22 0 4 0;
#X connect 24 0 26 0;
#X connect 24 0 80 1;
#X connect 25 0 75 0;
#X connect 25 0 80 2;
#X connect 26 0 27 0;
#X connect 27 0 28 0;
#X connect 28 0 30 0;
#X connect 29 0 28 0;
#X connect 29 1 28 1;
#X connect 30 0 31 0;
#X connect 31 0 25 0;
#X connect 33 0 35 0;
#X connect 33 0 81 1;
#X connect 34 0 76 0;
#X connect 34 0 81 2;
#X connect 35 0 36 0;
#X connect 36 0 37 0;
#X connect 37 0 39 0;
#X connect 38 0 37 0;
#X connect 38 1 37 1;
#X connect 39 0 40 0;
#X connect 40 0 34 0;
#X connect 42 0 44 0;
#X connect 42 0 82 1;
#X connect 43 0 77 0;
#X connect 43 0 82 2;
#X connect 44 0 45 0;
#X connect 45 0 46 0;
#X connect 46 0 48 0;
#X connect 47 0 46 0;
#X connect 47 1 46 1;
#X connect 48 0 49 0;
#X connect 49 0 43 0;
#X connect 51 0 53 0;
#X connect 51 0 83 1;
#X connect 52 0 78 0;
#X connect 52 0 83 2;
#X connect 53 0 54 0;
#X connect 54 0 55 0;
#X connect 55 0 57 0;
#X connect 56 0 55 0;
#X connect 56 1 55 1;
#X connect 57 0 58 0;
#X connect 58 0 52 0;
#X connect 60 0 62 0;
#X connect 60 0 84 1;
#X connect 61 0 79 0;
#X connect 61 0 84 2;
#X connect 62 0 63 0;
#X connect 63 0 64 0;
#X connect 64 0 66 0;
#X connect 65 0 64 0;
#X connect 65 1 64 1;
#X connect 66 0 67 0;
#X connect 67 0 61 0;
#X connect 68 0 24 0;
#X connect 69 0 33 0;
#X connect 70 0 42 0;
#X connect 71 0 51 0;
#X connect 72 0 60 0;
#X connect 80 0 23 0;
#X connect 81 0 32 0;
#X connect 82 0 41 0;
#X connect 83 0 50 0;
#X connect 84 0 59 0;
#X connect 85 0 21 0;
#X connect 85 1 68 0;
#X connect 85 2 69 0;
#X connect 85 3 70 0;
#X connect 85 4 71 0;
#X connect 85 5 72 0;
#X coords 0 0 1 1 140 100 0;
#X restore 281 189 pd moorerreverb;
#N canvas 200 210 1177 709 moorerreverb 0;
#X obj 31 29 inlet~;
#X floatatom 148 108 5 -100 0 0 apgain - -;
#N canvas 863 218 344 312 allpass100ms 0;
#X text 40 218 0 - 100 mSec allpass;
#X obj 37 29 inlet~;
#X obj 32 159 +~;
#X obj 59 114 *~;
#X obj 91 30 inlet;
#X text 37 10 sound;
#X text 95 9 time;
#X text 138 9 gain;
#X obj 138 115 *~;
#X obj 122 144 +~;
#X obj 192 201 outlet~;
#X text 143 258 djsajkdjsahdsk;
#X obj 229 23 block~ 1;
#X obj 142 55 * -1;
#X obj 134 31 inlet;
#X obj 64 79 delread~ \$0-a-short;
#X obj 32 199 delwrite~ \$0-a-short 100;
#X connect 1 0 2 0;
#X connect 2 0 8 0;
#X connect 2 0 16 0;
#X connect 3 0 2 1;
#X connect 4 0 15 0;
#X connect 8 0 9 1;
#X connect 9 0 10 0;
#X connect 13 0 8 1;
#X connect 14 0 3 1;
#X connect 14 0 13 0;
#X connect 15 0 9 0;
#X connect 15 0 3 0;
#X restore 53 186 pd allpass100ms;
#X floatatom 86 162 5 0 0 0 ap2delay - -;
#X obj 40 538 outlet~;
#X floatatom 63 324 5 0 0 0 cm1delay - -;
#X obj 148 152 dbtorms;
#X text 283 274 -60*looptime/reverbtime=gain;
#X floatatom 273 154 5 0 0 0 reverbtime-ms - -;
#X obj 82 488 dbtorms;
#X obj 81 348 * -60;
#X floatatom 83 369 5 0 0 0 - - -;
#X obj 83 418 /;
#X obj 74 395 t b f;
#X obj 82 442 + 100;
#X floatatom 82 466 5 0 0 0 - - -;
#X obj 148 130 + 100;
#X obj 115 29 loadbang;
#X obj 182 29 inlet;
#X obj 250 29 inlet;
#X msg 86 140 6;
#X msg 62 300 50;
#N canvas 755 324 325 350 lpcomb100ms 0;
#X obj 12 35 inlet~;
#X obj 17 269 +~;
#X obj 76 245 *~;
#X obj 72 36 inlet;
#X obj 148 30 inlet;
#X obj 169 303 outlet~;
#X text 9 8 audio;
#X text 71 9 delay;
#X text 151 9 gain;
#X obj 73 104 rpole~;
#X obj 195 69 / 250;
#X floatatom 195 91 5 0 0 0 - - -;
#X obj 194 112 sqrt;
#X floatatom 194 134 5 0 0 0 - - -;
#X obj 195 154 * -1;
#X obj 175 175 + 1;
#X obj 152 219 *;
#X obj 198 197 t b f;
#X floatatom 95 225 5 0 0 0 - - -;
#X text 14 324 g1 = sqrt(dt/250) - fudge based on moorer's table;
#X obj 15 297 delwrite~ \$0-b-med 100;
#X obj 73 69 delread~ \$0-b-med;
#X connect 0 0 1 0;
#X connect 1 0 20 0;
#X connect 2 0 1 1;
#X connect 3 0 10 0;
#X connect 3 0 21 0;
#X connect 4 0 16 0;
#X connect 9 0 2 0;
#X connect 10 0 11 0;
#X connect 11 0 12 0;
#X connect 12 0 13 0;
#X connect 13 0 9 1;
#X connect 13 0 14 0;
#X connect 14 0 15 0;
#X connect 15 0 17 0;
#X connect 16 0 18 0;
#X connect 17 0 16 0;
#X connect 17 1 16 1;
#X connect 18 0 2 1;
#X connect 21 0 5 0;
#X connect 21 0 9 0;
#X restore 40 512 pd lpcomb100ms;
#X obj 171 537 outlet~;
#X floatatom 194 323 5 0 0 0 cm1delay - -;
#X obj 213 487 dbtorms;
#X obj 212 347 * -60;
#X floatatom 214 368 5 0 0 0 - - -;
#X obj 214 417 /;
#X obj 205 394 t b f;
#X obj 213 441 + 100;
#X floatatom 213 465 5 0 0 0 - - -;
#X obj 301 537 outlet~;
#X floatatom 324 323 5 0 0 0 cm1delay - -;
#X obj 343 487 dbtorms;
#X obj 342 347 * -60;
#X floatatom 344 368 5 0 0 0 - - -;
#X obj 344 417 /;
#X obj 335 394 t b f;
#X obj 343 441 + 100;
#X floatatom 343 465 5 0 0 0 - - -;
#X obj 433 536 outlet~;
#X floatatom 456 322 5 0 0 0 cm1delay - -;
#X obj 475 486 dbtorms;
#X obj 474 346 * -60;
#X floatatom 476 367 5 0 0 0 - - -;
#X obj 476 416 /;
#X obj 467 393 t b f;
#X obj 475 440 + 100;
#X floatatom 475 464 5 0 0 0 - - -;
#X obj 566 537 outlet~;
#X floatatom 589 323 5 0 0 0 cm1delay - -;
#X obj 608 487 dbtorms;
#X obj 607 347 * -60;
#X floatatom 609 368 5 0 0 0 - - -;
#X obj 609 417 /;
#X obj 600 394 t b f;
#X obj 608 441 + 100;
#X floatatom 608 465 5 0 0 0 - - -;
#X obj 700 536 outlet~;
#X floatatom 723 322 5 0 0 0 cm1delay - -;
#X obj 742 486 dbtorms;
#X obj 741 346 * -60;
#X floatatom 743 367 5 0 0 0 - - -;
#X obj 743 416 /;
#X obj 734 393 t b f;
#X obj 742 440 + 100;
#X floatatom 742 464 5 0 0 0 - - -;
#X msg 193 299 56;
#X msg 323 299 61;
#X msg 455 298 68;
#X msg 588 299 72;
#X msg 722 298 78;
#X floatatom 154 187 5 0 0 0 - - -;
#X floatatom 126 512 5 0 0 0 - - -;
#X floatatom 252 513 5 0 0 0 - - -;
#X floatatom 379 511 5 0 0 0 - - -;
#X floatatom 513 511 5 0 0 0 - - -;
#X floatatom 647 512 5 0 0 0 - - -;
#X floatatom 781 510 5 0 0 0 - - -;
#N canvas 755 324 325 350 lpcomb100ms 0;
#X obj 12 35 inlet~;
#X obj 17 269 +~;
#X obj 76 245 *~;
#X obj 72 36 inlet;
#X obj 148 30 inlet;
#X obj 169 303 outlet~;
#X text 9 8 audio;
#X text 71 9 delay;
#X text 151 9 gain;
#X obj 73 104 rpole~;
#X obj 175 69 / 250;
#X floatatom 175 91 5 0 0 0 - - -;
#X obj 174 112 sqrt;
#X floatatom 174 134 5 0 0 0 - - -;
#X obj 175 154 * -1;
#X obj 175 175 + 1;
#X obj 152 219 *;
#X obj 178 197 t b f;
#X floatatom 95 225 5 0 0 0 - - -;
#X text 14 324 g1 = sqrt(dt/250) - fudge based on moorer's table;
#X obj 73 69 delread~ \$0-c-med;
#X obj 15 297 delwrite~ \$0-c-med 100;
#X connect 0 0 1 0;
#X connect 1 0 21 0;
#X connect 2 0 1 1;
#X connect 3 0 10 0;
#X connect 3 0 20 0;
#X connect 4 0 16 0;
#X connect 9 0 2 0;
#X connect 10 0 11 0;
#X connect 11 0 12 0;
#X connect 12 0 13 0;
#X connect 13 0 9 1;
#X connect 13 0 14 0;
#X connect 14 0 15 0;
#X connect 15 0 17 0;
#X connect 16 0 18 0;
#X connect 17 0 16 0;
#X connect 17 1 16 1;
#X connect 18 0 2 1;
#X connect 20 0 5 0;
#X connect 20 0 9 0;
#X restore 171 511 pd lpcomb100ms;
#N canvas 755 324 325 350 lpcomb100ms 0;
#X obj 12 35 inlet~;
#X obj 17 269 +~;
#X obj 76 245 *~;
#X obj 72 36 inlet;
#X obj 148 30 inlet;
#X obj 169 303 outlet~;
#X text 9 8 audio;
#X text 71 9 delay;
#X text 151 9 gain;
#X obj 73 104 rpole~;
#X obj 175 69 / 250;
#X floatatom 175 91 5 0 0 0 - - -;
#X obj 174 112 sqrt;
#X floatatom 174 134 5 0 0 0 - - -;
#X obj 175 154 * -1;
#X obj 175 175 + 1;
#X obj 152 219 *;
#X obj 178 197 t b f;
#X floatatom 95 225 5 0 0 0 - - -;
#X text 14 324 g1 = sqrt(dt/250) - fudge based on moorer's table;
#X obj 73 69 delread~ \$0-d-med;
#X obj 15 297 delwrite~ \$0-d-med 100;
#X connect 0 0 1 0;
#X connect 1 0 21 0;
#X connect 2 0 1 1;
#X connect 3 0 10 0;
#X connect 3 0 20 0;
#X connect 4 0 16 0;
#X connect 9 0 2 0;
#X connect 10 0 11 0;
#X connect 11 0 12 0;
#X connect 12 0 13 0;
#X connect 13 0 9 1;
#X connect 13 0 14 0;
#X connect 14 0 15 0;
#X connect 15 0 17 0;
#X connect 16 0 18 0;
#X connect 17 0 16 0;
#X connect 17 1 16 1;
#X connect 18 0 2 1;
#X connect 20 0 5 0;
#X connect 20 0 9 0;
#X restore 301 511 pd lpcomb100ms;
#N canvas 755 324 325 350 lpcomb100ms 0;
#X obj 12 35 inlet~;
#X obj 17 269 +~;
#X obj 76 245 *~;
#X obj 72 36 inlet;
#X obj 148 30 inlet;
#X obj 169 303 outlet~;
#X text 9 8 audio;
#X text 71 9 delay;
#X text 151 9 gain;
#X obj 73 104 rpole~;
#X obj 175 69 / 250;
#X floatatom 175 91 5 0 0 0 - - -;
#X obj 174 112 sqrt;
#X floatatom 174 134 5 0 0 0 - - -;
#X obj 175 154 * -1;
#X obj 175 175 + 1;
#X obj 152 219 *;
#X obj 178 197 t b f;
#X floatatom 95 225 5 0 0 0 - - -;
#X text 14 324 g1 = sqrt(dt/250) - fudge based on moorer's table;
#X obj 73 69 delread~ \$0-e-med;
#X obj 15 297 delwrite~ \$0-e-med 100;
#X connect 0 0 1 0;
#X connect 1 0 21 0;
#X connect 2 0 1 1;
#X connect 3 0 10 0;
#X connect 3 0 20 0;
#X connect 4 0 16 0;
#X connect 9 0 2 0;
#X connect 10 0 11 0;
#X connect 11 0 12 0;
#X connect 12 0 13 0;
#X connect 13 0 9 1;
#X connect 13 0 14 0;
#X connect 14 0 15 0;
#X connect 15 0 17 0;
#X connect 16 0 18 0;
#X connect 17 0 16 0;
#X connect 17 1 16 1;
#X connect 18 0 2 1;
#X connect 20 0 5 0;
#X connect 20 0 9 0;
#X restore 433 510 pd lpcomb100ms;
#N canvas 755 324 325 350 lpcomb100ms 0;
#X obj 12 35 inlet~;
#X obj 17 269 +~;
#X obj 76 245 *~;
#X obj 72 36 inlet;
#X obj 148 30 inlet;
#X obj 169 303 outlet~;
#X text 9 8 audio;
#X text 71 9 delay;
#X text 151 9 gain;
#X obj 73 104 rpole~;
#X obj 175 69 / 250;
#X floatatom 175 91 5 0 0 0 - - -;
#X obj 174 112 sqrt;
#X floatatom 174 134 5 0 0 0 - - -;
#X obj 175 154 * -1;
#X obj 175 175 + 1;
#X obj 152 219 *;
#X obj 178 197 t b f;
#X floatatom 95 225 5 0 0 0 - - -;
#X text 14 324 g1 = sqrt(dt/250) - fudge based on moorer's table;
#X obj 73 69 delread~ \$0-f-med;
#X obj 15 297 delwrite~ \$0-f-med 100;
#X connect 0 0 1 0;
#X connect 1 0 21 0;
#X connect 2 0 1 1;
#X connect 3 0 10 0;
#X connect 3 0 20 0;
#X connect 4 0 16 0;
#X connect 9 0 2 0;
#X connect 10 0 11 0;
#X connect 11 0 12 0;
#X connect 12 0 13 0;
#X connect 13 0 9 1;
#X connect 13 0 14 0;
#X connect 14 0 15 0;
#X connect 15 0 17 0;
#X connect 16 0 18 0;
#X connect 17 0 16 0;
#X connect 17 1 16 1;
#X connect 18 0 2 1;
#X connect 20 0 5 0;
#X connect 20 0 9 0;
#X restore 566 511 pd lpcomb100ms;
#N canvas 755 324 325 350 lpcomb100ms 0;
#X obj 12 35 inlet~;
#X obj 17 269 +~;
#X obj 76 245 *~;
#X obj 72 36 inlet;
#X obj 148 30 inlet;
#X obj 169 303 outlet~;
#X text 9 8 audio;
#X text 71 9 delay;
#X text 151 9 gain;
#X obj 73 104 rpole~;
#X obj 175 69 / 250;
#X floatatom 175 91 5 0 0 0 - - -;
#X obj 174 112 sqrt;
#X floatatom 174 134 5 0 0 0 - - -;
#X obj 175 154 * -1;
#X obj 175 175 + 1;
#X obj 152 219 *;
#X obj 178 197 t b f;
#X floatatom 95 225 5 0 0 0 - - -;
#X text 14 324 g1 = sqrt(dt/250) - fudge based on moorer's table;
#X obj 73 69 delread~ \$0-g-med;
#X obj 15 297 delwrite~ \$0-g-med 100;
#X connect 0 0 1 0;
#X connect 1 0 21 0;
#X connect 2 0 1 1;
#X connect 3 0 10 0;
#X connect 3 0 20 0;
#X connect 4 0 16 0;
#X connect 9 0 2 0;
#X connect 10 0 11 0;
#X connect 11 0 12 0;
#X connect 12 0 13 0;
#X connect 13 0 9 1;
#X connect 13 0 14 0;
#X connect 14 0 15 0;
#X connect 15 0 17 0;
#X connect 16 0 18 0;
#X connect 17 0 16 0;
#X connect 17 1 16 1;
#X connect 18 0 2 1;
#X connect 20 0 5 0;
#X connect 20 0 9 0;
#X restore 700 510 pd lpcomb100ms;
#X obj 346 221 t b b b b b b;
#X connect 0 0 2 0;
#X connect 1 0 16 0;
#X connect 2 0 22 0;
#X connect 2 0 80 0;
#X connect 2 0 81 0;
#X connect 2 0 82 0;
#X connect 2 0 83 0;
#X connect 2 0 84 0;
#X connect 3 0 2 1;
#X connect 5 0 10 0;
#X connect 5 0 22 1;
#X connect 6 0 2 2;
#X connect 6 0 73 0;
#X connect 8 0 13 0;
#X connect 8 0 29 0;
#X connect 8 0 38 0;
#X connect 8 0 47 0;
#X connect 8 0 56 0;
#X connect 8 0 65 0;
#X connect 9 0 22 2;
#X connect 9 0 74 0;
#X connect 10 0 11 0;
#X connect 11 0 12 0;
#X connect 12 0 14 0;
#X connect 13 0 12 0;
#X connect 13 1 12 1;
#X connect 14 0 15 0;
#X connect 15 0 9 0;
#X connect 16 0 6 0;
#X connect 17 0 20 0;
#X connect 17 0 85 0;
#X connect 18 0 8 0;
#X connect 19 0 1 0;
#X connect 20 0 3 0;
#X connect 21 0 5 0;
#X connect 22 0 4 0;
#X connect 24 0 26 0;
#X connect 24 0 80 1;
#X connect 25 0 75 0;
#X connect 25 0 80 2;
#X connect 26 0 27 0;
#X connect 27 0 28 0;
#X connect 28 0 30 0;
#X connect 29 0 28 0;
#X connect 29 1 28 1;
#X connect 30 0 31 0;
#X connect 31 0 25 0;
#X connect 33 0 35 0;
#X connect 33 0 81 1;
#X connect 34 0 76 0;
#X connect 34 0 81 2;
#X connect 35 0 36 0;
#X connect 36 0 37 0;
#X connect 37 0 39 0;
#X connect 38 0 37 0;
#X connect 38 1 37 1;
#X connect 39 0 40 0;
#X connect 40 0 34 0;
#X connect 42 0 44 0;
#X connect 42 0 82 1;
#X connect 43 0 77 0;
#X connect 43 0 82 2;
#X connect 44 0 45 0;
#X connect 45 0 46 0;
#X connect 46 0 48 0;
#X connect 47 0 46 0;
#X connect 47 1 46 1;
#X connect 48 0 49 0;
#X connect 49 0 43 0;
#X connect 51 0 53 0;
#X connect 51 0 83 1;
#X connect 52 0 78 0;
#X connect 52 0 83 2;
#X connect 53 0 54 0;
#X connect 54 0 55 0;
#X connect 55 0 57 0;
#X connect 56 0 55 0;
#X connect 56 1 55 1;
#X connect 57 0 58 0;
#X connect 58 0 52 0;
#X connect 60 0 62 0;
#X connect 60 0 84 1;
#X connect 61 0 79 0;
#X connect 61 0 84 2;
#X connect 62 0 63 0;
#X connect 63 0 64 0;
#X connect 64 0 66 0;
#X connect 65 0 64 0;
#X connect 65 1 64 1;
#X connect 66 0 67 0;
#X connect 67 0 61 0;
#X connect 68 0 24 0;
#X connect 69 0 33 0;
#X connect 70 0 42 0;
#X connect 71 0 51 0;
#X connect 72 0 60 0;
#X connect 80 0 23 0;
#X connect 81 0 32 0;
#X connect 82 0 41 0;
#X connect 83 0 50 0;
#X connect 84 0 59 0;
#X connect 85 0 21 0;
#X connect 85 1 68 0;
#X connect 85 2 69 0;
#X connect 85 3 70 0;
#X connect 85 4 71 0;
#X connect 85 5 72 0;
#X coords 0 0 1 1 140 100 0;
#X restore 114 188 pd moorerreverb;
#X obj 459 51 inlet;
#X obj 459 72 s \$0-time;
#X obj 529 51 inlet;
#X obj 529 72 s \$0-ap_gain;
#X obj 603 326 nbx 5 14 -1e+37 1e+37 0 0 \$0-time \$0-time time 0 -8
0 10 -262144 -1 -1 5000 256;
#X obj 663 326 nbx 5 14 0 1 0 0 \$0-ap_gain \$0-ap_gain ap_gain 0 -8
0 10 -262144 -1 -1 0.94 256;
#X obj 313 74 r \$0-ap_gain;
#X obj 201 73 r \$0-time;
#X obj 518 149 f;
#X obj 467 122 savestate;
#X obj 467 237 s \$0-time;
#X obj 527 237 s \$0-ap_gain;
#X obj 533 122 r \$0-time;
#X obj 593 122 r \$0-ap_gain;
#X obj 313 95 clip 0 1;
#X obj 313 116 * -10;
#X obj 169 320 ii 1;
#X obj 518 173 pack f f;
#X obj 467 203 unpack f f;
#X text 654 60 fixme: doesn't save correctly;
#X obj 92 460 *~ 1;
#X obj 248 458 *~ 1;
#X text 153 423 out gain;
#X obj 153 438 ii 0.4;
#X connect 0 0 7 0;
#X connect 1 0 34 0;
#X connect 2 0 33 0;
#X connect 3 0 5 0;
#X connect 4 0 5 1;
#X connect 5 0 1 1;
#X connect 6 0 7 1;
#X connect 7 0 2 1;
#X connect 8 0 13 0;
#X connect 9 0 11 0;
#X connect 10 0 11 1;
#X connect 11 0 2 0;
#X connect 12 0 13 1;
#X connect 13 0 1 0;
#X connect 14 0 35 1;
#X connect 14 0 36 1;
#X connect 15 0 35 2;
#X connect 15 0 36 2;
#X connect 16 0 22 1;
#X connect 17 0 21 1;
#X connect 18 0 22 0;
#X connect 19 0 21 0;
#X connect 20 0 17 0;
#X connect 20 0 16 0;
#X connect 20 0 23 0;
#X connect 21 0 58 0;
#X connect 22 0 57 0;
#X connect 23 0 24 0;
#X connect 24 0 18 1;
#X connect 24 0 19 1;
#X connect 25 0 13 1;
#X connect 26 0 11 1;
#X connect 27 0 7 1;
#X connect 28 0 5 1;
#X connect 29 0 18 0;
#X connect 29 0 36 0;
#X connect 30 0 19 0;
#X connect 30 0 35 0;
#X connect 33 0 17 1;
#X connect 34 0 16 1;
#X connect 35 0 0 0;
#X connect 35 0 3 0;
#X connect 35 1 3 1;
#X connect 35 1 0 1;
#X connect 35 2 4 0;
#X connect 35 2 6 0;
#X connect 35 3 4 1;
#X connect 35 3 6 1;
#X connect 35 4 27 0;
#X connect 35 4 28 0;
#X connect 35 5 27 1;
#X connect 35 5 28 1;
#X connect 36 0 8 0;
#X connect 36 0 9 0;
#X connect 36 1 9 1;
#X connect 36 1 8 1;
#X connect 36 2 10 0;
#X connect 36 2 12 0;
#X connect 36 3 10 1;
#X connect 36 3 12 1;
#X connect 36 4 25 0;
#X connect 36 4 26 0;
#X connect 36 5 25 1;
#X connect 36 5 26 1;
#X connect 37 0 38 0;
#X connect 39 0 40 0;
#X connect 43 0 51 0;
#X connect 44 0 14 0;
#X connect 45 0 54 0;
#X connect 46 0 55 0;
#X connect 46 1 45 0;
#X connect 49 0 45 1;
#X connect 50 0 54 1;
#X connect 51 0 52 0;
#X connect 52 0 15 0;
#X connect 53 0 20 0;
#X connect 54 0 46 0;
#X connect 55 0 47 0;
#X connect 55 1 48 0;
#X connect 57 0 31 0;
#X connect 58 0 32 0;
#X connect 60 0 57 1;
#X connect 60 0 58 1;
#X coords 0 -1 1 1 120 44 1 600 300;
