#N canvas 278 63 836 755 10;
#X obj 9 55 inlet~;
#X obj 329 616 outlet~;
#X obj 283 275 phasor~;
#X obj 283 296 cos~;
#X obj 283 318 +~ 1;
#X obj 255 458 *~;
#X obj 269 395 -~;
#X obj 240 364 sig~ 1;
#X obj 136 118 hsl 74 8 0.5 3 1 1 empty empty empty -2 -8 0 10 -262144
-1 -1 229 1;
#X obj 333 361 snapshot~;
#X obj 412 54 loadbang;
#X obj 412 94 metro 4;
#X obj 345 448 -;
#X obj 333 401 t b f;
#X obj 333 381 * 5000;
#X obj 255 482 lop~ 12000;
#X msg 318 425 12000;
#X obj 424 617 outlet~;
#N canvas 0 29 450 300 pan1 0;
#X obj 120 15 inlet;
#X obj 297 51 inlet~;
#X obj 256 225 outlet~;
#X obj 336 218 outlet~;
#X obj 251 149 *~;
#X obj 323 154 *~;
#X obj 276 122 + 1;
#X obj 335 113 * -1;
#X obj 208 75 * -1;
#X obj 160 42 clip 0 1;
#X connect 0 0 9 0;
#X connect 1 0 4 0;
#X connect 1 0 5 1;
#X connect 4 0 2 0;
#X connect 5 0 3 0;
#X connect 6 0 4 1;
#X connect 7 0 5 0;
#X connect 8 0 6 0;
#X connect 8 0 7 0;
#X connect 9 0 8 0;
#X restore 215 524 pd pan1;
#X obj 10 200 delwrite~ \$0rotspkdel1u 500;
#X obj 150 395 vd~ \$0rotspkdel1u;
#X obj 592 275 phasor~;
#X obj 592 296 cos~;
#X obj 592 319 +~ 1;
#X obj 562 441 *~;
#X obj 577 395 -~;
#X obj 544 364 sig~ 1;
#X obj 645 364 snapshot~;
#X obj 678 458 -;
#X obj 666 411 t b f;
#X obj 666 389 * 5000;
#X obj 562 465 lop~ 12000;
#X msg 654 435 12000;
#N canvas 0 0 450 300 pan1 0;
#X obj 120 15 inlet;
#X obj 297 51 inlet~;
#X obj 256 225 outlet~;
#X obj 336 218 outlet~;
#X obj 251 149 *~;
#X obj 323 154 *~;
#X obj 276 122 + 1;
#X obj 335 113 * -1;
#X obj 208 75 * -1;
#X obj 160 42 clip 0 1;
#X connect 0 0 9 0;
#X connect 1 0 4 0;
#X connect 1 0 5 1;
#X connect 4 0 2 0;
#X connect 5 0 3 0;
#X connect 6 0 4 1;
#X connect 7 0 5 0;
#X connect 8 0 6 0;
#X connect 8 0 7 0;
#X connect 9 0 8 0;
#X restore 523 510 pd pan1;
#X obj 67 179 delwrite~ \$0rotspkdel1l 500;
#X obj 464 396 vd~ \$0rotspkdel1l;
#X obj 67 159 lop~ 600;
#X obj 10 179 hip~ 600;
#X obj 283 173 random 1000;
#X obj 283 255 +;
#X obj 283 234 line;
#X msg 283 213 \$1 100;
#X obj 283 193 / 6000;
#X obj 592 173 random 1000;
#X obj 592 254 +;
#X obj 592 233 line;
#X msg 592 213 \$1 100;
#X obj 592 193 / 6000;
#X text 468 18 quick and dirty rotating speakers;
#X text 115 398 high;
#X text 425 393 low;
#X obj 203 482 * 0.05;
#X obj 203 503 + 0.495;
#X obj 514 465 * 0.1;
#X obj 514 486 + 0.49;
#X obj 284 364 *~ 0.2;
#X obj 150 372 *~ 1;
#X obj 464 374 *~ 1;
#X obj 592 364 *~ 0.15;
#X obj 133 21 inlet;
#X text 12 33 audio in;
#X obj 412 74 bng 15 250 50 0 empty empty empty 17 7 0 10 -262144 -1
-1;
#X obj 133 62 expr $f1*2.5 + 0.5;
#X floatatom 133 83 5 0 0 0 - - -;
#X obj 133 41 wrap;
#X text 178 23 <- pos in;
#X text 479 35 addapted from martin brinkmann;
#X obj 10 92 *~ 2;
#X connect 0 0 67 0;
#X connect 2 0 3 0;
#X connect 3 0 4 0;
#X connect 4 0 9 0;
#X connect 4 0 55 0;
#X connect 4 0 56 0;
#X connect 5 0 15 0;
#X connect 6 0 5 1;
#X connect 7 0 6 0;
#X connect 8 0 39 1;
#X connect 8 0 44 1;
#X connect 9 0 14 0;
#X connect 9 0 51 0;
#X connect 10 0 61 0;
#X connect 11 0 9 0;
#X connect 11 0 27 0;
#X connect 11 0 38 0;
#X connect 11 0 43 0;
#X connect 12 0 15 1;
#X connect 13 0 16 0;
#X connect 13 1 12 1;
#X connect 14 0 13 0;
#X connect 15 0 18 1;
#X connect 16 0 12 0;
#X connect 18 0 1 0;
#X connect 18 1 17 0;
#X connect 20 0 5 0;
#X connect 21 0 22 0;
#X connect 22 0 23 0;
#X connect 23 0 27 0;
#X connect 23 0 57 0;
#X connect 23 0 58 0;
#X connect 24 0 31 0;
#X connect 25 0 24 1;
#X connect 26 0 25 0;
#X connect 27 0 30 0;
#X connect 27 0 53 0;
#X connect 28 0 31 1;
#X connect 29 0 32 0;
#X connect 29 1 28 1;
#X connect 30 0 29 0;
#X connect 31 0 33 1;
#X connect 32 0 28 0;
#X connect 33 0 1 0;
#X connect 33 1 17 0;
#X connect 35 0 24 0;
#X connect 36 0 34 0;
#X connect 37 0 19 0;
#X connect 38 0 42 0;
#X connect 39 0 2 0;
#X connect 40 0 39 0;
#X connect 41 0 40 0;
#X connect 42 0 41 0;
#X connect 43 0 47 0;
#X connect 44 0 21 0;
#X connect 45 0 44 0;
#X connect 46 0 45 0;
#X connect 47 0 46 0;
#X connect 51 0 52 0;
#X connect 52 0 18 0;
#X connect 53 0 54 0;
#X connect 54 0 33 0;
#X connect 55 0 6 1;
#X connect 56 0 20 0;
#X connect 57 0 35 0;
#X connect 58 0 25 1;
#X connect 59 0 64 0;
#X connect 61 0 11 0;
#X connect 62 0 63 0;
#X connect 63 0 8 0;
#X connect 64 0 62 0;
#X connect 67 0 36 0;
#X connect 67 0 37 0;
#X coords 0 -1 1 1 85 30 1 130 100;
