#N canvas 645 102 589 683 10;
#X obj 160 361 rot_speaker~;
#X obj 89 22 tgl 15 0 empty empty empty 17 7 0 10 -262144 -1 -1 1 1
;
#X obj 89 42 metro 400;
#X obj 89 63 rand 40 60;
#X obj 89 84 quantize_gui;
#X floatatom 89 209 5 0 0 0 - - -;
#X obj 89 229 mtof;
#X obj 89 250 osc~;
#X obj 89 271 *~;
#X obj 69 312 gate~;
#X obj 59 382 dac~;
#X obj 166 42 loadbang;
#X msg 166 63 set 0 5 7 11;
#X obj 159 225 ad~ 1 300;
#X obj 159 312 gate~;
#X obj 180 406 dac~;
#X obj 238 312 randline 0.5;
#X connect 0 0 15 0;
#X connect 0 1 15 1;
#X connect 1 0 2 0;
#X connect 2 0 3 0;
#X connect 3 0 4 0;
#X connect 4 0 5 0;
#X connect 4 0 13 0;
#X connect 5 0 6 0;
#X connect 6 0 7 0;
#X connect 7 0 8 0;
#X connect 8 0 9 0;
#X connect 8 0 14 0;
#X connect 9 0 10 0;
#X connect 9 0 10 1;
#X connect 11 0 12 0;
#X connect 12 0 4 0;
#X connect 13 0 8 1;
#X connect 14 0 0 0;
#X connect 16 0 0 1;
