#N canvas 994 220 450 300 10;
#X obj 29 125 i;
#X obj 29 28 inlet;
#X obj 29 147 outlet;
#X obj 29 50 t f f;
#X obj 29 103 +;
#X obj 61 74 expr if($f1 > 0 \, 0.5 \, -0.5);
#X connect 0 0 2 0;
#X connect 1 0 3 0;
#X connect 3 0 4 0;
#X connect 3 1 5 0;
#X connect 4 0 0 0;
#X connect 5 0 4 1;
