#N canvas 153 93 960 734 10;
#X obj 36 239 spigot;
#X obj 36 49 inlet;
#X obj 36 292 outlet;
#X obj 86 49 inlet;
#X obj 166 49 loadbang;
#X obj 166 68 list \$1;
#X obj 48 214 == 0;
#X obj 81 239 spigot;
#X obj 81 292 outlet;
#X obj 126 239 spigot;
#X obj 126 292 outlet;
#X obj 171 239 spigot;
#X obj 171 292 outlet;
#X obj 216 239 spigot;
#X obj 216 292 outlet;
#X obj 261 239 spigot;
#X obj 261 292 outlet;
#X obj 306 239 spigot;
#X obj 306 292 outlet;
#X obj 351 239 spigot;
#X obj 351 292 outlet;
#X obj 93 214 == 1;
#X obj 138 214 == 2;
#X obj 183 214 == 3;
#X obj 228 214 == 4;
#X obj 273 214 == 5;
#X obj 318 214 == 6;
#X obj 363 214 == 7;
#X floatatom 87 147 5 0 0 0 - - -, f 5;
#X connect 0 0 2 0;
#X connect 1 0 0 0;
#X connect 1 0 7 0;
#X connect 1 0 9 0;
#X connect 1 0 11 0;
#X connect 1 0 13 0;
#X connect 1 0 17 0;
#X connect 1 0 19 0;
#X connect 1 0 15 0;
#X connect 3 0 28 0;
#X connect 4 0 5 0;
#X connect 5 0 28 0;
#X connect 6 0 0 1;
#X connect 7 0 8 0;
#X connect 9 0 10 0;
#X connect 11 0 12 0;
#X connect 13 0 14 0;
#X connect 15 0 16 0;
#X connect 17 0 18 0;
#X connect 19 0 20 0;
#X connect 21 0 7 1;
#X connect 22 0 9 1;
#X connect 23 0 11 1;
#X connect 24 0 13 1;
#X connect 25 0 15 1;
#X connect 26 0 17 1;
#X connect 27 0 19 1;
#X connect 28 0 6 0;
#X connect 28 0 21 0;
#X connect 28 0 22 0;
#X connect 28 0 23 0;
#X connect 28 0 24 0;
#X connect 28 0 25 0;
#X connect 28 0 26 0;
#X connect 28 0 27 0;
#X coords 0 734 1 733 40 35 0;
