#N canvas 889 82 791 806 10;
#X obj 55 48 loadbang;
#X obj 55 67 tgl 15 0 empty empty empty 17 7 0 10 -262144 -1 -1 1 1
;
#X obj 55 85 metro 321;
#X obj 155 128 f;
#X obj 181 128 + 1;
#X floatatom 194 157 5 0 0 0 - - -;
#X obj 55 260 print out0;
#X obj 125 260 print out1;
#X text 229 156 <- select output;
#X obj 195 260 print out2;
#X obj 265 260 print out3;
#X obj 125 285 print out5;
#X obj 55 285 print out4;
#X obj 195 285 print out6;
#X obj 265 285 print out7;
#X obj 155 202 router8out;
#A saved 0 0;
#X obj 55 202 router8out;
#A saved 0 0;
#X connect 0 0 1 0;
#X connect 1 0 2 0;
#X connect 2 0 3 0;
#X connect 2 0 16 0;
#X connect 3 0 4 0;
#X connect 3 0 15 0;
#X connect 4 0 3 1;
#X connect 5 0 15 1;
#X connect 5 0 16 1;
#X connect 15 0 6 0;
#X connect 15 1 7 0;
#X connect 15 2 9 0;
#X connect 15 3 10 0;
#X connect 15 4 12 0;
#X connect 15 5 11 0;
#X connect 15 6 13 0;
#X connect 15 7 14 0;
#X connect 16 0 6 0;
#X connect 16 1 7 0;
#X connect 16 2 9 0;
#X connect 16 3 10 0;
#X connect 16 4 12 0;
#X connect 16 5 11 0;
#X connect 16 6 13 0;
#X connect 16 7 14 0;
