#N canvas 901 107 481 572 10;
#X floatatom 163 227 5 0 0 0 - - -;
#X obj 104 33 tgl 15 1 empty empty empty 17 7 0 10 -262144 -1 -1 0
1;
#X obj 34 137 osc~ 400;
#X obj 68 350 env~;
#X obj 69 395 vu 15 120 empty empty -1 -8 0 10 -66577 -262144 1 0;
#X obj 68 371 - 100;
#X obj 108 350 env~;
#X obj 109 395 vu 15 120 empty empty -1 -8 0 10 -66577 -262144 1 0
;
#X obj 108 371 - 100;
#X obj 148 350 env~;
#X obj 149 395 vu 15 120 empty empty -1 -8 0 10 -66577 -262144 1 0
;
#X obj 148 371 - 100;
#X obj 188 350 env~;
#X obj 189 395 vu 15 120 empty empty -1 -8 0 10 -66577 -262144 1 0
;
#X obj 188 371 - 100;
#X obj 228 350 env~;
#X obj 229 395 vu 15 120 empty empty -1 -8 0 10 -66577 -262144 1 0
;
#X obj 228 371 - 100;
#X obj 268 350 env~;
#X obj 269 395 vu 15 120 empty empty -1 -8 0 10 -66577 -262144 1 0
;
#X obj 268 371 - 100;
#X obj 308 350 env~;
#X obj 309 395 vu 15 120 empty empty -1 -8 0 10 -66577 -262144 1 0
;
#X obj 308 371 - 100;
#X obj 348 350 env~;
#X obj 349 395 vu 15 120 empty empty -1 -8 0 10 -66577 -262144 1 0
;
#X obj 348 371 - 100;
#X obj 43 258 dac~;
#X obj 104 53 metro 500;
#X text 204 227 <- select output;
#X obj 89 181 *~;
#X obj 90 258 router8out~;
#A saved 2 0;
#X obj 104 114 ad~;
#A saved 1 40;
#X connect 0 0 31 1;
#X connect 1 0 28 0;
#X connect 2 0 30 0;
#X connect 3 0 5 0;
#X connect 5 0 4 0;
#X connect 6 0 8 0;
#X connect 8 0 7 0;
#X connect 9 0 11 0;
#X connect 11 0 10 0;
#X connect 12 0 14 0;
#X connect 14 0 13 0;
#X connect 15 0 17 0;
#X connect 17 0 16 0;
#X connect 18 0 20 0;
#X connect 20 0 19 0;
#X connect 21 0 23 0;
#X connect 23 0 22 0;
#X connect 24 0 26 0;
#X connect 26 0 25 0;
#X connect 28 0 32 0;
#X connect 30 0 27 0;
#X connect 30 0 27 1;
#X connect 30 0 31 0;
#X connect 31 0 3 0;
#X connect 31 1 6 0;
#X connect 31 2 9 0;
#X connect 31 3 12 0;
#X connect 31 4 15 0;
#X connect 31 5 18 0;
#X connect 31 6 21 0;
#X connect 31 7 24 0;
#X connect 32 0 30 1;
