#N canvas 241 102 600 396 10;
#X obj 23 50 inlet~;
#X obj 23 330 outlet~;
#X obj 39 239 == 0;
#X obj 99 239 == 1;
#X obj 159 239 == 2;
#X obj 219 239 == 3;
#X obj 279 239 == 4;
#X obj 339 239 == 5;
#X obj 399 239 == 6;
#X obj 459 239 == 7;
#X floatatom 87 142 5 0 0 0 - - -, f 5;
#X obj 87 49 inlet;
#X obj 166 49 loadbang;
#X obj 166 68 list \$1;
#X obj 23 311 *~;
#X obj 39 279 vline~;
#X msg 39 259 \$1 5;
#X obj 83 330 outlet~;
#X obj 83 311 *~;
#X obj 99 279 vline~;
#X msg 99 259 \$1 5;
#X obj 143 330 outlet~;
#X obj 143 311 *~;
#X obj 159 279 vline~;
#X msg 159 259 \$1 5;
#X obj 203 330 outlet~;
#X obj 203 311 *~;
#X obj 219 279 vline~;
#X msg 219 259 \$1 5;
#X obj 263 330 outlet~;
#X obj 263 311 *~;
#X obj 279 279 vline~;
#X msg 279 259 \$1 5;
#X obj 323 330 outlet~;
#X obj 323 311 *~;
#X obj 339 279 vline~;
#X msg 339 259 \$1 5;
#X obj 383 330 outlet~;
#X obj 383 311 *~;
#X obj 399 279 vline~;
#X msg 399 259 \$1 5;
#X obj 443 330 outlet~;
#X obj 443 311 *~;
#X obj 459 279 vline~;
#X msg 459 259 \$1 5;
#X connect 0 0 14 0;
#X connect 0 0 18 0;
#X connect 0 0 22 0;
#X connect 0 0 26 0;
#X connect 0 0 30 0;
#X connect 0 0 34 0;
#X connect 0 0 38 0;
#X connect 0 0 42 0;
#X connect 2 0 16 0;
#X connect 3 0 20 0;
#X connect 4 0 24 0;
#X connect 5 0 28 0;
#X connect 6 0 32 0;
#X connect 7 0 36 0;
#X connect 8 0 40 0;
#X connect 9 0 44 0;
#X connect 10 0 2 0;
#X connect 10 0 3 0;
#X connect 10 0 4 0;
#X connect 10 0 5 0;
#X connect 10 0 6 0;
#X connect 10 0 7 0;
#X connect 10 0 8 0;
#X connect 10 0 9 0;
#X connect 11 0 10 0;
#X connect 12 0 13 0;
#X connect 13 0 10 0;
#X connect 14 0 1 0;
#X connect 15 0 14 1;
#X connect 16 0 15 0;
#X connect 18 0 17 0;
#X connect 19 0 18 1;
#X connect 20 0 19 0;
#X connect 22 0 21 0;
#X connect 23 0 22 1;
#X connect 24 0 23 0;
#X connect 26 0 25 0;
#X connect 27 0 26 1;
#X connect 28 0 27 0;
#X connect 30 0 29 0;
#X connect 31 0 30 1;
#X connect 32 0 31 0;
#X connect 34 0 33 0;
#X connect 35 0 34 1;
#X connect 36 0 35 0;
#X connect 38 0 37 0;
#X connect 39 0 38 1;
#X connect 40 0 39 0;
#X connect 42 0 41 0;
#X connect 43 0 42 1;
#X connect 44 0 43 0;
#X coords 0 0 1 1 85 60 0;
