#N canvas 700 316 960 734 10;
#X obj 36 239 spigot;
#X obj 36 49 inlet;
#X obj 36 292 outlet;
#X obj 215 49 inlet;
#X obj 356 49 loadbang;
#X obj 356 68 list \$1;
#X obj 48 214 == 0;
#X obj 81 239 spigot;
#X obj 81 292 outlet;
#X obj 126 239 spigot;
#X obj 126 292 outlet;
#X obj 171 239 spigot;
#X obj 171 292 outlet;
#X obj 216 239 spigot;
#X obj 216 292 outlet;
#X obj 261 239 spigot;
#X obj 261 292 outlet;
#X obj 306 239 spigot;
#X obj 306 292 outlet;
#X obj 351 239 spigot;
#X obj 351 292 outlet;
#X obj 93 214 == 1;
#X obj 138 214 == 2;
#X obj 183 214 == 3;
#X obj 228 214 == 4;
#X obj 273 214 == 5;
#X obj 318 214 == 6;
#X obj 363 214 == 7;
#X floatatom 90 147 5 0 0 0 - - -;
#X obj 90 124 hradio 10 1 0 8 \$0-route \$0-route empty 0 -8 0 10 -262144
-1 -1 0;
#X obj 659 165 f;
#X obj 659 194 pack;
#X obj 608 141 savestate;
#X obj 608 205 unpack;
#X obj 674 140 r \$0-route;
#X obj 608 237 s \$0-route;
#X obj 519 277 spigot 1;
#X msg 564 240 0;
#X obj 519 256 ii 0;
#X obj 215 89 s \$0-route;
#X obj 215 69 clip 0 7;
#X obj 126 61 r \$0-route;
#X connect 0 0 2 0;
#X connect 1 0 0 0;
#X connect 1 0 7 0;
#X connect 1 0 9 0;
#X connect 1 0 11 0;
#X connect 1 0 13 0;
#X connect 1 0 17 0;
#X connect 1 0 19 0;
#X connect 1 0 15 0;
#X connect 3 0 40 0;
#X connect 4 0 5 0;
#X connect 6 0 0 1;
#X connect 7 0 8 0;
#X connect 9 0 10 0;
#X connect 11 0 12 0;
#X connect 13 0 14 0;
#X connect 15 0 16 0;
#X connect 17 0 18 0;
#X connect 19 0 20 0;
#X connect 21 0 7 1;
#X connect 22 0 9 1;
#X connect 23 0 11 1;
#X connect 24 0 13 1;
#X connect 25 0 15 1;
#X connect 26 0 17 1;
#X connect 27 0 19 1;
#X connect 28 0 6 0;
#X connect 28 0 21 0;
#X connect 28 0 22 0;
#X connect 28 0 23 0;
#X connect 28 0 24 0;
#X connect 28 0 25 0;
#X connect 28 0 26 0;
#X connect 28 0 27 0;
#X connect 29 0 28 0;
#X connect 30 0 31 0;
#X connect 31 0 32 0;
#X connect 32 0 33 0;
#X connect 32 1 30 0;
#X connect 33 0 35 0;
#X connect 33 0 37 0;
#X connect 34 0 30 1;
#X connect 36 0 35 0;
#X connect 37 0 36 1;
#X connect 38 0 36 0;
#X connect 40 0 39 0;
#X connect 41 0 28 0;
#X coords 0 -1 1 1 80 26 1 90 110;
