#N canvas 154 195 1006 618 10;
#X obj 37 37 inlet;
#X obj 39 544 outlet~;
#X obj 80 100 s \$0-load;
#X obj 178 543 outlet~;
#X obj 40 442 tabread4~ \$0-left;
#X obj 179 439 tabread4~ \$0-right;
#N canvas 1122 144 483 376 load_file 0;
#X obj 16 286 soundfiler;
#X obj 140 128 s \$0-samplerate;
#X obj 16 309 s \$0-samplelength;
#X obj 101 106 wavinfo;
#X obj 56 28 r \$0-load;
#X obj 56 74 t l l;
#X obj 56 50 list;
#X obj 91 210 f \$0;
#X obj 16 210 symbol \$1;
#X obj 16 232 pack symbol f;
#X obj 56 178 t s b;
#X obj 114 149 select 2;
#X msg 114 170 0;
#X msg 159 171 1;
#X obj 141 200 s \$0-is_mono;
#X msg 16 254 read -resize \$1 \$2-left \$2-right;
#X obj 292 64 openpanel;
#X obj 292 85 s \$0-load;
#X obj 292 44 r \$0-loadfile;
#X text 291 27 load from gui;
#X msg 240 88 1;
#X obj 240 109 s \$0-playrate;
#X obj 356 143 r \$0-playrate;
#X obj 341 168 f;
#X obj 341 189 s \$0-playrate;
#X obj 338 143 bng 15 250 50 0 empty empty empty 17 7 0 10 -262144
-1 -1;
#X connect 0 0 2 0;
#X connect 3 1 11 0;
#X connect 3 3 1 0;
#X connect 4 0 6 0;
#X connect 5 0 10 0;
#X connect 5 1 3 0;
#X connect 6 0 5 0;
#X connect 7 0 9 1;
#X connect 8 0 9 0;
#X connect 9 0 15 0;
#X connect 10 0 8 0;
#X connect 10 1 7 0;
#X connect 11 0 12 0;
#X connect 11 1 13 0;
#X connect 12 0 14 0;
#X connect 13 0 14 0;
#X connect 15 0 0 0;
#X connect 16 0 17 0;
#X connect 16 0 25 0;
#X connect 18 0 16 0;
#X connect 18 0 20 0;
#X connect 20 0 21 0;
#X connect 22 0 23 1;
#X connect 23 0 24 0;
#X connect 25 0 23 0;
#X restore 741 43 pd load_file;
#X obj 81 468 r \$0-is_mono;
#X obj 63 491 *~;
#X obj 37 122 s \$0-play;
#N canvas 232 165 631 476 play_file 0;
#X obj 189 244 pack f f;
#X obj 168 95 f;
#X obj 183 76 r \$0-samplelength;
#X obj 259 135 r \$0-samplerate;
#X obj 171 273 s \$0-playline;
#X obj 37 28 r \$0-play;
#X obj 259 115 r \$0-playrate;
#X obj 447 31 r \$0-stop;
#X msg 447 52 0;
#X obj 447 85 s \$0-playline;
#X obj 330 222 abs;
#X obj 22 183 expr if($f2 >= 0 \, 0 \, $f1);
#X obj 189 183 expr if($f3>=0 \, $f1 \, 0) \; $f1/$f2 * 1000 / $f3
;
#X obj 37 55 bng 15 250 50 0 empty empty empty 17 7 0 10 -262144 -1
-1;
#X obj 168 115 t f f;
#X text 44 164 start point;
#X text 214 164 play line;
#X obj 343 293 r \$0-playrate;
#X obj 343 314 < 0;
#X obj 343 335 s \$0-backwards;
#X connect 0 0 4 0;
#X connect 1 0 14 0;
#X connect 2 0 1 1;
#X connect 3 0 12 1;
#X connect 5 0 13 0;
#X connect 6 0 11 1;
#X connect 6 0 12 2;
#X connect 7 0 8 0;
#X connect 8 0 9 0;
#X connect 10 0 0 1;
#X connect 11 0 4 0;
#X connect 12 0 0 0;
#X connect 12 1 10 0;
#X connect 13 0 1 0;
#X connect 14 0 12 0;
#X connect 14 1 11 0;
#X connect 17 0 18 0;
#X connect 18 0 19 0;
#X restore 740 63 pd play_file;
#X obj 177 36 inlet;
#X obj 177 58 s \$0-playrate;
#X text 35 18 bang to play;
#X text 175 15 playback rate;
#X obj 364 273 bng 15 250 50 0 \$0-loadfile empty load 17 8 0 10 -262144
-1 -1;
#X obj 407 274 nbx 3 14 -100 100 0 0 \$0-playrate \$0-playrate rate
37 7 0 10 -262144 -1 -1 1 256;
#N canvas 0 50 450 250 (subpatch) 0;
#X array \$0-left 125426 float 2;
#X coords 0 250 125426 249 200 140 0;
#X restore 741 23 graph;
#N canvas 0 50 450 250 (subpatch) 0;
#X array \$0-right 125426 float 2;
#X coords 0 250 125426 249 200 140 0;
#X restore 781 23 graph;
#X obj 578 132 savestate;
#X obj 629 152 f;
#X obj 644 111 r \$0-playrate;
#X obj 686 152 r \$0-load;
#X obj 667 262 s \$0-playrate;
#X obj 668 222 s \$0-load;
#X obj 80 79 symbol;
#X symbolatom 364 256 20 0 0 0 - - -;
#X obj 386 211 stripdir;
#X obj 386 188 r \$0-load;
#X obj 37 59 route bang load stop;
#X obj 143 100 s \$0-stop;
#X obj 37 97 bng 15 250 50 0 empty empty empty 17 7 0 10 -262144 -1
-1;
#X obj 143 81 bng 15 250 50 0 empty empty empty 17 7 0 10 -262144 -1
-1;
#X obj 120 410 *~;
#X obj 135 383 r \$0-samplelength;
#X obj 702 331 r \$0-samplerate;
#X obj 701 351 r \$0-samplelength;
#X obj 596 351 r \$0-playrate;
#X obj 596 371 expr $f2/$f3 * $f1;
#X msg 238 274 0;
#X obj 458 57 gate~;
#X obj 121 340 phasorshot~;
#X obj 193 230 f;
#X obj 208 208 r \$0-backwards;
#X obj 121 304 spigot;
#X msg 154 273 1;
#X obj 121 280 f;
#X obj 167 363 s \$0-done;
#X obj 238 234 r \$0-done;
#X obj 121 167 r \$0-play;
#X obj 596 391 s \$0-freq;
#X obj 57 248 r \$0-freq;
#X obj 121 187 t b b b;
#X obj 470 273 tgl 15 0 \$0-loop \$0-loop empty 17 7 0 10 -262144 -1
-1 0 1;
#X obj 272 163 == 0;
#X obj 238 254 spigot;
#X obj 281 255 r \$0-stop;
#X obj 279 86 r \$0-loop;
#X obj 192 308 r \$0-loop;
#X obj 629 172 pack f f s;
#X obj 657 132 r \$0-loop;
#X obj 578 192 unpack f f s;
#X obj 667 242 s \$0-loop;
#X connect 0 0 29 0;
#X connect 4 0 1 0;
#X connect 4 0 8 0;
#X connect 5 0 3 0;
#X connect 7 0 8 1;
#X connect 8 0 3 0;
#X connect 11 0 12 0;
#X connect 19 0 61 0;
#X connect 19 1 20 0;
#X connect 20 0 59 0;
#X connect 21 0 20 1;
#X connect 22 0 59 2;
#X connect 25 0 2 0;
#X connect 27 0 26 0;
#X connect 28 0 27 0;
#X connect 29 0 31 0;
#X connect 29 1 25 0;
#X connect 29 2 32 0;
#X connect 31 0 9 0;
#X connect 32 0 30 0;
#X connect 33 0 4 0;
#X connect 33 0 5 0;
#X connect 34 0 33 1;
#X connect 35 0 38 1;
#X connect 36 0 38 2;
#X connect 37 0 38 0;
#X connect 38 0 50 0;
#X connect 39 0 41 0;
#X connect 39 0 44 1;
#X connect 41 0 33 0;
#X connect 41 1 47 0;
#X connect 41 2 47 0;
#X connect 42 0 41 1;
#X connect 43 0 42 1;
#X connect 44 0 41 0;
#X connect 45 0 44 1;
#X connect 46 0 44 0;
#X connect 48 0 55 0;
#X connect 49 0 52 0;
#X connect 51 0 46 0;
#X connect 52 0 46 0;
#X connect 52 1 45 0;
#X connect 52 2 42 0;
#X connect 54 0 55 1;
#X connect 55 0 39 0;
#X connect 56 0 39 0;
#X connect 57 0 54 0;
#X connect 58 0 41 2;
#X connect 59 0 19 0;
#X connect 60 0 59 1;
#X connect 61 0 23 0;
#X connect 61 1 62 0;
#X connect 61 2 24 0;
#X coords 0 -1 1 1 129 50 1 360 240;
