#N canvas 641 56 753 639 10;
#X obj 107 176 saw_synth;
#A saved 0 635 0 9 0 470 16 0;
#X obj 163 326 gate~;
#A saved 1 0;
#X obj 151 396 dac~;
#X obj 63 30 tgl 15 1 empty empty empty 17 7 0 10 -262144 -1 -1 1 1
;
#X obj 63 71 rand 50 30;
#X floatatom 63 92 5 0 0 0 - - -;
#X obj 63 50 metro 800;
#X obj 113 127 bng 15 250 50 0 empty empty empty 17 7 0 10 -262144
-1 -1;
#X msg 178 149 off;
#X obj 176 123 delay 10;
#X connect 0 0 1 0;
#X connect 1 0 2 0;
#X connect 1 0 2 1;
#X connect 3 0 6 0;
#X connect 4 0 5 0;
#X connect 5 0 0 0;
#X connect 5 0 7 0;
#X connect 6 0 4 0;
#X connect 7 0 0 1;
#X connect 7 0 9 0;
#X connect 8 0 0 1;
#X connect 9 0 8 0;
