#N canvas 241 40 1491 891 10;
#X obj 645 100 inlet;
#X obj 51 679 outlet~;
#X obj 687 183 route on off;
#X obj 89 459 phasor~;
#X obj 89 408 mtof;
#X obj 687 233 route bang;
#X obj 109 507 vline~;
#X obj 90 528 *~;
#X obj 347 142 pack 1 f;
#X msg 347 119 bang;
#X obj 445 162 pack 0 f;
#X obj 50 575 lop~;
#X obj 50 597 lop~;
#X obj 50 619 lop~;
#X obj 50 641 lop~;
#X obj 89 438 sig~ 440;
#X text 348 73 amp env;
#X obj 428 293 t b b;
#X obj 397 353 delay;
#X obj 283 479 line 0 1;
#X text 427 246 freq env;
#X text 560 288 attack;
#X text 378 329 decay;
#X text 137 403 guts;
#X obj 234 103 bng 15 50 10 0 \$0-on \$0-on empty 17 7 0 10 -262144
-1 -1;
#X obj 434 515 / 100;
#X obj 87 383 +;
#X obj 514 515 * 12;
#X obj 467 580 +;
#X msg 467 538 bang;
#X obj 127 116 nbx 3 14 0 999 0 0 \$0-attack \$0-attack att -20 7 0
10 -262144 -1 -1 0 256;
#X obj 127 130 nbx 3 14 0 999 0 0 \$0-release \$0-release rel -20 7
0 10 -262144 -1 -1 635 256;
#X obj 211 121 nbx 3 14 0 100 0 0 \$0-freq \$0-freq freq -28 7 0 10
-262144 -1 -1 9 256;
#X obj 211 135 nbx 3 14 0 999 0 0 \$0-filt_attack \$0-filt_attack f-att
-32 7 0 10 -262144 -1 -1 0 256;
#X obj 211 149 nbx 3 14 0 999 0 0 \$0-filt_decay \$0-filt_decay f-dec
-33 7 0 10 -262144 -1 -1 470 256;
#X obj 211 163 nbx 3 14 0 100 0 0 \$0-filt_env \$0-filt_env f-env -33
7 0 10 -262144 -1 -1 16 256;
#X obj 143 181 nbx 3 14 -100 100 0 0 \$0-detune \$0-detune detune -38
7 0 10 -262144 -1 -1 0 256;
#X obj 211 181 nbx 3 14 -5 5 0 0 \$0-octave \$0-octave oct -20 7 0
10 -262144 -1 -1 0 256;
#X obj 399 98 r \$0-attack;
#X obj 490 117 r \$0-release;
#X obj 951 147 s \$0-attack;
#X obj 991 168 s \$0-release;
#X obj 1032 147 s \$0-freq;
#X obj 1073 168 s \$0-filt_attack;
#X obj 1094 146 s \$0-filt_decay;
#X obj 1154 198 s \$0-filt_env;
#X obj 1195 147 s \$0-detune;
#X obj 1236 168 s \$0-octave;
#X obj 130 265 r \$0-offset;
#X obj 467 602 s \$0-offset;
#X obj 515 492 r \$0-octave;
#X obj 434 492 r \$0-detune;
#X obj 424 328 r \$0-filt_attack;
#X obj 324 503 r \$0-filt_env;
#X obj 655 328 r \$0-filt_attack;
#X obj 442 353 r \$0-filt_decay;
#X obj 498 415 s \$0-freq_env_line;
#X obj 283 454 r \$0-freq_env_line;
#X obj 400 188 s \$0-amp_env_line;
#X obj 109 485 r \$0-amp_env_line;
#X obj 347 96 r \$0-on;
#X obj 489 97 r \$0-off;
#X obj 709 208 s \$0-off;
#X obj 687 262 s \$0-on;
#X obj 788 95 inlet;
#X obj 788 166 s \$0-on;
#X obj 864 159 s \$0-off;
#X obj 950 85 inlet;
#X obj 645 121 s \$0-note;
#X obj 56 258 r \$0-note;
#X obj 324 525 pipe 0.0001;
#X obj 655 352 pipe 0.0001;
#X obj 428 267 r \$0-on;
#X obj 490 140 pipe 0.0001;
#X obj 399 118 pipe 0.0001;
#N canvas 0 50 475 484 savestate 0;
#X obj 101 171 f;
#X obj 50 143 savestate;
#X obj 101 200 pack f f f f f f f f;
#X obj 50 237 unpack f f f f f f f f;
#X obj 234 78 r \$0-detune;
#X obj 234 46 r \$0-attack;
#X obj 234 62 r \$0-release;
#X obj 234 94 r \$0-freq;
#X obj 234 110 r \$0-filt_attack;
#X obj 234 126 r \$0-filt_decay;
#X obj 234 142 r \$0-filt_env;
#X obj 234 158 r \$0-octave;
#X obj 239 262 s \$0-attack;
#X obj 239 278 s \$0-release;
#X obj 239 294 s \$0-detune;
#X obj 239 310 s \$0-freq;
#X obj 239 326 s \$0-filt_attack;
#X obj 239 342 s \$0-filt_decay;
#X obj 239 358 s \$0-filt_env;
#X obj 239 374 s \$0-octave;
#X connect 0 0 2 0;
#X connect 1 0 3 0;
#X connect 1 1 0 0;
#X connect 2 0 1 0;
#X connect 3 0 12 0;
#X connect 3 1 13 0;
#X connect 3 2 14 0;
#X connect 3 3 15 0;
#X connect 3 4 16 0;
#X connect 3 5 17 0;
#X connect 3 6 18 0;
#X connect 3 7 19 0;
#X connect 4 0 2 2;
#X connect 5 0 0 1;
#X connect 6 0 2 1;
#X connect 7 0 2 3;
#X connect 8 0 2 4;
#X connect 9 0 2 5;
#X connect 10 0 2 6;
#X connect 11 0 2 7;
#X restore 957 417 pd savestate;
#X obj 951 124 route att rel freq f-att f-dec f-env detune oct;
#X obj 207 549 r \$0-freq;
#X obj 206 599 bondo 3;
#X obj 183 628 expr $f1 * $f2 + $f1 * $f3;
#X obj 397 378 pack 0 f;
#X obj 572 385 pack 1 f;
#X obj 283 500 pow 3;
#X obj 304 555 bondo;
#X obj 304 576 *;
#X obj 77 298 bondo;
#X obj 788 116 route bang on off;
#X connect 0 0 68 0;
#X connect 2 0 5 0;
#X connect 2 1 62 0;
#X connect 3 0 7 0;
#X connect 4 0 15 0;
#X connect 4 0 78 0;
#X connect 5 0 63 0;
#X connect 5 1 63 0;
#X connect 6 0 7 1;
#X connect 7 0 11 0;
#X connect 8 0 58 0;
#X connect 9 0 8 0;
#X connect 10 0 58 0;
#X connect 11 0 12 0;
#X connect 12 0 13 0;
#X connect 13 0 14 0;
#X connect 14 0 1 0;
#X connect 15 0 3 0;
#X connect 17 0 18 0;
#X connect 17 1 81 0;
#X connect 18 0 80 0;
#X connect 19 0 82 0;
#X connect 25 0 28 0;
#X connect 26 0 4 0;
#X connect 27 0 28 1;
#X connect 27 0 29 0;
#X connect 28 0 49 0;
#X connect 29 0 28 0;
#X connect 38 0 74 0;
#X connect 39 0 73 0;
#X connect 48 0 85 1;
#X connect 50 0 27 0;
#X connect 51 0 25 0;
#X connect 52 0 18 1;
#X connect 53 0 70 0;
#X connect 54 0 71 0;
#X connect 55 0 80 1;
#X connect 57 0 19 0;
#X connect 59 0 6 0;
#X connect 60 0 9 0;
#X connect 61 0 10 0;
#X connect 64 0 86 0;
#X connect 67 0 76 0;
#X connect 69 0 85 0;
#X connect 70 0 83 1;
#X connect 71 0 81 1;
#X connect 72 0 17 0;
#X connect 73 0 10 1;
#X connect 74 0 8 1;
#X connect 76 0 40 0;
#X connect 76 1 41 0;
#X connect 76 2 42 0;
#X connect 76 3 43 0;
#X connect 76 4 44 0;
#X connect 76 5 45 0;
#X connect 76 6 46 0;
#X connect 76 7 47 0;
#X connect 77 0 78 1;
#X connect 78 0 79 0;
#X connect 78 1 79 1;
#X connect 78 2 79 2;
#X connect 79 0 11 1;
#X connect 79 0 12 1;
#X connect 79 0 13 1;
#X connect 79 0 14 1;
#X connect 80 0 56 0;
#X connect 81 0 56 0;
#X connect 82 0 83 0;
#X connect 83 0 84 0;
#X connect 83 1 84 1;
#X connect 84 0 78 2;
#X connect 85 0 26 0;
#X connect 85 1 26 1;
#X connect 86 0 65 0;
#X connect 86 1 65 0;
#X connect 86 2 66 0;
#X coords 0 -1 1 1 150 100 1 100 100;
