#N canvas 426 499 957 314 10;
#X obj 500 19 loadbang;
#X obj 500 91 list \$1;
#X obj 590 91 list \$2;
#X obj 680 91 list \$3;
#X obj 770 91 list \$4;
#X obj 500 113 s \$0-lo_in;
#X obj 680 113 s \$0-lo_out;
#X obj 770 113 s \$0-hi_out;
#X obj 590 113 s \$0-hi_in;
#X obj 43 253 outlet;
#X obj 79 123 r \$0-lo_in;
#X obj 169 123 r \$0-hi_in;
#X obj 259 123 r \$0-lo_out;
#X obj 349 123 r \$0-hi_out;
#X obj 100 71 s \$0-lo_in;
#X obj 280 71 s \$0-lo_out;
#X obj 370 71 s \$0-hi_out;
#X obj 190 71 s \$0-hi_in;
#X obj 100 49 inlet;
#X obj 190 49 inlet;
#X obj 280 49 inlet;
#X obj 370 49 inlet;
#X obj 43 151 expr ($f1 - $f2) * ($f5-$f4)/($f3-$f2) + $f4;
#X obj 43 49 inlet;
#X obj 500 40 t b b;
#X connect 0 0 24 0;
#X connect 1 0 5 0;
#X connect 2 0 8 0;
#X connect 3 0 6 0;
#X connect 4 0 7 0;
#X connect 10 0 22 1;
#X connect 11 0 22 2;
#X connect 12 0 22 3;
#X connect 13 0 22 4;
#X connect 18 0 14 0;
#X connect 19 0 17 0;
#X connect 20 0 15 0;
#X connect 21 0 16 0;
#X connect 22 0 9 0;
#X connect 23 0 22 0;
#X connect 24 1 4 0;
#X connect 24 1 3 0;
#X connect 24 1 2 0;
#X connect 24 1 1 0;
