#N canvas 736 355 757 411 10;
#X obj 42 42 inlet;
#X obj 255 303 outlet~;
#X obj 219 246 noise~;
#X obj 272 245 vline~;
#X obj 256 273 *~;
#X obj 134 107 bng 15 50 10 0 empty \$0-play empty 17 7 0 10 -262144
-1 -1;
#X text 508 121 presets;
#X obj 272 195 pack f f f;
#X obj 337 111 r \$0-a1;
#X obj 337 131 r \$0-t1;
#X obj 337 151 r \$0-t2;
#X obj 272 145 f;
#X msg 272 216 1 \, \$1 \$2 \, 0 \$3 \$2;
#X obj 114 123 nbx 3 14 0 1 0 0 \$0-a1 \$0-a1 a1 -12 7 0 10 -262144
-1 -1 0.95 256;
#X obj 166 123 nbx 3 14 0 999 0 0 \$0-t2 \$0-t2 t2 -12 7 0 10 -262144
-1 -1 113 256;
#X obj 166 107 nbx 3 14 0 999 0 0 \$0-t1 \$0-t1 t1 -12 7 0 10 -262144
-1 -1 1 256;
#X obj 206 42 inlet;
#X obj 206 63 s \$0-a1;
#X obj 256 42 inlet;
#X obj 256 63 s \$0-t1;
#X obj 306 42 inlet;
#X obj 306 63 s \$0-t2;
#X obj 476 51 route a1 t1 t2;
#X obj 484 190 s \$0-in;
#X obj 476 27 r \$0-in;
#X obj 476 78 s \$0-a1;
#X obj 526 78 s \$0-t1;
#X obj 576 78 s \$0-t2;
#X obj 626 78 s \$0-play;
#X obj 272 112 r \$0-play;
#X obj 42 63 s \$0-in;
#X msg 510 143 a1 0.2 \, t1 23 \, t2 104;
#X msg 510 162 a1 0.5 \, t1 1 \, t2 113;
#X text 16 18 bang to play or set params;
#X obj 626 57 bng 15 50 10 0 empty empty empty 17 7 0 10 -262144 -1
-1;
#X obj 539 263 f;
#X obj 488 239 savestate;
#X obj 539 284 pack f f f;
#X obj 488 312 unpack f f f;
#X obj 488 337 s \$0-a1;
#X obj 534 337 s \$0-t1;
#X obj 580 337 s \$0-t2;
#X obj 554 239 r \$0-a1;
#X obj 600 239 r \$0-t1;
#X obj 646 239 r \$0-t2;
#X connect 0 0 30 0;
#X connect 2 0 4 0;
#X connect 3 0 4 1;
#X connect 4 0 1 0;
#X connect 7 0 12 0;
#X connect 8 0 11 1;
#X connect 9 0 7 1;
#X connect 10 0 7 2;
#X connect 11 0 7 0;
#X connect 12 0 3 0;
#X connect 16 0 17 0;
#X connect 18 0 19 0;
#X connect 20 0 21 0;
#X connect 22 0 25 0;
#X connect 22 1 26 0;
#X connect 22 2 27 0;
#X connect 22 3 34 0;
#X connect 24 0 22 0;
#X connect 29 0 11 0;
#X connect 31 0 23 0;
#X connect 32 0 23 0;
#X connect 34 0 28 0;
#X connect 35 0 37 0;
#X connect 36 0 38 0;
#X connect 36 1 35 0;
#X connect 37 0 36 0;
#X connect 38 0 39 0;
#X connect 38 1 40 0;
#X connect 38 2 41 0;
#X connect 42 0 35 1;
#X connect 43 0 37 1;
#X connect 44 0 37 2;
#X coords 0 -1 1 1 104 40 1 100 100;
