#N canvas 352 29 1248 845 10;
#X obj 47 269 nbx 4 14 -1e+37 1e+37 0 0 \$0-step0 \$0-step0in 0 -10
7 0 10 -166441 -1 -1 -0.5 256;
#X obj 47 283 nbx 4 14 -1e+37 1e+37 0 0 \$0-step1 \$0-step1in 1 -10
7 0 10 -262144 -1 -1 -0.5 256;
#X obj 47 297 nbx 4 14 -1e+37 1e+37 0 0 \$0-step2 \$0-step2in 2 -10
7 0 10 -262144 -1 -1 -0.5 256;
#X obj 47 311 nbx 4 14 -1e+37 1e+37 0 0 \$0-step3 \$0-step3in 3 -10
7 0 10 -262144 -1 -1 -0.5 256;
#X obj 47 325 nbx 4 14 -1e+37 1e+37 0 0 \$0-step4 \$0-step4in 4 -10
7 0 10 -262144 -1 -1 -0.5 256;
#X obj 47 339 nbx 4 14 -1e+37 1e+37 0 0 \$0-step5 \$0-step5in 5 -10
7 0 10 -262144 -1 -1 -0.5 256;
#X obj 47 353 nbx 4 14 -1e+37 1e+37 0 0 \$0-step6 \$0-step6in 6 -10
7 0 10 -262144 -1 -1 -0.5 256;
#X obj 47 367 nbx 4 14 -1e+37 1e+37 0 0 \$0-step7 \$0-step7in 7 -10
7 0 10 -262144 -1 -1 -0.5 256;
#X obj 47 381 nbx 4 14 -1e+37 1e+37 0 0 \$0-step8 \$0-step8in 8 -10
7 0 10 -262144 -1 -1 -0.5 256;
#X obj 47 395 nbx 4 14 -1e+37 1e+37 0 0 \$0-step9 \$0-step9in 9 -10
7 0 10 -262144 -1 -1 -0.5 256;
#X obj 47 409 nbx 4 14 -1e+37 1e+37 0 0 \$0-step10 \$0-step10in 10
-15 7 0 10 -262144 -1 -1 -0.5 256;
#X obj 47 423 nbx 4 14 -1e+37 1e+37 0 0 \$0-step11 \$0-step11in 11
-15 7 0 10 -262144 -1 -1 -0.5 256;
#X obj 47 437 nbx 4 14 -1e+37 1e+37 0 0 \$0-step12 \$0-step12in 12
-15 7 0 10 -262144 -1 -1 -0.5 256;
#X obj 47 451 nbx 4 14 -1e+37 1e+37 0 0 \$0-step13 \$0-step13in 13
-15 7 0 10 -262144 -1 -1 -0.5 256;
#X obj 47 465 nbx 4 14 -1e+37 1e+37 0 0 \$0-step14 \$0-step14in 14
-15 7 0 10 -262144 -1 -1 -0.5 256;
#X obj 47 479 nbx 4 14 -1e+37 1e+37 0 0 \$0-step15 \$0-step15in 15
-15 7 0 10 -262144 -1 -1 -0.5 256;
#X obj 30 255 nbx 2 14 0 15 0 0 \$0-first \$0-first empty -35 7 0 10
-262144 -1 -1 0 256;
#X obj 64 255 nbx 2 14 0 15 0 0 \$0-last \$0-last > -5 7 0 10 -262144
-1 -1 15 256;
#X obj 41 746 outlet;
#X obj 113 54 inlet;
#X obj 249 751 outlet;
#X obj 243 656 t f f;
#X text 41 762 step values;
#X text 249 778 value change;
#X text 249 767 bang on step-;
#X obj 249 687 !=;
#X obj 249 710 sel 1;
#X obj 922 232 r \$0-last;
#X obj 832 232 r \$0-first;
#X obj 882 277 bondo;
#X obj 832 252 pipe 0.001;
#X obj 922 252 pipe 0.001;
#X obj 773 314 expr if($f1 < $f2 \, $f2 - $f1 + 1 \, $f1 - $f2 + 1)
\; if($f1 > $f2 \, -1 \, 1) \; if($f1 <= $f2 \, $f1 \, $f2);
#X obj 906 358 s \$0-direction;
#X obj 773 357 s \$0-mod;
#X obj 1057 363 s \$0-offset;
#X obj 249 731 bng 15 50 10 0 empty empty empty 17 7 0 10 -262144 -1
-1;
#X obj 302 658 ii 0.123457;
#X text 293 675 something \, so;
#X text 104 24 bang to step;
#X text 104 34 float sets step;
#N canvas 706 90 519 653 color_steps 0;
#X obj 171 216 count;
#X msg 171 196 16;
#X msg 171 236 0 \$1;
#X obj 48 47 r \$0-step;
#X msg 123 236 1 \$1;
#X obj 104 156 t f f b;
#X obj 142 47 loadbang;
#X obj 142 68 delay 0.001;
#X obj 142 119 f;
#X obj 157 88 r \$0-step;
#X msg 123 326 \; \$3-step\$2in color \$1;
#X obj 123 273 pack f f \$0;
#X connect 0 0 2 0;
#X connect 1 0 0 0;
#X connect 2 0 11 0;
#X connect 3 0 5 0;
#X connect 4 0 11 0;
#X connect 5 1 4 0;
#X connect 5 2 1 0;
#X connect 6 0 7 0;
#X connect 7 0 8 0;
#X connect 8 0 5 0;
#X connect 9 0 8 1;
#X connect 11 0 10 0;
#X restore 41 181 pd color_steps;
#N canvas 0 50 450 250 (subpatch) 0;
#X array \$0-seq 256 float 2;
#X coords 0 128 256 -2 200 140 1 0 0;
#X restore 831 56 graph;
#X obj 857 454 r \$0-step0;
#X obj 857 470 r \$0-step1;
#X obj 857 486 r \$0-step2;
#X obj 857 502 r \$0-step3;
#X obj 857 518 r \$0-step4;
#X obj 857 534 r \$0-step5;
#X obj 857 550 r \$0-step6;
#X obj 857 566 r \$0-step7;
#X obj 1009 460 r \$0-step8;
#X obj 1009 476 r \$0-step9;
#X obj 1009 492 r \$0-step10;
#X obj 1009 508 r \$0-step11;
#X obj 1009 524 r \$0-step12;
#X obj 1009 540 r \$0-step13;
#X obj 1009 556 r \$0-step14;
#X obj 1009 572 r \$0-step15;
#X obj 900 657 unpack;
#X obj 1054 664 r part;
#X obj 796 497 pack 1 0;
#X obj 796 513 pack 1 1;
#X obj 796 529 pack 1 2;
#X obj 796 545 pack 1 3;
#X obj 796 561 pack 1 4;
#X obj 796 577 pack 1 5;
#X obj 796 593 pack 1 6;
#X obj 796 609 pack 1 7;
#X obj 900 697 t b f;
#X obj 927 736 tabwrite \$0-seq;
#X obj 940 505 pack 1 8;
#X obj 940 521 pack 1 9;
#X obj 940 537 pack 1 10;
#X obj 940 553 pack 1 11;
#X obj 940 569 pack 1 12;
#X obj 940 585 pack 1 13;
#X obj 940 601 pack 1 14;
#X obj 940 617 pack 1 15;
#X obj 867 766 s \$0-redraw;
#X obj 943 684 expr $f1 + $f2 * 16;
#N canvas 166 66 1375 866 savestate 0;
#X obj 357 184 f;
#X obj 219 88 savestate;
#X obj 221 161 f \$0;
#X obj 124 251 array_unpack;
#X obj 501 205 array_pack;
#X obj 219 109 t l b;
#X obj 295 115 t b b b;
#X obj 501 165 f \$0;
#X obj 357 224 list prepend;
#X msg 304 337 0;
#X obj 78 418 spigot 1;
#X obj 304 297 r \$0-restore;
#X obj 124 116 s \$0-restore;
#X obj 80 366 spigot 1;
#X obj 232 257 unpack f f;
#X obj 357 204 pack f f;
#X msg 501 185 set \$1-seq;
#X msg 221 181 set \$1-seq;
#X msg 349 141 128;
#X obj 124 172 list split 128;
#X obj 496 35 r \$0-first;
#X obj 496 51 r \$0-last;
#X obj 223 310 s \$0-last;
#X obj 223 294 s \$0-first;
#X obj 80 346 ii 0;
#X obj 78 397 ii 15;
#X connect 0 0 15 0;
#X connect 1 0 5 0;
#X connect 1 0 12 0;
#X connect 1 1 6 0;
#X connect 2 0 17 0;
#X connect 4 0 8 1;
#X connect 5 0 19 0;
#X connect 5 1 2 0;
#X connect 6 0 0 0;
#X connect 6 1 18 0;
#X connect 6 2 7 0;
#X connect 7 0 16 0;
#X connect 8 0 1 0;
#X connect 9 0 10 1;
#X connect 9 0 13 1;
#X connect 10 0 22 0;
#X connect 11 0 9 0;
#X connect 13 0 23 0;
#X connect 14 0 23 0;
#X connect 14 1 22 0;
#X connect 15 0 8 0;
#X connect 16 0 4 0;
#X connect 17 0 3 0;
#X connect 18 0 4 0;
#X connect 19 0 3 0;
#X connect 19 1 14 0;
#X connect 20 0 0 1;
#X connect 21 0 15 1;
#X connect 24 0 13 0;
#X connect 25 0 10 0;
#X restore 49 125 pd savestate;
#X obj 564 629 count;
#X obj 635 528 r part;
#X obj 565 697 tabread \$0-seq;
#X obj 564 650 t f f;
#X obj 565 565 loadbang;
#X obj 635 550 clip 0 7;
#X obj 565 671 expr $f1 + $f2 * 16;
#X msg 564 608 16;
#X obj 565 729 pack f f \$0;
#X msg 566 759 \; \$3-step\$2in set \$1;
#X obj 634 572 t f f;
#X obj 113 74 s \$0-instep;
#X obj 208 315 r \$0-instep;
#X obj 208 389 mod;
#X obj 238 366 r \$0-mod;
#X obj 208 415 +;
#X obj 240 391 r \$0-offset;
#X obj 240 439 s \$0-step;
#X obj 208 489 tabread \$0-seq;
#X obj 208 463 expr $f1 + $f2 * 16;
#X obj 316 415 r part;
#X obj 316 437 clip 0 7;
#X obj 208 510 moses 0;
#X obj 189 539 sel -1 -2;
#X msg 188 567 -1;
#X obj 252 602 s \$0-step_value;
#X obj 41 705 r \$0-step_value;
#X msg 219 565 -2;
#X obj 148 748 outlet;
#X obj 209 362 *;
#X obj 224 338 r \$0-direction;
#X obj 82 240 bng 10 50 10 0 \$0-clear empty clr -19 7 0 10 -262144
-1 -1;
#X obj 457 633 count;
#X obj 457 654 t f f;
#X msg 457 612 16;
#X obj 450 699 pack f f \$0;
#X msg 414 756 \; \$3-step\$2in set \$1;
#X obj 457 593 r \$0-clear;
#X msg 451 676 -0.5;
#X msg 456 724 \; \$3-step\$2 \$1;
#X floatatom 511 105 5 0 7 0 from - -;
#X floatatom 563 105 5 0 7 0 to - -;
#X obj 347 127 count;
#X obj 347 148 t f f;
#X obj 344 244 tabwrite \$0-seq;
#X obj 345 211 tabread \$0-seq;
#X text 377 104 <- click to copy;
#X msg 377 34 8;
#X obj 377 55 count;
#X obj 377 76 t f f;
#X text 413 34 <- copy to all;
#X obj 344 183 expr $f1 + $f2 * 16;
#X obj 437 212 expr $f1 + $f2 * 16;
#X msg 347 106 16;
#X connect 19 0 93 0;
#X connect 21 0 25 1;
#X connect 21 1 25 0;
#X connect 25 0 26 0;
#X connect 26 0 36 0;
#X connect 27 0 31 0;
#X connect 28 0 30 0;
#X connect 29 0 32 0;
#X connect 29 1 32 1;
#X connect 30 0 29 0;
#X connect 31 0 29 1;
#X connect 32 0 34 0;
#X connect 32 1 33 0;
#X connect 32 2 35 0;
#X connect 36 0 20 0;
#X connect 37 0 25 1;
#X connect 43 0 61 0;
#X connect 44 0 62 0;
#X connect 45 0 63 0;
#X connect 46 0 64 0;
#X connect 47 0 65 0;
#X connect 48 0 66 0;
#X connect 49 0 67 0;
#X connect 50 0 68 0;
#X connect 51 0 71 0;
#X connect 52 0 72 0;
#X connect 53 0 73 0;
#X connect 54 0 74 0;
#X connect 55 0 75 0;
#X connect 56 0 76 0;
#X connect 57 0 77 0;
#X connect 58 0 78 0;
#X connect 59 0 69 0;
#X connect 59 1 80 0;
#X connect 60 0 80 1;
#X connect 61 0 59 0;
#X connect 62 0 59 0;
#X connect 63 0 59 0;
#X connect 64 0 59 0;
#X connect 65 0 59 0;
#X connect 66 0 59 0;
#X connect 67 0 59 0;
#X connect 68 0 59 0;
#X connect 69 0 79 0;
#X connect 69 1 70 0;
#X connect 71 0 59 0;
#X connect 72 0 59 0;
#X connect 73 0 59 0;
#X connect 74 0 59 0;
#X connect 75 0 59 0;
#X connect 76 0 59 0;
#X connect 77 0 59 0;
#X connect 78 0 59 0;
#X connect 80 0 70 1;
#X connect 82 0 85 0;
#X connect 83 0 87 0;
#X connect 84 0 90 0;
#X connect 85 0 88 0;
#X connect 85 1 90 1;
#X connect 86 0 89 0;
#X connect 87 0 92 0;
#X connect 88 0 84 0;
#X connect 89 0 82 0;
#X connect 90 0 91 0;
#X connect 92 0 89 0;
#X connect 92 1 88 1;
#X connect 94 0 111 0;
#X connect 95 0 97 0;
#X connect 96 0 95 1;
#X connect 97 0 99 0;
#X connect 97 0 101 0;
#X connect 98 0 97 1;
#X connect 100 0 104 0;
#X connect 101 0 100 0;
#X connect 102 0 103 0;
#X connect 103 0 101 1;
#X connect 104 0 105 0;
#X connect 104 1 107 0;
#X connect 104 1 21 0;
#X connect 104 1 110 0;
#X connect 105 0 106 0;
#X connect 105 1 109 0;
#X connect 106 0 107 0;
#X connect 108 0 18 0;
#X connect 109 0 107 0;
#X connect 111 0 95 0;
#X connect 112 0 111 1;
#X connect 114 0 115 0;
#X connect 115 0 120 0;
#X connect 115 1 117 1;
#X connect 116 0 114 0;
#X connect 117 0 118 0;
#X connect 117 0 121 0;
#X connect 119 0 116 0;
#X connect 120 0 117 0;
#X connect 122 0 133 1;
#X connect 123 0 134 1;
#X connect 124 0 125 0;
#X connect 125 0 133 0;
#X connect 125 1 134 0;
#X connect 127 0 126 0;
#X connect 129 0 130 0;
#X connect 130 0 131 0;
#X connect 131 0 135 0;
#X connect 131 1 123 0;
#X connect 133 0 127 0;
#X connect 134 0 126 1;
#X connect 135 0 124 0;
#X coords 0 -1 1 1 62 255 1 30 240;
