#N canvas 105 17 1248 845 10;
#X obj 104 254 bng 15 50 10 0 empty empty empty 17 7 0 10 -262144 -1
-1;
#X obj 47 362 nbx 4 14 -1e+37 1e+37 0 0 \$0-step0 \$0-step0 0 -10 7
0 10 -262144 -1 -1 0 256;
#X obj 47 376 nbx 4 14 -1e+37 1e+37 0 0 \$0-step1 \$0-step1 1 -10 7
0 10 -262144 -1 -1 1 256;
#X obj 47 390 nbx 4 14 -1e+37 1e+37 0 0 \$0-step2 \$0-step2 2 -10 7
0 10 -166441 -1 -1 2 256;
#X obj 47 404 nbx 4 14 -1e+37 1e+37 0 0 \$0-step3 \$0-step3 3 -10 7
0 10 -262144 -1 -1 1 256;
#X obj 47 418 nbx 4 14 -1e+37 1e+37 0 0 \$0-step4 \$0-step4 4 -10 7
0 10 -262144 -1 -1 4 256;
#X obj 47 432 nbx 4 14 -1e+37 1e+37 0 0 \$0-step5 \$0-step5 5 -10 7
0 10 -262144 -1 -1 5 256;
#X obj 47 446 nbx 4 14 -1e+37 1e+37 0 0 \$0-step6 \$0-step6 6 -10 7
0 10 -262144 -1 -1 6 256;
#X obj 47 460 nbx 4 14 -1e+37 1e+37 0 0 \$0-step7 \$0-step7 7 -10 7
0 10 -262144 -1 -1 7 256;
#X obj 47 474 nbx 4 14 -1e+37 1e+37 0 0 \$0-step8 \$0-step8 8 -10 7
0 10 -262144 -1 -1 8 256;
#X obj 47 488 nbx 4 14 -1e+37 1e+37 0 0 \$0-step9 \$0-step9 9 -10 7
0 10 -262144 -1 -1 9 256;
#X obj 47 502 nbx 4 14 -1e+37 1e+37 0 0 \$0-step10 \$0-step10 10 -15
7 0 10 -262144 -1 -1 10 256;
#X obj 47 516 nbx 4 14 -1e+37 1e+37 0 0 \$0-step11 \$0-step11 11 -15
7 0 10 -262144 -1 -1 11 256;
#X obj 47 530 nbx 4 14 -1e+37 1e+37 0 0 \$0-step12 \$0-step12 12 -15
7 0 10 -262144 -1 -1 12 256;
#X obj 47 544 nbx 4 14 -1e+37 1e+37 0 0 \$0-step13 \$0-step13 13 -15
7 0 10 -262144 -1 -1 13 256;
#X obj 47 558 nbx 4 14 -1e+37 1e+37 0 0 \$0-step14 \$0-step14 14 -15
7 0 10 -262144 -1 -1 14 256;
#X obj 47 572 nbx 4 14 -1e+37 1e+37 0 0 \$0-step15 \$0-step15 15 -15
7 0 10 -262144 -1 -1 15 256;
#X obj 30 283 nbx 2 14 0 15 0 0 \$0-first \$0-first empty -35 7 0 10
-262144 -1 -1 0 256;
#X obj 74 283 nbx 2 14 0 15 0 0 \$0-last \$0-last -> -15 7 0 10 -262144
-1 -1 7 256;
#X obj 41 705 r \$0-stepValue;
#X obj 41 746 outlet;
#X obj 113 54 inlet;
#X obj 156 746 outlet;
#X obj 303 746 outlet;
#X obj 150 629 r \$0-stepValue;
#X obj 150 651 t f f;
#X text 41 762 step values;
#X text 156 773 value change;
#X text 156 762 bang on step-;
#X obj 156 682 !=;
#X obj 322 585 r \$0-stepValue;
#X obj 303 658 spigot;
#X obj 303 609 t f f;
#X obj 335 636 >= 0;
#X text 301 764 non-negative;
#X text 301 776 values;
#X obj 466 736 outlet;
#X obj 460 641 t f f;
#X text 464 764 value change;
#X text 465 753 bang on step-;
#X obj 466 672 !=;
#X text 465 775 non-negative values;
#X floatatom 106 283 2 0 15 2 st #0-step_in #0-step;
#X obj 625 742 outlet;
#X text 622 760 current;
#X text 623 772 step;
#N canvas 422 79 1258 817 savestate 0;
#X obj 221 280 f;
#X obj 170 253 savestate;
#X obj 340 47 r \$0-step0;
#X obj 340 63 r \$0-step1;
#X obj 340 79 r \$0-step2;
#X obj 340 95 r \$0-step3;
#X obj 340 111 r \$0-step4;
#X obj 340 127 r \$0-step5;
#X obj 340 143 r \$0-step6;
#X obj 340 159 r \$0-step7;
#X obj 340 175 r \$0-step8;
#X obj 340 191 r \$0-step9;
#X obj 340 207 r \$0-step10;
#X obj 340 223 r \$0-step11;
#X obj 340 239 r \$0-step12;
#X obj 340 255 r \$0-step13;
#X obj 340 271 r \$0-step14;
#X obj 340 287 r \$0-step15;
#X obj 352 464 s \$0-step0;
#X obj 352 480 s \$0-step1;
#X obj 352 496 s \$0-step2;
#X obj 352 512 s \$0-step3;
#X obj 352 528 s \$0-step4;
#X obj 352 544 s \$0-step5;
#X obj 352 560 s \$0-step6;
#X obj 352 576 s \$0-step7;
#X obj 352 592 s \$0-step8;
#X obj 352 608 s \$0-step9;
#X obj 352 624 s \$0-step10;
#X obj 352 640 s \$0-step11;
#X obj 352 656 s \$0-step12;
#X obj 352 672 s \$0-step13;
#X obj 352 688 s \$0-step14;
#X obj 352 704 s \$0-step15;
#X obj 618 145 r \$0-first;
#X obj 618 161 r \$0-last;
#X obj 583 600 s \$0-first;
#X obj 583 584 s \$0-last;
#X obj 618 177 r \$0-jitter;
#X obj 618 193 r \$0-step_jitter;
#X obj 618 209 r \$0-octave;
#X obj 618 225 r \$0-oct_jitter;
#X obj 618 241 r \$0-div;
#X obj 583 568 s \$0-jitter;
#X obj 583 552 s \$0-step_jitter;
#X obj 583 536 s \$0-octave;
#X obj 583 520 s \$0-oct_jitter;
#X obj 583 504 s \$0-div;
#X obj 486 78 r \$0-part0;
#X obj 486 94 r \$0-part1;
#X obj 486 110 r \$0-part2;
#X obj 486 126 r \$0-part3;
#X obj 486 142 r \$0-part4;
#X obj 486 158 r \$0-part5;
#X obj 486 174 r \$0-part6;
#X obj 486 190 r \$0-part7;
#X obj 463 581 s \$0-part0;
#X obj 463 565 s \$0-part1;
#X obj 463 549 s \$0-part2;
#X obj 463 533 s \$0-part3;
#X obj 463 517 s \$0-part4;
#X obj 463 501 s \$0-part5;
#X obj 463 485 s \$0-part6;
#X obj 463 469 s \$0-part7;
#X obj 583 472 s \$0-reset_on_part;
#X obj 618 273 r \$0-reset_on_part;
#X obj 618 289 r \$0-use_parts;
#X obj 583 456 s \$0-use_parts;
#X obj 221 349 pack f f f f f f f f f f f f f f f f f f f f f f f f
f f f f f f f f f f;
#X obj 170 394 unpack f f f f f f f f f f f f f f f f f f f f f f f
f f f f f f f f f f f;
#X obj 583 488 s \$0-mult;
#X obj 618 257 r \$0-mult;
#X obj 743 399 spigot 1;
#X msg 810 343 0;
#X obj 743 378 ii 1;
#X obj 815 399 spigot 1;
#X obj 815 378 ii 15;
#X obj 684 399 spigot 1;
#X obj 684 378 ii 0;
#X connect 0 0 68 0;
#X connect 1 0 69 0;
#X connect 1 1 0 0;
#X connect 2 0 0 1;
#X connect 3 0 68 1;
#X connect 4 0 68 2;
#X connect 5 0 68 3;
#X connect 6 0 68 4;
#X connect 7 0 68 5;
#X connect 8 0 68 6;
#X connect 9 0 68 7;
#X connect 10 0 68 8;
#X connect 11 0 68 9;
#X connect 12 0 68 10;
#X connect 13 0 68 11;
#X connect 14 0 68 12;
#X connect 15 0 68 13;
#X connect 16 0 68 14;
#X connect 17 0 68 15;
#X connect 34 0 68 24;
#X connect 35 0 68 25;
#X connect 38 0 68 26;
#X connect 39 0 68 27;
#X connect 40 0 68 28;
#X connect 41 0 68 29;
#X connect 42 0 68 30;
#X connect 48 0 68 16;
#X connect 49 0 68 17;
#X connect 50 0 68 18;
#X connect 51 0 68 19;
#X connect 52 0 68 20;
#X connect 53 0 68 21;
#X connect 54 0 68 22;
#X connect 55 0 68 23;
#X connect 65 0 68 32;
#X connect 66 0 68 33;
#X connect 68 0 1 0;
#X connect 69 0 18 0;
#X connect 69 0 73 0;
#X connect 69 1 19 0;
#X connect 69 2 20 0;
#X connect 69 3 21 0;
#X connect 69 4 22 0;
#X connect 69 5 23 0;
#X connect 69 6 24 0;
#X connect 69 7 25 0;
#X connect 69 8 26 0;
#X connect 69 9 27 0;
#X connect 69 10 28 0;
#X connect 69 11 29 0;
#X connect 69 12 30 0;
#X connect 69 13 31 0;
#X connect 69 14 32 0;
#X connect 69 15 33 0;
#X connect 69 16 56 0;
#X connect 69 17 57 0;
#X connect 69 18 58 0;
#X connect 69 19 59 0;
#X connect 69 20 60 0;
#X connect 69 21 61 0;
#X connect 69 22 62 0;
#X connect 69 23 63 0;
#X connect 69 24 36 0;
#X connect 69 25 37 0;
#X connect 69 26 43 0;
#X connect 69 27 44 0;
#X connect 69 28 45 0;
#X connect 69 29 46 0;
#X connect 69 30 47 0;
#X connect 69 31 70 0;
#X connect 69 32 64 0;
#X connect 69 33 67 0;
#X connect 71 0 68 31;
#X connect 72 0 70 0;
#X connect 72 0 47 0;
#X connect 73 0 72 1;
#X connect 73 0 75 1;
#X connect 73 0 77 1;
#X connect 74 0 72 0;
#X connect 75 0 37 0;
#X connect 76 0 75 0;
#X connect 77 0 46 0;
#X connect 77 0 45 0;
#X connect 77 0 44 0;
#X connect 77 0 43 0;
#X connect 77 0 36 0;
#X connect 78 0 77 0;
#X restore 41 101 pd savestate;
#X obj 625 701 r \$0-step;
#X obj 193 74 s \$0-set_steps;
#N canvas 0 50 621 449 set_steps 0;
#X obj 51 62 route 0 1 2 3 4 5 6 7 8 9 10 11 12 13 14 15;
#X obj 333 118 s \$0-step0;
#X obj 333 134 s \$0-step1;
#X obj 333 150 s \$0-step2;
#X obj 333 166 s \$0-step3;
#X obj 333 182 s \$0-step4;
#X obj 333 198 s \$0-step5;
#X obj 333 214 s \$0-step6;
#X obj 333 230 s \$0-step7;
#X obj 333 246 s \$0-step8;
#X obj 333 262 s \$0-step9;
#X obj 333 278 s \$0-step10;
#X obj 333 294 s \$0-step11;
#X obj 333 310 s \$0-step12;
#X obj 333 326 s \$0-step13;
#X obj 333 342 s \$0-step14;
#X obj 333 358 s \$0-step15;
#X obj 96 34 r \$0-set_steps;
#X connect 0 0 1 0;
#X connect 0 1 2 0;
#X connect 0 2 3 0;
#X connect 0 3 4 0;
#X connect 0 4 5 0;
#X connect 0 5 6 0;
#X connect 0 6 7 0;
#X connect 0 7 8 0;
#X connect 0 8 9 0;
#X connect 0 9 10 0;
#X connect 0 10 11 0;
#X connect 0 11 12 0;
#X connect 0 12 13 0;
#X connect 0 13 14 0;
#X connect 0 14 15 0;
#X connect 0 15 16 0;
#X connect 17 0 0 0;
#X restore 41 121 pd set_steps;
#N canvas 0 55 721 708 read_steps 0;
#X obj 333 95 f;
#X obj 409 67 r \$0-step0;
#X obj 409 83 r \$0-step1;
#X obj 409 99 r \$0-step2;
#X obj 409 115 r \$0-step3;
#X obj 409 131 r \$0-step4;
#X obj 409 147 r \$0-step5;
#X obj 409 163 r \$0-step6;
#X obj 409 179 r \$0-step7;
#X obj 409 195 r \$0-step8;
#X obj 409 211 r \$0-step9;
#X obj 409 227 r \$0-step10;
#X obj 409 243 r \$0-step11;
#X obj 409 259 r \$0-step12;
#X obj 409 275 r \$0-step13;
#X obj 409 291 r \$0-step14;
#X obj 409 307 r \$0-step15;
#X obj 333 111 f;
#X obj 333 127 f;
#X obj 333 143 f;
#X obj 333 159 f;
#X obj 333 175 f;
#X obj 333 191 f;
#X obj 333 207 f;
#X obj 333 223 f;
#X obj 333 239 f;
#X obj 333 255 f;
#X obj 333 271 f;
#X obj 333 287 f;
#X obj 333 303 f;
#X obj 333 319 f;
#X obj 333 335 f;
#X obj 204 427 +;
#X obj 47 31 r \$0-step;
#X obj 47 114 sel 0 1 2 3 4 5 6 7 8 9 10 11 12 13 14 15;
#X obj 87 62 +;
#X obj 117 31 r $step_jitter;
#X obj 87 83 round;
#X obj 204 544 s \$0-stepValue;
#X obj 260 390 r \$0-add_jitter;
#X obj 277 428 r \$0-octave;
#X obj 277 449 pipe 0.0001;
#X obj 357 428 r \$0-add_oct_jitter;
#X obj 204 484 expr $f1 + $f2*12 + $f3*12;
#X obj 204 525 spigot;
#X obj 247 505 r \$0-part_on;
#X connect 0 0 32 0;
#X connect 1 0 0 1;
#X connect 2 0 17 1;
#X connect 3 0 18 1;
#X connect 4 0 19 1;
#X connect 5 0 20 1;
#X connect 6 0 21 1;
#X connect 7 0 22 1;
#X connect 8 0 23 1;
#X connect 9 0 24 1;
#X connect 10 0 25 1;
#X connect 11 0 26 1;
#X connect 12 0 27 1;
#X connect 13 0 28 1;
#X connect 14 0 29 1;
#X connect 15 0 30 1;
#X connect 16 0 31 1;
#X connect 17 0 32 0;
#X connect 18 0 32 0;
#X connect 19 0 32 0;
#X connect 20 0 32 0;
#X connect 21 0 32 0;
#X connect 22 0 32 0;
#X connect 23 0 32 0;
#X connect 24 0 32 0;
#X connect 25 0 32 0;
#X connect 26 0 32 0;
#X connect 27 0 32 0;
#X connect 28 0 32 0;
#X connect 29 0 32 0;
#X connect 30 0 32 0;
#X connect 31 0 32 0;
#X connect 32 0 43 0;
#X connect 33 0 35 0;
#X connect 34 0 0 0;
#X connect 34 1 17 0;
#X connect 34 2 18 0;
#X connect 34 3 19 0;
#X connect 34 4 20 0;
#X connect 34 5 21 0;
#X connect 34 6 22 0;
#X connect 34 7 23 0;
#X connect 34 8 24 0;
#X connect 34 9 25 0;
#X connect 34 10 26 0;
#X connect 34 11 27 0;
#X connect 34 12 28 0;
#X connect 34 13 29 0;
#X connect 34 14 30 0;
#X connect 34 15 31 0;
#X connect 35 0 37 0;
#X connect 36 0 35 1;
#X connect 37 0 34 0;
#X connect 39 0 32 1;
#X connect 40 0 41 0;
#X connect 41 0 43 1;
#X connect 42 0 43 2;
#X connect 43 0 44 0;
#X connect 44 0 38 0;
#X connect 45 0 44 1;
#X restore 41 141 pd read_steps;
#X obj 30 313 nbx 4 14 0 36 0 0 \$0-jitter \$0-jitter jit 0 -8 0 10
-262144 -1 -1 0 256;
#X obj 75 313 nbx 4 14 0 32 0 0 \$0-step_jitter \$0-step_jitter s-jit
0 -8 0 10 -262144 -1 -1 0 256;
#X obj 30 343 nbx 4 14 -10 10 0 0 \$0-octave \$0-octave oct 0 -8 0
10 -262144 -1 -1 0 256;
#X obj 75 343 nbx 4 14 0 10 0 0 \$0-oct_jitter \$0-oct_jitter o-jit
0 -8 0 10 -262144 -1 -1 0 256;
#X obj 30 269 nbx 3 14 0 100 0 0 \$0-div \$0-div div 0 -8 0 10 -262144
-1 -1 1 256;
#X obj 182 376 s \$0-in_bang;
#X obj 100 410 tgl 10 0 \$0-part0 \$0-part0 empty 17 7 0 10 -262144
-1 -1 0 1;
#X obj 100 420 tgl 10 0 \$0-part1 \$0-part1 empty 17 7 0 10 -262144
-1 -1 0 1;
#X obj 100 430 tgl 10 0 \$0-part2 \$0-part2 empty 17 7 0 10 -262144
-1 -1 0 1;
#X obj 100 440 tgl 10 0 \$0-part3 \$0-part3 empty 17 7 0 10 -262144
-1 -1 0 1;
#X obj 100 450 tgl 10 0 \$0-part4 \$0-part4 empty 17 7 0 10 -262144
-1 -1 0 1;
#X obj 100 460 tgl 10 0 \$0-part5 \$0-part5 empty 17 7 0 10 -262144
-1 -1 0 1;
#X obj 100 470 tgl 10 0 \$0-part6 \$0-part6 empty 17 7 0 10 -262144
-1 -1 0 1;
#X obj 100 480 tgl 10 0 \$0-part7 \$0-part7 empty 17 7 0 10 -262144
-1 -1 0 1;
#X obj 110 410 vradio 10 1 0 8 empty part empty 0 -8 0 10 -262144 -1
-1 0;
#X obj 106 372 tgl 14 0 \$0-reset_on_part \$0-reset_on_part rst -5
-8 0 10 -262144 -1 -1 1 1;
#X obj 156 705 sel 1;
#X obj 466 695 sel 1;
#X obj 352 252 beat 1;
#A saved 0 0;
#X obj 519 442 + 1;
#X obj 600 288 r \$0-reset;
#X obj 490 442 f;
#X obj 511 566 s \$0-step;
#X msg 600 308 0;
#X obj 464 261 > 0;
#X obj 412 291 spigot;
#X obj 511 464 +;
#X obj 572 403 r \$0-direction;
#X obj 900 134 r \$0-last;
#X obj 810 134 r \$0-first;
#X obj 860 179 bondo;
#X obj 810 154 pipe 0.001;
#X obj 900 154 pipe 0.001;
#X floatatom 511 485 5 0 0 0 - - -;
#X obj 511 505 mod;
#X obj 751 216 expr if($f1 < $f2 \, $f2 - $f1 + 1 \, $f1 - $f2 + 1)
\; if($f1 > $f2 \, -1 \, 1) \; if($f1 <= $f2 \, $f1 \, $f2);
#X obj 511 526 +;
#X floatatom 511 547 5 0 0 0 - - -;
#X obj 884 260 s \$0-direction;
#X obj 751 259 s \$0-mod;
#X obj 1035 265 s \$0-offset;
#X obj 554 504 r \$0-offset;
#X obj 554 484 r \$0-mod;
#X floatatom 41 726 5 0 0 0 - - -;
#X obj 156 726 bng 15 50 10 0 empty empty empty 17 7 0 10 -262144 -1
-1;
#X floatatom 303 726 5 0 0 0 - - -;
#X obj 466 716 bng 15 50 10 0 empty empty empty 17 7 0 10 -262144 -1
-1;
#X floatatom 625 722 5 0 0 0 - - -;
#X obj 554 441 r \$0-add_step_jitter;
#N canvas 558 192 573 427 calc_jitter 0;
#X obj 43 266 randf;
#X obj 86 196 r \$0-step_jitter;
#X obj 86 216 pipe 0.0001;
#X obj 256 206 pipe 0.0001;
#X obj 256 186 r \$0-jitter;
#X obj 193 266 randf;
#X obj 193 335 s \$0-add_jitter;
#X obj 396 216 pipe 0.0001;
#X obj 353 266 randf;
#X obj 396 196 r \$0-oct_jitter;
#X obj 353 316 round;
#X obj 353 335 s \$0-add_oct_jitter;
#X obj 216 24 inlet;
#X msg 216 45 bang;
#X obj 43 335 s \$0-add_step_jitter;
#X obj 43 316 round;
#X obj 86 236 * -1;
#X floatatom 43 296 5 0 0 0 - - -;
#X obj 256 227 * -1;
#X floatatom 193 296 5 0 0 0 - - -;
#X obj 396 237 * -1;
#X floatatom 353 296 5 0 0 0 - - -;
#X connect 0 0 17 0;
#X connect 1 0 2 0;
#X connect 2 0 16 0;
#X connect 2 0 0 1;
#X connect 3 0 5 1;
#X connect 3 0 18 0;
#X connect 4 0 3 0;
#X connect 5 0 19 0;
#X connect 7 0 8 1;
#X connect 7 0 20 0;
#X connect 8 0 21 0;
#X connect 9 0 7 0;
#X connect 10 0 11 0;
#X connect 12 0 13 0;
#X connect 13 0 5 0;
#X connect 13 0 8 0;
#X connect 13 0 0 0;
#X connect 15 0 14 0;
#X connect 16 0 0 2;
#X connect 17 0 15 0;
#X connect 18 0 5 2;
#X connect 19 0 6 0;
#X connect 20 0 8 2;
#X connect 21 0 10 0;
#X restore 572 423 pd calc_jitter;
#X obj 106 396 tgl 14 0 \$0-use_parts \$0-use_parts empty -20 7 0 10
-262144 -1 -1 0 1;
#N canvas 273 191 798 300 handle_part_on 0;
#X obj 58 66 r part;
#X obj 103 66 r \$0-part0;
#X obj 173 66 r \$0-part1;
#X obj 245 66 r \$0-part2;
#X obj 313 66 r \$0-part3;
#X obj 385 66 r \$0-part4;
#X obj 453 66 r \$0-part5;
#X obj 525 66 r \$0-part6;
#X obj 593 66 r \$0-part7;
#X obj 95 204 send \$0-part_on;
#X obj 663 66 r \$0-use_parts;
#X obj 95 142 expr if(($f1==0 & $f2) | ($f1==1 & $f3) | ($f1==2 & $f4)
| ($f1==3 & $f5) | ($f1==4 & $f6) | ($f1==5 & $f7) | ($f1==6 & $f8)
| ($f1==7 & $f9) | $f10==0 \, 1 \, 0);
#X obj 96 105 bondo 10 ---------------------------------------------------
;
#X connect 0 0 12 0;
#X connect 1 0 12 1;
#X connect 2 0 12 2;
#X connect 3 0 12 3;
#X connect 4 0 12 4;
#X connect 5 0 12 5;
#X connect 6 0 12 6;
#X connect 7 0 12 7;
#X connect 8 0 12 8;
#X connect 10 0 12 9;
#X connect 11 0 9 0;
#X connect 12 0 11 0;
#X connect 12 1 11 1;
#X connect 12 2 11 2;
#X connect 12 3 11 3;
#X connect 12 4 11 4;
#X connect 12 5 11 5;
#X connect 12 6 11 6;
#X connect 12 7 11 7;
#X connect 12 8 11 8;
#X connect 12 9 11 9;
#X restore 41 161 pd handle_part_on;
#X obj 463 302 r \$0-in_bang;
#X obj 846 377 r \$0-reset_on_part;
#X obj 800 377 r part;
#X msg 800 398 bang;
#X obj 800 419 spigot;
#X obj 800 440 s \$0-reset;
#X obj 542 208 s \$0-step;
#X obj 542 188 t f b;
#X obj 905 443 r \$0-div;
#X obj 905 463 pipe 0.0001;
#X obj 1013 461 pipe 0.0001;
#X obj 967 503 bondo 2;
#X obj 1013 441 r \$0-mult;
#X obj 911 539 expr if($f2 \, $f1 / $f2 \, $f1);
#X obj 911 560 s \$0-complex_div;
#X obj 66 269 nbx 3 14 1 100 0 0 \$0-mult \$0-mult mult 0 -8 0 10 -262144
-1 -1 1 256;
#X obj 422 212 r \$0-complex_div;
#X obj 209 653 ii 0.123457;
#X text 200 680 first one bangs;
#X text 200 670 something \, so;
#X obj 495 388 spigot 1;
#X msg 540 366 0;
#X obj 463 329 t b b b f;
#X obj 193 54 inlet;
#X obj 113 74 route bang;
#X text 104 24 bang to step;
#X text 104 34 float sets step;
#X obj 293 54 inlet;
#X obj 293 74 s \$0-div;
#X obj 353 54 inlet;
#X obj 353 74 s \$0-mult;
#X obj 423 54 inlet;
#X obj 493 54 inlet;
#X obj 423 74 s \$0-first;
#X obj 493 74 s \$0-last;
#X obj 563 54 inlet;
#X obj 643 54 inlet;
#X obj 563 74 s \$0-jitter;
#X obj 643 74 s \$0-step_jitter;
#X obj 730 388 r reset;
#N canvas 699 414 367 403 color_steps 0;
#X obj 123 273 pack 0 0 \$0;
#X obj 171 216 count;
#X msg 171 196 16;
#X msg 171 236 0 \$1;
#X obj 48 47 r \$0-step;
#X msg 123 236 1 \$1;
#X obj 104 156 t f f b;
#X msg 64 236 0 \$1;
#X obj 64 216 pipe 200;
#X msg 123 293 \$2 color \$1;
#X obj 120 356 outlet;
#X obj 142 47 loadbang;
#X obj 142 68 delay 0.001;
#X obj 142 119 f;
#X obj 157 88 r \$0-step;
#X obj 48 67 r \$0-step_out;
#X connect 0 0 9 0;
#X connect 1 0 3 0;
#X connect 2 0 1 0;
#X connect 3 0 0 0;
#X connect 4 0 6 0;
#X connect 5 0 0 0;
#X connect 6 0 8 0;
#X connect 6 1 5 0;
#X connect 6 2 2 0;
#X connect 8 0 7 0;
#X connect 9 0 10 0;
#X connect 11 0 12 0;
#X connect 12 0 13 0;
#X connect 14 0 13 1;
#X connect 15 0 6 0;
#X restore 41 181 pd color_steps;
#X obj 41 201 route 0 1 2 3 4 5 6 7 8 9 10 11 12 13 14 15;
#X obj 542 159 r \$0-step_out;
#X msg 618 561 set \$1;
#X obj 618 582 s \$0-step_in;
#X obj 106 299 bng 14 250 50 0 \$0-resync empty empty -10 -8 0 10 -262144
-1 -1;
#X obj 747 53 inlet;
#X obj 747 94 s \$0-resync;
#X msg 747 74 bang;
#X msg 596 366 1;
#X obj 596 344 r \$0-resync;
#X connect 0 0 56 0;
#X connect 19 0 94 0;
#X connect 21 0 127 0;
#X connect 24 0 25 0;
#X connect 25 0 29 1;
#X connect 25 1 29 0;
#X connect 29 0 67 0;
#X connect 30 0 32 0;
#X connect 31 0 37 0;
#X connect 31 0 96 0;
#X connect 32 0 31 0;
#X connect 32 1 33 0;
#X connect 33 0 31 1;
#X connect 37 0 40 1;
#X connect 37 1 40 0;
#X connect 40 0 68 0;
#X connect 47 0 98 0;
#X connect 67 0 95 0;
#X connect 68 0 97 0;
#X connect 69 0 76 0;
#X connect 70 0 72 1;
#X connect 71 0 74 0;
#X connect 72 0 70 0;
#X connect 72 0 77 0;
#X connect 74 0 72 1;
#X connect 75 0 76 1;
#X connect 76 0 125 0;
#X connect 77 0 84 0;
#X connect 78 0 70 1;
#X connect 79 0 83 0;
#X connect 80 0 82 0;
#X connect 81 0 86 0;
#X connect 81 1 86 1;
#X connect 82 0 81 0;
#X connect 83 0 81 1;
#X connect 84 0 85 0;
#X connect 85 0 87 0;
#X connect 86 0 90 0;
#X connect 86 1 89 0;
#X connect 86 2 91 0;
#X connect 87 0 88 0;
#X connect 88 0 73 0;
#X connect 88 0 146 0;
#X connect 92 0 87 1;
#X connect 93 0 85 1;
#X connect 94 0 20 0;
#X connect 95 0 22 0;
#X connect 96 0 23 0;
#X connect 97 0 36 0;
#X connect 98 0 43 0;
#X connect 99 0 77 1;
#X connect 103 0 125 0;
#X connect 104 0 107 1;
#X connect 105 0 106 0;
#X connect 106 0 107 0;
#X connect 107 0 108 0;
#X connect 110 0 109 0;
#X connect 110 1 100 0;
#X connect 111 0 112 0;
#X connect 112 0 114 0;
#X connect 113 0 114 1;
#X connect 114 0 116 0;
#X connect 114 1 116 1;
#X connect 115 0 113 0;
#X connect 116 0 117 0;
#X connect 119 0 75 0;
#X connect 119 0 69 0;
#X connect 120 0 29 1;
#X connect 123 0 72 1;
#X connect 124 0 123 1;
#X connect 125 0 72 0;
#X connect 125 1 100 0;
#X connect 125 2 124 0;
#X connect 125 3 123 0;
#X connect 126 0 48 0;
#X connect 127 0 0 0;
#X connect 127 1 110 0;
#X connect 130 0 131 0;
#X connect 132 0 133 0;
#X connect 134 0 136 0;
#X connect 135 0 137 0;
#X connect 138 0 140 0;
#X connect 139 0 141 0;
#X connect 142 0 108 0;
#X connect 143 0 144 0;
#X connect 144 0 1 0;
#X connect 144 1 2 0;
#X connect 144 2 3 0;
#X connect 144 3 4 0;
#X connect 144 4 5 0;
#X connect 144 5 6 0;
#X connect 144 6 7 0;
#X connect 144 7 8 0;
#X connect 144 8 9 0;
#X connect 144 9 10 0;
#X connect 144 10 11 0;
#X connect 144 11 12 0;
#X connect 144 12 13 0;
#X connect 144 13 14 0;
#X connect 144 14 15 0;
#X connect 144 15 16 0;
#X connect 145 0 110 0;
#X connect 146 0 147 0;
#X connect 149 0 151 0;
#X connect 151 0 150 0;
#X connect 151 0 148 0;
#X connect 152 0 123 1;
#X connect 153 0 152 0;
#X coords 0 -1 1 1 90 348 1 30 240;
