#N canvas 98 236 1514 844 10;
#X obj 198 33 inlet;
#X text 196 14 step;
#X obj 0 0 tgl 10 0 \$0-step0 \$0-step0in empty 17 7 0 10 -262144 -1
-1 0 1;
#X obj 10 0 tgl 10 0 \$0-step1 \$0-step1in empty 17 7 0 10 -262144
-1 -1 0 1;
#X obj 20 0 tgl 10 0 \$0-step2 \$0-step2in empty 17 7 0 10 -262144
-1 -1 0 1;
#X obj 30 0 tgl 10 0 \$0-step3 \$0-step3in empty 17 7 0 10 -262144
-1 -1 0 1;
#X obj 45 0 tgl 10 0 \$0-step4 \$0-step4in empty 17 7 0 10 -262144
-1 -1 0 1;
#X obj 55 0 tgl 10 0 \$0-step5 \$0-step5in empty 17 7 0 10 -262144
-1 -1 0 1;
#X obj 65 0 tgl 10 0 \$0-step6 \$0-step6in empty 17 7 0 10 -262144
-1 -1 0 1;
#X obj 75 0 tgl 10 0 \$0-step7 \$0-step7in empty 17 7 0 10 -262144
-1 -1 0 1;
#X obj 0 10 tgl 10 0 \$0-step8 \$0-step8in empty 17 7 0 10 -262144
-1 -1 0 1;
#X obj 10 10 tgl 10 0 \$0-step9 \$0-step9in empty 17 7 0 10 -262144
-1 -1 0 1;
#X obj 20 10 tgl 10 0 \$0-step10 \$0-step10in empty 17 7 0 10 -262144
-1 -1 0 1;
#X obj 30 10 tgl 10 0 \$0-step11 \$0-step11in empty 17 7 0 10 -262144
-1 -1 0 1;
#X obj 45 10 tgl 10 0 \$0-step12 \$0-step12in empty 17 7 0 10 -262144
-1 -1 0 1;
#X obj 55 10 tgl 10 0 \$0-step13 \$0-step13in empty 17 7 0 10 -262144
-1 -1 0 1;
#X obj 65 10 tgl 10 0 \$0-step14 \$0-step14in empty 17 7 0 10 -262144
-1 -1 0 1;
#X obj 75 10 tgl 10 0 \$0-step15 \$0-step15in empty 17 7 0 10 -262144
-1 -1 0 1;
#X obj 331 244 outlet;
#N canvas 166 66 1375 866 savestate 0;
#X obj 357 184 f;
#X obj 219 88 savestate;
#X obj 496 35 r \$0-dns;
#X obj 223 295 s \$0-dns;
#X obj 496 51 r \$0-len;
#X obj 223 311 s \$0-len;
#X obj 221 161 f \$0;
#X obj 124 251 array_unpack;
#X obj 501 205 array_pack;
#X obj 219 109 t l b;
#X obj 295 115 t b b b;
#X obj 501 165 f \$0;
#X obj 357 224 list prepend;
#X msg 304 337 0;
#X obj 78 397 ii 8;
#X obj 78 418 spigot 1;
#X obj 304 297 r \$0-restore;
#X obj 124 116 s \$0-restore;
#X obj 78 462 spigot 1;
#X obj 78 441 ii 0;
#X obj 232 257 unpack f f;
#X obj 357 204 pack f f;
#X msg 501 185 set \$1-seq;
#X msg 221 181 set \$1-seq;
#X msg 349 141 128;
#X obj 124 172 list split 128;
#X connect 0 0 21 0;
#X connect 1 0 9 0;
#X connect 1 0 17 0;
#X connect 1 1 10 0;
#X connect 2 0 0 1;
#X connect 4 0 21 1;
#X connect 6 0 23 0;
#X connect 8 0 12 1;
#X connect 9 0 25 0;
#X connect 9 1 6 0;
#X connect 10 0 0 0;
#X connect 10 1 24 0;
#X connect 10 2 11 0;
#X connect 11 0 22 0;
#X connect 12 0 1 0;
#X connect 13 0 15 1;
#X connect 13 0 18 1;
#X connect 14 0 15 0;
#X connect 15 0 5 0;
#X connect 16 0 13 0;
#X connect 18 0 3 0;
#X connect 19 0 18 0;
#X connect 20 0 3 0;
#X connect 20 1 5 0;
#X connect 21 0 12 0;
#X connect 22 0 8 0;
#X connect 23 0 7 0;
#X connect 24 0 8 0;
#X connect 25 0 7 0;
#X connect 25 1 20 0;
#X restore 24 103 pd savestate;
#X obj 1094 112 pack f f \$0;
#X obj 1094 92 r \$0-color;
#X obj 1 1 cnv 8 8 8 empty \$0-col0 empty 20 12 0 14 -262144 -66577
0;
#X obj 11 1 cnv 8 8 8 empty \$0-col1 empty 20 12 0 14 -262144 -66577
0;
#X obj 21 1 cnv 8 8 8 empty \$0-col2 empty 20 12 0 14 -262144 -66577
0;
#X obj 31 1 cnv 8 8 8 empty \$0-col3 empty 20 12 0 14 -262144 -66577
0;
#X obj 46 1 cnv 8 8 8 empty \$0-col4 empty 20 12 0 14 -262144 -66577
0;
#X obj 56 1 cnv 8 8 8 empty \$0-col5 empty 20 12 0 14 -262144 -66577
0;
#X obj 66 1 cnv 8 8 8 empty \$0-col6 empty 20 12 0 14 -262144 -66577
0;
#X obj 76 1 cnv 8 8 8 empty \$0-col7 empty 20 12 0 14 -262144 -66577
0;
#X obj 1 11 cnv 8 8 8 empty \$0-col8 empty 20 12 0 14 -262144 -66577
0;
#X obj 11 11 cnv 8 8 8 empty \$0-col9 empty 20 12 0 14 -262144 -66577
0;
#X obj 21 11 cnv 8 8 8 empty \$0-col10 empty 20 12 0 14 -262144 -66577
0;
#X obj 31 11 cnv 8 8 8 empty \$0-col11 empty 20 12 0 14 -262144 -66577
0;
#X obj 46 11 cnv 8 8 8 empty \$0-col12 empty 20 12 0 14 -262144 -66577
0;
#X obj 56 11 cnv 8 8 8 empty \$0-col13 empty 20 12 0 14 -166441 -66577
0;
#X obj 66 11 cnv 8 8 8 empty \$0-col14 empty 20 12 0 14 -262144 -66577
0;
#X obj 76 11 cnv 8 8 8 empty \$0-col15 empty 20 12 0 14 -262144 -66577
0;
#X msg 1095 132 \; \$3-col\$2 color \$1;
#X obj 198 54 i;
#N canvas 0 50 450 250 (subpatch) 0;
#X array \$0-seq 256 float 2;
#X coords 0 1 256 0 200 140 1 0 0;
#X restore 834 51 graph;
#X obj 875 223 r \$0-step0;
#X obj 875 239 r \$0-step1;
#X obj 875 255 r \$0-step2;
#X obj 875 271 r \$0-step3;
#X obj 875 287 r \$0-step4;
#X obj 875 303 r \$0-step5;
#X obj 875 319 r \$0-step6;
#X obj 875 335 r \$0-step7;
#X obj 1027 229 r \$0-step8;
#X obj 1027 245 r \$0-step9;
#X obj 1027 261 r \$0-step10;
#X obj 1027 277 r \$0-step11;
#X obj 1027 293 r \$0-step12;
#X obj 1027 309 r \$0-step13;
#X obj 1027 325 r \$0-step14;
#X obj 1027 341 r \$0-step15;
#X obj 74 544 sel 0 1;
#X msg 68 573 0;
#X obj 87 628 pack;
#X obj 88 694 s \$0-color;
#X msg 102 572 12;
#X obj 1009 551 unpack;
#X obj 1180 562 r part;
#X obj 814 266 pack 1 0;
#X obj 814 282 pack 1 1;
#X obj 814 298 pack 1 2;
#X obj 814 314 pack 1 3;
#X obj 814 330 pack 1 4;
#X obj 814 346 pack 1 5;
#X obj 814 362 pack 1 6;
#X obj 814 378 pack 1 7;
#X obj 1009 591 t b f;
#X obj 181 431 r part;
#X obj 1036 630 tabwrite \$0-seq;
#X obj 74 507 tabread \$0-seq;
#X obj 958 274 pack 1 8;
#X obj 958 290 pack 1 9;
#X obj 958 306 pack 1 10;
#X obj 958 322 pack 1 11;
#X obj 958 338 pack 1 12;
#X obj 958 354 pack 1 13;
#X obj 958 370 pack 1 14;
#X obj 958 386 pack 1 15;
#X obj 250 239 s \$0-color;
#X obj 251 217 pack;
#X obj 249 165 t f f;
#X msg 244 191 1;
#X obj 416 120 r part;
#X obj 330 196 tabread \$0-seq;
#X obj 330 217 sel 1;
#X obj 181 453 clip 0 7;
#X obj 416 141 clip 0 7;
#X obj 976 660 s \$0-redraw;
#X floatatom 694 110 5 0 7 0 from - -;
#X floatatom 743 110 5 0 7 0 to - -;
#X msg 530 111 32;
#X obj 530 132 count;
#X obj 530 153 t f f;
#X obj 527 249 tabwrite \$0-seq;
#X obj 528 216 tabread \$0-seq;
#X text 560 109 <- click to copy;
#X msg 560 39 8;
#X obj 560 60 count;
#X obj 560 81 t f f;
#X text 596 39 <- copy to all;
#X obj 207 108 t f f f;
#X obj 96 330 timer;
#X obj 78 295 t f b b;
#X obj 67 360 pipe;
#X obj 67 381 t f f;
#X obj 1069 582 expr $f1 + $f2 * 16;
#X obj 527 188 expr $f1 + $f2 * 16;
#X obj 620 217 expr $f1 + $f2 * 16;
#X obj 330 171 expr $f1 + $f2 * 16;
#X obj 198 74 mod 16;
#X obj 74 481 expr $f1 + $f2 * 16;
#X obj 500 569 sel 0 1;
#X msg 494 598 0;
#X obj 513 653 pack;
#X obj 514 719 s \$0-color;
#X msg 528 597 12;
#X obj 500 452 count;
#X obj 586 349 r part;
#X obj 500 532 tabread \$0-seq;
#X obj 500 473 t f f;
#X obj 499 366 loadbang;
#X obj 586 371 clip 0 7;
#X obj 507 390 r \$0-redraw;
#X obj 500 506 expr $f1 + $f2 * 16;
#X msg 500 431 16;
#X obj 671 609 pack f f \$0;
#X msg 672 639 \; \$3-step\$2in set \$1;
#X obj 585 393 t f f;
#X connect 0 0 39 0;
#X connect 20 0 38 0;
#X connect 21 0 20 0;
#X connect 39 0 115 0;
#X connect 41 0 64 0;
#X connect 42 0 65 0;
#X connect 43 0 66 0;
#X connect 44 0 67 0;
#X connect 45 0 68 0;
#X connect 46 0 69 0;
#X connect 47 0 70 0;
#X connect 48 0 71 0;
#X connect 49 0 76 0;
#X connect 50 0 77 0;
#X connect 51 0 78 0;
#X connect 52 0 79 0;
#X connect 53 0 80 0;
#X connect 54 0 81 0;
#X connect 55 0 82 0;
#X connect 56 0 83 0;
#X connect 57 0 58 0;
#X connect 57 1 61 0;
#X connect 58 0 59 0;
#X connect 59 0 60 0;
#X connect 61 0 59 0;
#X connect 62 0 72 0;
#X connect 62 1 111 0;
#X connect 63 0 111 1;
#X connect 64 0 62 0;
#X connect 65 0 62 0;
#X connect 66 0 62 0;
#X connect 67 0 62 0;
#X connect 68 0 62 0;
#X connect 69 0 62 0;
#X connect 70 0 62 0;
#X connect 71 0 62 0;
#X connect 72 0 93 0;
#X connect 72 1 74 0;
#X connect 73 0 91 0;
#X connect 75 0 57 0;
#X connect 76 0 62 0;
#X connect 77 0 62 0;
#X connect 78 0 62 0;
#X connect 79 0 62 0;
#X connect 80 0 62 0;
#X connect 81 0 62 0;
#X connect 82 0 62 0;
#X connect 83 0 62 0;
#X connect 85 0 84 0;
#X connect 86 0 87 0;
#X connect 86 1 85 1;
#X connect 87 0 85 0;
#X connect 88 0 92 0;
#X connect 89 0 90 0;
#X connect 90 0 18 0;
#X connect 91 0 116 1;
#X connect 92 0 114 1;
#X connect 94 0 112 1;
#X connect 95 0 113 1;
#X connect 96 0 97 0;
#X connect 97 0 98 0;
#X connect 98 0 112 0;
#X connect 98 1 113 0;
#X connect 100 0 99 0;
#X connect 102 0 103 0;
#X connect 103 0 104 0;
#X connect 104 0 96 0;
#X connect 104 1 95 0;
#X connect 106 0 108 0;
#X connect 106 1 86 0;
#X connect 106 2 114 0;
#X connect 107 0 109 1;
#X connect 108 0 109 0;
#X connect 108 1 107 0;
#X connect 108 2 107 1;
#X connect 109 0 110 0;
#X connect 110 0 116 0;
#X connect 110 1 59 1;
#X connect 111 0 74 1;
#X connect 112 0 100 0;
#X connect 113 0 99 1;
#X connect 114 0 89 0;
#X connect 115 0 106 0;
#X connect 116 0 75 0;
#X connect 117 0 118 0;
#X connect 117 1 121 0;
#X connect 118 0 119 0;
#X connect 119 0 120 0;
#X connect 121 0 119 0;
#X connect 122 0 125 0;
#X connect 123 0 127 0;
#X connect 124 0 117 0;
#X connect 124 0 131 0;
#X connect 125 0 129 0;
#X connect 125 1 119 1;
#X connect 125 1 131 1;
#X connect 126 0 130 0;
#X connect 127 0 133 0;
#X connect 128 0 130 0;
#X connect 129 0 124 0;
#X connect 130 0 122 0;
#X connect 131 0 132 0;
#X connect 133 0 130 0;
#X connect 133 1 129 1;
#X coords 0 -1 1 1 85 20 2 0 0;
