#N canvas 81 73 1514 844 10;
#X obj 198 33 inlet;
#X text 196 14 step;
#X obj 0 0 tgl 10 0 \$0-step0 \$0-step0 empty 17 7 0 10 -262144 -1
-1 1 1;
#X obj 10 0 tgl 10 0 \$0-step1 \$0-step1 empty 17 7 0 10 -262144 -1
-1 0 1;
#X obj 20 0 tgl 10 0 \$0-step2 \$0-step2 empty 17 7 0 10 -262144 -1
-1 0 1;
#X obj 30 0 tgl 10 0 \$0-step3 \$0-step3 empty 17 7 0 10 -262144 -1
-1 0 1;
#X obj 45 0 tgl 10 0 \$0-step4 \$0-step4 empty 17 7 0 10 -262144 -1
-1 1 1;
#X obj 55 0 tgl 10 0 \$0-step5 \$0-step5 empty 17 7 0 10 -262144 -1
-1 0 1;
#X obj 65 0 tgl 10 0 \$0-step6 \$0-step6 empty 17 7 0 10 -262144 -1
-1 0 1;
#X obj 75 0 tgl 10 0 \$0-step7 \$0-step7 empty 17 7 0 10 -262144 -1
-1 0 1;
#X obj 90 0 tgl 10 0 \$0-step8 \$0-step8 empty 17 7 0 10 -262144 -1
-1 1 1;
#X obj 100 0 tgl 10 0 \$0-step9 \$0-step9 empty 17 7 0 10 -262144 -1
-1 0 1;
#X obj 110 0 tgl 10 0 \$0-step10 \$0-step10 empty 17 7 0 10 -262144
-1 -1 0 1;
#X obj 120 0 tgl 10 0 \$0-step11 \$0-step11 empty 17 7 0 10 -262144
-1 -1 0 1;
#X obj 135 0 tgl 10 0 \$0-step12 \$0-step12 empty 17 7 0 10 -262144
-1 -1 1 1;
#X obj 145 0 tgl 10 0 \$0-step13 \$0-step13 empty 17 7 0 10 -262144
-1 -1 0 1;
#X obj 155 0 tgl 10 0 \$0-step14 \$0-step14 empty 17 7 0 10 -262144
-1 -1 0 1;
#X obj 165 0 tgl 10 0 \$0-step15 \$0-step15 empty 17 7 0 10 -262144
-1 -1 0 1;
#X obj 618 21 r \$0-step0;
#X obj 618 37 r \$0-step1;
#X obj 618 53 r \$0-step2;
#X obj 618 69 r \$0-step3;
#X obj 618 85 r \$0-step4;
#X obj 618 101 r \$0-step5;
#X obj 618 117 r \$0-step6;
#X obj 618 133 r \$0-step7;
#X obj 702 21 r \$0-step8;
#X obj 702 37 r \$0-step9;
#X obj 702 53 r \$0-step10;
#X obj 702 69 r \$0-step11;
#X obj 702 85 r \$0-step12;
#X obj 702 101 r \$0-step13;
#X obj 702 117 r \$0-step14;
#X obj 702 133 r \$0-step15;
#X obj 206 344 outlet;
#X obj 345 274 sel 1;
#N canvas 0 50 923 617 savestate 0;
#X obj 103 156 f;
#X obj 52 129 savestate;
#X obj 207 27 r \$0-step0;
#X obj 207 43 r \$0-step1;
#X obj 207 59 r \$0-step2;
#X obj 207 75 r \$0-step3;
#X obj 207 91 r \$0-step4;
#X obj 207 107 r \$0-step5;
#X obj 207 123 r \$0-step6;
#X obj 207 139 r \$0-step7;
#X obj 299 21 r \$0-step8;
#X obj 299 37 r \$0-step9;
#X obj 299 53 r \$0-step10;
#X obj 299 69 r \$0-step11;
#X obj 299 85 r \$0-step12;
#X obj 299 101 r \$0-step13;
#X obj 299 117 r \$0-step14;
#X obj 299 133 r \$0-step15;
#X obj 31 283 s \$0-step0;
#X obj 31 299 s \$0-step1;
#X obj 31 315 s \$0-step2;
#X obj 31 331 s \$0-step3;
#X obj 31 347 s \$0-step4;
#X obj 31 363 s \$0-step5;
#X obj 31 379 s \$0-step6;
#X obj 31 395 s \$0-step7;
#X obj 117 294 s \$0-step8;
#X obj 117 310 s \$0-step9;
#X obj 117 326 s \$0-step10;
#X obj 117 342 s \$0-step11;
#X obj 117 358 s \$0-step12;
#X obj 117 374 s \$0-step13;
#X obj 117 390 s \$0-step14;
#X obj 117 406 s \$0-step15;
#X obj 392 25 r \$0-step16;
#X obj 392 41 r \$0-step17;
#X obj 392 57 r \$0-step18;
#X obj 392 73 r \$0-step19;
#X obj 392 89 r \$0-step20;
#X obj 392 105 r \$0-step21;
#X obj 392 121 r \$0-step22;
#X obj 392 137 r \$0-step23;
#X obj 489 36 r \$0-step24;
#X obj 489 52 r \$0-step25;
#X obj 489 68 r \$0-step26;
#X obj 489 84 r \$0-step27;
#X obj 489 100 r \$0-step28;
#X obj 489 116 r \$0-step29;
#X obj 489 132 r \$0-step30;
#X obj 489 148 r \$0-step31;
#X obj 103 185 pack f f f f f f f f f f f f f f f f f f f f f f f f
f f f f f f f f;
#X obj 52 247 unpack f f f f f f f f f f f f f f f f f f f f f f f
f f f f f f f f f;
#X obj 209 301 s \$0-step16;
#X obj 209 317 s \$0-step17;
#X obj 209 333 s \$0-step18;
#X obj 209 349 s \$0-step19;
#X obj 209 365 s \$0-step20;
#X obj 209 381 s \$0-step21;
#X obj 209 397 s \$0-step22;
#X obj 209 413 s \$0-step23;
#X obj 307 296 s \$0-step24;
#X obj 307 312 s \$0-step25;
#X obj 307 328 s \$0-step26;
#X obj 307 344 s \$0-step27;
#X obj 307 360 s \$0-step28;
#X obj 307 376 s \$0-step29;
#X obj 307 392 s \$0-step30;
#X obj 307 408 s \$0-step31;
#X connect 0 0 50 0;
#X connect 1 0 51 0;
#X connect 1 1 0 0;
#X connect 2 0 0 1;
#X connect 3 0 50 1;
#X connect 4 0 50 2;
#X connect 5 0 50 3;
#X connect 6 0 50 4;
#X connect 7 0 50 5;
#X connect 8 0 50 6;
#X connect 9 0 50 7;
#X connect 10 0 50 8;
#X connect 11 0 50 9;
#X connect 12 0 50 10;
#X connect 13 0 50 11;
#X connect 14 0 50 12;
#X connect 15 0 50 13;
#X connect 16 0 50 14;
#X connect 17 0 50 15;
#X connect 34 0 50 16;
#X connect 35 0 50 17;
#X connect 36 0 50 18;
#X connect 37 0 50 19;
#X connect 38 0 50 20;
#X connect 39 0 50 21;
#X connect 40 0 50 22;
#X connect 41 0 50 23;
#X connect 42 0 50 24;
#X connect 43 0 50 25;
#X connect 44 0 50 26;
#X connect 45 0 50 27;
#X connect 46 0 50 28;
#X connect 47 0 50 29;
#X connect 48 0 50 30;
#X connect 49 0 50 31;
#X connect 50 0 1 0;
#X connect 51 0 18 0;
#X connect 51 1 19 0;
#X connect 51 2 20 0;
#X connect 51 3 21 0;
#X connect 51 4 22 0;
#X connect 51 5 23 0;
#X connect 51 6 24 0;
#X connect 51 7 25 0;
#X connect 51 8 26 0;
#X connect 51 9 27 0;
#X connect 51 10 28 0;
#X connect 51 11 29 0;
#X connect 51 12 30 0;
#X connect 51 13 31 0;
#X connect 51 14 32 0;
#X connect 51 15 33 0;
#X connect 51 16 52 0;
#X connect 51 17 53 0;
#X connect 51 18 54 0;
#X connect 51 19 55 0;
#X connect 51 20 56 0;
#X connect 51 21 57 0;
#X connect 51 22 58 0;
#X connect 51 23 59 0;
#X connect 51 24 60 0;
#X connect 51 25 61 0;
#X connect 51 26 62 0;
#X connect 51 27 63 0;
#X connect 51 28 64 0;
#X connect 51 29 65 0;
#X connect 51 30 66 0;
#X connect 51 31 67 0;
#X restore 24 103 pd savestate;
#X obj 181 577 pack f f \$0;
#X obj 181 557 r \$0-color;
#X obj 370 658 s \$0-color;
#X obj 375 599 pack;
#X obj 374 527 t f f;
#X obj 1 1 cnv 8 8 8 empty \$0-col0 empty 20 12 0 14 -33289 -66577
0;
#X obj 11 1 cnv 8 8 8 empty \$0-col1 empty 20 12 0 14 -262144 -66577
0;
#X obj 21 1 cnv 8 8 8 empty \$0-col2 empty 20 12 0 14 -262144 -66577
0;
#X obj 31 1 cnv 8 8 8 empty \$0-col3 empty 20 12 0 14 -262144 -66577
0;
#X obj 46 1 cnv 8 8 8 empty \$0-col4 empty 20 12 0 14 -33289 -66577
0;
#X obj 56 1 cnv 8 8 8 empty \$0-col5 empty 20 12 0 14 -262144 -66577
0;
#X obj 66 1 cnv 8 8 8 empty \$0-col6 empty 20 12 0 14 -262144 -66577
0;
#X obj 76 1 cnv 8 8 8 empty \$0-col7 empty 20 12 0 14 -262144 -66577
0;
#X obj 91 1 cnv 8 8 8 empty \$0-col8 empty 20 12 0 14 -33289 -66577
0;
#X obj 101 1 cnv 8 8 8 empty \$0-col9 empty 20 12 0 14 -262144 -66577
0;
#X obj 111 1 cnv 8 8 8 empty \$0-col10 empty 20 12 0 14 -262144 -66577
0;
#X obj 121 1 cnv 8 8 8 empty \$0-col11 empty 20 12 0 14 -262144 -66577
0;
#X obj 136 1 cnv 8 8 8 empty \$0-col12 empty 20 12 0 14 -33289 -66577
0;
#X obj 146 1 cnv 8 8 8 empty \$0-col13 empty 20 12 0 14 -262144 -66577
0;
#X obj 156 1 cnv 8 8 8 empty \$0-col14 empty 20 12 0 14 -262144 -66577
0;
#X obj 166 1 cnv 8 8 8 empty \$0-col15 empty 20 12 0 14 -262144 -66577
0;
#X msg 182 597 \; \$3-col\$2 color \$1;
#X obj 661 433 r \$0-step0;
#X obj 661 449 r \$0-step1;
#X obj 661 465 r \$0-step2;
#X obj 661 481 r \$0-step3;
#X obj 661 497 r \$0-step4;
#X obj 661 513 r \$0-step5;
#X obj 661 529 r \$0-step6;
#X obj 661 545 r \$0-step7;
#X obj 831 433 r \$0-step8;
#X obj 831 449 r \$0-step9;
#X obj 831 465 r \$0-step10;
#X obj 831 481 r \$0-step11;
#X obj 831 497 r \$0-step12;
#X obj 831 513 r \$0-step13;
#X obj 831 529 r \$0-step14;
#X obj 831 545 r \$0-step15;
#X obj 629 460 f;
#X obj 629 476 f;
#X obj 629 492 f;
#X obj 629 508 f;
#X obj 629 524 f;
#X obj 629 540 f;
#X obj 629 556 f;
#X obj 629 572 f;
#X obj 799 460 f;
#X obj 799 476 f;
#X obj 799 492 f;
#X obj 799 508 f;
#X obj 799 524 f;
#X obj 799 540 f;
#X obj 799 556 f;
#X obj 799 572 f;
#X obj 565 633 sel 0 1;
#X msg 555 669 0;
#X obj 585 364 count;
#X obj 585 385 t f f;
#X obj 567 718 pack;
#X obj 570 749 s \$0-color;
#X obj 198 54 i;
#X obj 198 95 t b f f f;
#X obj 154 209 timer;
#X obj 136 174 t b b b;
#X obj 116 239 delay;
#X obj 700 389 select 0 1 2 3 4 5 6 7 8 9 10 11 12 13 14 15 16 17 18
19 20 21 22 23 24 25 26 27 28 29 30 31;
#X obj 959 460 f;
#X obj 959 476 f;
#X obj 959 492 f;
#X obj 959 508 f;
#X obj 959 524 f;
#X obj 959 540 f;
#X obj 959 556 f;
#X obj 959 572 f;
#X obj 1079 460 f;
#X obj 1079 476 f;
#X obj 1079 492 f;
#X obj 1079 508 f;
#X obj 1079 524 f;
#X obj 1079 540 f;
#X obj 1079 556 f;
#X obj 1079 572 f;
#X obj 991 433 r \$0-step16;
#X obj 991 449 r \$0-step17;
#X obj 991 465 r \$0-step18;
#X obj 991 481 r \$0-step19;
#X obj 991 497 r \$0-step20;
#X obj 991 513 r \$0-step21;
#X obj 991 529 r \$0-step22;
#X obj 991 545 r \$0-step23;
#X obj 1111 433 r \$0-step24;
#X obj 1111 449 r \$0-step25;
#X obj 1111 465 r \$0-step26;
#X obj 1111 481 r \$0-step27;
#X obj 1111 497 r \$0-step28;
#X obj 1111 513 r \$0-step29;
#X obj 1111 529 r \$0-step30;
#X obj 1111 545 r \$0-step31;
#X obj 0 10 tgl 10 0 \$0-step16 \$0-step16 empty 17 7 0 10 -262144
-1 -1 1 1;
#X obj 10 10 tgl 10 0 \$0-step17 \$0-step17 empty 17 7 0 10 -262144
-1 -1 0 1;
#X obj 20 10 tgl 10 0 \$0-step18 \$0-step18 empty 17 7 0 10 -262144
-1 -1 0 1;
#X obj 30 10 tgl 10 0 \$0-step19 \$0-step19 empty 17 7 0 10 -262144
-1 -1 0 1;
#X obj 45 10 tgl 10 0 \$0-step20 \$0-step20 empty 17 7 0 10 -262144
-1 -1 1 1;
#X obj 55 10 tgl 10 0 \$0-step21 \$0-step21 empty 17 7 0 10 -262144
-1 -1 0 1;
#X obj 65 10 tgl 10 0 \$0-step22 \$0-step22 empty 17 7 0 10 -262144
-1 -1 0 1;
#X obj 75 10 tgl 10 0 \$0-step23 \$0-step23 empty 17 7 0 10 -262144
-1 -1 0 1;
#X obj 90 10 tgl 10 0 \$0-step24 \$0-step24 empty 17 7 0 10 -262144
-1 -1 1 1;
#X obj 100 10 tgl 10 0 \$0-step25 \$0-step25 empty 17 7 0 10 -262144
-1 -1 0 1;
#X obj 110 10 tgl 10 0 \$0-step26 \$0-step26 empty 17 7 0 10 -262144
-1 -1 0 1;
#X obj 120 10 tgl 10 0 \$0-step27 \$0-step27 empty 17 7 0 10 -262144
-1 -1 0 1;
#X obj 135 10 tgl 10 0 \$0-step28 \$0-step28 empty 17 7 0 10 -262144
-1 -1 1 1;
#X obj 145 10 tgl 10 0 \$0-step29 \$0-step29 empty 17 7 0 10 -262144
-1 -1 0 1;
#X obj 155 10 tgl 10 0 \$0-step30 \$0-step30 empty 17 7 0 10 -262144
-1 -1 0 1;
#X obj 165 10 tgl 10 0 \$0-step31 \$0-step31 empty 17 7 0 10 -262144
-1 -1 0 1;
#X obj 1 11 cnv 8 8 8 empty \$0-col16 empty 20 12 0 14 -33289 -66577
0;
#X obj 11 11 cnv 8 8 8 empty \$0-col17 empty 20 12 0 14 -262144 -66577
0;
#X obj 21 11 cnv 8 8 8 empty \$0-col18 empty 20 12 0 14 -262144 -66577
0;
#X obj 31 11 cnv 8 8 8 empty \$0-col19 empty 20 12 0 14 -262144 -66577
0;
#X obj 46 11 cnv 8 8 8 empty \$0-col20 empty 20 12 0 14 -33289 -66577
0;
#X obj 56 11 cnv 8 8 8 empty \$0-col21 empty 20 12 0 14 -262144 -66577
0;
#X obj 66 11 cnv 8 8 8 empty \$0-col22 empty 20 12 0 14 -262144 -66577
0;
#X obj 76 11 cnv 8 8 8 empty \$0-col23 empty 20 12 0 14 -262144 -66577
0;
#X obj 91 11 cnv 8 8 8 empty \$0-col24 empty 20 12 0 14 -33289 -66577
0;
#X obj 101 11 cnv 8 8 8 empty \$0-col25 empty 20 12 0 14 -262144 -66577
0;
#X obj 111 11 cnv 8 8 8 empty \$0-col26 empty 20 12 0 14 -262144 -66577
0;
#X obj 121 11 cnv 8 8 8 empty \$0-col27 empty 20 12 0 14 -262144 -66577
0;
#X obj 136 11 cnv 8 8 8 empty \$0-col28 empty 20 12 0 14 -33289 -66577
0;
#X obj 146 11 cnv 8 8 8 empty \$0-col29 empty 20 12 0 14 -262144 -66577
0;
#X obj 156 11 cnv 8 8 8 empty \$0-col30 empty 20 12 0 14 -262144 -66577
0;
#X obj 166 11 cnv 8 8 8 empty \$0-col31 empty 20 12 0 14 -262144 -66577
0;
#X msg 588 328 32;
#X obj 198 74 mod 32;
#X obj 787 22 r \$0-step16;
#X obj 787 38 r \$0-step17;
#X obj 787 54 r \$0-step18;
#X obj 787 70 r \$0-step19;
#X obj 787 86 r \$0-step20;
#X obj 787 102 r \$0-step21;
#X obj 787 118 r \$0-step22;
#X obj 787 134 r \$0-step23;
#X obj 877 24 r \$0-step24;
#X obj 877 40 r \$0-step25;
#X obj 877 56 r \$0-step26;
#X obj 877 72 r \$0-step27;
#X obj 877 88 r \$0-step28;
#X obj 877 104 r \$0-step29;
#X obj 877 120 r \$0-step30;
#X obj 877 136 r \$0-step31;
#X obj 500 193 expr if(($f1==0&$f2==1) | ($f1==1&$f3==1) | ($f1==2&$f4==1)
| ($f1==3&$f5==1) | ($f1==4&$f6==1) | ($f1==5&$f7==1) | ($f1==6&$f8==1)
| ($f1==7&$f9==1) | ($f1==8&$f10==1) | ($f1==9&$f11==1) | ($f1==10&$f12==1)
| ($f1==11&$f13==1) | ($f1==12&$f14==1) | ($f1==13&$f15==1) | ($f1==14&$f16==1)
| ($f1==15&$f17==1) | ($f1==16&$f18==1) | ($f1==17&$f19==1) | ($f1==18&$f20==1)
| ($f1==19&$f21==1) | ($f1==20&$f22==1) | ($f1==21&$f23==1) | ($f1==22&$f24==1)
| ($f1==23&$f25==1) | ($f1==24&$f26==1) | ($f1==25&$f27==1) | ($f1==26&$f28==1)
| ($f1==27&$f29==1) | ($f1==28&$f30==1) | ($f1==29&$f31==1) | ($f1==30&$f32==1)
| ($f1==31&$f33==1) \, 1 \, 0);
#X obj 427 58 loadbang;
#X msg 589 668 12;
#X msg 377 560 1;
#X connect 0 0 97 0;
#X connect 18 0 185 1;
#X connect 19 0 185 2;
#X connect 20 0 185 3;
#X connect 21 0 185 4;
#X connect 22 0 185 5;
#X connect 23 0 185 6;
#X connect 24 0 185 7;
#X connect 25 0 185 8;
#X connect 26 0 185 9;
#X connect 27 0 185 10;
#X connect 28 0 185 11;
#X connect 29 0 185 12;
#X connect 30 0 185 13;
#X connect 31 0 185 14;
#X connect 32 0 185 15;
#X connect 33 0 185 16;
#X connect 35 0 34 0;
#X connect 37 0 58 0;
#X connect 38 0 37 0;
#X connect 40 0 39 0;
#X connect 41 0 188 0;
#X connect 41 1 40 1;
#X connect 59 0 75 1;
#X connect 59 0 167 0;
#X connect 60 0 76 1;
#X connect 60 0 167 0;
#X connect 61 0 77 1;
#X connect 61 0 167 0;
#X connect 62 0 78 1;
#X connect 62 0 167 0;
#X connect 63 0 79 1;
#X connect 63 0 167 0;
#X connect 64 0 80 1;
#X connect 64 0 167 0;
#X connect 65 0 81 1;
#X connect 65 0 167 0;
#X connect 66 0 82 1;
#X connect 66 0 167 0;
#X connect 67 0 83 1;
#X connect 67 0 167 0;
#X connect 68 0 84 1;
#X connect 68 0 167 0;
#X connect 69 0 85 1;
#X connect 69 0 167 0;
#X connect 70 0 86 1;
#X connect 70 0 167 0;
#X connect 71 0 87 1;
#X connect 71 0 167 0;
#X connect 72 0 88 1;
#X connect 72 0 167 0;
#X connect 73 0 89 1;
#X connect 73 0 167 0;
#X connect 74 0 90 1;
#X connect 74 0 167 0;
#X connect 75 0 91 0;
#X connect 76 0 91 0;
#X connect 77 0 91 0;
#X connect 78 0 91 0;
#X connect 79 0 91 0;
#X connect 80 0 91 0;
#X connect 81 0 91 0;
#X connect 82 0 91 0;
#X connect 83 0 91 0;
#X connect 84 0 91 0;
#X connect 85 0 91 0;
#X connect 86 0 91 0;
#X connect 87 0 91 0;
#X connect 88 0 91 0;
#X connect 89 0 91 0;
#X connect 90 0 91 0;
#X connect 91 0 92 0;
#X connect 91 1 187 0;
#X connect 92 0 95 0;
#X connect 93 0 94 0;
#X connect 94 0 102 0;
#X connect 94 1 95 1;
#X connect 95 0 96 0;
#X connect 97 0 168 0;
#X connect 98 0 100 0;
#X connect 98 1 41 0;
#X connect 98 2 167 0;
#X connect 98 3 185 0;
#X connect 99 0 101 1;
#X connect 100 0 101 0;
#X connect 100 1 99 0;
#X connect 100 2 99 1;
#X connect 101 0 167 0;
#X connect 102 0 75 0;
#X connect 102 1 76 0;
#X connect 102 2 77 0;
#X connect 102 3 78 0;
#X connect 102 4 79 0;
#X connect 102 5 80 0;
#X connect 102 6 81 0;
#X connect 102 7 82 0;
#X connect 102 8 83 0;
#X connect 102 9 84 0;
#X connect 102 10 85 0;
#X connect 102 11 86 0;
#X connect 102 12 87 0;
#X connect 102 13 88 0;
#X connect 102 14 89 0;
#X connect 102 15 90 0;
#X connect 102 16 103 0;
#X connect 102 17 104 0;
#X connect 102 18 105 0;
#X connect 102 19 106 0;
#X connect 102 20 107 0;
#X connect 102 21 108 0;
#X connect 102 22 109 0;
#X connect 102 23 110 0;
#X connect 102 24 111 0;
#X connect 102 25 112 0;
#X connect 102 26 113 0;
#X connect 102 27 114 0;
#X connect 102 28 115 0;
#X connect 102 29 116 0;
#X connect 102 30 117 0;
#X connect 102 31 118 0;
#X connect 103 0 91 0;
#X connect 104 0 91 0;
#X connect 105 0 91 0;
#X connect 106 0 91 0;
#X connect 107 0 91 0;
#X connect 108 0 91 0;
#X connect 109 0 91 0;
#X connect 110 0 91 0;
#X connect 111 0 91 0;
#X connect 112 0 91 0;
#X connect 113 0 91 0;
#X connect 114 0 91 0;
#X connect 115 0 91 0;
#X connect 116 0 91 0;
#X connect 117 0 91 0;
#X connect 118 0 91 0;
#X connect 119 0 103 1;
#X connect 119 0 167 0;
#X connect 120 0 104 1;
#X connect 120 0 167 0;
#X connect 121 0 105 1;
#X connect 121 0 167 0;
#X connect 122 0 106 1;
#X connect 122 0 167 0;
#X connect 123 0 107 1;
#X connect 123 0 167 0;
#X connect 124 0 108 1;
#X connect 124 0 167 0;
#X connect 125 0 109 1;
#X connect 125 0 167 0;
#X connect 126 0 110 1;
#X connect 126 0 167 0;
#X connect 127 0 111 1;
#X connect 127 0 167 0;
#X connect 128 0 112 1;
#X connect 128 0 167 0;
#X connect 129 0 113 1;
#X connect 129 0 167 0;
#X connect 130 0 114 1;
#X connect 130 0 167 0;
#X connect 131 0 115 1;
#X connect 131 0 167 0;
#X connect 132 0 116 1;
#X connect 132 0 167 0;
#X connect 133 0 117 1;
#X connect 133 0 167 0;
#X connect 134 0 118 1;
#X connect 134 0 167 0;
#X connect 167 0 93 0;
#X connect 168 0 98 0;
#X connect 169 0 185 17;
#X connect 170 0 185 18;
#X connect 171 0 185 19;
#X connect 172 0 185 20;
#X connect 173 0 185 21;
#X connect 174 0 185 22;
#X connect 175 0 185 23;
#X connect 176 0 185 24;
#X connect 177 0 185 25;
#X connect 178 0 185 26;
#X connect 179 0 185 27;
#X connect 180 0 185 28;
#X connect 181 0 185 29;
#X connect 182 0 185 30;
#X connect 183 0 185 31;
#X connect 184 0 185 32;
#X connect 185 0 35 0;
#X connect 186 0 167 0;
#X connect 187 0 95 0;
#X connect 188 0 40 0;
#X coords 0 -1 1 1 175 20 2 0 0;
