#N canvas 470 112 1114 830 10;
#X obj 198 33 inlet;
#X text 196 14 step;
#X obj 0 0 tgl 10 0 \$0-step0 \$0-step0 empty 17 7 0 10 -262144 -1
-1 1 1;
#X obj 10 0 tgl 10 0 \$0-step1 \$0-step1 empty 17 7 0 10 -262144 -1
-1 0 1;
#X obj 20 0 tgl 10 0 \$0-step2 \$0-step2 empty 17 7 0 10 -262144 -1
-1 0 1;
#X obj 30 0 tgl 10 0 \$0-step3 \$0-step3 empty 17 7 0 10 -262144 -1
-1 0 1;
#X obj 45 0 tgl 10 0 \$0-step4 \$0-step4 empty 17 7 0 10 -262144 -1
-1 1 1;
#X obj 55 0 tgl 10 0 \$0-step5 \$0-step5 empty 17 7 0 10 -262144 -1
-1 0 1;
#X obj 65 0 tgl 10 0 \$0-step6 \$0-step6 empty 17 7 0 10 -262144 -1
-1 0 1;
#X obj 75 0 tgl 10 0 \$0-step7 \$0-step7 empty 17 7 0 10 -262144 -1
-1 0 1;
#X obj 712 52 r \$0-step0;
#X obj 712 68 r \$0-step1;
#X obj 712 84 r \$0-step2;
#X obj 712 100 r \$0-step3;
#X obj 712 116 r \$0-step4;
#X obj 712 132 r \$0-step5;
#X obj 712 148 r \$0-step6;
#X obj 712 164 r \$0-step7;
#X obj 206 344 outlet;
#X obj 345 274 sel 1;
#N canvas 0 50 517 430 savestate 0;
#X obj 103 156 f;
#X obj 52 129 savestate;
#X obj 228 29 r \$0-step0;
#X obj 228 45 r \$0-step1;
#X obj 228 61 r \$0-step2;
#X obj 228 77 r \$0-step3;
#X obj 228 93 r \$0-step4;
#X obj 228 109 r \$0-step5;
#X obj 228 125 r \$0-step6;
#X obj 228 141 r \$0-step7;
#X obj 31 243 s \$0-step0;
#X obj 31 259 s \$0-step1;
#X obj 31 275 s \$0-step2;
#X obj 31 291 s \$0-step3;
#X obj 31 307 s \$0-step4;
#X obj 31 323 s \$0-step5;
#X obj 31 339 s \$0-step6;
#X obj 31 355 s \$0-step7;
#X obj 103 185 pack f f f f f f f f;
#X obj 52 207 unpack f f f f f f f f;
#X connect 0 0 18 0;
#X connect 1 0 19 0;
#X connect 1 1 0 0;
#X connect 2 0 0 1;
#X connect 3 0 18 1;
#X connect 4 0 18 2;
#X connect 5 0 18 3;
#X connect 6 0 18 4;
#X connect 7 0 18 5;
#X connect 8 0 18 6;
#X connect 9 0 18 7;
#X connect 18 0 1 0;
#X connect 19 0 10 0;
#X connect 19 1 11 0;
#X connect 19 2 12 0;
#X connect 19 3 13 0;
#X connect 19 4 14 0;
#X connect 19 5 15 0;
#X connect 19 6 16 0;
#X connect 19 7 17 0;
#X restore 24 103 pd savestate;
#X obj 181 577 pack f f \$0;
#X obj 181 557 r \$0-color;
#X obj 370 658 s \$0-color;
#X obj 375 599 pack;
#X obj 374 527 t f f;
#X obj 1 1 cnv 8 8 8 empty \$0-col0 empty 20 12 0 14 -33289 -66577
0;
#X obj 11 1 cnv 8 8 8 empty \$0-col1 empty 20 12 0 14 -262144 -66577
0;
#X obj 21 1 cnv 8 8 8 empty \$0-col2 empty 20 12 0 14 -262144 -66577
0;
#X obj 31 1 cnv 8 8 8 empty \$0-col3 empty 20 12 0 14 -128992 -66577
0;
#X obj 46 1 cnv 8 8 8 empty \$0-col4 empty 20 12 0 14 -33289 -66577
0;
#X obj 56 1 cnv 8 8 8 empty \$0-col5 empty 20 12 0 14 -262144 -66577
0;
#X obj 66 1 cnv 8 8 8 empty \$0-col6 empty 20 12 0 14 -262144 -66577
0;
#X obj 76 1 cnv 8 8 8 empty \$0-col7 empty 20 12 0 14 -262144 -66577
0;
#X msg 182 597 \; \$3-col\$2 color \$1;
#X obj 691 433 r \$0-step0;
#X obj 691 449 r \$0-step1;
#X obj 691 465 r \$0-step2;
#X obj 691 481 r \$0-step3;
#X obj 691 497 r \$0-step4;
#X obj 691 513 r \$0-step5;
#X obj 691 529 r \$0-step6;
#X obj 691 545 r \$0-step7;
#X obj 629 460 f;
#X obj 629 476 f;
#X obj 629 492 f;
#X obj 629 508 f;
#X obj 629 524 f;
#X obj 629 540 f;
#X obj 629 556 f;
#X obj 629 572 f;
#X obj 565 633 sel 0 1;
#X msg 555 669 0;
#X msg 590 668 12;
#X obj 585 364 count;
#X obj 585 385 t f f;
#X obj 567 718 pack;
#X obj 570 749 s \$0-color;
#X msg 377 560 11;
#X obj 198 54 i;
#X obj 198 95 t b f f f;
#X obj 154 209 timer;
#X obj 136 174 t b b b;
#X obj 116 239 delay;
#X obj 339 48 loadbang;
#X obj 198 74 mod 8;
#X obj 700 389 select 0 1 2 3 4 5 6 7;
#X msg 588 328 8;
#X obj 345 198 expr if(($f1==0&$f2==1) | ($f1==1&$f3==1) | ($f1==2&$f4==1)
| ($f1==3&$f5==1) | ($f1==4&$f6==1) | ($f1==5&$f7==1) | ($f1==6&$f8==1)
| ($f1==7&$f9==1) \, 1 \, 0);
#X connect 0 0 59 0;
#X connect 10 0 68 1;
#X connect 11 0 68 2;
#X connect 12 0 68 3;
#X connect 13 0 68 4;
#X connect 14 0 68 5;
#X connect 15 0 68 6;
#X connect 16 0 68 7;
#X connect 17 0 68 8;
#X connect 19 0 18 0;
#X connect 21 0 34 0;
#X connect 22 0 21 0;
#X connect 24 0 23 0;
#X connect 25 0 58 0;
#X connect 25 1 24 1;
#X connect 35 0 43 1;
#X connect 35 0 67 0;
#X connect 36 0 44 1;
#X connect 36 0 67 0;
#X connect 37 0 45 1;
#X connect 37 0 67 0;
#X connect 38 0 46 1;
#X connect 38 0 67 0;
#X connect 39 0 47 1;
#X connect 39 0 67 0;
#X connect 40 0 48 1;
#X connect 40 0 67 0;
#X connect 41 0 49 1;
#X connect 41 0 67 0;
#X connect 42 0 50 1;
#X connect 42 0 67 0;
#X connect 43 0 51 0;
#X connect 44 0 51 0;
#X connect 45 0 51 0;
#X connect 46 0 51 0;
#X connect 47 0 51 0;
#X connect 48 0 51 0;
#X connect 49 0 51 0;
#X connect 50 0 51 0;
#X connect 51 0 52 0;
#X connect 51 1 53 0;
#X connect 52 0 56 0;
#X connect 53 0 56 0;
#X connect 54 0 55 0;
#X connect 55 0 66 0;
#X connect 55 1 56 1;
#X connect 56 0 57 0;
#X connect 58 0 24 0;
#X connect 59 0 65 0;
#X connect 60 0 62 0;
#X connect 60 1 25 0;
#X connect 60 2 67 0;
#X connect 60 3 68 0;
#X connect 61 0 63 1;
#X connect 62 0 63 0;
#X connect 62 1 61 0;
#X connect 62 2 61 1;
#X connect 63 0 67 0;
#X connect 64 0 67 0;
#X connect 65 0 60 0;
#X connect 66 0 43 0;
#X connect 66 1 44 0;
#X connect 66 2 45 0;
#X connect 66 3 46 0;
#X connect 66 4 47 0;
#X connect 66 5 48 0;
#X connect 66 6 49 0;
#X connect 66 7 50 0;
#X connect 67 0 54 0;
#X connect 68 0 19 0;
#X coords 0 -1 1 1 85 10 2 0 0;
