#N canvas 216 130 1375 676 10;
#X obj 100 190 vsl 10 50 0 1 0 0 \$0-p0 \$0-p0 empty 0 -9 0 10 -262144
-1 -1 4900 1;
#X obj 121 116 nbx 4 14 0 100 0 0 \$0-div \$0-div div -20 7 0 10 -262144
-1 -1 0.25 256;
#X obj 110 190 vsl 10 50 0 1 0 0 \$0-p1 \$0-p1 empty 0 -9 0 10 -262144
-1 -1 1200 1;
#X obj 120 190 vsl 10 50 0 1 0 0 \$0-p2 \$0-p2 empty 0 -9 0 10 -262144
-1 -1 4100 1;
#X obj 130 190 vsl 10 50 0 1 0 0 \$0-p3 \$0-p3 empty 0 -9 0 10 -262144
-1 -1 2100 1;
#X obj 140 190 vsl 10 50 0 1 0 0 \$0-p4 \$0-p4 empty 0 -9 0 10 -262144
-1 -1 4900 1;
#X obj 150 190 vsl 10 50 0 1 0 0 \$0-p5 \$0-p5 empty 0 -9 0 10 -262144
-1 -1 2100 1;
#X obj 160 190 vsl 10 50 0 1 0 0 \$0-p6 \$0-p6 empty 0 -9 0 10 -262144
-1 -1 4900 1;
#X obj 170 190 vsl 10 50 0 1 0 0 \$0-p7 \$0-p7 empty 0 -9 0 10 -262144
-1 -1 4900 1;
#X obj 100 243 hradio 10 1 0 8 empty \$0-step empty 0 -8 0 10 -262144
-1 -1 1;
#N canvas 244 138 1159 695 savestate 0;
#X obj 102 262 f;
#X obj 51 231 savestate;
#X obj 257 68 r \$0-p0;
#X obj 257 84 r \$0-p1;
#X obj 257 100 r \$0-p2;
#X obj 257 116 r \$0-p3;
#X obj 257 132 r \$0-p4;
#X obj 257 148 r \$0-p5;
#X obj 257 164 r \$0-p6;
#X obj 257 180 r \$0-p7;
#X obj 117 180 r \$0-div;
#X obj 51 412 s \$0-div;
#X obj 212 597 s \$0-p0;
#X obj 212 581 s \$0-p1;
#X obj 212 565 s \$0-p2;
#X obj 212 549 s \$0-p3;
#X obj 212 533 s \$0-p4;
#X obj 212 517 s \$0-p5;
#X obj 212 501 s \$0-p6;
#X obj 212 485 s \$0-p7;
#X obj 367 52 r \$0-part1;
#X obj 367 36 r \$0-part0;
#X obj 367 68 r \$0-part2;
#X obj 367 84 r \$0-part3;
#X obj 367 100 r \$0-part4;
#X obj 367 116 r \$0-part5;
#X obj 367 132 r \$0-part6;
#X obj 367 148 r \$0-part7;
#X obj 317 569 s \$0-part0;
#X obj 317 553 s \$0-part1;
#X obj 317 537 s \$0-part2;
#X obj 317 521 s \$0-part3;
#X obj 317 505 s \$0-part4;
#X obj 317 489 s \$0-part5;
#X obj 317 473 s \$0-part6;
#X obj 317 457 s \$0-part7;
#X obj 476 92 r \$0-nb_repeats;
#X obj 452 531 s \$0-nb_repeats;
#X obj 452 515 s \$0-autorun;
#X obj 476 108 r \$0-autorun;
#X obj 476 124 r \$0-length;
#X obj 476 140 r \$0-offset;
#X obj 452 483 s \$0-offset;
#X obj 452 499 s \$0-length;
#X obj 476 156 r \$0-reset_on_part;
#X obj 452 467 s \$0-reset_on_part;
#X obj 476 172 r \$0-swing;
#X obj 452 451 s \$0-swing;
#X obj 452 435 s \$0-jitter;
#X obj 452 419 s \$0-step_jitter;
#X obj 476 188 r \$0-jitter;
#X obj 476 204 r \$0-step_jitter;
#X obj 452 403 s \$0-step_jitter_post;
#X obj 476 220 r \$0-step_jitter_post;
#X obj 476 236 r \$0-use_parts;
#X obj 452 387 s \$0-use_parts;
#X obj 102 291 pack f f f f f f f f f f f f f f f f f f f f f f f f
f f f f;
#X obj 51 327 unpack f f f f f f f f f f f f f f f f f f f f f f f
f f f f f;
#X obj 476 252 r \$0-mult;
#X obj 452 371 s \$0-mult;
#X obj 746 319 spigot 1;
#X msg 813 263 0;
#X obj 746 298 ii 1;
#X obj 808 319 spigot 1;
#X obj 687 319 spigot 1;
#X obj 687 298 ii 0;
#X obj 616 321 spigot 1;
#X obj 616 300 ii -1;
#X obj 808 298 ii 8;
#X connect 0 0 56 0;
#X connect 1 0 57 0;
#X connect 1 1 0 0;
#X connect 2 0 56 1;
#X connect 3 0 56 2;
#X connect 4 0 56 3;
#X connect 5 0 56 4;
#X connect 6 0 56 5;
#X connect 7 0 56 6;
#X connect 8 0 56 7;
#X connect 9 0 56 8;
#X connect 10 0 0 1;
#X connect 20 0 56 10;
#X connect 21 0 56 9;
#X connect 22 0 56 11;
#X connect 23 0 56 12;
#X connect 24 0 56 13;
#X connect 25 0 56 14;
#X connect 26 0 56 15;
#X connect 27 0 56 16;
#X connect 36 0 56 17;
#X connect 39 0 56 18;
#X connect 40 0 56 19;
#X connect 41 0 56 20;
#X connect 44 0 56 21;
#X connect 46 0 56 22;
#X connect 50 0 56 23;
#X connect 51 0 56 24;
#X connect 53 0 56 25;
#X connect 54 0 56 26;
#X connect 56 0 1 0;
#X connect 57 0 11 0;
#X connect 57 0 61 0;
#X connect 57 1 12 0;
#X connect 57 2 13 0;
#X connect 57 3 14 0;
#X connect 57 4 15 0;
#X connect 57 5 16 0;
#X connect 57 6 17 0;
#X connect 57 7 18 0;
#X connect 57 8 19 0;
#X connect 57 9 28 0;
#X connect 57 10 29 0;
#X connect 57 11 30 0;
#X connect 57 12 31 0;
#X connect 57 13 32 0;
#X connect 57 14 33 0;
#X connect 57 15 34 0;
#X connect 57 16 35 0;
#X connect 57 17 37 0;
#X connect 57 18 38 0;
#X connect 57 19 43 0;
#X connect 57 20 42 0;
#X connect 57 21 45 0;
#X connect 57 22 47 0;
#X connect 57 23 48 0;
#X connect 57 24 49 0;
#X connect 57 25 52 0;
#X connect 57 26 55 0;
#X connect 57 27 59 0;
#X connect 58 0 56 27;
#X connect 60 0 38 0;
#X connect 60 0 59 0;
#X connect 60 0 11 0;
#X connect 61 0 60 1;
#X connect 61 0 63 1;
#X connect 61 0 64 1;
#X connect 61 0 66 1;
#X connect 62 0 60 0;
#X connect 63 0 43 0;
#X connect 64 0 49 0;
#X connect 64 0 48 0;
#X connect 65 0 64 0;
#X connect 66 0 37 0;
#X connect 67 0 66 0;
#X connect 68 0 63 0;
#X restore 55 319 pd savestate;
#X obj 216 158 tgl 10 0 \$0-part0 \$0-part0 empty 17 7 0 10 -262144
-1 -1 0 1;
#X obj 120 130 nbx 3 14 -1 99 0 0 \$0-nb_repeats \$0-nb_repeats rep
-20 7 0 10 -262144 -1 -1 -1 256;
#X obj 216 168 tgl 10 0 \$0-part1 \$0-part1 empty 17 7 0 10 -262144
-1 -1 0 1;
#X obj 216 178 tgl 10 0 \$0-part2 \$0-part2 empty 17 7 0 10 -262144
-1 -1 0 1;
#X obj 216 188 tgl 10 0 \$0-part3 \$0-part3 empty 17 7 0 10 -262144
-1 -1 0 1;
#X obj 216 198 tgl 10 0 \$0-part4 \$0-part4 empty 17 7 0 10 -262144
-1 -1 0 1;
#X obj 216 208 tgl 10 0 \$0-part5 \$0-part5 empty 17 7 0 10 -262144
-1 -1 0 1;
#X obj 216 218 tgl 10 0 \$0-part6 \$0-part6 empty 17 7 0 10 -262144
-1 -1 0 1;
#X obj 216 228 tgl 10 0 \$0-part7 \$0-part7 empty 17 7 0 10 -262144
-1 -1 0 1;
#X obj 226 158 vradio 10 1 0 8 empty part empty 0 -8 0 10 -262144 -1
-1 0;
#X obj 79 15 inlet;
#N canvas 0 50 1070 687 part_on 0;
#X obj 58 66 r part;
#X obj 103 66 r \$0-part0;
#X obj 173 66 r \$0-part1;
#X obj 245 66 r \$0-part2;
#X obj 313 66 r \$0-part3;
#X obj 385 66 r \$0-part4;
#X obj 453 66 r \$0-part5;
#X obj 525 66 r \$0-part6;
#X obj 593 66 r \$0-part7;
#X obj 95 204 send \$0-part_on;
#X obj 663 66 r \$0-use_parts;
#X obj 95 142 expr if(($f1==0 & $f2) | ($f1==1 & $f3) | ($f1==2 & $f4)
| ($f1==3 & $f5) | ($f1==4 & $f6) | ($f1==5 & $f7) | ($f1==6 & $f8)
| ($f1==7 & $f9) | $f10==0 \, 1 \, 0);
#X obj 96 105 bondo 10 ---------------------------------------------------
;
#X obj 53 29 ii 0;
#X connect 0 0 12 0;
#X connect 1 0 12 1;
#X connect 2 0 12 2;
#X connect 3 0 12 3;
#X connect 4 0 12 4;
#X connect 5 0 12 5;
#X connect 6 0 12 6;
#X connect 7 0 12 7;
#X connect 8 0 12 8;
#X connect 10 0 12 9;
#X connect 11 0 9 0;
#X connect 12 0 11 0;
#X connect 12 1 11 1;
#X connect 12 2 11 2;
#X connect 12 3 11 3;
#X connect 12 4 11 4;
#X connect 12 5 11 5;
#X connect 12 6 11 6;
#X connect 12 7 11 7;
#X connect 12 8 11 8;
#X connect 12 9 11 9;
#X connect 13 0 12 0;
#X restore 55 300 pd part_on;
#X obj 221 130 tgl 14 0 \$0-autorun \$0-autorun auto -24 7 0 10 -262144
-1 -1 1 1;
#X obj 120 144 nbx 1 14 1 8 0 0 \$0-length \$0-length len -20 7 0 10
-262144 -1 -1 8 256;
#X obj 174 144 nbx 1 14 0 7 0 0 \$0-offset \$0-offset offst -31 7 0
10 -262144 -1 -1 0 256;
#X obj 221 144 tgl 14 0 \$0-reset_on_part \$0-reset_on_part rst -20
7 0 10 -262144 -1 -1 1 1;
#X obj 102 402 nbx 4 14 0.5 0.75 0 0 \$0-swing \$0-swing swing -32
7 0 10 -262144 -1 -1 0.5 256;
#X obj 158 482 outlet;
#X text 163 499 done;
#X obj 381 199 beat 1;
#A saved 0 0;
#X obj 505 353 + 1;
#X obj 505 190 r \$0-reset;
#X obj 303 498 mod 1;
#X obj 348 478 r \$0-length;
#X obj 348 498 r \$0-offset;
#X obj 303 518 +;
#X obj 303 579 mod 8;
#X obj 474 353 f;
#X obj 133 158 nbx 4 14 0 2 0 0 \$0-jitter \$0-jitter jit -20 7 0 10
-262144 -1 -1 0.68 256;
#X obj 133 172 nbx 4 14 0 8 0 0 \$0-step_jitter \$0-step_jitter s-jit
-31 7 0 10 -262144 -1 -1 0.58 256;
#X obj 303 538 +;
#X obj 303 559 round;
#X obj 202 177 tgl 14 0 \$0-step_jitter_post \$0-step_jitter_post pst
-20 7 0 10 -262144 -1 -1 0 1;
#X obj 348 518 r \$0-sj_post;
#X obj 303 478 +;
#X obj 348 458 r \$0-sj_pre;
#N canvas 1158 473 522 340 setup_random 0;
#X obj 69 197 randf;
#X obj 80 75 r \$0-jitter;
#X obj 96 176 * -1;
#X obj 69 218 s \$0-add_jitter;
#X obj 179 197 randf;
#X obj 206 176 * -1;
#X obj 192 129 r \$0-step_jitter;
#X obj 216 197 r \$0-step_jitter_post;
#X obj 179 217 bondo;
#X obj 179 238 expr $f1 * (1-$f2) \; $f1 * $f2;
#X obj 290 269 s \$0-sj_post;
#X obj 179 269 s \$0-sj_pre;
#X obj 165 96 r \$0-early_beat;
#X obj 192 155 pipe 0.0001;
#X obj 73 122 pipe 0.0001;
#X connect 0 0 3 0;
#X connect 1 0 14 0;
#X connect 2 0 0 2;
#X connect 4 0 8 0;
#X connect 5 0 4 2;
#X connect 6 0 13 0;
#X connect 7 0 8 1;
#X connect 8 0 9 0;
#X connect 8 1 9 1;
#X connect 9 0 11 0;
#X connect 9 1 10 0;
#X connect 12 0 4 0;
#X connect 12 0 0 0;
#X connect 13 0 5 0;
#X connect 13 0 4 1;
#X connect 14 0 2 0;
#X connect 14 0 0 1;
#X restore 55 338 pd setup_random;
#X obj 710 475 moses 0.5;
#X obj 450 549 r \$0-part_on;
#X obj 342 649 s \$0-step;
#X obj 386 548 r \$0-done;
#X obj 537 547 r \$0-nb_repeats;
#X obj 79 36 s \$0-in;
#X obj 303 600 expr if($f2==0 & $f3==1 & $f4!=0 \, $f1 \, -1);
#X obj 303 458 spigot;
#X obj 675 375 r \$0-length;
#X obj 753 375 r \$0-nb_repeats;
#X obj 693 514 diff;
#X obj 693 534 moses 0.5;
#X obj 744 585 bng 15 250 50 0 empty empty empty 17 7 0 10 -262144
-1 -1;
#X msg 505 210 0;
#X obj 464 132 r \$0-first;
#X obj 474 373 t f f;
#X obj 220 238 bng 15 50 10 0 \$0-end_bang \$0-end_bang empty 17 7
0 10 -262144 -1 -1;
#X obj 754 423 > 0;
#X obj 702 448 spigot;
#X obj 348 438 r \$0-running;
#X obj 761 515 s \$0-running;
#X msg 761 495 0;
#X obj 551 397 expr if($f1 >= ($f2*$f3) & $f3 != 0 \, 1 \, 0);
#X obj 744 605 s \$0-end_bang;
#X obj 158 463 r \$0-end_bang;
#N canvas 770 468 679 425 handle_input 0;
#X obj 189 132 s \$0-reset;
#X msg 189 112 0;
#X obj 77 50 route bang;
#X obj 77 29 r \$0-in;
#X obj 134 70 s \$0-step;
#X obj 77 71 t b b b;
#X msg 19 112 bang;
#X obj 19 149 s \$0-first;
#X msg 96 112 1;
#X obj 96 132 s \$0-running;
#X obj 109 162 s \$0-open_end;
#X connect 1 0 0 0;
#X connect 2 0 5 0;
#X connect 2 1 4 0;
#X connect 3 0 2 0;
#X connect 5 0 6 0;
#X connect 5 1 8 0;
#X connect 5 2 1 0;
#X connect 6 0 7 0;
#X connect 8 0 9 0;
#X connect 8 0 10 0;
#X restore 55 358 pd handle_input;
#N canvas 211 257 988 536 handle_autorun_and_reset 0;
#X obj 199 130 r part;
#X obj 199 257 spigot;
#X msg 218 326 0;
#X obj 218 366 s \$0-reset;
#X obj 251 326 f;
#X obj 218 346 spigot;
#X obj 72 192 r \$0-reset_on_part;
#X obj 72 237 spigot;
#X msg 72 257 0;
#X obj 72 277 s \$0-reset;
#X msg 59 346 1;
#X obj 59 386 s \$0-running;
#X obj 331 236 == 0;
#X obj 65 326 t b b;
#X obj 92 346 f;
#X obj 59 366 spigot;
#X obj 246 212 r \$0-autorun;
#X obj 199 283 t b b b;
#X obj 246 232 pipe 0.0001;
#X obj 199 192 pipe 0.0002;
#X obj 331 192 bng 15 250 50 0 empty empty empty 17 7 0 10 -262144
-1 -1;
#X obj 331 212 f;
#X obj 359 184 r \$0-running;
#X obj 331 257 s \$0-not_running;
#X obj 266 306 r \$0-not_running;
#X obj 107 326 r \$0-not_running;
#X obj 246 257 s \$0-open_end;
#X obj 339 25 loadbang;
#X obj 339 68 t b b b;
#X msg 433 104 1;
#X obj 470 167 s \$0-running;
#X obj 506 46 r \$0-autorun;
#X obj 506 66 pipe 0.0001;
#X obj 433 128 spigot;
#X obj 339 46 delay 0.0002;
#X obj 254 25 r \$0-resync;
#X msg 242 54 1;
#X obj 242 75 s \$0-running;
#X obj 151 82 s \$0-open_end;
#X msg 96 56 0;
#X obj 80 81 s \$0-done;
#X obj 660 27 r reset;
#X obj 660 48 s \$0-reset;
#X connect 0 0 20 0;
#X connect 1 0 17 0;
#X connect 2 0 5 0;
#X connect 4 0 5 1;
#X connect 5 0 3 0;
#X connect 6 0 7 1;
#X connect 7 0 8 0;
#X connect 8 0 9 0;
#X connect 10 0 15 0;
#X connect 12 0 23 0;
#X connect 13 0 10 0;
#X connect 13 1 14 0;
#X connect 14 0 15 1;
#X connect 15 0 11 0;
#X connect 16 0 18 0;
#X connect 17 0 13 0;
#X connect 17 1 2 0;
#X connect 17 2 4 0;
#X connect 18 0 1 1;
#X connect 18 0 26 0;
#X connect 19 0 1 0;
#X connect 19 0 7 0;
#X connect 20 0 21 0;
#X connect 21 0 12 0;
#X connect 22 0 21 1;
#X connect 24 0 4 1;
#X connect 25 0 14 1;
#X connect 27 0 34 0;
#X connect 28 0 19 0;
#X connect 28 1 20 0;
#X connect 28 2 29 0;
#X connect 29 0 33 0;
#X connect 31 0 32 0;
#X connect 32 0 33 1;
#X connect 33 0 30 0;
#X connect 34 0 28 0;
#X connect 35 0 28 0;
#X connect 35 0 36 0;
#X connect 35 0 39 0;
#X connect 36 0 37 0;
#X connect 36 0 38 0;
#X connect 39 0 40 0;
#X connect 41 0 42 0;
#X restore 55 378 pd handle_autorun_and_reset;
#X obj 822 114 f;
#X obj 837 94 r \$0-p0;
#X obj 909 52 select 0 1 2 3 4 5 6 7;
#X obj 872 114 f;
#X obj 922 114 f;
#X obj 972 114 f;
#X obj 1022 114 f;
#X obj 1072 114 f;
#X obj 1122 114 f;
#X obj 1172 114 f;
#X obj 887 94 r \$0-p1;
#X obj 937 94 r \$0-p2;
#X obj 987 94 r \$0-p3;
#X obj 1037 94 r \$0-p4;
#X obj 1087 94 r \$0-p5;
#X obj 1137 94 r \$0-p6;
#X obj 1187 94 r \$0-p7;
#X obj 66 483 outlet;
#X obj 909 32 r \$0-step;
#X text 61 502 trig out;
#X obj 971 190 +;
#X obj 971 210 branch;
#X obj 1004 190 r \$0-add_jitter;
#X obj 971 231 bng 15 250 50 0 empty empty empty 17 7 0 10 -262144
-1 -1;
#X obj 971 251 s \$0-out_bang;
#X obj 66 463 r \$0-out_bang;
#X obj 201 238 bng 15 150 50 0 \$0-out_bang \$0-out_bang empty 17 7
0 10 -262144 -1 -1;
#X obj 744 567 spigot;
#X obj 801 546 r \$0-open_end;
#X obj 363 303 bangeater;
#X obj 364 325 delay 0.001;
#X msg 464 176 1;
#X obj 202 158 tgl 14 0 \$0-use_parts \$0-use_parts empty -20 7 0 10
-262144 -1 -1 0 1;
#X obj 190 116 nbx 4 14 1 100 0 0 \$0-mult \$0-mult mlt -20 7 0 10
-262144 -1 -1 1 256;
#X obj 953 334 r \$0-div;
#X obj 953 354 pipe 0.0001;
#X obj 1061 352 pipe 0.0001;
#X obj 1015 394 bondo 2;
#X obj 1061 332 r \$0-mult;
#X obj 959 430 expr if($f2 \, $f1 / $f2 \, $f1);
#X obj 959 451 s \$0-complex_div;
#X obj 323 160 r \$0-complex_div;
#X obj 450 322 s \$0-early_beat;
#X obj 464 153 t b b;
#X floatatom 184 238 2 0 0 2 st #0-step #0-----;
#X obj 554 571 pipe 0.0001;
#X obj 303 621 moses 0;
#X obj 561 316 spigot 1;
#X msg 606 294 0;
#X obj 529 257 t b b b f;
#X msg 638 294 1;
#X obj 201 221 bng 14 250 50 0 \$0-resync empty sync -10 -8 0 10 -262144
-1 -1;
#X obj 638 272 r \$0-resync;
#X obj 635 164 r \$0-length;
#X obj 617 204 mod;
#X obj 141 15 inlet;
#X obj 141 36 s \$0-div;
#X obj 201 15 inlet;
#X obj 201 36 s \$0-mult;
#X obj 271 15 inlet;
#X obj 351 15 inlet;
#X obj 271 36 s \$0-length;
#X obj 351 36 s \$0-offset;
#X obj 441 15 inlet;
#X obj 521 15 inlet;
#X obj 441 36 s \$0-jitter;
#X obj 521 36 s \$0-step_jitter;
#X obj 631 15 inlet;
#X obj 631 56 s \$0-resync;
#X msg 631 36 bang;
#X connect 21 0 53 0;
#X connect 30 0 129 0;
#X connect 31 0 38 1;
#X connect 32 0 61 0;
#X connect 33 0 36 0;
#X connect 34 0 33 1;
#X connect 35 0 36 1;
#X connect 36 0 41 0;
#X connect 37 0 54 0;
#X connect 38 0 31 0;
#X connect 38 0 63 0;
#X connect 41 0 42 0;
#X connect 42 0 37 0;
#X connect 44 0 41 1;
#X connect 45 0 33 0;
#X connect 46 0 45 1;
#X connect 48 1 69 0;
#X connect 49 0 54 2;
#X connect 51 0 54 1;
#X connect 52 0 120 0;
#X connect 54 0 121 0;
#X connect 55 0 45 0;
#X connect 56 0 70 1;
#X connect 57 0 65 0;
#X connect 57 0 70 2;
#X connect 58 0 59 0;
#X connect 59 1 102 0;
#X connect 60 0 71 0;
#X connect 61 0 38 1;
#X connect 62 0 118 0;
#X connect 63 0 55 0;
#X connect 63 1 70 0;
#X connect 65 0 66 1;
#X connect 66 0 58 0;
#X connect 66 0 48 0;
#X connect 67 0 55 1;
#X connect 69 0 68 0;
#X connect 70 0 66 0;
#X connect 72 0 28 0;
#X connect 75 0 95 0;
#X connect 76 0 75 1;
#X connect 77 0 75 0;
#X connect 77 1 78 0;
#X connect 77 2 79 0;
#X connect 77 3 80 0;
#X connect 77 4 81 0;
#X connect 77 5 82 0;
#X connect 77 6 83 0;
#X connect 77 7 84 0;
#X connect 78 0 95 0;
#X connect 79 0 95 0;
#X connect 80 0 95 0;
#X connect 81 0 95 0;
#X connect 82 0 95 0;
#X connect 83 0 95 0;
#X connect 84 0 95 0;
#X connect 85 0 78 1;
#X connect 86 0 79 1;
#X connect 87 0 80 1;
#X connect 88 0 81 1;
#X connect 89 0 82 1;
#X connect 90 0 83 1;
#X connect 91 0 84 1;
#X connect 93 0 77 0;
#X connect 95 0 96 0;
#X connect 96 0 98 0;
#X connect 97 0 95 1;
#X connect 98 0 99 0;
#X connect 100 0 92 0;
#X connect 102 0 60 0;
#X connect 103 0 102 1;
#X connect 104 0 105 0;
#X connect 105 0 38 0;
#X connect 106 0 30 2;
#X connect 109 0 110 0;
#X connect 110 0 112 0;
#X connect 111 0 112 1;
#X connect 112 0 114 0;
#X connect 112 1 114 1;
#X connect 113 0 111 0;
#X connect 114 0 115 0;
#X connect 116 0 30 0;
#X connect 118 0 106 0;
#X connect 118 1 104 0;
#X connect 120 0 54 3;
#X connect 121 1 50 0;
#X connect 122 0 38 1;
#X connect 123 0 122 1;
#X connect 124 0 104 0;
#X connect 124 1 117 0;
#X connect 124 2 123 0;
#X connect 124 3 122 0;
#X connect 125 0 122 1;
#X connect 127 0 125 0;
#X connect 128 0 129 1;
#X connect 129 0 124 0;
#X connect 130 0 131 0;
#X connect 132 0 133 0;
#X connect 134 0 136 0;
#X connect 135 0 137 0;
#X connect 138 0 140 0;
#X connect 139 0 141 0;
#X connect 142 0 144 0;
#X connect 144 0 143 0;
#X connect 144 0 126 0;
#X coords 0 -1 1 1 136 153 1 100 100;
