#N canvas 508 182 896 506 10;
#X obj 198 53 inlet;
#X text 196 34 step;
#X obj 0 15 tgl 10 0 \$0-step0 \$0-step0 empty 17 7 0 10 -262144 -1
-1 1 1;
#X obj 10 15 tgl 10 0 \$0-step1 \$0-step1 empty 17 7 0 10 -262144 -1
-1 0 1;
#X obj 20 15 tgl 10 0 \$0-step2 \$0-step2 empty 17 7 0 10 -262144 -1
-1 0 1;
#X obj 30 15 tgl 10 0 \$0-step3 \$0-step3 empty 17 7 0 10 -262144 -1
-1 0 1;
#X obj 50 15 tgl 10 0 \$0-step4 \$0-step4 empty 17 7 0 10 -262144 -1
-1 0 1;
#X obj 60 15 tgl 10 0 \$0-step5 \$0-step5 empty 17 7 0 10 -262144 -1
-1 0 1;
#X obj 70 15 tgl 10 0 \$0-step6 \$0-step6 empty 17 7 0 10 -262144 -1
-1 0 1;
#X obj 80 15 tgl 10 0 \$0-step7 \$0-step7 empty 17 7 0 10 -262144 -1
-1 0 1;
#X obj 0 25 tgl 10 0 \$0-step8 \$0-step8 empty 17 7 0 10 -262144 -1
-1 0 1;
#X obj 10 25 tgl 10 0 \$0-step9 \$0-step9 empty 17 7 0 10 -262144 -1
-1 0 1;
#X obj 20 25 tgl 10 0 \$0-step10 \$0-step10 empty 17 7 0 10 -262144
-1 -1 0 1;
#X obj 30 25 tgl 10 0 \$0-step11 \$0-step11 empty 17 7 0 10 -262144
-1 -1 0 1;
#X obj 50 25 tgl 10 0 \$0-step12 \$0-step12 empty 17 7 0 10 -262144
-1 -1 0 1;
#X obj 60 25 tgl 10 0 \$0-step13 \$0-step13 empty 17 7 0 10 -262144
-1 -1 0 1;
#X obj 70 25 tgl 10 0 \$0-step14 \$0-step14 empty 17 7 0 10 -262144
-1 -1 0 1;
#X obj 80 25 tgl 10 0 \$0-step15 \$0-step15 empty 17 7 0 10 -262144
-1 -1 0 1;
#X obj 198 74 mod 16;
#X obj 532 21 r \$0-step0;
#X obj 532 37 r \$0-step1;
#X obj 532 53 r \$0-step2;
#X obj 532 69 r \$0-step3;
#X obj 532 85 r \$0-step4;
#X obj 532 101 r \$0-step5;
#X obj 532 117 r \$0-step6;
#X obj 532 133 r \$0-step7;
#X obj 702 21 r \$0-step8;
#X obj 702 37 r \$0-step9;
#X obj 702 53 r \$0-step10;
#X obj 702 69 r \$0-step11;
#X obj 702 85 r \$0-step12;
#X obj 702 101 r \$0-step13;
#X obj 702 117 r \$0-step14;
#X obj 702 133 r \$0-step15;
#X obj 206 344 outlet;
#X obj 345 198 expr if(($f1==0&$f2==1) | ($f1==1&$f3==1) | ($f1==2&$f4==1)
| ($f1==3&$f5==1) | ($f1==4&$f6==1) | ($f1==5&$f7==1) | ($f1==6&$f8==1)
| ($f1==7&$f9==1) | ($f1==8&$f10==1) | ($f1==9&$f11==1) | ($f1==10&$f12==1)
| ($f1==11&$f13==1) | ($f1==12&$f14==1) | ($f1==13&$f15==1) | ($f1==14&$f16==1)
| ($f1==15&$f17==1) \, 1 \, 0);
#X obj 345 274 sel 1;
#X connect 0 0 18 0;
#X connect 18 0 36 0;
#X connect 19 0 36 1;
#X connect 20 0 36 2;
#X connect 21 0 36 3;
#X connect 22 0 36 4;
#X connect 23 0 36 5;
#X connect 24 0 36 6;
#X connect 25 0 36 7;
#X connect 26 0 36 8;
#X connect 27 0 36 9;
#X connect 28 0 36 10;
#X connect 29 0 36 11;
#X connect 30 0 36 12;
#X connect 31 0 36 13;
#X connect 32 0 36 14;
#X connect 33 0 36 15;
#X connect 34 0 36 16;
#X connect 36 0 37 0;
#X connect 37 0 35 0;
#X coords 0 -1 1 1 90 37 1 0 0;
