#N canvas 258 98 1214 837 10;
#X obj 110 59 inlet;
#X obj 200 721 outlet;
#X text 201 748 step;
#X obj 332 691 outlet;
#X text 329 711 done;
#X obj 482 62 inlet;
#X text 83 26 bang to step;
#X text 83 36 float sets step;
#X text 482 39 reset;
#X obj 535 68 inlet;
#X obj 232 63 inlet;
#X text 232 39 nb_steps;
#X obj 356 64 inlet;
#X text 359 41 div;
#X obj 558 505 s \$0-tick;
#X obj 557 480 f;
#X obj 587 481 + 1;
#X msg 530 458 bang;
#X obj 898 74 s \$0-tickres;
#X obj 898 54 ii 24;
#X obj 356 118 s \$0-div;
#X obj 319 57 ii 1;
#X obj 86 308 i;
#X obj 357 89 max 0.001;
#X obj 232 134 s \$0-nb_steps;
#X obj 86 328 diff;
#X obj 59 145 r \$0-tick;
#X obj 92 168 r \$0-tickres;
#X obj 134 188 r \$0-div;
#X obj 86 288 /;
#X obj 657 425 sel 0;
#X msg 657 446 0;
#X msg 465 103 0;
#X obj 232 90 i;
#X obj 232 113 max -1;
#X obj 674 528 spigot;
#X obj 280 521 i;
#X obj 317 522 + 1;
#X msg 281 490 bang;
#X obj 465 124 t f f;
#X obj 706 501 != 0;
#X obj 116 418 spigot;
#X obj 152 398 != 0;
#X obj 278 555 t f f;
#X obj 429 559 r \$0-nb_steps;
#X obj 332 651 change;
#X obj 332 671 sel 0;
#X obj 260 651 spigot 0;
#X obj 159 360 r \$0-nb_steps;
#X obj 712 468 r \$0-nb_steps;
#X obj 674 549 s \$0-first_tick;
#X obj 168 296 r \$0-first_tick;
#X obj 296 437 r \$0-in_bang;
#X obj 318 491 r \$0-in_step;
#X obj 794 183 r \$0-in;
#X obj 718 277 s \$0-in_bang;
#X obj 883 279 s \$0-in_step;
#X obj 110 80 s \$0-in;
#X obj 767 237 t b b b;
#X obj 843 238 t b f b;
#X msg 849 279 1;
#X msg 805 279 0;
#X obj 305 583 expr if($f1 < $f2 | $f2 == -1 | $f3 \, 1 \, 0);
#X obj 859 328 s \$0-direct_in;
#X obj 554 559 r \$0-direct_in;
#X text 800 147 quick open/close;
#X text 800 157 for direct input (inlet 1);
#X text 670 570 let first tick through;
#X text 534 43 auto-start;
#X obj 535 89 > 0.5;
#X obj 795 207 route step bang;
#X obj 116 438 spigot;
#X obj 168 379 r \$0-running;
#X msg 389 687 0;
#X obj 305 614 t f f;
#X msg 956 473 1;
#X obj 957 494 s \$0-running;
#X obj 535 190 s \$0-running;
#X obj 956 400 t b b;
#X obj 623 124 moses 0.5;
#X obj 674 157 s \$0-running;
#X obj 101 218 bondo;
#X obj 107 253 /;
#X obj 657 373 r tick;
#X obj 86 369 bangeater;
#X msg 168 317 bang;
#X msg 86 349 bang;
#X obj 657 394 t f f f;
#X obj 428 61 r reset;
#X obj 200 701 spigot 0;
#X obj 245 681 r \$0-running;
#X obj 389 708 s \$0-running;
#X obj 662 68 bondo;
#X obj 623 102 expr if($f1 == 1 & $f2 == 0 \, 1 \, 0);
#X obj 535 110 spigot 0;
#X connect 0 0 57 0;
#X connect 5 0 32 0;
#X connect 9 0 69 0;
#X connect 9 0 92 0;
#X connect 10 0 33 0;
#X connect 12 0 23 0;
#X connect 15 0 16 0;
#X connect 15 0 14 0;
#X connect 16 0 15 1;
#X connect 17 0 15 0;
#X connect 19 0 18 0;
#X connect 22 0 25 0;
#X connect 23 0 20 0;
#X connect 25 0 86 0;
#X connect 26 0 29 0;
#X connect 27 0 81 0;
#X connect 28 0 81 1;
#X connect 29 0 22 0;
#X connect 30 0 31 0;
#X connect 31 0 35 0;
#X connect 32 0 39 0;
#X connect 33 0 34 0;
#X connect 34 0 24 0;
#X connect 35 0 50 0;
#X connect 36 0 37 0;
#X connect 36 0 43 0;
#X connect 37 0 36 1;
#X connect 38 0 36 0;
#X connect 39 0 15 1;
#X connect 39 1 36 1;
#X connect 40 0 35 1;
#X connect 41 0 71 0;
#X connect 42 0 41 1;
#X connect 43 0 47 0;
#X connect 43 1 62 0;
#X connect 44 0 62 1;
#X connect 45 0 46 0;
#X connect 46 0 3 0;
#X connect 46 0 73 0;
#X connect 47 0 89 0;
#X connect 48 0 42 0;
#X connect 49 0 40 0;
#X connect 51 0 85 0;
#X connect 52 0 38 0;
#X connect 53 0 36 0;
#X connect 54 0 70 0;
#X connect 58 0 61 0;
#X connect 58 1 55 0;
#X connect 58 2 60 0;
#X connect 59 0 61 0;
#X connect 59 1 56 0;
#X connect 59 2 60 0;
#X connect 60 0 63 0;
#X connect 61 0 63 0;
#X connect 62 0 74 0;
#X connect 64 0 62 2;
#X connect 69 0 94 0;
#X connect 70 0 58 0;
#X connect 70 1 78 0;
#X connect 70 2 59 0;
#X connect 71 0 38 0;
#X connect 72 0 71 1;
#X connect 73 0 91 0;
#X connect 74 0 47 1;
#X connect 74 1 45 0;
#X connect 75 0 76 0;
#X connect 78 0 75 0;
#X connect 78 1 32 0;
#X connect 79 1 80 0;
#X connect 81 0 82 0;
#X connect 81 1 82 1;
#X connect 82 0 29 1;
#X connect 83 0 87 0;
#X connect 84 0 41 0;
#X connect 85 0 84 0;
#X connect 86 0 84 0;
#X connect 87 0 17 0;
#X connect 87 1 30 0;
#X connect 87 2 92 1;
#X connect 88 0 39 0;
#X connect 88 0 73 0;
#X connect 89 0 1 0;
#X connect 90 0 89 1;
#X connect 92 0 93 0;
#X connect 92 1 93 1;
#X connect 93 0 79 0;
#X connect 94 0 77 0;
