#N canvas 487 159 852 638 10;
#X obj 142 263 seq_guts;
#X obj 82 59 ticker;
#A saved 60 1;
#X obj 281 81 beat;
#A saved 0 0;
#X floatatom 281 137 5 0 0 0 - - -;
#X obj 174 202 nbx 5 14 0 1e+37 0 1 empty empty div 0 -8 0 10 -262144
-1 -1 1 256;
#X obj 154 164 nbx 5 14 -1 1e+37 0 1 empty empty nb_steps 0 -8 0 10
-262144 -1 -1 0 256;
#X obj 82 19 tgl 15 1 empty empty empty 17 7 0 10 -262144 -1 -1 0 1
;
#X floatatom 243 136 5 0 0 0 - - -;
#X msg 196 96 bang;
#X msg 168 96 0;
#X text 173 80 reset;
#X obj 440 80 parts 2 3 4 8;
#A saved 0 0;
#X obj 281 116 mod 8;
#X obj 280 182 r part;
#X msg 280 203 bang;
#X floatatom 60 182 5 0 0 0 - - -;
#X msg 60 148 bang;
#X text 61 130 manual step;
#X obj 130 317 print step;
#X obj 229 305 print done;
#X obj 587 338 seq_guts;
#X obj 657 338 seq_guts;
#X obj 630 301 ii 1;
#X obj 702 306 ii 0;
#X obj 529 413 print l;
#X obj 579 413 print r;
#X obj 629 413 print done l;
#X obj 709 413 print done r;
#X msg 100 173 step;
#X obj 639 263 nbx 5 14 -1e+37 1e+37 0 1 empty empty nb_steps 0 -8
0 10 -262144 -1 -1 4 256;
#X obj 696 263 nbx 5 14 -1e+37 1e+37 0 1 empty empty div 0 -8 0 10
-262144 -1 -1 1 256;
#X text 497 340 auto start ->;
#X text 718 340 <- no auto start;
#X obj 621 373 gate4;
#A saved 0 0;
#X obj 152 452 seq_guts;
#X obj 148 400 nbx 5 14 -1e+37 1e+37 0 1 empty empty nb_steps 0 -8
0 10 -262144 -1 -1 -1 256;
#X obj 215 401 nbx 5 14 -1e+37 1e+37 0 1 empty empty div 0 -8 0 10
-262144 -1 -1 1 256;
#X msg 52 377 bang;
#X obj 245 431 tgl 15 1 empty empty auto 17 7 0 10 -262144 -1 -1 1
1;
#X obj 159 502 gate4;
#A saved 1 0;
#X floatatom 62 336 5 0 0 0 - - -;
#X obj 114 558 print step_loop;
#X obj 210 558 print done_loop;
#X obj 82 39 pipe 20;
#X obj 66 59 tgl 15 1 space_start_stop space_start_stop empty 17 7
0 10 -262144 -1 -1 0 1;
#X connect 0 0 7 0;
#X connect 0 0 18 0;
#X connect 0 1 19 0;
#X connect 2 0 12 0;
#X connect 4 0 0 2;
#X connect 5 0 0 1;
#X connect 6 0 43 0;
#X connect 8 0 0 3;
#X connect 9 0 0 3;
#X connect 12 0 3 0;
#X connect 13 0 14 0;
#X connect 14 0 0 3;
#X connect 15 0 0 0;
#X connect 16 0 15 0;
#X connect 20 0 33 0;
#X connect 20 1 21 0;
#X connect 20 1 33 1;
#X connect 21 0 33 2;
#X connect 21 1 20 0;
#X connect 21 1 33 3;
#X connect 22 0 20 4;
#X connect 23 0 21 4;
#X connect 28 0 0 0;
#X connect 29 0 20 1;
#X connect 29 0 21 1;
#X connect 30 0 20 2;
#X connect 30 0 21 2;
#X connect 33 0 24 0;
#X connect 33 1 26 0;
#X connect 33 2 25 0;
#X connect 33 3 27 0;
#X connect 34 0 39 0;
#X connect 34 1 39 1;
#X connect 35 0 34 1;
#X connect 36 0 34 2;
#X connect 37 0 34 0;
#X connect 38 0 34 4;
#X connect 39 0 41 0;
#X connect 39 1 42 0;
#X connect 40 0 34 0;
#X connect 43 0 1 0;
