#N canvas 63 66 1617 957 10;
#X obj 243 82 bng 15 50 10 0 empty empty empty 17 7 0 10 -262144 -1
-1;
#X obj 102 289 nbx 2 14 -1e+37 1e+37 0 0 \$0-length \$0-length len
0 -8 0 10 -262144 -1 -1 3 256;
#X obj 41 806 outlet;
#X obj 136 38 inlet;
#X obj 230 806 outlet;
#X obj 353 806 outlet;
#X floatatom 116 309 2 0 1000 2 - #0-disp_step #0-disp_step_sel;
#N canvas 190 98 1258 817 savestate 0;
#X obj 81 280 f;
#X obj 30 253 savestate;
#X obj 339 183 r \$0-jitter;
#X obj 339 199 r \$0-step_jitter;
#X obj 339 215 r \$0-octave;
#X obj 339 231 r \$0-oct_jitter;
#X obj 339 247 r \$0-div;
#X obj 320 564 s \$0-jitter;
#X obj 320 548 s \$0-step_jitter;
#X obj 320 532 s \$0-octave;
#X obj 320 516 s \$0-oct_jitter;
#X obj 320 500 s \$0-div;
#X obj 190 146 r \$0-part0;
#X obj 190 162 r \$0-part1;
#X obj 190 178 r \$0-part2;
#X obj 190 194 r \$0-part3;
#X obj 190 210 r \$0-part4;
#X obj 190 226 r \$0-part5;
#X obj 190 242 r \$0-part6;
#X obj 190 258 r \$0-part7;
#X obj 149 587 s \$0-part0;
#X obj 149 571 s \$0-part1;
#X obj 149 555 s \$0-part2;
#X obj 149 539 s \$0-part3;
#X obj 149 523 s \$0-part4;
#X obj 149 507 s \$0-part5;
#X obj 149 491 s \$0-part6;
#X obj 149 475 s \$0-part7;
#X obj 320 468 s \$0-reset_on_part;
#X obj 339 279 r \$0-reset_on_part;
#X obj 339 295 r \$0-use_parts;
#X obj 320 452 s \$0-use_parts;
#X obj 339 311 r \$0-array;
#X obj 320 436 s \$0-array_in;
#X obj 320 484 s \$0-mult;
#X obj 339 263 r \$0-mult;
#X obj 30 394 unpack f f f f f f f f f f f f f f f f f f s;
#X obj 82 349 pack f f f f f f f f f f f f f f f f f f s;
#X obj 614 332 spigot 1;
#X msg 681 276 0;
#X obj 614 311 ii 1;
#X obj 686 332 spigot 1;
#X obj 686 311 ii 15;
#X obj 555 332 spigot 1;
#X obj 555 311 ii 0;
#X obj 766 288 loadbang;
#X obj 766 332 spigot 1;
#X obj 339 151 r \$0-length;
#X obj 320 596 s \$0-length;
#X msg 766 308 symbol array_prefix;
#X connect 0 0 37 0;
#X connect 1 0 36 0;
#X connect 1 1 0 0;
#X connect 2 0 37 10;
#X connect 3 0 37 11;
#X connect 4 0 37 12;
#X connect 5 0 37 13;
#X connect 6 0 37 14;
#X connect 12 0 0 1;
#X connect 13 0 37 1;
#X connect 14 0 37 2;
#X connect 15 0 37 3;
#X connect 16 0 37 4;
#X connect 17 0 37 5;
#X connect 18 0 37 6;
#X connect 19 0 37 7;
#X connect 29 0 37 16;
#X connect 30 0 37 17;
#X connect 32 0 37 18;
#X connect 35 0 37 15;
#X connect 36 0 20 0;
#X connect 36 0 39 0;
#X connect 36 1 21 0;
#X connect 36 2 22 0;
#X connect 36 3 23 0;
#X connect 36 4 24 0;
#X connect 36 5 25 0;
#X connect 36 6 26 0;
#X connect 36 7 27 0;
#X connect 36 8 48 0;
#X connect 36 10 7 0;
#X connect 36 11 8 0;
#X connect 36 12 9 0;
#X connect 36 13 10 0;
#X connect 36 14 11 0;
#X connect 36 15 34 0;
#X connect 36 16 28 0;
#X connect 36 17 31 0;
#X connect 36 18 33 0;
#X connect 37 0 1 0;
#X connect 38 0 34 0;
#X connect 38 0 11 0;
#X connect 38 0 48 0;
#X connect 39 0 38 1;
#X connect 39 0 41 1;
#X connect 39 0 43 1;
#X connect 39 0 46 1;
#X connect 40 0 38 0;
#X connect 42 0 41 0;
#X connect 43 0 10 0;
#X connect 43 0 9 0;
#X connect 43 0 8 0;
#X connect 43 0 7 0;
#X connect 44 0 43 0;
#X connect 45 0 49 0;
#X connect 46 0 33 0;
#X connect 47 0 37 8;
#X connect 49 0 46 0;
#X restore 31 491 pd savestate;
#X obj 33 348 nbx 4 14 0 36 0 0 \$0-jitter \$0-jitter jit 0 -8 0 10
-262144 -1 -1 0 256;
#X obj 83 348 nbx 4 14 0 32 0 0 \$0-step_jitter \$0-step_jitter s-jit
0 -8 0 10 -262144 -1 -1 0 256;
#X obj 33 378 nbx 4 14 -10 10 0 0 \$0-octave \$0-octave oct 0 -8 0
10 -262144 -1 -1 0 256;
#X obj 83 378 nbx 4 14 0 10 0 0 \$0-oct_jitter \$0-oct_jitter o-jit
0 -8 0 10 -262144 -1 -1 0 256;
#X obj 30 289 nbx 3 14 0 100 0 0 \$0-div \$0-div div 6 -8 0 10 -262144
-1 -1 1 256;
#X obj 32 392 tgl 10 0 \$0-part0 \$0-part0 empty 17 7 0 10 -262144
-1 -1 0 1;
#X obj 42 392 tgl 10 0 \$0-part1 \$0-part1 empty 17 7 0 10 -262144
-1 -1 0 1;
#X obj 52 392 tgl 10 0 \$0-part2 \$0-part2 empty 17 7 0 10 -262144
-1 -1 0 1;
#X obj 62 392 tgl 10 0 \$0-part3 \$0-part3 empty 17 7 0 10 -262144
-1 -1 0 1;
#X obj 72 392 tgl 10 0 \$0-part4 \$0-part4 empty 17 7 0 10 -262144
-1 -1 0 1;
#X obj 82 392 tgl 10 0 \$0-part5 \$0-part5 empty 17 7 0 10 -262144
-1 -1 0 1;
#X obj 92 392 tgl 10 0 \$0-part6 \$0-part6 empty 17 7 0 10 -262144
-1 -1 0 1;
#X obj 102 392 tgl 10 0 \$0-part7 \$0-part7 empty 17 7 0 10 -262144
-1 -1 0 1;
#X floatatom 41 786 5 0 0 0 - - -;
#X obj 114 398 tgl 14 0 \$0-use_parts \$0-use_parts empty -20 7 0 10
-262144 -1 -1 0 1;
#N canvas 273 191 988 542 handle_part_on 0;
#X obj 58 66 r part;
#X obj 103 66 r \$0-part0;
#X obj 173 66 r \$0-part1;
#X obj 245 66 r \$0-part2;
#X obj 313 66 r \$0-part3;
#X obj 385 66 r \$0-part4;
#X obj 453 66 r \$0-part5;
#X obj 525 66 r \$0-part6;
#X obj 593 66 r \$0-part7;
#X obj 95 204 send \$0-part_on;
#X obj 663 66 r \$0-use_parts;
#X obj 95 142 expr if(($f1==0 & $f2) | ($f1==1 & $f3) | ($f1==2 & $f4)
| ($f1==3 & $f5) | ($f1==4 & $f6) | ($f1==5 & $f7) | ($f1==6 & $f8)
| ($f1==7 & $f9) | $f10==0 \, 1 \, 0);
#X obj 96 105 bondo 10 ---------------------------------------------------
;
#X obj 53 22 ii 0;
#X connect 0 0 12 0;
#X connect 1 0 12 1;
#X connect 2 0 12 2;
#X connect 3 0 12 3;
#X connect 4 0 12 4;
#X connect 5 0 12 5;
#X connect 6 0 12 6;
#X connect 7 0 12 7;
#X connect 8 0 12 8;
#X connect 10 0 12 9;
#X connect 11 0 9 0;
#X connect 12 0 11 0;
#X connect 12 1 11 1;
#X connect 12 2 11 2;
#X connect 12 3 11 3;
#X connect 12 4 11 4;
#X connect 12 5 11 5;
#X connect 12 6 11 6;
#X connect 12 7 11 7;
#X connect 12 8 11 8;
#X connect 12 9 11 9;
#X connect 13 0 12 0;
#X restore 31 531 pd handle_part_on;
#X symbolatom 31 258 16 0 0 2 - #0-array_in #0-array;
#X obj 32 402 hradio 10 1 0 8 empty part empty 0 -8 0 10 -262144 -1
-1 0;
#X obj 66 289 nbx 3 14 1 100 0 0 \$0-mult \$0-mult mult 4 -8 0 10 -262144
-1 -1 1 256;
#X obj 1390 17 r \$0-div;
#X obj 1390 37 pipe 0.0001;
#X obj 1498 35 pipe 0.0001;
#X obj 1452 77 bondo 2;
#X obj 1498 15 r \$0-mult;
#X obj 1396 113 expr if($f2 \, $f1 / $f2 \, $f1);
#X obj 1396 134 s \$0-complex_div;
#X text 118 19 bang to start;
#X obj 40 309 nbx 3 15 -1 128 0 0 \$0-set_note \$0-disp_note n -8 7
0 10 -262144 -1 -1 15 256;
#X obj 88 309 nbx 2 15 1 99 0 0 \$0-set_len \$0-current_step_len l
-8 7 0 10 -262144 -1 -1 1 256;
#X obj 33 324 hsl 95 8 0 1 0 0 \$0-set_val \$0-disp_val empty -2 -8
0 10 -262144 -1 -1 9100 1;
#X msg 293 81 1;
#X obj 243 106 s \$0-go;
#X obj 293 106 s \$0-running;
#N canvas 517 539 450 300 read_array 0;
#X obj 56 42 inlet;
#X text 55 22 index;
#X obj 106 143 tabread;
#X obj 106 83 r \$0-array;
#X obj 118 103 r \$0-array_in;
#X obj 106 163 outlet;
#X obj 206 143 tabread;
#X obj 206 83 r \$0-array;
#X obj 218 103 r \$0-array_in;
#X obj 206 183 outlet;
#X obj 306 143 tabread;
#X obj 306 83 r \$0-array;
#X obj 318 103 r \$0-array_in;
#X obj 306 163 outlet;
#X obj 56 63 t f f f;
#X text 107 181 note;
#X text 206 201 length;
#X text 305 181 value;
#X obj 206 163 round;
#X msg 306 123 set \$1_v;
#X msg 206 123 set \$1_l;
#X msg 106 123 set \$1_n;
#X connect 0 0 14 0;
#X connect 2 0 5 0;
#X connect 3 0 21 0;
#X connect 4 0 21 0;
#X connect 6 0 18 0;
#X connect 7 0 20 0;
#X connect 8 0 20 0;
#X connect 10 0 13 0;
#X connect 11 0 19 0;
#X connect 12 0 19 0;
#X connect 14 0 2 0;
#X connect 14 1 6 0;
#X connect 14 2 10 0;
#X connect 18 0 9 0;
#X connect 19 0 10 0;
#X connect 20 0 6 0;
#X connect 21 0 2 0;
#X restore 978 320 pd read_array;
#X obj 978 380 s \$0-current_step_note;
#X obj 1053 340 s \$0-current_step_val;
#X obj 266 58 t b b;
#N canvas 591 224 917 575 calc_jitter_and_direction 0;
#X obj 39 271 randf;
#X obj 82 201 r \$0-step_jitter;
#X obj 82 221 pipe 0.0001;
#X obj 242 209 pipe 0.0001;
#X obj 242 189 r \$0-jitter;
#X obj 179 279 randf;
#X obj 179 340 s \$0-add_jitter;
#X obj 328 209 pipe 0.0001;
#X obj 305 259 randf;
#X obj 328 189 r \$0-oct_jitter;
#X obj 305 320 round;
#X obj 305 340 s \$0-add_oct_jitter;
#X obj 212 29 inlet;
#X msg 212 50 bang;
#X obj 39 340 s \$0-add_step_jitter;
#X obj 39 321 round;
#X obj 82 241 * -1;
#X floatatom 39 301 5 0 0 0 - - -;
#X obj 242 230 * -1;
#X floatatom 179 320 5 0 0 0 - - -;
#X obj 328 230 * -1;
#X floatatom 305 301 5 0 0 0 - - -;
#X obj 437 189 r \$0-length;
#X obj 437 229 route 0;
#X obj 437 249 rand 2;
#X obj 437 269 expr $f1*2-1;
#X obj 437 309 s \$0-direction;
#X obj 476 289 expr if($f1>0 \, 1 \, -1);
#X obj 437 209 f;
#X connect 0 0 17 0;
#X connect 1 0 2 0;
#X connect 2 0 16 0;
#X connect 2 0 0 1;
#X connect 3 0 5 1;
#X connect 3 0 18 0;
#X connect 4 0 3 0;
#X connect 5 0 19 0;
#X connect 7 0 8 1;
#X connect 7 0 20 0;
#X connect 8 0 21 0;
#X connect 9 0 7 0;
#X connect 10 0 11 0;
#X connect 12 0 13 0;
#X connect 13 0 5 0;
#X connect 13 0 8 0;
#X connect 13 0 0 0;
#X connect 13 0 28 0;
#X connect 15 0 14 0;
#X connect 16 0 0 2;
#X connect 17 0 15 0;
#X connect 18 0 5 2;
#X connect 19 0 6 0;
#X connect 20 0 8 2;
#X connect 21 0 10 0;
#X connect 22 0 28 0;
#X connect 23 0 24 0;
#X connect 23 1 27 0;
#X connect 24 0 25 0;
#X connect 25 0 26 0;
#X connect 27 0 26 0;
#X connect 28 0 23 0;
#X restore 338 81 pd calc_jitter_and_direction;
#X msg 550 68 0;
#X obj 550 89 s \$0-running;
#X obj 115 240 bng 15 50 10 0 \$0-stop \$0-stop empty 17 7 0 10 -262144
-1 -1;
#X obj 550 48 r \$0-stop;
#X obj 100 240 bng 15 50 10 0 \$0-start \$0-start empty 17 7 0 10 -262144
-1 -1;
#X obj 266 36 r \$0-start;
#X obj 1078 17 r \$0-current_step_note;
#X obj 1222 17 r \$0-add_jitter;
#X obj 1068 78 moses 0;
#X msg 1068 127 bang;
#X obj 1068 148 s \$0-note_off;
#X obj 1107 107 round;
#X obj 1068 57 expr if($f1 >= 0 \, $f1 + $f2 \, -1);
#X text 38 823 note;
#X obj 230 765 r \$0-note_off;
#X text 230 822 bang on noteoff;
#X text 351 824 value;
#X obj 41 765 r \$0-note;
#X obj 1107 127 s \$0-note;
#X obj 353 765 r \$0-current_step_val;
#X obj 993 298 s \$0-disp_step;
#X obj 503 806 outlet;
#X text 502 824 done;
#X obj 130 806 outlet;
#X obj 130 765 r \$0-note_on;
#X text 130 822 bang on noteon;
#X obj 1035 176 s \$0-last_note;
#X msg 1035 154 -1;
#X obj 1215 135 r \$0-note;
#X obj 1215 156 > -1;
#X obj 1215 177 t f f;
#X obj 1242 210 s \$0-last_note;
#X obj 1215 239 moses 0.5;
#X msg 1241 287 bang;
#X obj 1241 308 s \$0-note_on;
#X obj 941 418 round;
#N canvas 766 330 745 597 set_values 0;
#X obj 37 32 r \$0-disp_step_sel;
#X obj 87 149 tabread;
#X obj 87 89 r \$0-array;
#X obj 99 109 r \$0-array_in;
#X obj 187 149 tabread;
#X obj 187 89 r \$0-array;
#X obj 199 109 r \$0-array_in;
#X obj 327 149 tabread;
#X obj 327 89 r \$0-array;
#X obj 339 109 r \$0-array_in;
#X obj 37 53 t f f f;
#X text 88 207 note;
#X text 187 207 length;
#X text 326 187 value;
#X obj 187 169 round;
#X msg 327 129 set \$1_v;
#X msg 187 129 set \$1_l;
#X msg 87 129 set \$1_n;
#X obj 87 169 round;
#X obj 87 189 s \$0-disp_note;
#X obj 187 189 s \$0-current_step_len;
#X obj 327 169 s \$0-disp_val;
#X obj 92 397 tabwrite;
#X obj 182 397 tabwrite;
#X obj 332 397 tabwrite;
#X obj 105 310 r \$0-set_note;
#X obj 340 333 r \$0-set_val;
#X obj 198 313 r \$0-set_len;
#X obj 457 370 f;
#X obj 423 341 t f b;
#X connect 0 0 10 0;
#X connect 1 0 18 0;
#X connect 2 0 17 0;
#X connect 3 0 17 0;
#X connect 4 0 14 0;
#X connect 5 0 16 0;
#X connect 6 0 16 0;
#X connect 7 0 21 0;
#X connect 8 0 15 0;
#X connect 9 0 15 0;
#X connect 10 1 1 0;
#X connect 10 1 4 0;
#X connect 10 1 7 0;
#X connect 10 2 24 1;
#X connect 10 2 23 1;
#X connect 10 2 22 1;
#X connect 14 0 20 0;
#X connect 15 0 7 0;
#X connect 15 0 24 0;
#X connect 16 0 4 0;
#X connect 16 0 23 0;
#X connect 17 0 1 0;
#X connect 17 0 22 0;
#X connect 18 0 19 0;
#X connect 25 0 22 0;
#X connect 26 0 24 0;
#X connect 27 0 23 0;
#X connect 29 1 28 0;
#X restore 31 551 pd set_values;
#X msg 34 200 set \$1;
#X msg 152 195 set \$1;
#X msg 179 371 set \$1;
#X obj 35 178 r \$0-disp_note_set;
#X obj 941 439 s \$0-disp_note_set;
#X obj 179 350 r \$0-disp_val_set;
#X obj 1057 427 s \$0-disp_val_set;
#X obj 1015 360 s \$0-current_step_len_set;
#X obj 152 174 r \$0-current_step_len_set;
#X obj 502 248 beat 1;
#A saved 0 0;
#X obj 626 402 + 1;
#X obj 626 239 r \$0-reset;
#X obj 424 547 mod 1;
#X obj 469 527 r \$0-length;
#X obj 469 547 r \$0-offset;
#X obj 424 567 +;
#X obj 424 628 mod 8;
#X obj 595 402 f;
#X obj 424 587 +;
#X obj 424 608 round;
#X obj 469 567 r \$0-sj_post;
#X obj 424 527 +;
#X obj 676 490 moses 0.5;
#X obj 571 598 r \$0-part_on;
#X obj 463 698 s \$0-step;
#X obj 507 597 r \$0-done;
#X obj 424 507 spigot;
#X obj 796 424 r \$0-length;
#X obj 659 529 diff;
#X obj 659 549 moses 0.5;
#X obj 710 600 bng 15 250 50 0 empty empty empty 17 7 0 10 -262144
-1 -1;
#X msg 626 259 0;
#X obj 585 181 r \$0-first;
#X obj 595 422 t f f;
#X obj 469 487 r \$0-running;
#X obj 727 530 s \$0-running;
#X msg 727 510 0;
#X obj 710 620 s \$0-end_bang;
#X obj 710 582 spigot;
#X obj 767 561 r \$0-open_end;
#X obj 484 352 bangeater;
#X obj 485 374 delay 0.001;
#X msg 585 225 1;
#X obj 444 209 r \$0-complex_div;
#X obj 571 371 s \$0-early_beat;
#X obj 585 202 t b b;
#X obj 424 670 moses 0;
#X obj 682 365 spigot 1;
#X msg 727 343 0;
#X obj 650 306 t b b b f;
#X msg 759 343 1;
#X obj 759 321 r \$0-resync;
#X obj 756 213 r \$0-length;
#X obj 738 253 mod;
#N canvas 770 468 679 425 handle_input 0;
#X obj 229 132 s \$0-reset;
#X msg 229 112 0;
#X obj 117 29 r \$0-in;
#X msg 59 112 bang;
#X obj 59 149 s \$0-first;
#X msg 136 112 1;
#X obj 136 132 s \$0-running;
#X obj 149 162 s \$0-open_end;
#X obj 117 50 route bang stop;
#X obj 117 71 t b b b b;
#X obj 301 129 s \$0-last_note;
#X msg 301 107 -1;
#X obj 204 70 s \$0-stop;
#X obj 27 48 t b b;
#X obj 27 27 r \$0-start;
#X obj 72 340 s \$0-start;
#X obj 84 290 spigot 1;
#X msg 121 230 0;
#X obj 164 244 delay 0.0001;
#X msg 164 265 1;
#X connect 1 0 0 0;
#X connect 2 0 8 0;
#X connect 3 0 4 0;
#X connect 5 0 6 0;
#X connect 5 0 7 0;
#X connect 8 0 9 0;
#X connect 8 1 12 0;
#X connect 9 0 3 0;
#X connect 9 0 16 0;
#X connect 9 1 5 0;
#X connect 9 2 1 0;
#X connect 9 3 11 0;
#X connect 11 0 10 0;
#X connect 13 0 9 0;
#X connect 13 1 17 0;
#X connect 14 0 13 0;
#X connect 16 0 15 0;
#X connect 17 0 18 0;
#X connect 17 0 16 1;
#X connect 18 0 19 0;
#X connect 19 0 16 1;
#X restore 31 576 pd handle_input;
#X obj 58 60 s \$0-in;
#X obj 53 29 bng 15 250 50 0 empty empty empty 17 7 0 10 -262144 -1
-1;
#X obj 424 649 expr if($f2==0 & $f3==1 \, $f1 \, -1);
#X obj 672 446 expr if($f1 >= $f2 \, 1 \, 0);
#X obj 469 507 r \$0-step_jitter_add;
#N canvas 0 50 450 300 jitter 0;
#X obj 58 168 randf;
#X obj 69 46 r \$0-jitter;
#X obj 85 147 * -1;
#X obj 58 189 s \$0-add_jitter;
#X obj 168 168 randf;
#X obj 195 147 * -1;
#X obj 181 100 r \$0-step_jitter;
#X obj 154 67 r \$0-early_beat;
#X obj 181 126 pipe 0.0001;
#X obj 62 93 pipe 0.0001;
#X obj 168 189 s \$0-step_jitter_add;
#X connect 0 0 3 0;
#X connect 1 0 9 0;
#X connect 2 0 0 2;
#X connect 4 0 10 0;
#X connect 5 0 4 2;
#X connect 6 0 8 0;
#X connect 7 0 4 0;
#X connect 7 0 0 0;
#X connect 8 0 5 0;
#X connect 8 0 4 1;
#X connect 9 0 2 0;
#X connect 9 0 0 1;
#X restore 35 607 pd jitter;
#X obj 978 275 r \$0-step;
#X obj 503 765 r \$0-end_bang;
#X obj 652 99 s \$0-open_end;
#X connect 0 0 39 0;
#X connect 3 0 138 0;
#X connect 21 0 2 0;
#X connect 27 0 28 0;
#X connect 28 0 30 0;
#X connect 29 0 30 1;
#X connect 30 0 32 0;
#X connect 30 1 32 1;
#X connect 31 0 29 0;
#X connect 32 0 33 0;
#X connect 38 0 40 0;
#X connect 41 0 42 0;
#X connect 41 0 81 0;
#X connect 41 1 90 0;
#X connect 41 2 43 0;
#X connect 41 2 89 0;
#X connect 44 0 0 0;
#X connect 44 1 38 0;
#X connect 44 1 45 0;
#X connect 46 0 47 0;
#X connect 46 0 146 0;
#X connect 49 0 46 0;
#X connect 51 0 44 0;
#X connect 52 0 58 0;
#X connect 53 0 58 1;
#X connect 54 0 55 0;
#X connect 54 0 73 0;
#X connect 54 1 57 0;
#X connect 55 0 56 0;
#X connect 57 0 64 0;
#X connect 58 0 54 0;
#X connect 60 0 4 0;
#X connect 63 0 21 0;
#X connect 65 0 5 0;
#X connect 70 0 69 0;
#X connect 73 0 72 0;
#X connect 74 0 75 0;
#X connect 75 0 76 0;
#X connect 76 0 78 0;
#X connect 76 1 77 0;
#X connect 78 1 79 0;
#X connect 79 0 80 0;
#X connect 81 0 87 0;
#X connect 83 0 35 0;
#X connect 84 0 36 0;
#X connect 85 0 37 0;
#X connect 86 0 83 0;
#X connect 88 0 85 0;
#X connect 91 0 84 0;
#X connect 92 0 136 0;
#X connect 93 0 100 1;
#X connect 94 0 114 0;
#X connect 95 0 98 0;
#X connect 96 0 95 1;
#X connect 97 0 98 1;
#X connect 98 0 101 0;
#X connect 99 0 140 0;
#X connect 100 0 93 0;
#X connect 100 0 116 0;
#X connect 101 0 102 0;
#X connect 102 0 99 0;
#X connect 103 0 101 1;
#X connect 104 0 95 0;
#X connect 105 1 119 0;
#X connect 106 0 140 2;
#X connect 108 0 140 1;
#X connect 109 0 104 0;
#X connect 110 0 141 1;
#X connect 111 0 112 0;
#X connect 112 1 121 0;
#X connect 113 0 120 0;
#X connect 114 0 100 1;
#X connect 115 0 128 0;
#X connect 116 0 109 0;
#X connect 116 1 141 0;
#X connect 117 0 109 1;
#X connect 119 0 118 0;
#X connect 121 0 113 0;
#X connect 122 0 121 1;
#X connect 123 0 124 0;
#X connect 124 0 100 0;
#X connect 125 0 92 2;
#X connect 126 0 92 0;
#X connect 128 0 125 0;
#X connect 128 1 123 0;
#X connect 129 1 107 0;
#X connect 130 0 100 1;
#X connect 131 0 130 1;
#X connect 132 0 123 0;
#X connect 132 1 127 0;
#X connect 132 2 131 0;
#X connect 132 3 130 0;
#X connect 133 0 130 1;
#X connect 134 0 133 0;
#X connect 135 0 136 1;
#X connect 136 0 132 0;
#X connect 139 0 138 0;
#X connect 140 0 129 0;
#X connect 141 0 111 0;
#X connect 141 0 105 0;
#X connect 142 0 104 1;
#X connect 144 0 41 0;
#X connect 144 0 66 0;
#X connect 145 0 67 0;
#X coords 0 -1 1 1 100 174 1 30 240;
