#N canvas -47 112 1327 886 10;
#X obj 30 303 nbx 2 14 0 1e+08 0 0 \$0-first \$0-first empty -35 7
0 10 -262144 -1 -1 0 256;
#X obj 76 303 nbx 2 14 0 1e+07 0 0 \$0-last \$0-last -> -15 7 0 10
-262144 -1 -1 3 256;
#X obj 41 705 r \$0-stepValue;
#X obj 41 746 outlet;
#X obj 135 48 inlet;
#X obj 156 746 outlet;
#X obj 303 746 outlet;
#X obj 150 629 r \$0-stepValue;
#X obj 150 651 t f f;
#X text 41 762 step values;
#X text 156 773 value change;
#X text 156 762 bang on step-;
#X obj 156 682 !=;
#X obj 303 584 r \$0-stepValue;
#X obj 303 658 spigot;
#X obj 303 609 t f f;
#X obj 335 636 >= 0;
#X text 301 764 non-negative;
#X text 301 776 values;
#X obj 466 736 outlet;
#X obj 460 641 t f f;
#X text 464 764 value change;
#X text 465 753 bang on step-;
#X obj 466 672 !=;
#X text 465 775 non-negative values;
#X floatatom 111 303 2 0 0 2 st #0-disp_step #0-----;
#X obj 625 742 outlet;
#X text 622 760 current;
#X text 623 772 step;
#N canvas 190 98 1258 817 savestate 0;
#X obj 81 280 f;
#X obj 30 253 savestate;
#X obj 339 151 r \$0-first;
#X obj 339 167 r \$0-last;
#X obj 320 596 s \$0-first;
#X obj 320 580 s \$0-last;
#X obj 339 183 r \$0-jitter;
#X obj 339 199 r \$0-step_jitter;
#X obj 339 215 r \$0-octave;
#X obj 339 231 r \$0-oct_jitter;
#X obj 339 247 r \$0-div;
#X obj 320 564 s \$0-jitter;
#X obj 320 548 s \$0-step_jitter;
#X obj 320 532 s \$0-octave;
#X obj 320 516 s \$0-oct_jitter;
#X obj 320 500 s \$0-div;
#X obj 190 146 r \$0-part0;
#X obj 190 162 r \$0-part1;
#X obj 190 178 r \$0-part2;
#X obj 190 194 r \$0-part3;
#X obj 190 210 r \$0-part4;
#X obj 190 226 r \$0-part5;
#X obj 190 242 r \$0-part6;
#X obj 190 258 r \$0-part7;
#X obj 149 587 s \$0-part0;
#X obj 149 571 s \$0-part1;
#X obj 149 555 s \$0-part2;
#X obj 149 539 s \$0-part3;
#X obj 149 523 s \$0-part4;
#X obj 149 507 s \$0-part5;
#X obj 149 491 s \$0-part6;
#X obj 149 475 s \$0-part7;
#X obj 320 468 s \$0-reset_on_part;
#X obj 339 279 r \$0-reset_on_part;
#X obj 339 295 r \$0-use_parts;
#X obj 320 452 s \$0-use_parts;
#X obj 339 311 r \$0-array;
#X obj 320 436 s \$0-array_in;
#X obj 320 484 s \$0-mult;
#X obj 339 263 r \$0-mult;
#X obj 30 394 unpack f f f f f f f f f f f f f f f f f f s;
#X obj 82 349 pack f f f f f f f f f f f f f f f f f f s;
#X obj 614 332 spigot 1;
#X msg 681 276 0;
#X obj 614 311 ii 1;
#X obj 686 332 spigot 1;
#X obj 686 311 ii 15;
#X obj 555 332 spigot 1;
#X obj 555 311 ii 0;
#X obj 770 278 loadbang;
#X obj 766 332 spigot 1;
#X msg 766 308 symbol array;
#X connect 0 0 41 0;
#X connect 1 0 40 0;
#X connect 1 1 0 0;
#X connect 2 0 41 8;
#X connect 3 0 41 9;
#X connect 6 0 41 10;
#X connect 7 0 41 11;
#X connect 8 0 41 12;
#X connect 9 0 41 13;
#X connect 10 0 41 14;
#X connect 16 0 0 1;
#X connect 17 0 41 1;
#X connect 18 0 41 2;
#X connect 19 0 41 3;
#X connect 20 0 41 4;
#X connect 21 0 41 5;
#X connect 22 0 41 6;
#X connect 23 0 41 7;
#X connect 33 0 41 16;
#X connect 34 0 41 17;
#X connect 36 0 41 18;
#X connect 39 0 41 15;
#X connect 40 0 24 0;
#X connect 40 0 43 0;
#X connect 40 1 25 0;
#X connect 40 2 26 0;
#X connect 40 3 27 0;
#X connect 40 4 28 0;
#X connect 40 5 29 0;
#X connect 40 6 30 0;
#X connect 40 7 31 0;
#X connect 40 8 4 0;
#X connect 40 9 5 0;
#X connect 40 10 11 0;
#X connect 40 11 12 0;
#X connect 40 12 13 0;
#X connect 40 13 14 0;
#X connect 40 14 15 0;
#X connect 40 15 38 0;
#X connect 40 16 32 0;
#X connect 40 17 35 0;
#X connect 40 18 37 0;
#X connect 41 0 1 0;
#X connect 42 0 38 0;
#X connect 42 0 15 0;
#X connect 43 0 42 1;
#X connect 43 0 45 1;
#X connect 43 0 47 1;
#X connect 43 0 50 1;
#X connect 44 0 42 0;
#X connect 46 0 45 0;
#X connect 47 0 14 0;
#X connect 47 0 13 0;
#X connect 47 0 12 0;
#X connect 47 0 11 0;
#X connect 47 0 4 0;
#X connect 48 0 47 0;
#X connect 49 0 51 0;
#X connect 50 0 37 0;
#X connect 51 0 50 0;
#X restore 41 125 pd savestate;
#X obj 625 701 r \$0-step;
#X obj 325 75 s \$0-set_steps;
#N canvas 0 50 621 449 set_steps 0;
#X obj 51 62 route 0 1 2 3 4 5 6 7 8 9 10 11 12 13 14 15;
#X obj 333 118 s \$0-step0;
#X obj 333 134 s \$0-step1;
#X obj 333 150 s \$0-step2;
#X obj 333 166 s \$0-step3;
#X obj 333 182 s \$0-step4;
#X obj 333 198 s \$0-step5;
#X obj 333 214 s \$0-step6;
#X obj 333 230 s \$0-step7;
#X obj 333 246 s \$0-step8;
#X obj 333 262 s \$0-step9;
#X obj 333 278 s \$0-step10;
#X obj 333 294 s \$0-step11;
#X obj 333 310 s \$0-step12;
#X obj 333 326 s \$0-step13;
#X obj 333 342 s \$0-step14;
#X obj 333 358 s \$0-step15;
#X obj 96 34 r \$0-set_steps;
#X connect 0 0 1 0;
#X connect 0 1 2 0;
#X connect 0 2 3 0;
#X connect 0 3 4 0;
#X connect 0 4 5 0;
#X connect 0 5 6 0;
#X connect 0 6 7 0;
#X connect 0 7 8 0;
#X connect 0 8 9 0;
#X connect 0 9 10 0;
#X connect 0 10 11 0;
#X connect 0 11 12 0;
#X connect 0 12 13 0;
#X connect 0 13 14 0;
#X connect 0 14 15 0;
#X connect 0 15 16 0;
#X connect 17 0 0 0;
#X restore 41 145 pd set_steps;
#N canvas 268 132 1221 788 read_steps 0;
#X obj 186 232 +;
#X obj 47 31 r \$0-step;
#X obj 87 62 +;
#X obj 117 31 r $step_jitter;
#X obj 87 83 round;
#X obj 186 351 s \$0-stepValue;
#X obj 242 195 r \$0-add_jitter;
#X obj 262 233 r \$0-octave;
#X obj 262 254 pipe 0.0001;
#X obj 339 233 r \$0-add_oct_jitter;
#X obj 186 289 expr $f1 + $f2*12 + $f3*12;
#X obj 186 330 spigot;
#X obj 229 310 r \$0-part_on;
#X obj 186 171 tabread;
#X obj 240 74 r \$0-array;
#X obj 252 94 r \$0-array_in;
#X msg 240 114 set \$1;
#X obj 97 114 mod;
#X obj 124 83 r \$0-array_size;
#X obj 91 352 s \$0-disp_step;
#X connect 0 0 10 0;
#X connect 1 0 2 0;
#X connect 2 0 4 0;
#X connect 3 0 2 1;
#X connect 4 0 17 0;
#X connect 6 0 0 1;
#X connect 7 0 8 0;
#X connect 8 0 10 1;
#X connect 9 0 10 2;
#X connect 10 0 11 0;
#X connect 11 0 5 0;
#X connect 12 0 11 1;
#X connect 13 0 0 0;
#X connect 14 0 16 0;
#X connect 15 0 16 0;
#X connect 16 0 13 0;
#X connect 17 0 13 0;
#X connect 17 0 19 0;
#X connect 18 0 17 1;
#X restore 41 165 pd read_steps;
#X obj 30 333 nbx 4 14 0 36 0 0 \$0-jitter \$0-jitter jit 0 -8 0 10
-262144 -1 -1 0 256;
#X obj 80 333 nbx 4 14 0 32 0 0 \$0-step_jitter \$0-step_jitter s-jit
0 -8 0 10 -262144 -1 -1 0 256;
#X obj 30 363 nbx 4 14 -10 10 0 0 \$0-octave \$0-octave oct 0 -8 0
10 -262144 -1 -1 0 256;
#X obj 80 363 nbx 4 14 0 10 0 0 \$0-oct_jitter \$0-oct_jitter o-jit
0 -8 0 10 -262144 -1 -1 0 256;
#X obj 30 289 nbx 3 14 0 100 0 0 \$0-div \$0-div div 0 -8 0 10 -262144
-1 -1 1 256;
#X obj 136 102 s \$0-in_bang;
#X obj 30 392 tgl 10 0 \$0-part0 \$0-part0 empty 17 7 0 10 -262144
-1 -1 0 1;
#X obj 40 392 tgl 10 0 \$0-part1 \$0-part1 empty 17 7 0 10 -262144
-1 -1 0 1;
#X obj 50 392 tgl 10 0 \$0-part2 \$0-part2 empty 17 7 0 10 -262144
-1 -1 0 1;
#X obj 60 392 tgl 10 0 \$0-part3 \$0-part3 empty 17 7 0 10 -262144
-1 -1 0 1;
#X obj 70 392 tgl 10 0 \$0-part4 \$0-part4 empty 17 7 0 10 -262144
-1 -1 0 1;
#X obj 80 392 tgl 10 0 \$0-part5 \$0-part5 empty 17 7 0 10 -262144
-1 -1 0 1;
#X obj 90 392 tgl 10 0 \$0-part6 \$0-part6 empty 17 7 0 10 -262144
-1 -1 0 1;
#X obj 100 392 tgl 10 0 \$0-part7 \$0-part7 empty 17 7 0 10 -262144
-1 -1 0 1;
#X obj 30 378 tgl 14 0 \$0-reset_on_part \$0-reset_on_part rst 17 7
0 10 -262144 -1 -1 0 1;
#X obj 156 705 sel 1;
#X obj 466 695 sel 1;
#X obj 216 213 beat 1;
#A saved 0 0;
#X obj 406 414 + 1;
#X obj 412 354 r \$0-reset;
#X obj 375 414 f;
#X obj 375 557 s \$0-step;
#X msg 412 374 0;
#X obj 320 227 > 0;
#X obj 285 261 spigot;
#X obj 375 455 +;
#X obj 446 384 r \$0-direction;
#X obj 907 189 r \$0-last;
#X obj 817 189 r \$0-first;
#X obj 867 234 bondo;
#X obj 817 209 pipe 0.001;
#X obj 907 209 pipe 0.001;
#X floatatom 375 476 5 0 0 0 - - -;
#X obj 758 271 expr if($f1 < $f2 \, $f2 - $f1 + 1 \, $f1 - $f2 + 1)
\; if($f1 > $f2 \, -1 \, 1) \; if($f1 <= $f2 \, $f1 \, $f2);
#X obj 375 517 +;
#X floatatom 375 538 5 0 0 0 - - -;
#X obj 891 315 s \$0-direction;
#X obj 758 314 s \$0-mod;
#X obj 1042 320 s \$0-offset;
#X obj 418 495 r \$0-offset;
#X floatatom 41 726 5 0 0 0 - - -;
#X obj 156 726 bng 15 50 10 0 empty empty empty 17 7 0 10 -262144 -1
-1;
#X floatatom 303 726 5 0 0 0 - - -;
#X obj 466 716 bng 15 50 10 0 empty empty empty 17 7 0 10 -262144 -1
-1;
#X floatatom 625 722 5 0 0 0 - - -;
#X obj 418 432 r \$0-add_step_jitter;
#N canvas 75 139 873 555 calc_jitter 0;
#X obj 170 275 randf;
#X obj 213 205 r \$0-step_jitter;
#X obj 213 225 pipe 0.0001;
#X obj 383 215 pipe 0.0001;
#X obj 383 195 r \$0-jitter;
#X obj 320 285 randf;
#X obj 320 346 s \$0-add_jitter;
#X obj 643 225 pipe 0.0001;
#X obj 620 275 randf;
#X obj 643 205 r \$0-oct_jitter;
#X obj 620 336 round;
#X obj 620 356 s \$0-add_oct_jitter;
#X obj 343 33 inlet;
#X msg 343 54 bang;
#X obj 170 344 s \$0-add_step_jitter;
#X obj 170 325 round;
#X obj 213 245 * -1;
#X floatatom 97 345 5 0 0 0 - - -;
#X obj 383 236 * -1;
#X floatatom 302 406 5 0 0 0 - - -;
#X obj 643 246 * -1;
#X floatatom 554 337 5 0 0 0 - - -;
#X connect 0 0 15 0;
#X connect 0 0 17 0;
#X connect 1 0 2 0;
#X connect 2 0 16 0;
#X connect 2 0 0 1;
#X connect 3 0 5 1;
#X connect 3 0 18 0;
#X connect 4 0 3 0;
#X connect 5 0 6 0;
#X connect 5 0 19 0;
#X connect 7 0 8 1;
#X connect 7 0 20 0;
#X connect 8 0 10 0;
#X connect 8 0 21 0;
#X connect 9 0 7 0;
#X connect 10 0 11 0;
#X connect 12 0 13 0;
#X connect 13 0 5 0;
#X connect 13 0 8 0;
#X connect 13 0 0 0;
#X connect 15 0 14 0;
#X connect 16 0 0 2;
#X connect 18 0 5 2;
#X connect 20 0 8 2;
#X restore 436 414 pd calc_jitter;
#X obj 209 653 ii 0.123457;
#X obj 111 398 tgl 14 0 \$0-use_parts \$0-use_parts empty -20 7 0 10
-262144 -1 -1 0 1;
#N canvas 273 191 988 542 handle_part_on 0;
#X obj 58 66 r part;
#X obj 103 66 r \$0-part0;
#X obj 173 66 r \$0-part1;
#X obj 245 66 r \$0-part2;
#X obj 313 66 r \$0-part3;
#X obj 385 66 r \$0-part4;
#X obj 453 66 r \$0-part5;
#X obj 525 66 r \$0-part6;
#X obj 593 66 r \$0-part7;
#X obj 95 204 send \$0-part_on;
#X obj 663 66 r \$0-use_parts;
#X obj 95 142 expr if(($f1==0 & $f2) | ($f1==1 & $f3) | ($f1==2 & $f4)
| ($f1==3 & $f5) | ($f1==4 & $f6) | ($f1==5 & $f7) | ($f1==6 & $f8)
| ($f1==7 & $f9) | $f10==0 \, 1 \, 0);
#X obj 96 105 bondo 10 ---------------------------------------------------
;
#X obj 53 22 ii 0;
#X connect 0 0 12 0;
#X connect 1 0 12 1;
#X connect 2 0 12 2;
#X connect 3 0 12 3;
#X connect 4 0 12 4;
#X connect 5 0 12 5;
#X connect 6 0 12 6;
#X connect 7 0 12 7;
#X connect 8 0 12 8;
#X connect 10 0 12 9;
#X connect 11 0 9 0;
#X connect 12 0 11 0;
#X connect 12 1 11 1;
#X connect 12 2 11 2;
#X connect 12 3 11 3;
#X connect 12 4 11 4;
#X connect 12 5 11 5;
#X connect 12 6 11 6;
#X connect 12 7 11 7;
#X connect 12 8 11 8;
#X connect 12 9 11 9;
#X connect 13 0 12 0;
#X restore 41 185 pd handle_part_on;
#X obj 885 695 r \$0-reset_on_part;
#X obj 839 695 r part;
#X msg 839 716 bang;
#X obj 839 737 spigot;
#X obj 839 758 s \$0-reset;
#X obj 470 58 inlet;
#X obj 223 123 s \$0-step;
#X obj 223 103 t f b;
#X symbolatom 30 258 15 0 0 2 - #0-array_in #0-array;
#X obj 639 552 array size;
#X obj 628 407 r \$0-array;
#X obj 651 494 t b s;
#X obj 696 407 r \$0-array_in;
#X symbolatom 651 435 10 0 0 0 - - -;
#X obj 598 520 delay 0.0001;
#X obj 639 573 s \$0-array_size;
#X obj 30 402 hradio 10 1 0 8 empty part empty 0 -8 0 10 -262144 -1
-1 0;
#X obj 68 289 nbx 3 14 1 100 0 0 \$0-mult \$0-mult mult 0 -8 0 10 -262144
-1 -1 2 256;
#X obj 898 439 r \$0-div;
#X obj 898 459 pipe 0.0001;
#X obj 1006 457 pipe 0.0001;
#X obj 960 499 bondo 2;
#X obj 1006 437 r \$0-mult;
#X obj 904 535 expr if($f2 \, $f1 / $f2 \, $f1);
#X obj 904 556 s \$0-complex_div;
#X obj 216 172 r \$0-complex_div;
#X obj 749 552 array size;
#X obj 761 494 t b s;
#X symbolatom 761 435 10 0 0 0 - - -;
#X obj 708 520 delay 0.0001;
#X obj 749 601 s \$0-last;
#X obj 395 238 r \$0-in_bang;
#X obj 408 313 spigot 1;
#X msg 453 291 0;
#X obj 766 578 - 1;
#X obj 325 51 inlet;
#X obj 135 76 route bang;
#X text 131 19 bang to step;
#X text 131 29 send float to select step;
#X text 321 31 set values;
#X obj 470 78 s \$0-div;
#X obj 530 58 inlet;
#X obj 530 78 s \$0-mult;
#X obj 600 58 inlet;
#X obj 670 58 inlet;
#X obj 600 78 s \$0-first;
#X obj 670 78 s \$0-last;
#X obj 730 58 inlet;
#X obj 810 58 inlet;
#X obj 731 78 s \$0-jitter;
#X obj 810 78 s \$0-step_jitter;
#X obj 920 58 inlet;
#X obj 1000 58 inlet;
#X obj 921 78 s \$0-octave;
#X obj 1000 78 s \$0-oct_jitter;
#X obj 111 377 bng 14 250 50 0 \$0-resync empty sync -27 7 0 10 -262144
-1 -1;
#X obj 1103 56 inlet;
#X obj 1103 97 s \$0-resync;
#X msg 1103 77 bang;
#X obj 395 259 t b b b f b b f;
#X obj 561 316 spigot 1;
#X msg 606 294 0;
#X msg 638 294 1;
#X obj 638 272 r \$0-resync;
#X obj 375 495 mod;
#X obj 418 475 r \$0-mod;
#X connect 2 0 74 0;
#X connect 4 0 120 0;
#X connect 7 0 8 0;
#X connect 8 0 12 1;
#X connect 8 1 12 0;
#X connect 12 0 49 0;
#X connect 13 0 15 0;
#X connect 14 0 20 0;
#X connect 14 0 76 0;
#X connect 15 0 14 0;
#X connect 15 1 16 0;
#X connect 16 0 14 1;
#X connect 20 0 23 1;
#X connect 20 1 23 0;
#X connect 23 0 50 0;
#X connect 30 0 78 0;
#X connect 49 0 75 0;
#X connect 50 0 77 0;
#X connect 51 0 58 0;
#X connect 52 0 54 1;
#X connect 53 0 56 0;
#X connect 54 0 52 0;
#X connect 54 0 59 0;
#X connect 56 0 54 1;
#X connect 57 0 58 1;
#X connect 58 0 143 0;
#X connect 59 0 66 0;
#X connect 60 0 52 1;
#X connect 61 0 65 0;
#X connect 62 0 64 0;
#X connect 63 0 67 0;
#X connect 63 1 67 1;
#X connect 64 0 63 0;
#X connect 65 0 63 1;
#X connect 66 0 148 0;
#X connect 67 0 71 0;
#X connect 67 1 70 0;
#X connect 67 2 72 0;
#X connect 68 0 69 0;
#X connect 69 0 55 0;
#X connect 73 0 68 1;
#X connect 74 0 3 0;
#X connect 75 0 5 0;
#X connect 76 0 6 0;
#X connect 77 0 19 0;
#X connect 78 0 26 0;
#X connect 79 0 59 1;
#X connect 81 0 12 1;
#X connect 84 0 87 1;
#X connect 85 0 86 0;
#X connect 86 0 87 0;
#X connect 87 0 88 0;
#X connect 89 0 124 0;
#X connect 91 0 90 0;
#X connect 91 1 80 0;
#X connect 93 0 99 0;
#X connect 94 0 97 0;
#X connect 94 0 112 0;
#X connect 95 0 98 0;
#X connect 95 1 93 1;
#X connect 96 0 97 0;
#X connect 96 0 112 0;
#X connect 97 0 95 0;
#X connect 98 0 93 0;
#X connect 102 0 103 0;
#X connect 103 0 105 0;
#X connect 104 0 105 1;
#X connect 105 0 107 0;
#X connect 105 1 107 1;
#X connect 106 0 104 0;
#X connect 107 0 108 0;
#X connect 109 0 51 0;
#X connect 109 0 57 0;
#X connect 110 0 118 0;
#X connect 111 0 113 0;
#X connect 111 1 110 1;
#X connect 112 0 111 0;
#X connect 113 0 110 0;
#X connect 115 0 143 0;
#X connect 116 0 54 1;
#X connect 117 0 116 1;
#X connect 118 0 114 0;
#X connect 119 0 31 0;
#X connect 120 0 39 0;
#X connect 120 1 91 0;
#X connect 125 0 126 0;
#X connect 127 0 129 0;
#X connect 128 0 130 0;
#X connect 131 0 133 0;
#X connect 132 0 134 0;
#X connect 135 0 137 0;
#X connect 136 0 138 0;
#X connect 140 0 142 0;
#X connect 142 0 141 0;
#X connect 142 0 139 0;
#X connect 143 0 54 0;
#X connect 143 1 80 0;
#X connect 143 2 117 0;
#X connect 143 3 116 0;
#X connect 143 4 97 0;
#X connect 143 5 145 0;
#X connect 143 6 144 0;
#X connect 144 0 54 1;
#X connect 145 0 144 1;
#X connect 146 0 144 1;
#X connect 147 0 146 0;
#X connect 148 0 68 0;
#X connect 149 0 148 1;
#X coords 0 -1 1 1 95 174 1 30 240;
