#N canvas 216 130 1375 676 10;
#X obj 100 162 vsl 10 50 0 1 0 0 \$0-p0 \$0-p0in empty 0 -9 0 10 -262144
-1 -1 4900 1;
#X obj 110 162 vsl 10 50 0 1 0 0 \$0-p1 \$0-p1in empty 0 -9 0 10 -262144
-1 -1 0 1;
#X obj 120 162 vsl 10 50 0 1 0 0 \$0-p2 \$0-p2in empty 0 -9 0 10 -262144
-1 -1 0 1;
#X obj 130 162 vsl 10 50 0 1 0 0 \$0-p3 \$0-p3in empty 0 -9 0 10 -262144
-1 -1 0 1;
#X obj 140 162 vsl 10 50 0 1 0 0 \$0-p4 \$0-p4in empty 0 -9 0 10 -262144
-1 -1 0 1;
#X obj 150 162 vsl 10 50 0 1 0 0 \$0-p5 \$0-p5in empty 0 -9 0 10 -262144
-1 -1 0 1;
#X obj 160 162 vsl 10 50 0 1 0 0 \$0-p6 \$0-p6in empty 0 -9 0 10 -262144
-1 -1 0 1;
#X obj 170 162 vsl 10 50 0 1 0 0 \$0-p7 \$0-p7in empty 0 -9 0 10 -262144
-1 -1 0 1;
#X obj 100 215 hradio 10 1 0 8 empty \$0-step empty 0 -8 0 10 -262144
-1 -1 5;
#X obj 79 15 inlet;
#X obj 120 116 nbx 1 14 1 8 0 0 \$0-length \$0-lengthin len -20 7 0
10 -262144 -1 -1 8 256;
#X obj 174 116 nbx 1 14 0 7 0 0 \$0-offset \$0-offsetin offst -31 7
0 10 -262144 -1 -1 0 256;
#X obj 133 130 nbx 4 14 0 2 0 0 \$0-jitter \$0-jitterin jit -20 7 0
10 -262144 -1 -1 0 256;
#X obj 133 144 nbx 4 14 0 8 0 0 \$0-step_jitter \$0-step_jitterin s-jit
-31 7 0 10 -262144 -1 -1 0 256;
#X obj 62 483 outlet;
#X text 57 502 trig out;
#X obj 180 212 bng 13 50 10 0 \$0-out_bang \$0-out_bang empty 17 7
0 10 -262144 -1 -1;
#X obj 271 15 inlet;
#X obj 351 15 inlet;
#X obj 271 36 s \$0-length;
#X obj 351 36 s \$0-offset;
#X obj 441 15 inlet;
#X obj 521 15 inlet;
#X obj 441 36 s \$0-jitter;
#X obj 521 36 s \$0-step_jitter;
#N canvas 0 50 450 250 (subpatch) 0;
#X array \$0-seq 64 float 2;
#X coords 0 1 64 0 200 140 1 0 0;
#X restore 1080 53 graph;
#X obj 79 36 s \$0-stepin;
#X obj 1243 378 r \$0-p0;
#X obj 1243 394 r \$0-p1;
#X obj 1243 410 r \$0-p2;
#X obj 1243 426 r \$0-p3;
#X obj 1243 442 r \$0-p4;
#X obj 1243 458 r \$0-p5;
#X obj 1243 474 r \$0-p6;
#X obj 1243 490 r \$0-p7;
#X obj 1113 547 unpack;
#X obj 1267 554 r part;
#X obj 1176 422 pack 1 0;
#X obj 1176 438 pack 1 1;
#X obj 1176 454 pack 1 2;
#X obj 1176 470 pack 1 3;
#X obj 1176 486 pack 1 4;
#X obj 1176 502 pack 1 5;
#X obj 1176 518 pack 1 6;
#X obj 1176 534 pack 1 7;
#X obj 1113 587 t b f;
#X obj 1140 626 tabwrite \$0-seq;
#X obj 1156 574 expr $f1 + $f2 * 8;
#N canvas 166 66 1375 866 savestate 0;
#X obj 219 88 savestate;
#X obj 129 297 array_unpack;
#X obj 460 218 array_pack;
#X obj 371 254 list prepend;
#X obj 78 418 spigot 1;
#X obj 80 366 spigot 1;
#X msg 460 198 set \$1-seq;
#X msg 142 271 set \$1-seq;
#X obj 80 346 ii 0;
#X obj 78 397 ii 15;
#X obj 460 178 \$0;
#X obj 365 207 array_pack;
#X obj 365 167 \$0;
#X obj 223 300 array_unpack;
#X obj 243 154 \$0;
#X obj 219 109 t l b;
#X msg 416 156 64;
#X msg 365 187 set \$1-params;
#X msg 338 146 32;
#X obj 358 121 t b b b b;
#X obj 150 158 list split 64;
#X msg 230 273 set \$1-params;
#X obj 322 401 spigot 1;
#X msg 389 345 0;
#X obj 322 380 ii 8;
#X obj 322 422 s \$0-length;
#X connect 0 0 15 0;
#X connect 0 0 23 0;
#X connect 0 1 19 0;
#X connect 2 0 3 1;
#X connect 3 0 0 0;
#X connect 6 0 2 0;
#X connect 7 0 1 0;
#X connect 8 0 5 0;
#X connect 9 0 4 0;
#X connect 10 0 6 0;
#X connect 11 0 3 0;
#X connect 12 0 17 0;
#X connect 14 0 7 0;
#X connect 14 0 21 0;
#X connect 15 0 20 0;
#X connect 15 1 14 0;
#X connect 16 0 2 0;
#X connect 17 0 11 0;
#X connect 18 0 11 0;
#X connect 19 0 18 0;
#X connect 19 1 12 0;
#X connect 19 2 16 0;
#X connect 19 3 10 0;
#X connect 20 0 1 0;
#X connect 20 1 13 0;
#X connect 21 0 13 0;
#X connect 22 0 25 0;
#X connect 23 0 22 1;
#X connect 24 0 22 0;
#X restore 73 257 pd savestate;
#N canvas 0 50 450 250 (subpatch) 0;
#X array \$0-params 32 float 2;
#X coords 0 8 32 0 200 140 1 0 0;
#X restore 1093 220 graph;
#X obj 900 535 unpack;
#X obj 1054 542 r part;
#X obj 900 575 t b f;
#X obj 943 562 expr $f1 + $f2 * 8;
#X obj 1008 405 r \$0-length;
#X obj 1008 421 r \$0-offset;
#X obj 1008 437 r \$0-jitter;
#X obj 1008 453 r \$0-step_jitter;
#X obj 927 614 tabwrite \$0-params;
#X obj 606 206 r \$0-stepin;
#X obj 781 152 r part;
#X obj 820 216 tabread \$0-params;
#X obj 808 195 * 8;
#X obj 820 235 + 1;
#X obj 820 255 tabread \$0-params;
#X obj 820 295 tabread \$0-params;
#X obj 820 335 tabread \$0-params;
#X obj 820 275 + 2;
#X obj 820 315 + 3;
#X obj 665 279 randf 1 -1;
#X obj 665 325 *;
#X obj 701 333 *;
#X obj 936 152 pack f \$0;
#X obj 936 213 pack f \$0;
#X obj 936 273 pack f \$0;
#X obj 936 333 pack f \$0;
#X msg 936 173 \; \$2-lengthin set \$1;
#X msg 936 233 \; \$2-offsetin set \$1;
#X msg 937 293 \; \$2-jitterin set \$1;
#X msg 936 353 \; \$2-step_jitterin set \$1;
#X obj 941 449 pack 1 0;
#X obj 941 465 pack 1 1;
#X obj 941 481 pack 1 2;
#X obj 941 497 pack 1 3;
#X obj 606 227 t f b;
#X obj 606 248 +;
#X obj 606 269 round;
#X obj 606 290 mod;
#X obj 606 311 +;
#X obj 606 332 mod 8;
#X obj 606 414 tabread \$0-seq;
#X msg 751 284 8;
#X obj 751 305 count;
#X obj 781 174 t b f;
#X obj 751 365 tabread \$0-seq;
#X obj 751 345 +;
#X msg 751 406 \; \$3-p\$2in set \$1;
#X obj 751 385 pack f f \$0;
#X obj 751 325 t f f;
#X obj 606 435 +;
#X obj 699 414 randf;
#X obj 606 455 >;
#X obj 606 476 sel 1;
#X obj 606 497 s \$0-out_bang;
#X obj 62 442 r \$0-out_bang;
#X obj 542 357 s \$0-step;
#X obj 606 374 +;
#X obj 155 483 outlet;
#X text 150 502 complementary trig out;
#X obj 723 152 loadbang;
#X msg 723 176 0;
#N canvas 962 399 668 543 copy 0;
#X restore 72 291 pd copy;
#X floatatom 430 156 5 0 7 0 from - -;
#X floatatom 482 156 5 0 7 0 to - -;
#X obj 266 216 count;
#X obj 266 237 t f f;
#X obj 266 317 tabwrite \$0-seq;
#X obj 266 277 tabread \$0-seq;
#X text 298 155 <- click to copy;
#X msg 296 83 8;
#X obj 296 104 count;
#X obj 296 125 t f f;
#X text 327 83 <- copy to all;
#X msg 266 195 8;
#X msg 266 155 bang;
#X obj 266 257 expr $f1 + $f2 * 8;
#X obj 278 297 expr $f1 + $f2 * 8;
#X obj 396 216 count;
#X obj 396 237 t f f;
#X obj 396 257 expr $f1 + $f2 * 8;
#X obj 408 297 expr $f1 + $f2 * 8;
#X msg 396 195 4;
#X obj 396 277 tabread \$0-params;
#X obj 396 317 tabwrite \$0-params;
#X obj 645 519 s \$0-inv_out_bang;
#X obj 155 445 r \$0-inv_out_bang;
#X connect 9 0 26 0;
#X connect 17 0 19 0;
#X connect 18 0 20 0;
#X connect 21 0 23 0;
#X connect 22 0 24 0;
#X connect 27 0 37 0;
#X connect 28 0 38 0;
#X connect 29 0 39 0;
#X connect 30 0 40 0;
#X connect 31 0 41 0;
#X connect 32 0 42 0;
#X connect 33 0 43 0;
#X connect 34 0 44 0;
#X connect 35 0 45 0;
#X connect 35 1 47 0;
#X connect 36 0 47 1;
#X connect 37 0 35 0;
#X connect 38 0 35 0;
#X connect 39 0 35 0;
#X connect 40 0 35 0;
#X connect 41 0 35 0;
#X connect 42 0 35 0;
#X connect 43 0 35 0;
#X connect 44 0 35 0;
#X connect 45 1 46 0;
#X connect 47 0 46 1;
#X connect 50 0 52 0;
#X connect 50 1 53 0;
#X connect 51 0 53 1;
#X connect 52 1 58 0;
#X connect 53 0 58 1;
#X connect 54 0 80 0;
#X connect 54 0 87 1;
#X connect 55 0 81 0;
#X connect 55 0 88 1;
#X connect 56 0 82 0;
#X connect 56 0 70 1;
#X connect 57 0 83 0;
#X connect 57 0 71 1;
#X connect 59 0 84 0;
#X connect 60 0 93 0;
#X connect 61 0 72 0;
#X connect 61 0 87 1;
#X connect 62 0 61 0;
#X connect 62 0 63 0;
#X connect 62 0 67 0;
#X connect 62 0 68 0;
#X connect 62 0 95 1;
#X connect 62 0 106 1;
#X connect 63 0 64 0;
#X connect 64 0 73 0;
#X connect 64 0 88 1;
#X connect 65 0 70 1;
#X connect 65 0 74 0;
#X connect 66 0 71 1;
#X connect 66 0 75 0;
#X connect 67 0 65 0;
#X connect 68 0 66 0;
#X connect 69 0 70 0;
#X connect 69 1 71 0;
#X connect 70 0 99 1;
#X connect 71 0 85 1;
#X connect 72 0 76 0;
#X connect 73 0 77 0;
#X connect 74 0 78 0;
#X connect 75 0 79 0;
#X connect 80 0 50 0;
#X connect 81 0 50 0;
#X connect 82 0 50 0;
#X connect 83 0 50 0;
#X connect 84 0 85 0;
#X connect 84 1 69 0;
#X connect 84 1 100 0;
#X connect 85 0 86 0;
#X connect 86 0 87 0;
#X connect 87 0 88 0;
#X connect 88 0 89 0;
#X connect 89 0 105 0;
#X connect 89 0 106 0;
#X connect 90 0 99 0;
#X connect 91 0 92 0;
#X connect 92 0 98 0;
#X connect 93 0 91 0;
#X connect 93 1 62 0;
#X connect 94 0 97 0;
#X connect 95 0 94 0;
#X connect 97 0 96 0;
#X connect 98 0 95 0;
#X connect 98 1 97 1;
#X connect 99 0 101 0;
#X connect 100 0 101 1;
#X connect 101 0 102 0;
#X connect 102 0 103 0;
#X connect 102 1 134 0;
#X connect 104 0 14 0;
#X connect 106 0 90 0;
#X connect 109 0 110 0;
#X connect 110 0 93 0;
#X connect 112 0 125 1;
#X connect 112 0 129 1;
#X connect 113 0 126 1;
#X connect 113 0 130 1;
#X connect 114 0 115 0;
#X connect 115 0 125 0;
#X connect 115 1 126 0;
#X connect 117 0 116 0;
#X connect 119 0 120 0;
#X connect 120 0 121 0;
#X connect 121 0 124 0;
#X connect 121 1 113 0;
#X connect 123 0 114 0;
#X connect 124 0 123 0;
#X connect 124 0 131 0;
#X connect 124 0 93 0;
#X connect 125 0 117 0;
#X connect 126 0 116 1;
#X connect 127 0 128 0;
#X connect 128 0 129 0;
#X connect 128 1 130 0;
#X connect 129 0 132 0;
#X connect 130 0 133 1;
#X connect 131 0 127 0;
#X connect 132 0 133 0;
#X connect 135 0 107 0;
#X coords 0 -1 1 1 93 127 1 100 100;
