#N canvas 216 130 1375 676 10;
#X obj 122 116 nbx 4 14 0 100 0 0 \$0-div \$0-div div -20 7 0 10 -262144
-1 -1 1 256;
#N canvas 244 138 1159 695 savestate 0;
#X obj 102 262 f;
#X obj 51 231 savestate;
#X obj 257 68 r \$0-p0;
#X obj 257 84 r \$0-p1;
#X obj 257 100 r \$0-p2;
#X obj 257 116 r \$0-p3;
#X obj 257 132 r \$0-p4;
#X obj 257 148 r \$0-p5;
#X obj 257 164 r \$0-p6;
#X obj 257 180 r \$0-p7;
#X obj 117 180 r \$0-div;
#X obj 51 412 s \$0-div;
#X obj 212 597 s \$0-p0;
#X obj 212 581 s \$0-p1;
#X obj 212 565 s \$0-p2;
#X obj 212 549 s \$0-p3;
#X obj 212 533 s \$0-p4;
#X obj 212 517 s \$0-p5;
#X obj 212 501 s \$0-p6;
#X obj 212 485 s \$0-p7;
#X obj 367 52 r \$0-part1;
#X obj 367 36 r \$0-part0;
#X obj 367 68 r \$0-part2;
#X obj 367 84 r \$0-part3;
#X obj 367 100 r \$0-part4;
#X obj 367 116 r \$0-part5;
#X obj 367 132 r \$0-part6;
#X obj 367 148 r \$0-part7;
#X obj 317 569 s \$0-part0;
#X obj 317 553 s \$0-part1;
#X obj 317 537 s \$0-part2;
#X obj 317 521 s \$0-part3;
#X obj 317 505 s \$0-part4;
#X obj 317 489 s \$0-part5;
#X obj 317 473 s \$0-part6;
#X obj 317 457 s \$0-part7;
#X obj 476 92 r \$0-nb_repeats;
#X obj 452 531 s \$0-nb_repeats;
#X obj 452 515 s \$0-autorun;
#X obj 476 108 r \$0-autorun;
#X obj 476 124 r \$0-length;
#X obj 476 140 r \$0-offset;
#X obj 452 483 s \$0-offset;
#X obj 452 499 s \$0-length;
#X obj 476 156 r \$0-reset_on_part;
#X obj 452 467 s \$0-reset_on_part;
#X obj 476 172 r \$0-swing;
#X obj 452 451 s \$0-swing;
#X obj 452 435 s \$0-jitter;
#X obj 452 419 s \$0-step_jitter;
#X obj 476 188 r \$0-jitter;
#X obj 476 204 r \$0-step_jitter;
#X obj 452 403 s \$0-step_jitter_post;
#X obj 476 220 r \$0-step_jitter_post;
#X obj 476 236 r \$0-use_parts;
#X obj 452 387 s \$0-use_parts;
#X obj 102 291 pack f f f f f f f f f f f f f f f f f f f f f f f f
f f f f;
#X obj 51 327 unpack f f f f f f f f f f f f f f f f f f f f f f f
f f f f f;
#X obj 476 252 r \$0-mult;
#X obj 452 371 s \$0-mult;
#X obj 746 319 spigot 1;
#X msg 813 263 0;
#X obj 746 298 ii 1;
#X obj 808 319 spigot 1;
#X obj 687 319 spigot 1;
#X obj 687 298 ii 0;
#X obj 616 321 spigot 1;
#X obj 616 300 ii -1;
#X obj 808 298 ii 8;
#X connect 0 0 56 0;
#X connect 1 0 57 0;
#X connect 1 1 0 0;
#X connect 2 0 56 1;
#X connect 3 0 56 2;
#X connect 4 0 56 3;
#X connect 5 0 56 4;
#X connect 6 0 56 5;
#X connect 7 0 56 6;
#X connect 8 0 56 7;
#X connect 9 0 56 8;
#X connect 10 0 0 1;
#X connect 20 0 56 10;
#X connect 21 0 56 9;
#X connect 22 0 56 11;
#X connect 23 0 56 12;
#X connect 24 0 56 13;
#X connect 25 0 56 14;
#X connect 26 0 56 15;
#X connect 27 0 56 16;
#X connect 36 0 56 17;
#X connect 39 0 56 18;
#X connect 40 0 56 19;
#X connect 41 0 56 20;
#X connect 44 0 56 21;
#X connect 46 0 56 22;
#X connect 50 0 56 23;
#X connect 51 0 56 24;
#X connect 53 0 56 25;
#X connect 54 0 56 26;
#X connect 56 0 1 0;
#X connect 57 0 11 0;
#X connect 57 0 61 0;
#X connect 57 1 12 0;
#X connect 57 2 13 0;
#X connect 57 3 14 0;
#X connect 57 4 15 0;
#X connect 57 5 16 0;
#X connect 57 6 17 0;
#X connect 57 7 18 0;
#X connect 57 8 19 0;
#X connect 57 9 28 0;
#X connect 57 10 29 0;
#X connect 57 11 30 0;
#X connect 57 12 31 0;
#X connect 57 13 32 0;
#X connect 57 14 33 0;
#X connect 57 15 34 0;
#X connect 57 16 35 0;
#X connect 57 17 37 0;
#X connect 57 18 38 0;
#X connect 57 19 43 0;
#X connect 57 20 42 0;
#X connect 57 21 45 0;
#X connect 57 22 47 0;
#X connect 57 23 48 0;
#X connect 57 24 49 0;
#X connect 57 25 52 0;
#X connect 57 26 55 0;
#X connect 57 27 59 0;
#X connect 58 0 56 27;
#X connect 60 0 38 0;
#X connect 60 0 59 0;
#X connect 60 0 11 0;
#X connect 61 0 60 1;
#X connect 61 0 63 1;
#X connect 61 0 64 1;
#X connect 61 0 66 1;
#X connect 62 0 60 0;
#X connect 63 0 43 0;
#X connect 64 0 49 0;
#X connect 64 0 48 0;
#X connect 65 0 64 0;
#X connect 66 0 37 0;
#X connect 67 0 66 0;
#X connect 68 0 63 0;
#X restore 55 319 pd savestate;
#X obj 121 130 nbx 3 14 -1 99 0 0 \$0-nb_repeats \$0-nb_repeats rep
-20 7 0 10 -262144 -1 -1 1 256;
#X obj 79 15 inlet;
#X obj 222 130 tgl 14 0 \$0-autorun \$0-autorun auto -24 7 0 10 -262144
-1 -1 1 1;
#X obj 121 144 nbx 1 14 1 8 0 0 \$0-length \$0-length len -20 7 0 10
-262144 -1 -1 8 256;
#X obj 182 130 tgl 14 0 \$0-reset_on_part \$0-reset_on_part rst -20
7 0 10 -262144 -1 -1 0 1;
#X obj 253 45 nbx 4 14 0.5 0.75 0 0 \$0-swing \$0-swing swing -32 7
0 10 -262144 -1 -1 0.5 256;
#X obj 158 482 outlet;
#X text 163 499 done;
#X obj 381 99 beat 1;
#A saved 0 0;
#X obj 505 253 + 1;
#X obj 505 90 r \$0-reset;
#X obj 474 253 f;
#X obj 710 375 moses 0.5;
#X obj 79 36 s \$0-in;
#X obj 675 275 r \$0-length;
#X obj 753 275 r \$0-nb_repeats;
#X obj 693 414 diff;
#X obj 693 434 moses 0.5;
#X obj 744 485 bng 15 250 50 0 empty empty empty 17 7 0 10 -262144
-1 -1;
#X msg 505 110 0;
#X obj 464 32 r \$0-first;
#X obj 474 273 t f f;
#X obj 221 144 bng 15 50 10 0 \$0-end_bang \$0-end_bang empty 17 7
0 10 -262144 -1 -1;
#X obj 754 323 > 0;
#X obj 702 348 spigot;
#X obj 761 415 s \$0-running;
#X msg 761 395 0;
#X obj 551 297 expr if($f1 >= ($f2*$f3) & $f3 != 0 \, 1 \, 0);
#X obj 744 505 s \$0-end_bang;
#X obj 158 463 r \$0-end_bang;
#N canvas 770 468 679 425 handle_input 0;
#X obj 189 132 s \$0-reset;
#X msg 189 112 0;
#X obj 77 50 route bang;
#X obj 77 29 r \$0-in;
#X obj 134 70 s \$0-step;
#X obj 77 71 t b b b;
#X msg 19 112 bang;
#X obj 19 149 s \$0-first;
#X msg 96 112 1;
#X obj 96 132 s \$0-running;
#X obj 109 162 s \$0-open_end;
#X connect 1 0 0 0;
#X connect 2 0 5 0;
#X connect 2 1 4 0;
#X connect 3 0 2 0;
#X connect 5 0 6 0;
#X connect 5 1 8 0;
#X connect 5 2 1 0;
#X connect 6 0 7 0;
#X connect 8 0 9 0;
#X connect 8 0 10 0;
#X restore 55 358 pd handle_input;
#N canvas 639 307 757 496 handle_autorun_and_reset 0;
#X obj 199 130 r part;
#X obj 199 257 spigot;
#X msg 218 326 0;
#X obj 218 366 s \$0-reset;
#X obj 251 326 f;
#X obj 218 346 spigot;
#X obj 72 192 r \$0-reset_on_part;
#X obj 72 237 spigot;
#X msg 72 257 0;
#X obj 72 277 s \$0-reset;
#X msg 59 346 1;
#X obj 59 386 s \$0-running;
#X obj 331 236 == 0;
#X obj 65 326 t b b;
#X obj 92 346 f;
#X obj 59 366 spigot;
#X obj 246 212 r \$0-autorun;
#X obj 199 283 t b b b;
#X obj 246 232 pipe 0.0001;
#X obj 199 192 pipe 0.0002;
#X obj 331 192 bng 15 250 50 0 empty empty empty 17 7 0 10 -262144
-1 -1;
#X obj 331 212 f;
#X obj 359 184 r \$0-running;
#X obj 331 257 s \$0-not_running;
#X obj 266 306 r \$0-not_running;
#X obj 107 326 r \$0-not_running;
#X obj 246 257 s \$0-open_end;
#X obj 339 25 loadbang;
#X obj 339 68 t b b b;
#X msg 433 104 1;
#X obj 470 167 s \$0-running;
#X obj 506 46 r \$0-autorun;
#X obj 506 66 pipe 0.0001;
#X obj 433 128 spigot;
#X obj 339 46 delay 0.0002;
#X obj 254 25 r \$0-resync;
#X msg 242 54 1;
#X obj 242 75 s \$0-running;
#X obj 151 82 s \$0-open_end;
#X msg 96 56 0;
#X obj 80 81 s \$0-done;
#X connect 0 0 20 0;
#X connect 1 0 17 0;
#X connect 2 0 5 0;
#X connect 4 0 5 1;
#X connect 5 0 3 0;
#X connect 6 0 7 1;
#X connect 7 0 8 0;
#X connect 8 0 9 0;
#X connect 10 0 15 0;
#X connect 12 0 23 0;
#X connect 13 0 10 0;
#X connect 13 1 14 0;
#X connect 14 0 15 1;
#X connect 15 0 11 0;
#X connect 16 0 18 0;
#X connect 17 0 13 0;
#X connect 17 1 2 0;
#X connect 17 2 4 0;
#X connect 18 0 1 1;
#X connect 18 0 26 0;
#X connect 19 0 1 0;
#X connect 19 0 7 0;
#X connect 20 0 21 0;
#X connect 21 0 12 0;
#X connect 22 0 21 1;
#X connect 24 0 4 1;
#X connect 25 0 14 1;
#X connect 27 0 34 0;
#X connect 28 0 19 0;
#X connect 28 1 20 0;
#X connect 28 2 29 0;
#X connect 29 0 33 0;
#X connect 31 0 32 0;
#X connect 32 0 33 1;
#X connect 33 0 30 0;
#X connect 34 0 28 0;
#X connect 35 0 28 0;
#X connect 35 0 36 0;
#X connect 35 0 39 0;
#X connect 36 0 37 0;
#X connect 36 0 38 0;
#X connect 39 0 40 0;
#X restore 55 378 pd handle_autorun_and_reset;
#X obj 66 483 outlet;
#X text 61 502 trig out;
#X obj 66 463 r \$0-out_bang;
#X obj 744 467 spigot;
#X obj 801 446 r \$0-open_end;
#X obj 363 203 bangeater;
#X obj 364 225 delay 0.001;
#X msg 464 76 1;
#X text 218 11 fixme: swing beat;
#X text 218 25 fixme: add inlets;
#X obj 191 116 nbx 4 14 0 100 0 0 \$0-mult \$0-mult mlt -20 7 0 10
-262144 -1 -1 1 256;
#X obj 953 334 r \$0-div;
#X obj 953 354 pipe 0.0001;
#X obj 1061 352 pipe 0.0001;
#X obj 1015 394 bondo 2;
#X obj 1061 332 r \$0-mult;
#X obj 959 430 expr if($f2 \, $f1 / $f2 \, $f1);
#X obj 959 451 s \$0-complex_div;
#X obj 323 60 r \$0-complex_div;
#X obj 450 222 s \$0-early_beat;
#X obj 464 53 t b b;
#X floatatom 163 144 2 0 0 0 st #0-step #0-----;
#X obj 561 216 spigot 1;
#X msg 606 194 0;
#X obj 529 157 t b b b f;
#X msg 638 194 1;
#X obj 207 145 bng 14 250 50 0 \$0-resync empty sync -25 7 0 10 -262144
-1 -1;
#X obj 638 172 r \$0-resync;
#X obj 635 64 r \$0-length;
#X obj 617 104 mod;
#X obj 303 398 mod 1;
#X obj 348 378 r \$0-length;
#X obj 303 479 mod 8;
#X obj 342 549 s \$0-step;
#X obj 386 448 r \$0-done;
#X obj 537 447 r \$0-nb_repeats;
#X obj 303 358 spigot;
#X obj 348 338 r \$0-running;
#X obj 554 471 pipe 0.0001;
#X obj 303 521 moses 0;
#X obj 303 500 expr if($f2==0 & $f3!=0 \, $f1 \, -1);
#X connect 3 0 15 0;
#X connect 10 0 63 0;
#X connect 11 0 13 1;
#X connect 12 0 21 0;
#X connect 13 0 11 0;
#X connect 13 0 23 0;
#X connect 14 1 28 0;
#X connect 16 0 29 1;
#X connect 17 0 25 0;
#X connect 17 0 29 2;
#X connect 18 0 19 0;
#X connect 19 1 37 0;
#X connect 20 0 30 0;
#X connect 21 0 13 1;
#X connect 22 0 54 0;
#X connect 23 0 70 0;
#X connect 23 1 29 0;
#X connect 25 0 26 1;
#X connect 26 0 18 0;
#X connect 26 0 14 0;
#X connect 28 0 27 0;
#X connect 29 0 26 0;
#X connect 31 0 8 0;
#X connect 36 0 34 0;
#X connect 37 0 20 0;
#X connect 38 0 37 1;
#X connect 39 0 40 0;
#X connect 40 0 13 0;
#X connect 41 0 10 2;
#X connect 45 0 46 0;
#X connect 46 0 48 0;
#X connect 47 0 48 1;
#X connect 48 0 50 0;
#X connect 48 1 50 1;
#X connect 49 0 47 0;
#X connect 50 0 51 0;
#X connect 52 0 10 0;
#X connect 54 0 41 0;
#X connect 54 1 39 0;
#X connect 56 0 13 1;
#X connect 57 0 56 1;
#X connect 58 0 39 0;
#X connect 58 1 53 0;
#X connect 58 2 57 0;
#X connect 58 3 56 0;
#X connect 59 0 56 1;
#X connect 61 0 59 0;
#X connect 62 0 63 1;
#X connect 63 0 58 0;
#X connect 64 0 66 0;
#X connect 65 0 64 1;
#X connect 66 0 74 0;
#X connect 68 0 74 1;
#X connect 69 0 72 0;
#X connect 70 0 64 0;
#X connect 71 0 70 1;
#X connect 72 0 74 2;
#X connect 73 1 67 0;
#X connect 74 0 73 0;
#X coords 0 -1 1 1 136 60 1 100 100;
