#N canvas 798 65 808 729 10;
#X floatatom 27 469 6 0 0 3 note - -;
#X obj 23 56 ticker;
#A saved 60 1;
#N canvas 0 50 450 250 (subpatch) 0;
#X array ph_n 10 float 3;
#A 0 5 10 15 -1 6 -1 16 4 15 4;
#X coords 0 20 10 -1 200 140 1 0 0;
#X restore 561 47 graph;
#N canvas 0 50 450 250 (subpatch) 0;
#X array ph_l 10 float 3;
#A 0 1 1 1 1 1 1 1 1 1 1;
#X coords 0 10 10 -1 200 140 1 0 0;
#X restore 561 207 graph;
#N canvas 0 50 450 250 (subpatch) 0;
#X array ph_v 10 float 3;
#A 0 0 0.265957 0.968085 0.319149 0.340426 0.378572 0.257143 0.185715
0.121429 0.0642861;
#X coords 0 1 10 0 200 140 1 0 0;
#X restore 561 367 graph;
#X obj 37 121 bng 15 250 50 0 empty empty empty 17 7 0 10 -262144 -1
-1;
#X msg 66 118 stop;
#X floatatom 99 469 6 0 0 3 val - -;
#X obj 93 499 bng 15 50 10 0 empty empty noteoff -13 22 0 10 -262144
-1 -1;
#X obj 150 499 bng 15 50 10 0 empty empty done -4 22 0 10 -262144 -1
-1;
#X obj 43 499 bng 15 50 10 0 empty empty noteon -10 22 0 10 -262144
-1 -1;
#X obj 58 561 print left;
#X floatatom 193 468 6 0 0 3 note - -;
#X floatatom 265 468 6 0 0 3 val - -;
#X obj 259 498 bng 15 50 10 0 empty empty noteoff -13 22 0 10 -262144
-1 -1;
#X obj 316 498 bng 15 50 10 0 empty empty done -4 22 0 10 -262144 -1
-1;
#X obj 209 498 bng 15 50 10 0 empty empty noteon -10 22 0 10 -262144
-1 -1;
#X obj 224 560 print r;
#X obj 37 164 seq_phrase;
#A saved 0 0 0 0 0 0 0 0 3 0 0 0 0 0 1 1 0 0 ph;
#X obj 203 163 seq_phrase;
#A saved 0 0 0 0 0 0 0 0 3 0 0 0 0 0 1 1 0 0 ph;
#X connect 0 0 11 0;
#X connect 5 0 18 0;
#X connect 6 0 18 0;
#X connect 12 0 17 0;
#X connect 18 0 0 0;
#X connect 18 1 10 0;
#X connect 18 2 8 0;
#X connect 18 3 7 0;
#X connect 18 4 9 0;
#X connect 18 4 19 0;
#X connect 19 0 12 0;
#X connect 19 1 16 0;
#X connect 19 2 14 0;
#X connect 19 3 13 0;
#X connect 19 4 15 0;
#X connect 19 4 18 0;
