#N canvas 664 97 849 632 10;
#X obj 117 152 /;
#X obj 67 56 inlet;
#X obj 132 85 r \$0-len;
#X obj 117 173 i;
#X obj 67 194 mod;
#X obj 67 434 outlet;
#X obj 477 28 loadbang;
#X obj 477 49 \$1;
#X obj 477 70 sel 0;
#X msg 477 91 1;
#X obj 477 112 s \$0-len;
#X obj 224 54 inlet;
#X obj 224 75 s \$0-len;
#X obj 67 85 t f f;
#X obj 290 53 inlet;
#X obj 557 27 loadbang;
#X obj 557 69 sel 0;
#X obj 557 48 \$2;
#X obj 557 111 s \$0-outs;
#X obj 290 74 s \$0-outs;
#X obj 143 173 r \$0-outs;
#X obj 117 194 mod;
#X msg 557 90 2;
#X obj 67 363 spigot;
#X obj 100 343 == 0;
#X obj 117 434 outlet;
#X obj 117 363 spigot;
#X obj 167 434 outlet;
#X obj 167 363 spigot;
#X obj 217 434 outlet;
#X obj 217 363 spigot;
#X obj 150 343 == 1;
#X obj 200 343 == 2;
#X obj 250 343 == 3;
#X obj 267 434 outlet;
#X obj 267 363 spigot;
#X obj 317 434 outlet;
#X obj 317 363 spigot;
#X obj 367 434 outlet;
#X obj 367 363 spigot;
#X obj 417 434 outlet;
#X obj 417 363 spigot;
#X obj 300 343 == 4;
#X obj 350 343 == 5;
#X obj 400 343 == 6;
#X obj 450 343 == 7;
#X connect 0 0 3 0;
#X connect 1 0 13 0;
#X connect 2 0 0 1;
#X connect 2 0 4 1;
#X connect 3 0 21 0;
#X connect 4 0 23 0;
#X connect 4 0 26 0;
#X connect 4 0 28 0;
#X connect 4 0 30 0;
#X connect 4 0 35 0;
#X connect 4 0 41 0;
#X connect 4 0 39 0;
#X connect 4 0 37 0;
#X connect 6 0 7 0;
#X connect 7 0 8 0;
#X connect 8 0 9 0;
#X connect 8 1 10 0;
#X connect 9 0 10 0;
#X connect 11 0 12 0;
#X connect 13 0 4 0;
#X connect 13 1 0 0;
#X connect 14 0 19 0;
#X connect 15 0 17 0;
#X connect 16 0 22 0;
#X connect 16 1 18 0;
#X connect 17 0 16 0;
#X connect 20 0 21 1;
#X connect 21 0 24 0;
#X connect 21 0 31 0;
#X connect 21 0 32 0;
#X connect 21 0 33 0;
#X connect 21 0 42 0;
#X connect 21 0 45 0;
#X connect 21 0 44 0;
#X connect 21 0 43 0;
#X connect 22 0 18 0;
#X connect 23 0 5 0;
#X connect 24 0 23 1;
#X connect 26 0 25 0;
#X connect 28 0 27 0;
#X connect 30 0 29 0;
#X connect 31 0 26 1;
#X connect 32 0 28 1;
#X connect 33 0 30 1;
#X connect 35 0 34 0;
#X connect 37 0 36 0;
#X connect 39 0 38 0;
#X connect 41 0 40 0;
#X connect 42 0 35 1;
#X connect 43 0 37 1;
#X connect 44 0 39 1;
#X connect 45 0 41 1;
#X coords 0 632 1 631 50 32 0;
