#N canvas 475 206 853 625 10;
#X obj 47 33 tgl 15 1 empty empty empty 17 7 0 10 -262144 -1 -1 1 1
;
#X obj 47 94 f;
#X obj 77 94 + 1;
#X msg 125 54 0;
#X floatatom 47 115 5 0 0 0 - - -;
#X obj 47 53 metro 500;
#X obj 51 199 print out0;
#X obj 51 219 print out1;
#X obj 47 156 seqs 8 2;
#X obj 111 271 bng 15 50 10 0 empty empty empty 17 7 0 10 -262144 -1
-1;
#X obj 153 203 seq32;
#A saved 1 0 0 0 1 0 0 0 1 0 0 0 1 0 0 0 1 0 0 0 1 0 0 0 1 0 0 0 1
0 0 0;
#X obj 114 157 seqs 32 2;
#X obj 153 223 seq32;
#A saved 1 0 0 0 1 0 0 0 1 0 0 0 1 0 0 0 1 0 0 1 0 0 1 0 1 0 0 1 0
0 1 0;
#X connect 0 0 5 0;
#X connect 1 0 2 0;
#X connect 1 0 4 0;
#X connect 2 0 1 1;
#X connect 3 0 1 1;
#X connect 4 0 8 0;
#X connect 4 0 11 0;
#X connect 5 0 1 0;
#X connect 8 0 6 0;
#X connect 8 1 7 0;
#X connect 10 0 9 0;
#X connect 11 0 10 0;
#X connect 11 1 12 0;
#X connect 12 0 9 0;
