#N canvas 597 152 450 300 10;
#X msg 186 47 32;
#X msg 241 45 off;
#X msg 288 44 0;
#X msg 328 44 -1;
#X msg 126 52 50;
#X msg 73 54 70;
#X obj 133 200 dac~;
#X msg 296 196 10;
#X msg 296 220 500;
#X msg 294 122 0.5;
#X msg 295 146 1;
#X msg 295 171 4;
#X msg 294 102 0;
#X obj 129 132 sine_bank~;
#X obj 179 17 loadbang;
#X connect 0 0 13 0;
#X connect 1 0 13 0;
#X connect 2 0 13 0;
#X connect 3 0 13 0;
#X connect 4 0 13 0;
#X connect 5 0 13 0;
#X connect 7 0 13 1;
#X connect 8 0 13 1;
#X connect 9 0 13 1;
#X connect 10 0 13 1;
#X connect 11 0 13 1;
#X connect 12 0 13 1;
#X connect 13 0 6 0;
#X connect 13 1 6 1;
#X connect 14 0 0 0;
#X connect 14 0 11 0;
