#N canvas 122 29 1370 503 10;
#X obj 35 278 osc~;
#X obj 34 320 pan~;
#X obj 22 25 inlet;
#X obj 22 50 route off;
#X obj 88 86 sel -1 0;
#X obj 22 86 s \$0-off;
#X obj 113 278 * 1;
#X obj 35 377 throw~ \$0-L;
#X obj 60 357 throw~ \$0-R;
#X obj 471 49 catch~ \$0-L;
#X obj 561 49 catch~ \$0-R;
#X obj 471 111 outlet~;
#X obj 561 111 outlet~;
#X obj 113 256 lfo_sin 5500;
#X obj 881 34 loadbang;
#X obj 881 56 list \$1;
#X obj 141 107 mtof;
#X obj 141 129 s \$0-freq;
#X obj 35 199 f;
#X obj 35 171 r \$0-freq;
#X obj 130 171 r \$0-detune;
#X obj 255 84 s \$0-detune;
#X obj 255 62 inlet;
#X obj 35 231 expr $f1 * 1 + $f2 * 0;
#X obj 130 193 t b f;
#X obj 255 278 osc~;
#X obj 254 320 pan~;
#X obj 333 278 * 1;
#X obj 254 300 *~ 0.5;
#X obj 255 377 throw~ \$0-L;
#X obj 280 357 throw~ \$0-R;
#X obj 255 199 f;
#X obj 255 171 r \$0-freq;
#X obj 350 171 r \$0-detune;
#X obj 350 193 t b f;
#X obj 465 278 osc~;
#X obj 464 320 pan~;
#X obj 543 278 * 1;
#X obj 465 377 throw~ \$0-L;
#X obj 490 357 throw~ \$0-R;
#X obj 465 199 f;
#X obj 465 171 r \$0-freq;
#X obj 560 171 r \$0-detune;
#X obj 560 193 t b f;
#X obj 675 278 osc~;
#X obj 674 320 pan~;
#X obj 753 278 * 1;
#X obj 675 377 throw~ \$0-L;
#X obj 700 357 throw~ \$0-R;
#X obj 675 199 f;
#X obj 675 171 r \$0-freq;
#X obj 770 171 r \$0-detune;
#X obj 770 193 t b f;
#X obj 885 278 osc~;
#X obj 884 320 pan~;
#X obj 963 278 * 1;
#X obj 885 377 throw~ \$0-L;
#X obj 910 357 throw~ \$0-R;
#X obj 885 199 f;
#X obj 885 171 r \$0-freq;
#X obj 980 171 r \$0-detune;
#X obj 980 193 t b f;
#X obj 1105 278 osc~;
#X obj 1104 320 pan~;
#X obj 1183 278 * 1;
#X obj 1105 377 throw~ \$0-L;
#X obj 1130 357 throw~ \$0-R;
#X obj 1105 199 f;
#X obj 1105 171 r \$0-freq;
#X obj 1200 171 r \$0-detune;
#X obj 1200 193 t b f;
#X obj 255 231 expr $f1 * 2 + $f2 * 1;
#X obj 465 231 expr $f1 * 3 + $f2 * -1;
#X obj 675 231 expr $f1 * 4 + $f2 * 1.4;
#X obj 885 231 expr $f1 * 5 + $f2 * -1.7;
#X obj 1105 231 expr $f1 * 6 + $f2 * -0.5;
#X obj 333 256 lfo_sin 6500;
#X obj 543 256 lfo_sin 8000;
#X obj 753 256 lfo_sin 9000;
#X obj 963 256 lfo_sin 4000;
#X obj 1183 256 lfo_sin 2000;
#X obj 34 300 *~ 1;
#X obj 471 71 *~ 0.1;
#X obj 561 71 *~ 0.1;
#X obj 674 300 *~ 0.1;
#X obj 464 300 *~ 0.7;
#X obj 884 300 *~ 0.2;
#X obj 1104 300 *~ 0.3;
#X obj 881 78 sel 0;
#X msg 881 100 1;
#X obj 881 122 s \$0-detune;
#X connect 0 0 81 0;
#X connect 1 0 7 0;
#X connect 1 1 8 0;
#X connect 2 0 3 0;
#X connect 3 0 5 0;
#X connect 3 1 4 0;
#X connect 4 0 5 0;
#X connect 4 1 5 0;
#X connect 4 2 16 0;
#X connect 6 0 1 1;
#X connect 9 0 82 0;
#X connect 10 0 83 0;
#X connect 13 0 6 0;
#X connect 14 0 15 0;
#X connect 15 0 88 0;
#X connect 16 0 17 0;
#X connect 18 0 23 0;
#X connect 19 0 18 0;
#X connect 20 0 24 0;
#X connect 22 0 21 0;
#X connect 23 0 0 0;
#X connect 24 0 18 0;
#X connect 24 1 23 1;
#X connect 25 0 28 0;
#X connect 26 0 29 0;
#X connect 26 1 30 0;
#X connect 27 0 26 1;
#X connect 28 0 26 0;
#X connect 31 0 71 0;
#X connect 32 0 31 0;
#X connect 33 0 34 0;
#X connect 34 0 31 0;
#X connect 34 1 71 1;
#X connect 35 0 85 0;
#X connect 36 0 38 0;
#X connect 36 1 39 0;
#X connect 37 0 36 1;
#X connect 40 0 72 0;
#X connect 41 0 40 0;
#X connect 42 0 43 0;
#X connect 43 0 40 0;
#X connect 43 1 72 1;
#X connect 44 0 84 0;
#X connect 45 0 47 0;
#X connect 45 1 48 0;
#X connect 46 0 45 1;
#X connect 49 0 73 0;
#X connect 50 0 49 0;
#X connect 51 0 52 0;
#X connect 52 0 49 0;
#X connect 52 1 73 1;
#X connect 53 0 86 0;
#X connect 54 0 56 0;
#X connect 54 1 57 0;
#X connect 55 0 54 1;
#X connect 58 0 74 0;
#X connect 59 0 58 0;
#X connect 60 0 61 0;
#X connect 61 0 58 0;
#X connect 61 1 74 1;
#X connect 62 0 87 0;
#X connect 63 0 65 0;
#X connect 63 1 66 0;
#X connect 64 0 63 1;
#X connect 67 0 75 0;
#X connect 68 0 67 0;
#X connect 69 0 70 0;
#X connect 70 0 67 0;
#X connect 70 1 75 1;
#X connect 71 0 25 0;
#X connect 72 0 35 0;
#X connect 73 0 44 0;
#X connect 74 0 53 0;
#X connect 75 0 62 0;
#X connect 76 0 27 0;
#X connect 77 0 37 0;
#X connect 78 0 46 0;
#X connect 79 0 55 0;
#X connect 80 0 64 0;
#X connect 81 0 1 0;
#X connect 82 0 11 0;
#X connect 83 0 12 0;
#X connect 84 0 45 0;
#X connect 85 0 36 0;
#X connect 86 0 54 0;
#X connect 87 0 63 0;
#X connect 88 0 89 0;
#X connect 88 1 90 0;
#X connect 89 0 90 0;
