#N canvas 231 72 504 405 10;
#X obj 45 43 inlet;
#X obj 245 41 loadbang;
#X obj 245 62 \$1;
#X obj 245 83 s \$0-prob;
#X obj 151 49 inlet;
#X obj 149 78 s \$0-prob;
#X obj 78 197 <=;
#X obj 171 136 r \$0-prob;
#X obj 45 230 spigot;
#X obj 45 64 t a b;
#X obj 45 251 outlet;
#X obj 112 230 spigot;
#X obj 112 251 outlet;
#X obj 145 197 >;
#X obj 130 136 randf;
#X connect 0 0 9 0;
#X connect 1 0 2 0;
#X connect 2 0 3 0;
#X connect 4 0 5 0;
#X connect 6 0 8 1;
#X connect 7 0 6 1;
#X connect 7 0 13 1;
#X connect 8 0 10 0;
#X connect 9 0 8 0;
#X connect 9 0 11 0;
#X connect 9 1 14 0;
#X connect 11 0 12 0;
#X connect 13 0 11 1;
#X connect 14 0 6 0;
#X connect 14 0 13 0;
