#N canvas 627 166 373 286 10;
#X obj 46 83 osc~;
#X obj 45 134 +~;
#X obj 45 176 clip~ -1 1;
#X obj 46 34 inlet;
#X obj 45 197 outlet~;
#X obj 110 34 inlet;
#X obj 110 94 clip -1 1;
#X obj 163 34 loadbang;
#X obj 163 55 list \$1;
#X text 44 17 freq;
#X text 109 16 pulse width;
#X obj 45 155 *~ 10000;
#X connect 0 0 1 0;
#X connect 1 0 11 0;
#X connect 2 0 4 0;
#X connect 3 0 0 0;
#X connect 5 0 6 0;
#X connect 6 0 1 1;
#X connect 7 0 8 0;
#X connect 8 0 6 0;
#X connect 11 0 2 0;
