#N canvas 1003 151 591 376 10;
#X floatatom 100 69 5 0 0 0 - - -, f 5;
#X obj 116 116 * -1;
#X msg 188 119 0;
#X obj 58 159 phasor~;
#X obj 159 157 phasor~;
#X msg 237 119 0.5;
#X obj 97 224 -~ 1;
#X obj 96 197 +~;
#X text 268 119 phase synchronization;
#X text 377 36 www.pd-tutorial.com;
#X text 377 11 Johannes Kreidler;
#X obj 204 92 loadbang;
#X obj 97 257 *~ 2;
#X obj 92 36 inlet;
#X obj 97 278 outlet~;
#X connect 0 0 1 0;
#X connect 0 0 3 0;
#X connect 1 0 4 0;
#X connect 2 0 3 1;
#X connect 3 0 7 0;
#X connect 4 0 7 1;
#X connect 5 0 4 1;
#X connect 6 0 12 0;
#X connect 7 0 6 0;
#X connect 11 0 2 0;
#X connect 11 0 5 0;
#X connect 12 0 14 0;
#X connect 13 0 0 0;
