#N canvas 574 229 692 472 10;
#X obj 166 28 inlet~;
#X obj 78 299 outlet~;
#X obj 208 299 outlet~;
#X obj 78 249 expr~ $v1 < $v2;
#X obj 434 172 nbx 4 14 0 1e+37 0 0 \$0-speed \$0-speed speed -32 7
0 10 -262144 -1 -1 0.730001 256;
#X obj 519 152 nbx 4 14 0 1 0 0 \$0-scale \$0-scale scale -32 7 0 10
-262144 -1 -1 0.84 256;
#X obj 519 172 nbx 4 14 0 1 0 0 \$0-offset \$0-offset offset -37 7
0 10 -262144 -1 -1 0.76 256;
#X obj 111 194 r \$0-offset;
#X obj 111 147 r \$0-scale;
#X obj 178 66 r \$0-speed;
#X obj 208 249 expr~ $v1 < $v2;
#X obj 241 194 r \$0-offset;
#X obj 241 147 r \$0-scale;
#X obj 208 108 osc~ 1.1;
#X obj 78 108 osc~ 1;
#X obj 78 215 +~ 0.4;
#X obj 78 169 *~ 0.2;
#X obj 208 215 +~ 0.4;
#X obj 208 169 *~ 0.2;
#X obj 500 273 f;
#X obj 449 253 savestate;
#X obj 500 294 pack f f f;
#X obj 547 221 r \$0-speed;
#X obj 547 241 r \$0-scale;
#X obj 547 261 r \$0-offset;
#X obj 449 318 unpack f f f;
#X obj 547 351 s \$0-speed;
#X obj 547 371 s \$0-scale;
#X obj 547 391 s \$0-offset;
#X obj 292 28 inlet;
#X obj 292 49 s \$0-speed;
#X obj 362 28 inlet;
#X obj 432 28 inlet;
#X obj 362 49 s \$0-scale;
#X obj 432 49 s \$0-offset;
#X connect 0 0 3 1;
#X connect 0 0 10 1;
#X connect 3 0 1 0;
#X connect 7 0 15 1;
#X connect 8 0 16 1;
#X connect 9 0 13 0;
#X connect 9 0 14 0;
#X connect 10 0 2 0;
#X connect 11 0 17 1;
#X connect 12 0 18 1;
#X connect 13 0 18 0;
#X connect 14 0 16 0;
#X connect 15 0 3 0;
#X connect 16 0 15 0;
#X connect 17 0 10 0;
#X connect 18 0 17 0;
#X connect 19 0 21 0;
#X connect 20 0 25 0;
#X connect 20 1 19 0;
#X connect 21 0 20 0;
#X connect 22 0 19 1;
#X connect 23 0 21 1;
#X connect 24 0 21 2;
#X connect 25 0 26 0;
#X connect 25 1 27 0;
#X connect 25 2 28 0;
#X connect 29 0 30 0;
#X connect 31 0 33 0;
#X connect 32 0 34 0;
#X coords 0 -1 1 1 166 38 1 400 150;
