#N canvas 601 264 805 544 10;
#X obj 207 252 mod 2;
#X obj 188 302 delay 0;
#X obj 207 272 *;
#X obj 293 185 *;
#X obj 208 199 t b f f;
#X obj 103 114 hsl 64 8 0 0.4 0 1 \$0-swing \$0-swing empty -33 4 0
10 -262144 -1 -1 5200 1;
#X obj 239 330 int;
#X obj 208 32 inlet;
#X obj 371 17 inlet;
#X text 220 49 pos;
#X text 383 33 bpm;
#X text 96 136 swing factor;
#X obj 239 359 outlet;
#X msg 365 86 1;
#X obj 383 111 /;
#X obj 371 63 t f f;
#X obj 384 131 * 15000;
#X text 335 161 1/16 in ms;
#X obj 650 69 f;
#X obj 650 91 pack;
#X obj 599 48 savestate;
#X obj 599 102 unpack;
#X obj 599 128 s \$0-swing;
#X obj 665 45 r \$0-swing;
#X obj 289 161 bondo;
#X obj 289 121 r \$0-swing;
#X text 457 16 adapted from peter brinkmann;
#X connect 0 0 2 0;
#X connect 1 0 6 0;
#X connect 2 0 1 1;
#X connect 3 0 2 1;
#X connect 4 0 1 0;
#X connect 4 1 0 0;
#X connect 4 2 6 1;
#X connect 6 0 12 0;
#X connect 7 0 4 0;
#X connect 8 0 15 0;
#X connect 13 0 14 0;
#X connect 14 0 16 0;
#X connect 15 0 13 0;
#X connect 15 1 14 1;
#X connect 16 0 24 1;
#X connect 18 0 19 0;
#X connect 19 0 20 0;
#X connect 20 0 21 0;
#X connect 20 1 18 0;
#X connect 21 0 22 0;
#X connect 23 0 18 1;
#X connect 24 0 3 0;
#X connect 24 1 3 1;
#X connect 25 0 24 0;
#X coords 0 -1 1 1 69 24 1 100 100;
