#N canvas 841 119 921 771 10;
#X obj 114 36 loadbang;
#X obj 93 322 metro;
#X obj 55 46 inlet;
#X obj 114 275 /;
#X msg 114 215 60000;
#X obj 93 406 f;
#X obj 129 404 + 1;
#X obj 93 438 s tick;
#X text 149 241 <- tick resolution;
#X obj 284 46 inlet;
#X msg 774 164 60;
#X text 217 361 <- reset;
#X text 41 27 metro ctrl;
#X text 283 26 tempo;
#X obj 114 242 / 24;
#X obj 429 135 select 250 252 248;
#X obj 393 284 t b b;
#X obj 93 366 spigot;
#X msg 406 325 0;
#X msg 478 328 1;
#X obj 114 76 t b b b;
#X obj 281 412 spigot;
#X msg 478 350 0;
#X msg 406 347 1;
#X msg 281 434 bang;
#X obj 578 232 t b b;
#X obj 578 257 timer;
#X obj 428 60 midirealtimein;
#X text 576 303 hmm sometimes half the time;
#X obj 578 279 print ms between pulses;
#X obj 774 121 list \$1;
#X obj 774 145 sel 0;
#X obj 774 203 s bpm;
#X obj 168 166 t b f;
#X obj 114 57 t b b;
#X obj 172 311 r reset;
#X msg 172 332 0;
#X msg 185 362 0;
#X obj 328 100 nbx 3 14 1 999 0 0 bpm bpm empty 0 -8 0 10 -262144 -1
-1 160 256;
#N canvas 0 29 450 300 keep_sending_bpm 0;
#X obj 195 105 r bpm;
#X obj 177 135 f;
#X obj 117 105 metro 1000;
#X obj 117 32 loadbang;
#X obj 177 174 s bpm;
#X obj 117 53 delay 1000;
#X connect 0 0 1 1;
#X connect 2 0 1 0;
#X connect 3 0 5 0;
#X connect 5 0 2 0;
#X restore 576 69 pd keep_sending_bpm disabled;
#X obj 761 438 f;
#X obj 761 458 pack;
#X obj 710 418 savestate;
#X obj 710 470 unpack;
#X obj 776 418 r bpm;
#X obj 710 490 s bpm;
#X obj 344 149 s bpm;
#X obj 168 146 r bpm;
#X obj 402 512 r bpm;
#X obj 402 532 expr 60000 / 24 / $f1;
#X obj 44 129 pipe 0.004;
#X obj 677 562 pipe 0.0001;
#X obj 677 583 s bpm;
#X obj 314 100 bng 14 50 10 0 empty empty empty 17 7 0 10 -262144 -1
-1;
#X obj 170 458 mod 24;
#X obj 170 479 sel 0;
#X obj 300 100 tgl 14 0 \$0-run \$0-run empty 17 7 0 10 -262144 -1
-1 1 1;
#X obj 44 150 s \$0-run;
#X obj 56 292 r \$0-run;
#X obj 814 418 r \$0-run;
#X obj 780 541 s \$0-run;
#X obj 77 547 outlet;
#X obj 591 559 spigot 1;
#X msg 636 534 0;
#X obj 591 534 ii 120;
#X obj 591 583 s bpm;
#X connect 0 0 34 0;
#X connect 1 0 17 0;
#X connect 2 0 50 0;
#X connect 4 0 14 0;
#X connect 5 0 6 0;
#X connect 5 0 7 0;
#X connect 5 0 54 0;
#X connect 6 0 5 1;
#X connect 9 0 38 0;
#X connect 10 0 32 0;
#X connect 14 0 3 0;
#X connect 15 0 16 0;
#X connect 15 1 19 0;
#X connect 15 2 21 0;
#X connect 16 0 18 0;
#X connect 16 1 37 0;
#X connect 17 0 5 0;
#X connect 18 0 17 1;
#X connect 18 0 23 0;
#X connect 19 0 17 1;
#X connect 19 0 22 0;
#X connect 20 0 4 0;
#X connect 20 2 19 0;
#X connect 21 0 24 0;
#X connect 22 0 21 1;
#X connect 23 0 21 1;
#X connect 24 0 5 0;
#X connect 25 0 26 0;
#X connect 25 1 26 1;
#X connect 26 0 29 0;
#X connect 27 0 15 0;
#X connect 27 1 25 0;
#X connect 30 0 31 0;
#X connect 31 0 10 0;
#X connect 31 1 32 0;
#X connect 33 0 4 0;
#X connect 33 1 3 1;
#X connect 34 0 20 0;
#X connect 35 0 36 0;
#X connect 36 0 5 1;
#X connect 37 0 5 1;
#X connect 38 0 33 0;
#X connect 38 0 46 0;
#X connect 40 0 41 0;
#X connect 41 0 42 0;
#X connect 42 0 43 0;
#X connect 42 1 40 0;
#X connect 43 0 45 0;
#X connect 43 0 63 0;
#X connect 43 0 51 0;
#X connect 44 0 40 1;
#X connect 47 0 33 0;
#X connect 48 0 49 0;
#X connect 49 0 1 1;
#X connect 50 0 57 0;
#X connect 51 0 52 0;
#X connect 54 0 55 0;
#X connect 55 0 53 0;
#X connect 55 0 61 0;
#X connect 58 0 1 0;
#X connect 59 0 41 1;
#X connect 62 0 65 0;
#X connect 63 0 62 1;
#X connect 64 0 62 0;
#X coords 0 -1 1 1 64 14 2 300 100;
