#N canvas 104 29 1495 990 10;
#X obj 93 322 metro;
#X obj 55 46 inlet;
#X obj 93 406 f;
#X obj 129 404 + 1;
#X obj 93 438 s tick;
#X obj 385 38 inlet;
#X text 217 361 <- reset;
#X text 41 27 metro ctrl;
#X text 384 18 tempo;
#X obj 429 135 select 250 252 248;
#X obj 393 284 t b b;
#X msg 407 321 0;
#X msg 479 321 1;
#X obj 391 383 spigot;
#X msg 478 350 0;
#X msg 406 347 1;
#X msg 391 405 bang;
#X obj 578 232 t b b;
#X obj 578 257 timer;
#X obj 428 60 midirealtimein;
#X text 576 303 hmm sometimes half the time;
#X obj 578 279 print ms between pulses;
#X obj 172 311 r reset;
#X msg 172 332 0;
#X msg 185 362 0;
#X obj 328 100 nbx 3 14 1 999 0 0 bpm bpm empty 0 -8 0 10 -262144 -1
-1 120 256;
#X obj 1265 76 f;
#X obj 1265 96 pack;
#X obj 1214 56 savestate;
#X obj 1214 108 unpack;
#X obj 1280 56 r bpm;
#X obj 1214 128 s bpm;
#X obj 344 149 s bpm;
#X obj 88 232 r bpm;
#X obj 44 129 pipe 0.004;
#X obj 1181 200 pipe 0.0001;
#X obj 1181 221 s bpm;
#X obj 314 100 bng 14 150 50 0 empty empty empty 17 7 0 10 -262144
-1 -1;
#X obj 170 479 sel 0;
#X obj 300 100 tgl 14 0 \$0-run \$0-run empty 17 7 0 10 -262144 -1
-1 1 1;
#X obj 44 150 s \$0-run;
#X obj 523 494 r \$0-run;
#X obj 1318 56 r \$0-run;
#X obj 1284 179 s \$0-run;
#X obj 159 605 outlet;
#X obj 1095 197 spigot 1;
#X msg 1140 172 0;
#X obj 1095 172 ii 120;
#X obj 1095 221 s bpm;
#N canvas 302 133 833 560 handle_spacebar 1;
#X obj 101 30 key;
#X obj 101 70 sel 32;
#X obj 144 227 s reset;
#X obj 1 17 tgl 14 0 perf_mode perf_mode empty 17 7 0 10 -262144 -1
-1 0 1;
#X obj 101 50 spigot;
#X obj 144 128 f;
#X obj 202 206 expr 1-$f1;
#X obj 202 227 s \$0-run;
#X obj 159 101 r \$0-run;
#X obj 144 187 sel 1;
#X obj 144 149 t f f;
#X msg 144 207 0;
#X obj 134 30 r perf_mode;
#X connect 0 0 4 0;
#X connect 1 0 5 0;
#X connect 4 0 1 0;
#X connect 5 0 10 0;
#X connect 6 0 7 0;
#X connect 8 0 5 1;
#X connect 9 0 11 0;
#X connect 10 0 9 0;
#X connect 10 1 6 0;
#X connect 11 0 2 0;
#X connect 12 0 4 1;
#X coords 0 -1 1 1 15 30 1 1 1;
#X restore 889 16 pd handle_spacebar;
#N canvas 0 29 450 300 resend_bpm 0;
#X obj 195 105 r bpm;
#X obj 177 135 f;
#X obj 117 105 metro 1000;
#X obj 117 32 loadbang;
#X obj 177 211 s bpm;
#X obj 117 53 delay 1000;
#X obj 84 1 tgl 15 1 empty empty empty 17 7 0 10 -262144 -1 -1 1 1
;
#X obj 177 173 spigot;
#X connect 0 0 1 1;
#X connect 1 0 7 0;
#X connect 2 0 1 0;
#X connect 3 0 5 0;
#X connect 5 0 2 0;
#X connect 6 0 7 1;
#X connect 7 0 4 0;
#X coords 0 -1 1 1 100 15 1 0 0;
#X restore 891 61 pd resend_bpm;
#X obj 574 677 midiout;
#X text 525 469 1:start \, 0:stop;
#X obj 525 525 t f f;
#X msg 525 583 250;
#X msg 560 584 252;
#X msg 597 584 248;
#X obj 571 622 f;
#X obj 525 554 sel 1;
#X obj 93 366 spigot 1;
#X obj 89 252 expr 60000 / 192 / $f1;
#X obj 170 458 mod 192;
#X obj 599 525 mod 8;
#X obj 599 546 sel 0;
#X connect 0 0 59 0;
#X connect 1 0 34 0;
#X connect 2 0 3 0;
#X connect 2 0 4 0;
#X connect 2 0 61 0;
#X connect 2 0 62 0;
#X connect 3 0 2 1;
#X connect 5 0 25 0;
#X connect 9 0 10 0;
#X connect 9 1 12 0;
#X connect 9 2 13 0;
#X connect 10 0 11 0;
#X connect 10 1 24 0;
#X connect 11 0 15 0;
#X connect 11 0 59 1;
#X connect 12 0 14 0;
#X connect 12 0 59 1;
#X connect 13 0 16 0;
#X connect 14 0 13 1;
#X connect 15 0 13 1;
#X connect 16 0 2 0;
#X connect 17 0 18 0;
#X connect 17 1 18 1;
#X connect 18 0 21 0;
#X connect 19 0 9 0;
#X connect 19 1 17 0;
#X connect 22 0 23 0;
#X connect 23 0 2 1;
#X connect 24 0 2 1;
#X connect 25 0 32 0;
#X connect 26 0 27 0;
#X connect 27 0 28 0;
#X connect 28 0 29 0;
#X connect 28 1 26 0;
#X connect 29 0 31 0;
#X connect 29 0 46 0;
#X connect 29 0 35 0;
#X connect 30 0 26 1;
#X connect 33 0 60 0;
#X connect 34 0 40 0;
#X connect 35 0 36 0;
#X connect 38 0 37 0;
#X connect 38 0 44 0;
#X connect 41 0 53 0;
#X connect 42 0 27 1;
#X connect 45 0 48 0;
#X connect 46 0 45 1;
#X connect 47 0 45 0;
#X connect 53 0 0 0;
#X connect 53 1 58 0;
#X connect 54 0 57 0;
#X connect 55 0 57 0;
#X connect 56 0 57 0;
#X connect 57 0 51 0;
#X connect 58 0 54 0;
#X connect 58 1 55 0;
#X connect 59 0 2 0;
#X connect 60 0 0 1;
#X connect 61 0 38 0;
#X connect 62 0 63 0;
#X connect 63 0 56 0;
#X coords 0 -1 1 1 64 14 2 300 100;
