#N canvas 521 58 997 713 10;
#X obj 17 16 nbx 2 14 0 15 0 0 \$0-trig_nb \$0-trig_nb nb -14 7 0 10
-262144 -1 -1 0 256;
#X obj 138 55 inlet;
#X obj 138 124 route bang;
#X obj 745 45 r \$0-trig_nb;
#X obj 679 141 s \$0-trig_nb;
#X obj 730 74 f;
#X obj 730 103 pack;
#X obj 679 45 savestate;
#X obj 679 117 unpack;
#X obj 184 312 f;
#X obj 220 230 t b f;
#X obj 283 265 s \$0-trig_nb;
#X obj 428 567 noteout;
#X obj 342 478 f;
#X obj 342 558 noteout;
#X obj 361 524 ii 0;
#X obj 360 438 t f f b;
#X obj 447 522 ii 127;
#X obj 360 397 round;
#X msg 234 405 bang;
#X obj 257 430 t b b;
#X obj 228 513 f;
#X obj 255 514 + 1;
#X msg 286 485 0;
#X obj 228 451 burst 130;
#X text 342 577 note off;
#X text 430 587 note on;
#X obj 360 418 + 35;
#X obj 221 204 clip 1 16;
#X obj 61 16 tgl 14 0 \$0-gate \$0-gate gt -13 7 0 10 -262144 -1 -1
0 1;
#X obj 777 82 r \$0-gate;
#X obj 764 155 s \$0-gate;
#X obj 238 138 sel -2 -1;
#X obj 88 224 r \$0-gate;
#X obj 128 293 ii 1;
#X obj 82 340 spigot;
#X obj 88 275 == 0;
#X obj 96 402 delay 1;
#X obj 432 437 expr if($f1 <= 8 \, 10 \, 26);
#X obj 456 202 r \$0-trig_nb;
#X obj 456 255 pipe 0.0001;
#X obj 89 253 pipe 0.0001;
#X obj 598 192 spigot 1;
#X msg 643 154 0;
#X obj 462 229 + 1;
#X obj 598 171 ii 0;
#X connect 1 0 2 0;
#X connect 2 0 9 0;
#X connect 2 0 35 0;
#X connect 2 1 32 0;
#X connect 3 0 5 1;
#X connect 5 0 6 0;
#X connect 6 0 7 0;
#X connect 7 0 8 0;
#X connect 7 1 5 0;
#X connect 8 0 4 0;
#X connect 8 0 43 0;
#X connect 8 1 31 0;
#X connect 9 0 18 0;
#X connect 10 0 9 0;
#X connect 10 0 35 0;
#X connect 10 1 11 0;
#X connect 13 0 14 0;
#X connect 15 0 14 1;
#X connect 16 0 12 0;
#X connect 16 1 13 1;
#X connect 16 2 13 0;
#X connect 17 0 12 1;
#X connect 18 0 27 0;
#X connect 19 0 20 0;
#X connect 19 0 24 0;
#X connect 20 0 24 0;
#X connect 20 1 23 0;
#X connect 21 0 22 0;
#X connect 21 0 14 0;
#X connect 22 0 21 1;
#X connect 23 0 21 1;
#X connect 24 0 21 0;
#X connect 27 0 16 0;
#X connect 28 0 10 0;
#X connect 30 0 6 1;
#X connect 32 0 19 0;
#X connect 32 1 13 0;
#X connect 32 2 28 0;
#X connect 33 0 41 0;
#X connect 34 0 35 1;
#X connect 35 0 37 0;
#X connect 36 0 35 1;
#X connect 37 0 13 0;
#X connect 38 0 12 2;
#X connect 38 0 14 2;
#X connect 39 0 44 0;
#X connect 40 0 38 0;
#X connect 40 0 9 1;
#X connect 41 0 36 0;
#X connect 42 0 4 0;
#X connect 43 0 42 1;
#X connect 44 0 40 0;
#X connect 45 0 42 0;
#X coords 0 -1 1 1 75 30 1 0 0;
