#N canvas 521 58 997 713 10;
#X obj 47 2 nbx 2 14 0 15 0 0 \$0-trig_nb \$0-trig_nb nb -14 7 0 10
-262144 -1 -1 7 256;
#X obj 138 55 inlet;
#X obj 758 22 r \$0-trig_nb;
#X obj 679 158 s \$0-trig_nb;
#X obj 730 74 f;
#X obj 679 45 savestate;
#X obj 184 312 f;
#X obj 220 230 t b f;
#X obj 283 265 s \$0-trig_nb;
#X obj 428 567 noteout;
#X obj 342 478 f;
#X obj 342 558 noteout;
#X obj 361 524 ii 0;
#X obj 360 438 t f f b;
#X obj 447 522 ii 127;
#X obj 360 397 round;
#X text 342 577 note off;
#X text 430 587 note on;
#X obj 360 418 + 35;
#X obj 221 204 clip 1 16;
#X obj 779 44 r \$0-gate;
#X obj 676 178 s \$0-gate;
#X obj 238 138 sel -2 -1;
#X obj 88 224 r \$0-gate;
#X obj 128 293 ii 1;
#X obj 82 340 spigot;
#X obj 88 275 == 0;
#X obj 432 437 expr if($f1 <= 8 \, 10 \, 26);
#X obj 456 202 r \$0-trig_nb;
#X obj 456 255 pipe 0.0001;
#X obj 89 253 pipe 0.0001;
#X obj 598 192 spigot 1;
#X msg 643 154 0;
#X obj 462 229 + 1;
#X obj 598 171 ii 0;
#X obj 60 16 bng 14 50 10 0 empty \$0-in_bang empty 17 7 0 10 -262144
-1 -1;
#X obj 242 453 count;
#X msg 234 405 130;
#X obj 96 402 delay 1;
#X obj 679 117 unpack f f f;
#X obj 730 103 pack f f f;
#X obj 24 16 nbx 3 14 1 200 0 0 \$0-trig_len \$0-trig_len len -20 7
0 10 -262144 -1 -1 1 256;
#X obj 674 200 s \$0-trig_len;
#X obj 786 67 r \$0-trig_len;
#X obj 595 261 spigot 1;
#X obj 595 240 ii 1;
#X obj 136 371 r \$0-trig_len;
#X obj 441 42 inlet;
#X obj 441 77 s \$0-trig_len;
#X obj 247 57 inlet;
#X obj 138 124 bng 15 250 50 0 empty empty empty 17 7 0 10 -262144
-1 -1;
#X connect 1 0 50 0;
#X connect 2 0 4 1;
#X connect 4 0 40 0;
#X connect 5 0 39 0;
#X connect 5 1 4 0;
#X connect 6 0 15 0;
#X connect 7 0 6 0;
#X connect 7 0 25 0;
#X connect 7 1 8 0;
#X connect 10 0 11 0;
#X connect 12 0 11 1;
#X connect 13 0 9 0;
#X connect 13 1 10 1;
#X connect 13 2 10 0;
#X connect 14 0 9 1;
#X connect 15 0 18 0;
#X connect 18 0 13 0;
#X connect 19 0 7 0;
#X connect 20 0 40 1;
#X connect 22 0 37 0;
#X connect 22 1 10 0;
#X connect 22 2 19 0;
#X connect 23 0 30 0;
#X connect 24 0 25 1;
#X connect 25 0 38 0;
#X connect 26 0 25 1;
#X connect 27 0 9 2;
#X connect 27 0 11 2;
#X connect 28 0 33 0;
#X connect 29 0 27 0;
#X connect 29 0 6 1;
#X connect 30 0 26 0;
#X connect 31 0 3 0;
#X connect 32 0 31 1;
#X connect 32 0 44 1;
#X connect 33 0 29 0;
#X connect 34 0 31 0;
#X connect 36 0 11 0;
#X connect 37 0 36 0;
#X connect 38 0 10 0;
#X connect 39 0 3 0;
#X connect 39 0 32 0;
#X connect 39 1 21 0;
#X connect 39 2 42 0;
#X connect 40 0 5 0;
#X connect 43 0 40 2;
#X connect 44 0 42 0;
#X connect 45 0 44 0;
#X connect 46 0 38 1;
#X connect 47 0 48 0;
#X connect 49 0 22 0;
#X connect 50 0 6 0;
#X connect 50 0 25 0;
#X connect 50 0 35 0;
#X coords 0 -1 1 1 75 32 1 0 0;
