#N canvas 999 151 551 454 10;
#X floatatom 100 69 5 0 0 0 - - -;
#X obj 116 116 * -1;
#X msg 190 115 0;
#X obj 58 159 phasor~;
#X obj 159 157 phasor~;
#X obj 59 199 *~ 2;
#X obj 58 226 -~ 1;
#X obj 57 254 clip~ 0 1;
#X obj 159 202 *~ 2;
#X obj 158 229 -~ 1;
#X obj 157 257 clip~ 0 1;
#X obj 105 308 +~;
#X text 220 115 phase synchronization;
#X text 398 53 www.pd-tutorial.com;
#X text 403 29 Johannes Kreidler;
#X obj 190 90 loadbang;
#X obj 106 370 outlet~;
#X obj 99 46 inlet;
#X obj 107 328 *~ 2;
#X obj 106 349 hip~ 5;
#X text 412 77 adaption atte. 2018;
#X connect 0 0 1 0;
#X connect 0 0 3 0;
#X connect 1 0 4 0;
#X connect 2 0 4 1;
#X connect 2 0 3 1;
#X connect 3 0 5 0;
#X connect 4 0 8 0;
#X connect 5 0 6 0;
#X connect 6 0 7 0;
#X connect 7 0 11 0;
#X connect 8 0 9 0;
#X connect 9 0 10 0;
#X connect 10 0 11 1;
#X connect 11 0 18 0;
#X connect 15 0 2 0;
#X connect 17 0 0 0;
#X connect 18 0 19 0;
#X connect 19 0 16 0;
