#N canvas 645 284 620 472 10;
#X obj 42 263 vcf~;
#X obj 26 195 noise~;
#X obj 26 216 *~;
#X obj 21 162 vline~;
#X obj 77 152 mtof;
#X obj 64 327 *~ 100;
#X obj 237 190 / 128;
#X floatatom 237 211 5 0 0 0 - - -;
#X obj 237 231 pow 2;
#X obj 236 252 scale 0 1 500 -500;
#X obj 236 273 max 0;
#X msg 21 141 1 \, 0 1;
#X obj 79 270 scale 30 200 0.2 1;
#X obj 64 298 *~;
#X floatatom 73 228 5 0 0 0 - - -;
#X obj 21 51 inlet;
#X obj 100 51 inlet;
#X obj 21 72 t b f;
#X obj 30 404 outlet~;
#X obj 250 114 nbx 3 14 0 1 0 0 \$0-ring \$0-ring empty 0 -8 0 10 -262144
-1 -1 0.041625 256;
#X obj 100 72 clip 0 1;
#X obj 100 93 s \$0-ring;
#X obj 167 117 r \$0-ring;
#X obj 434 55 f;
#X obj 434 76 pack;
#X obj 383 30 savestate;
#X obj 383 92 unpack;
#X obj 449 29 r \$0-ring;
#X obj 383 118 s \$0-ring;
#X obj 323 150 spigot 1;
#X msg 348 80 0;
#X obj 323 129 ii 0.5;
#X obj 109 168 pipe 0.001;
#X obj 73 195 expr ($f1 + .01) * 1000;
#X connect 0 1 13 0;
#X connect 1 0 2 0;
#X connect 2 0 0 0;
#X connect 3 0 2 1;
#X connect 4 0 0 1;
#X connect 5 0 18 0;
#X connect 6 0 7 0;
#X connect 7 0 8 0;
#X connect 8 0 9 0;
#X connect 9 0 10 0;
#X connect 10 0 5 1;
#X connect 11 0 3 0;
#X connect 12 0 13 1;
#X connect 13 0 5 0;
#X connect 14 0 0 2;
#X connect 14 0 12 0;
#X connect 15 0 17 0;
#X connect 16 0 20 0;
#X connect 17 0 11 0;
#X connect 17 1 4 0;
#X connect 17 1 6 0;
#X connect 20 0 21 0;
#X connect 22 0 32 0;
#X connect 23 0 24 0;
#X connect 24 0 25 0;
#X connect 25 0 26 0;
#X connect 25 0 30 0;
#X connect 25 1 23 0;
#X connect 26 0 28 0;
#X connect 27 0 23 1;
#X connect 29 0 28 0;
#X connect 30 0 29 1;
#X connect 31 0 29 0;
#X connect 32 0 33 0;
#X connect 33 0 14 0;
#X coords 0 -1 1 1 36 28 1 250 100;
